%TF.GenerationSoftware,KiCad,Pcbnew,(6.0.9-0)*%
%TF.CreationDate,2023-03-14T17:35:55-07:00*%
%TF.ProjectId,MiniDusty,4d696e69-4475-4737-9479-2e6b69636164,rev?*%
%TF.SameCoordinates,Original*%
%TF.FileFunction,Copper,L2,Inr*%
%TF.FilePolarity,Positive*%
%FSLAX46Y46*%
G04 Gerber Fmt 4.6, Leading zero omitted, Abs format (unit mm)*
G04 Created by KiCad (PCBNEW (6.0.9-0)) date 2023-03-14 17:35:55*
%MOMM*%
%LPD*%
G01*
G04 APERTURE LIST*
%TA.AperFunction,ComponentPad*%
%ADD10R,1.700000X1.700000*%
%TD*%
%TA.AperFunction,ComponentPad*%
%ADD11O,1.700000X1.700000*%
%TD*%
%TA.AperFunction,ComponentPad*%
%ADD12C,0.600000*%
%TD*%
%TA.AperFunction,ComponentPad*%
%ADD13C,1.100000*%
%TD*%
%TA.AperFunction,ComponentPad*%
%ADD14R,1.600000X1.600000*%
%TD*%
%TA.AperFunction,ComponentPad*%
%ADD15C,1.600000*%
%TD*%
%TA.AperFunction,ViaPad*%
%ADD16C,0.800000*%
%TD*%
G04 APERTURE END LIST*
D10*
%TO.N,/M2OUT1*%
%TO.C,J3*%
X128758000Y-112322000D03*
D11*
%TO.N,+3V3*%
X128758000Y-109782000D03*
%TO.N,/Motor2PhaseB*%
X128758000Y-107242000D03*
%TO.N,/Motor2PhaseA*%
X128758000Y-104702000D03*
%TO.N,GND*%
X128758000Y-102162000D03*
%TO.N,/M2OUT2*%
X128758000Y-99622000D03*
%TD*%
D12*
%TO.N,N/C*%
%TO.C,U1*%
X135108000Y-92772000D03*
X135108000Y-93772000D03*
%TD*%
D13*
%TO.N,GND*%
%TO.C,J4*%
X139058000Y-111476000D03*
X139058000Y-115776000D03*
X143858000Y-115776000D03*
X143858000Y-111476000D03*
%TD*%
D14*
%TO.N,/+VBatt*%
%TO.C,C3*%
X147808000Y-97654888D03*
D15*
%TO.N,GND*%
X147808000Y-100154888D03*
%TD*%
D10*
%TO.N,/+VBatt*%
%TO.C,J1*%
X149352000Y-125721000D03*
D11*
%TO.N,GND*%
X149352000Y-123181000D03*
%TD*%
D14*
%TO.N,/+VBatt*%
%TO.C,C4*%
X126472000Y-92036000D03*
D15*
%TO.N,GND*%
X126472000Y-89536000D03*
%TD*%
D12*
%TO.N,N/C*%
%TO.C,U2*%
X147808000Y-93772000D03*
X147808000Y-92772000D03*
%TD*%
D10*
%TO.N,/M1OUT1*%
%TO.C,J2*%
X154158000Y-99622000D03*
D11*
%TO.N,+3V3*%
X154158000Y-102162000D03*
%TO.N,/Motor1PhaseB*%
X154158000Y-104702000D03*
%TO.N,/Motor1PhaseA*%
X154158000Y-107242000D03*
%TO.N,GND*%
X154158000Y-109782000D03*
%TO.N,/M1OUT2*%
X154158000Y-112322000D03*
%TD*%
D16*
%TO.N,GND*%
X143911117Y-84745592D03*
X142116643Y-83763909D03*
X143203883Y-83763909D03*
X144196122Y-83774464D03*
X143298885Y-82824449D03*
X142190533Y-81832210D03*
X143235550Y-81842765D03*
X144206678Y-81832210D03*
X100076000Y-92710000D03*
X138952076Y-98864851D03*
X138430000Y-121412000D03*
X150114000Y-92202000D03*
X137828500Y-98825428D03*
X138430000Y-119380000D03*
X138430000Y-120396000D03*
%TO.N,Net-(C1-Pad2)*%
X120904000Y-81788000D03*
X110490000Y-95211000D03*
%TO.N,/+VBatt*%
X158750000Y-93218000D03*
%TO.N,+3V3*%
X137414000Y-92456000D03*
X134620000Y-122682000D03*
X130302000Y-90170000D03*
X135636000Y-76454000D03*
X144018000Y-119888000D03*
X158670646Y-120209896D03*
X134296000Y-76638000D03*
X141732000Y-122800000D03*
X128524000Y-83820000D03*
X144145000Y-93091000D03*
X103715000Y-95333000D03*
X136906000Y-76454000D03*
X143383000Y-119253000D03*
%TO.N,/D+*%
X140950000Y-116166000D03*
X138156000Y-108546000D03*
%TO.N,/USB3V3*%
X141712000Y-101180000D03*
X135108000Y-97624000D03*
X144780000Y-96520000D03*
X143744000Y-101180000D03*
%TO.N,/V_USB_BUS*%
X150217220Y-119737220D03*
X145034000Y-117602000D03*
%TO.N,Net-(D2-Pad2)*%
X127762000Y-78740000D03*
X148082000Y-90678000D03*
%TO.N,Net-(D5-Pad1)*%
X146284000Y-101942000D03*
X135362000Y-102958000D03*
%TO.N,Net-(J4-PadB5)*%
X136742000Y-117292000D03*
X141966000Y-116166000D03*
%TO.N,/SDA*%
X118618000Y-85344000D03*
X101028500Y-90257000D03*
%TO.N,/SCL*%
X151638000Y-91948000D03*
X118618000Y-88646000D03*
X135128000Y-87156000D03*
X102298500Y-90257000D03*
%TO.N,/TX*%
X143568166Y-86418166D03*
X148590000Y-86360000D03*
%TO.N,/RX*%
X148590000Y-88900000D03*
X140738983Y-87398983D03*
%TO.N,/MotorSleepEN*%
X135636000Y-90424000D03*
X141809879Y-95344710D03*
%TO.N,/Motor1EN*%
X148824000Y-78320000D03*
X148336000Y-83854000D03*
%TO.N,/Motor1Phase*%
X148824000Y-76542000D03*
X146050000Y-83820000D03*
%TO.N,/Motor1PhaseA*%
X135382000Y-78994000D03*
%TO.N,/Motor1PhaseB*%
X135382000Y-81788000D03*
%TO.N,/Motor2PhaseB*%
X153416000Y-82042000D03*
%TO.N,/Motor2PhaseA*%
X153416000Y-84582000D03*
%TD*%
%TA.AperFunction,Conductor*%
%TO.N,+3V3*%
G36*
X127708573Y-74078927D02*
G01*
X127712000Y-74087200D01*
X127712000Y-75538000D01*
X154324313Y-75538000D01*
X154332586Y-75541427D01*
X154336013Y-75549700D01*
X154335226Y-75553918D01*
X154311258Y-75615871D01*
X154247896Y-75889233D01*
X154223683Y-76168796D01*
X154223706Y-76169215D01*
X154223706Y-76169220D01*
X154227141Y-76231627D01*
X154239103Y-76448982D01*
X154239183Y-76449386D01*
X154239184Y-76449391D01*
X154290254Y-76706136D01*
X154293847Y-76724200D01*
X154293981Y-76724582D01*
X154293982Y-76724585D01*
X154345903Y-76872432D01*
X154386824Y-76988959D01*
X154387013Y-76989324D01*
X154387014Y-76989325D01*
X154416556Y-77046196D01*
X154516177Y-77237976D01*
X154516416Y-77238311D01*
X154516417Y-77238312D01*
X154679093Y-77465954D01*
X154679097Y-77465959D01*
X154679328Y-77466282D01*
X154679602Y-77466570D01*
X154679606Y-77466574D01*
X154763251Y-77554256D01*
X154873019Y-77669323D01*
X155093387Y-77843047D01*
X155336034Y-77983987D01*
X155336418Y-77984143D01*
X155336421Y-77984144D01*
X155458265Y-78033496D01*
X155596119Y-78089333D01*
X155596515Y-78089431D01*
X155596517Y-78089432D01*
X155719286Y-78119928D01*
X155868452Y-78156981D01*
X156107760Y-78181500D01*
X156281492Y-78181500D01*
X156406213Y-78172669D01*
X156489502Y-78166772D01*
X156489505Y-78166772D01*
X156489909Y-78166743D01*
X156674072Y-78127094D01*
X156763825Y-78107771D01*
X156763827Y-78107770D01*
X156764233Y-78107683D01*
X156764621Y-78107540D01*
X156764624Y-78107539D01*
X156913324Y-78052680D01*
X157027499Y-78010559D01*
X157274453Y-77877310D01*
X157274785Y-77877065D01*
X157499834Y-77710842D01*
X157499839Y-77710838D01*
X157500169Y-77710594D01*
X157503257Y-77707555D01*
X157658902Y-77554334D01*
X157700142Y-77513737D01*
X157870383Y-77290668D01*
X157870581Y-77290315D01*
X157870584Y-77290310D01*
X158007294Y-77046196D01*
X158007294Y-77046195D01*
X158007495Y-77045837D01*
X158108742Y-76784129D01*
X158172104Y-76510767D01*
X158196317Y-76231204D01*
X158192883Y-76168796D01*
X160573683Y-76168796D01*
X160573706Y-76169215D01*
X160573706Y-76169220D01*
X160577141Y-76231627D01*
X160589103Y-76448982D01*
X160589183Y-76449386D01*
X160589184Y-76449391D01*
X160640254Y-76706136D01*
X160643847Y-76724200D01*
X160643981Y-76724582D01*
X160643982Y-76724585D01*
X160695903Y-76872432D01*
X160736824Y-76988959D01*
X160737013Y-76989324D01*
X160737014Y-76989325D01*
X160766556Y-77046196D01*
X160866177Y-77237976D01*
X160866416Y-77238311D01*
X160866417Y-77238312D01*
X161029093Y-77465954D01*
X161029097Y-77465959D01*
X161029328Y-77466282D01*
X161029602Y-77466570D01*
X161029606Y-77466574D01*
X161113251Y-77554256D01*
X161223019Y-77669323D01*
X161443387Y-77843047D01*
X161686034Y-77983987D01*
X161686418Y-77984143D01*
X161686421Y-77984144D01*
X161808265Y-78033496D01*
X161946119Y-78089333D01*
X161946515Y-78089431D01*
X161946517Y-78089432D01*
X162069286Y-78119928D01*
X162218452Y-78156981D01*
X162457760Y-78181500D01*
X162631492Y-78181500D01*
X162756213Y-78172669D01*
X162839502Y-78166772D01*
X162839505Y-78166772D01*
X162839909Y-78166743D01*
X163024072Y-78127094D01*
X163113825Y-78107771D01*
X163113827Y-78107770D01*
X163114233Y-78107683D01*
X163114621Y-78107540D01*
X163114624Y-78107539D01*
X163263324Y-78052680D01*
X163377499Y-78010559D01*
X163624453Y-77877310D01*
X163624785Y-77877065D01*
X163849834Y-77710842D01*
X163849839Y-77710838D01*
X163850169Y-77710594D01*
X163853257Y-77707555D01*
X164008902Y-77554334D01*
X164050142Y-77513737D01*
X164220383Y-77290668D01*
X164220581Y-77290315D01*
X164220584Y-77290310D01*
X164357294Y-77046196D01*
X164357294Y-77046195D01*
X164357495Y-77045837D01*
X164458742Y-76784129D01*
X164522104Y-76510767D01*
X164546317Y-76231204D01*
X164542883Y-76168796D01*
X164530920Y-75951436D01*
X164530897Y-75951018D01*
X164525272Y-75922735D01*
X164476233Y-75676201D01*
X164476232Y-75676198D01*
X164476153Y-75675800D01*
X164455247Y-75616269D01*
X164383313Y-75411430D01*
X164383311Y-75411425D01*
X164383176Y-75411041D01*
X164353631Y-75354163D01*
X164254013Y-75162390D01*
X164253823Y-75162024D01*
X164253583Y-75161688D01*
X164090907Y-74934046D01*
X164090903Y-74934041D01*
X164090672Y-74933718D01*
X164090398Y-74933430D01*
X164090394Y-74933426D01*
X163897269Y-74730979D01*
X163896981Y-74730677D01*
X163676613Y-74556953D01*
X163433966Y-74416013D01*
X163433582Y-74415857D01*
X163433579Y-74415856D01*
X163174264Y-74310822D01*
X163174262Y-74310821D01*
X163173881Y-74310667D01*
X163173485Y-74310569D01*
X163173483Y-74310568D01*
X162992948Y-74265723D01*
X162901548Y-74243019D01*
X162662240Y-74218500D01*
X162488508Y-74218500D01*
X162363787Y-74227331D01*
X162280498Y-74233228D01*
X162280495Y-74233228D01*
X162280091Y-74233257D01*
X162279691Y-74233343D01*
X162279692Y-74233343D01*
X162006175Y-74292229D01*
X162006173Y-74292230D01*
X162005767Y-74292317D01*
X162005379Y-74292460D01*
X162005376Y-74292461D01*
X161956027Y-74310667D01*
X161742501Y-74389441D01*
X161495547Y-74522690D01*
X161495217Y-74522934D01*
X161495215Y-74522935D01*
X161270166Y-74689158D01*
X161270161Y-74689162D01*
X161269831Y-74689406D01*
X161269539Y-74689693D01*
X161269536Y-74689696D01*
X161227600Y-74730979D01*
X161069858Y-74886263D01*
X160899617Y-75109332D01*
X160899419Y-75109685D01*
X160899416Y-75109690D01*
X160870296Y-75161688D01*
X160762505Y-75354163D01*
X160661258Y-75615871D01*
X160597896Y-75889233D01*
X160573683Y-76168796D01*
X158192883Y-76168796D01*
X158180920Y-75951436D01*
X158180897Y-75951018D01*
X158175272Y-75922735D01*
X158126233Y-75676201D01*
X158126232Y-75676198D01*
X158126153Y-75675800D01*
X158105247Y-75616269D01*
X158033313Y-75411430D01*
X158033311Y-75411425D01*
X158033176Y-75411041D01*
X158003631Y-75354163D01*
X157904013Y-75162390D01*
X157903823Y-75162024D01*
X157903583Y-75161688D01*
X157740907Y-74934046D01*
X157740903Y-74934041D01*
X157740672Y-74933718D01*
X157740398Y-74933430D01*
X157740394Y-74933426D01*
X157547269Y-74730979D01*
X157546981Y-74730677D01*
X157326613Y-74556953D01*
X157083966Y-74416013D01*
X157083582Y-74415857D01*
X157083579Y-74415856D01*
X156824264Y-74310822D01*
X156824262Y-74310821D01*
X156823881Y-74310667D01*
X156823485Y-74310569D01*
X156823483Y-74310568D01*
X156642948Y-74265723D01*
X156551548Y-74243019D01*
X156312240Y-74218500D01*
X156138508Y-74218500D01*
X155930091Y-74233257D01*
X155726162Y-74277161D01*
X155717353Y-74275552D01*
X155712262Y-74268185D01*
X155712000Y-74265723D01*
X155712000Y-74087200D01*
X155715427Y-74078927D01*
X155723700Y-74075500D01*
X177065415Y-74075500D01*
X177073688Y-74078927D01*
X177075538Y-74081333D01*
X189862923Y-96145837D01*
X189864500Y-96151704D01*
X189864500Y-114752455D01*
X189861073Y-114760728D01*
X189859055Y-114762342D01*
X170587094Y-126952438D01*
X169056337Y-127920688D01*
X169050083Y-127922500D01*
X113905917Y-127922500D01*
X113899663Y-127920688D01*
X112368906Y-126952438D01*
X111823035Y-126607158D01*
X148120500Y-126607158D01*
X148131538Y-126682144D01*
X148187513Y-126796151D01*
X148188199Y-126796835D01*
X148188199Y-126796836D01*
X148276714Y-126885197D01*
X148276717Y-126885199D01*
X148277399Y-126885880D01*
X148278267Y-126886304D01*
X148278268Y-126886305D01*
X148390686Y-126941256D01*
X148390688Y-126941257D01*
X148391503Y-126941655D01*
X148465842Y-126952500D01*
X150238158Y-126952500D01*
X150238583Y-126952437D01*
X150238589Y-126952437D01*
X150310943Y-126941786D01*
X150313144Y-126941462D01*
X150313965Y-126941059D01*
X150426280Y-126885915D01*
X150426282Y-126885914D01*
X150427151Y-126885487D01*
X150427836Y-126884801D01*
X150516197Y-126796286D01*
X150516199Y-126796283D01*
X150516880Y-126795601D01*
X150517305Y-126794732D01*
X150572256Y-126682314D01*
X150572257Y-126682312D01*
X150572655Y-126681497D01*
X150583500Y-126607158D01*
X150583500Y-124834842D01*
X150572462Y-124759856D01*
X150516487Y-124645849D01*
X150515801Y-124645164D01*
X150427286Y-124556803D01*
X150427283Y-124556801D01*
X150426601Y-124556120D01*
X150425732Y-124555695D01*
X150313314Y-124500744D01*
X150313312Y-124500743D01*
X150312497Y-124500345D01*
X150238158Y-124489500D01*
X148465842Y-124489500D01*
X148465417Y-124489563D01*
X148465411Y-124489563D01*
X148401741Y-124498936D01*
X148390856Y-124500538D01*
X148390036Y-124500941D01*
X148390035Y-124500941D01*
X148277720Y-124556085D01*
X148277718Y-124556086D01*
X148276849Y-124556513D01*
X148276165Y-124557199D01*
X148276164Y-124557199D01*
X148187803Y-124645714D01*
X148187801Y-124645717D01*
X148187120Y-124646399D01*
X148186696Y-124647267D01*
X148186695Y-124647268D01*
X148132063Y-124759035D01*
X148131345Y-124760503D01*
X148120500Y-124834842D01*
X148120500Y-126607158D01*
X111823035Y-126607158D01*
X108379148Y-124428796D01*
X112313683Y-124428796D01*
X112313706Y-124429215D01*
X112313706Y-124429220D01*
X112325591Y-124645164D01*
X112329103Y-124708982D01*
X112329183Y-124709386D01*
X112329184Y-124709391D01*
X112354052Y-124834411D01*
X112383847Y-124984200D01*
X112383981Y-124984582D01*
X112383982Y-124984585D01*
X112404893Y-125044129D01*
X112476824Y-125248959D01*
X112477013Y-125249324D01*
X112477014Y-125249325D01*
X112506556Y-125306196D01*
X112606177Y-125497976D01*
X112606416Y-125498311D01*
X112606417Y-125498312D01*
X112769093Y-125725954D01*
X112769097Y-125725959D01*
X112769328Y-125726282D01*
X112769602Y-125726570D01*
X112769606Y-125726574D01*
X112814876Y-125774029D01*
X112963019Y-125929323D01*
X113183387Y-126103047D01*
X113426034Y-126243987D01*
X113426418Y-126244143D01*
X113426421Y-126244144D01*
X113491982Y-126270699D01*
X113686119Y-126349333D01*
X113686515Y-126349431D01*
X113686517Y-126349432D01*
X113819168Y-126382383D01*
X113958452Y-126416981D01*
X114197760Y-126441500D01*
X114371492Y-126441500D01*
X114496213Y-126432669D01*
X114579502Y-126426772D01*
X114579505Y-126426772D01*
X114579909Y-126426743D01*
X114684093Y-126404313D01*
X114853825Y-126367771D01*
X114853827Y-126367770D01*
X114854233Y-126367683D01*
X114854621Y-126367540D01*
X114854624Y-126367539D01*
X115003324Y-126312680D01*
X115117499Y-126270559D01*
X115364453Y-126137310D01*
X115364785Y-126137065D01*
X115589834Y-125970842D01*
X115589839Y-125970838D01*
X115590169Y-125970594D01*
X115632094Y-125929323D01*
X115789845Y-125774029D01*
X115790142Y-125773737D01*
X115960383Y-125550668D01*
X115960581Y-125550315D01*
X115960584Y-125550310D01*
X116097294Y-125306196D01*
X116097294Y-125306195D01*
X116097495Y-125305837D01*
X116198742Y-125044129D01*
X116262104Y-124770767D01*
X116286317Y-124491204D01*
X116286224Y-124489500D01*
X116282883Y-124428796D01*
X125013683Y-124428796D01*
X125013706Y-124429215D01*
X125013706Y-124429220D01*
X125025591Y-124645164D01*
X125029103Y-124708982D01*
X125029183Y-124709386D01*
X125029184Y-124709391D01*
X125054052Y-124834411D01*
X125083847Y-124984200D01*
X125083981Y-124984582D01*
X125083982Y-124984585D01*
X125104893Y-125044129D01*
X125176824Y-125248959D01*
X125177013Y-125249324D01*
X125177014Y-125249325D01*
X125206556Y-125306196D01*
X125306177Y-125497976D01*
X125306416Y-125498311D01*
X125306417Y-125498312D01*
X125469093Y-125725954D01*
X125469097Y-125725959D01*
X125469328Y-125726282D01*
X125469602Y-125726570D01*
X125469606Y-125726574D01*
X125514876Y-125774029D01*
X125663019Y-125929323D01*
X125883387Y-126103047D01*
X126126034Y-126243987D01*
X126126418Y-126244143D01*
X126126421Y-126244144D01*
X126191982Y-126270699D01*
X126386119Y-126349333D01*
X126386515Y-126349431D01*
X126386517Y-126349432D01*
X126519168Y-126382383D01*
X126658452Y-126416981D01*
X126897760Y-126441500D01*
X127071492Y-126441500D01*
X127196213Y-126432669D01*
X127279502Y-126426772D01*
X127279505Y-126426772D01*
X127279909Y-126426743D01*
X127384093Y-126404313D01*
X127553825Y-126367771D01*
X127553827Y-126367770D01*
X127554233Y-126367683D01*
X127554621Y-126367540D01*
X127554624Y-126367539D01*
X127703324Y-126312680D01*
X127817499Y-126270559D01*
X128064453Y-126137310D01*
X128064785Y-126137065D01*
X128289834Y-125970842D01*
X128289839Y-125970838D01*
X128290169Y-125970594D01*
X128332094Y-125929323D01*
X128489845Y-125774029D01*
X128490142Y-125773737D01*
X128660383Y-125550668D01*
X128660581Y-125550315D01*
X128660584Y-125550310D01*
X128797294Y-125306196D01*
X128797294Y-125306195D01*
X128797495Y-125305837D01*
X128898742Y-125044129D01*
X128962104Y-124770767D01*
X128986317Y-124491204D01*
X128986224Y-124489500D01*
X128982883Y-124428796D01*
X152953683Y-124428796D01*
X152953706Y-124429215D01*
X152953706Y-124429220D01*
X152965591Y-124645164D01*
X152969103Y-124708982D01*
X152969183Y-124709386D01*
X152969184Y-124709391D01*
X152994052Y-124834411D01*
X153023847Y-124984200D01*
X153023981Y-124984582D01*
X153023982Y-124984585D01*
X153044893Y-125044129D01*
X153116824Y-125248959D01*
X153117013Y-125249324D01*
X153117014Y-125249325D01*
X153146556Y-125306196D01*
X153246177Y-125497976D01*
X153246416Y-125498311D01*
X153246417Y-125498312D01*
X153409093Y-125725954D01*
X153409097Y-125725959D01*
X153409328Y-125726282D01*
X153409602Y-125726570D01*
X153409606Y-125726574D01*
X153454876Y-125774029D01*
X153603019Y-125929323D01*
X153823387Y-126103047D01*
X154066034Y-126243987D01*
X154066418Y-126244143D01*
X154066421Y-126244144D01*
X154131982Y-126270699D01*
X154326119Y-126349333D01*
X154326515Y-126349431D01*
X154326517Y-126349432D01*
X154459168Y-126382383D01*
X154598452Y-126416981D01*
X154837760Y-126441500D01*
X155011492Y-126441500D01*
X155136213Y-126432669D01*
X155219502Y-126426772D01*
X155219505Y-126426772D01*
X155219909Y-126426743D01*
X155324093Y-126404313D01*
X155493825Y-126367771D01*
X155493827Y-126367770D01*
X155494233Y-126367683D01*
X155494621Y-126367540D01*
X155494624Y-126367539D01*
X155643324Y-126312680D01*
X155757499Y-126270559D01*
X156004453Y-126137310D01*
X156004785Y-126137065D01*
X156229834Y-125970842D01*
X156229839Y-125970838D01*
X156230169Y-125970594D01*
X156272094Y-125929323D01*
X156429845Y-125774029D01*
X156430142Y-125773737D01*
X156600383Y-125550668D01*
X156600581Y-125550315D01*
X156600584Y-125550310D01*
X156737294Y-125306196D01*
X156737294Y-125306195D01*
X156737495Y-125305837D01*
X156838742Y-125044129D01*
X156902104Y-124770767D01*
X156926317Y-124491204D01*
X156926224Y-124489500D01*
X156922883Y-124428796D01*
X165653683Y-124428796D01*
X165653706Y-124429215D01*
X165653706Y-124429220D01*
X165665591Y-124645164D01*
X165669103Y-124708982D01*
X165669183Y-124709386D01*
X165669184Y-124709391D01*
X165694052Y-124834411D01*
X165723847Y-124984200D01*
X165723981Y-124984582D01*
X165723982Y-124984585D01*
X165744893Y-125044129D01*
X165816824Y-125248959D01*
X165817013Y-125249324D01*
X165817014Y-125249325D01*
X165846556Y-125306196D01*
X165946177Y-125497976D01*
X165946416Y-125498311D01*
X165946417Y-125498312D01*
X166109093Y-125725954D01*
X166109097Y-125725959D01*
X166109328Y-125726282D01*
X166109602Y-125726570D01*
X166109606Y-125726574D01*
X166154876Y-125774029D01*
X166303019Y-125929323D01*
X166523387Y-126103047D01*
X166766034Y-126243987D01*
X166766418Y-126244143D01*
X166766421Y-126244144D01*
X166831982Y-126270699D01*
X167026119Y-126349333D01*
X167026515Y-126349431D01*
X167026517Y-126349432D01*
X167159168Y-126382383D01*
X167298452Y-126416981D01*
X167537760Y-126441500D01*
X167711492Y-126441500D01*
X167836213Y-126432669D01*
X167919502Y-126426772D01*
X167919505Y-126426772D01*
X167919909Y-126426743D01*
X168024093Y-126404313D01*
X168193825Y-126367771D01*
X168193827Y-126367770D01*
X168194233Y-126367683D01*
X168194621Y-126367540D01*
X168194624Y-126367539D01*
X168343324Y-126312680D01*
X168457499Y-126270559D01*
X168704453Y-126137310D01*
X168704785Y-126137065D01*
X168929834Y-125970842D01*
X168929839Y-125970838D01*
X168930169Y-125970594D01*
X168972094Y-125929323D01*
X169129845Y-125774029D01*
X169130142Y-125773737D01*
X169300383Y-125550668D01*
X169300581Y-125550315D01*
X169300584Y-125550310D01*
X169437294Y-125306196D01*
X169437294Y-125306195D01*
X169437495Y-125305837D01*
X169538742Y-125044129D01*
X169602104Y-124770767D01*
X169626317Y-124491204D01*
X169626224Y-124489500D01*
X169610920Y-124211436D01*
X169610897Y-124211018D01*
X169598689Y-124149641D01*
X169556233Y-123936201D01*
X169556232Y-123936198D01*
X169556153Y-123935800D01*
X169535247Y-123876269D01*
X169463313Y-123671430D01*
X169463311Y-123671425D01*
X169463176Y-123671041D01*
X169433631Y-123614163D01*
X169334013Y-123422390D01*
X169333823Y-123422024D01*
X169333583Y-123421688D01*
X169170907Y-123194046D01*
X169170903Y-123194041D01*
X169170672Y-123193718D01*
X169170398Y-123193430D01*
X169170394Y-123193426D01*
X168977269Y-122990979D01*
X168976981Y-122990677D01*
X168756613Y-122816953D01*
X168513966Y-122676013D01*
X168513582Y-122675857D01*
X168513579Y-122675856D01*
X168254264Y-122570822D01*
X168254262Y-122570821D01*
X168253881Y-122570667D01*
X168253485Y-122570569D01*
X168253483Y-122570568D01*
X168120832Y-122537617D01*
X167981548Y-122503019D01*
X167742240Y-122478500D01*
X167568508Y-122478500D01*
X167443787Y-122487331D01*
X167360498Y-122493228D01*
X167360495Y-122493228D01*
X167360091Y-122493257D01*
X167359691Y-122493343D01*
X167359692Y-122493343D01*
X167086175Y-122552229D01*
X167086173Y-122552230D01*
X167085767Y-122552317D01*
X167085379Y-122552460D01*
X167085376Y-122552461D01*
X167036027Y-122570667D01*
X166822501Y-122649441D01*
X166575547Y-122782690D01*
X166575217Y-122782934D01*
X166575215Y-122782935D01*
X166350166Y-122949158D01*
X166350161Y-122949162D01*
X166349831Y-122949406D01*
X166349539Y-122949693D01*
X166349536Y-122949696D01*
X166307600Y-122990979D01*
X166149858Y-123146263D01*
X165979617Y-123369332D01*
X165979419Y-123369685D01*
X165979416Y-123369690D01*
X165964593Y-123396159D01*
X165842505Y-123614163D01*
X165741258Y-123875871D01*
X165677896Y-124149233D01*
X165653683Y-124428796D01*
X156922883Y-124428796D01*
X156910920Y-124211436D01*
X156910897Y-124211018D01*
X156898689Y-124149641D01*
X156856233Y-123936201D01*
X156856232Y-123936198D01*
X156856153Y-123935800D01*
X156835247Y-123876269D01*
X156763313Y-123671430D01*
X156763311Y-123671425D01*
X156763176Y-123671041D01*
X156733631Y-123614163D01*
X156634013Y-123422390D01*
X156633823Y-123422024D01*
X156633583Y-123421688D01*
X156470907Y-123194046D01*
X156470903Y-123194041D01*
X156470672Y-123193718D01*
X156470398Y-123193430D01*
X156470394Y-123193426D01*
X156277269Y-122990979D01*
X156276981Y-122990677D01*
X156056613Y-122816953D01*
X155813966Y-122676013D01*
X155813582Y-122675857D01*
X155813579Y-122675856D01*
X155554264Y-122570822D01*
X155554262Y-122570821D01*
X155553881Y-122570667D01*
X155553485Y-122570569D01*
X155553483Y-122570568D01*
X155420832Y-122537617D01*
X155281548Y-122503019D01*
X155042240Y-122478500D01*
X154868508Y-122478500D01*
X154743787Y-122487331D01*
X154660498Y-122493228D01*
X154660495Y-122493228D01*
X154660091Y-122493257D01*
X154659691Y-122493343D01*
X154659692Y-122493343D01*
X154386175Y-122552229D01*
X154386173Y-122552230D01*
X154385767Y-122552317D01*
X154385379Y-122552460D01*
X154385376Y-122552461D01*
X154336027Y-122570667D01*
X154122501Y-122649441D01*
X153875547Y-122782690D01*
X153875217Y-122782934D01*
X153875215Y-122782935D01*
X153650166Y-122949158D01*
X153650161Y-122949162D01*
X153649831Y-122949406D01*
X153649539Y-122949693D01*
X153649536Y-122949696D01*
X153607600Y-122990979D01*
X153449858Y-123146263D01*
X153279617Y-123369332D01*
X153279419Y-123369685D01*
X153279416Y-123369690D01*
X153264593Y-123396159D01*
X153142505Y-123614163D01*
X153041258Y-123875871D01*
X152977896Y-124149233D01*
X152953683Y-124428796D01*
X128982883Y-124428796D01*
X128970920Y-124211436D01*
X128970897Y-124211018D01*
X128958689Y-124149641D01*
X128916233Y-123936201D01*
X128916232Y-123936198D01*
X128916153Y-123935800D01*
X128895247Y-123876269D01*
X128823313Y-123671430D01*
X128823311Y-123671425D01*
X128823176Y-123671041D01*
X128793631Y-123614163D01*
X128694013Y-123422390D01*
X128693823Y-123422024D01*
X128693583Y-123421688D01*
X128530907Y-123194046D01*
X128530903Y-123194041D01*
X128530672Y-123193718D01*
X128530398Y-123193430D01*
X128530394Y-123193426D01*
X128518540Y-123181000D01*
X148115796Y-123181000D01*
X148115841Y-123181514D01*
X148132245Y-123369006D01*
X148134577Y-123395665D01*
X148134708Y-123396155D01*
X148134709Y-123396159D01*
X148141738Y-123422390D01*
X148190348Y-123603807D01*
X148190563Y-123604267D01*
X148190564Y-123604271D01*
X148195177Y-123614163D01*
X148281416Y-123799102D01*
X148405013Y-123975617D01*
X148557383Y-124127987D01*
X148733898Y-124251584D01*
X148821747Y-124292549D01*
X148928729Y-124342436D01*
X148928733Y-124342437D01*
X148929193Y-124342652D01*
X148929689Y-124342785D01*
X148929692Y-124342786D01*
X149136841Y-124398291D01*
X149136845Y-124398292D01*
X149137335Y-124398423D01*
X149137839Y-124398467D01*
X149137844Y-124398468D01*
X149351486Y-124417159D01*
X149352000Y-124417204D01*
X149352514Y-124417159D01*
X149566156Y-124398468D01*
X149566161Y-124398467D01*
X149566665Y-124398423D01*
X149567155Y-124398292D01*
X149567159Y-124398291D01*
X149774308Y-124342786D01*
X149774311Y-124342785D01*
X149774807Y-124342652D01*
X149775267Y-124342437D01*
X149775271Y-124342436D01*
X149882253Y-124292549D01*
X149970102Y-124251584D01*
X150146617Y-124127987D01*
X150298987Y-123975617D01*
X150422584Y-123799102D01*
X150508823Y-123614163D01*
X150513436Y-123604271D01*
X150513437Y-123604267D01*
X150513652Y-123603807D01*
X150562262Y-123422390D01*
X150569291Y-123396159D01*
X150569292Y-123396155D01*
X150569423Y-123395665D01*
X150571756Y-123369006D01*
X150588159Y-123181514D01*
X150588204Y-123181000D01*
X150585139Y-123145971D01*
X150569468Y-122966844D01*
X150569467Y-122966839D01*
X150569423Y-122966335D01*
X150564821Y-122949158D01*
X150513786Y-122758692D01*
X150513785Y-122758689D01*
X150513652Y-122758193D01*
X150475258Y-122675856D01*
X150426279Y-122570822D01*
X150422584Y-122562898D01*
X150415114Y-122552229D01*
X150299282Y-122386805D01*
X150298987Y-122386383D01*
X150146617Y-122234013D01*
X149995793Y-122128405D01*
X149970525Y-122110712D01*
X149970523Y-122110711D01*
X149970102Y-122110416D01*
X149882253Y-122069451D01*
X149775271Y-122019564D01*
X149775267Y-122019563D01*
X149774807Y-122019348D01*
X149774311Y-122019215D01*
X149774308Y-122019214D01*
X149567159Y-121963709D01*
X149567155Y-121963708D01*
X149566665Y-121963577D01*
X149566161Y-121963533D01*
X149566156Y-121963532D01*
X149352514Y-121944841D01*
X149352000Y-121944796D01*
X149351486Y-121944841D01*
X149137844Y-121963532D01*
X149137839Y-121963533D01*
X149137335Y-121963577D01*
X149136845Y-121963708D01*
X149136841Y-121963709D01*
X148929692Y-122019214D01*
X148929689Y-122019215D01*
X148929193Y-122019348D01*
X148928733Y-122019563D01*
X148928729Y-122019564D01*
X148821747Y-122069451D01*
X148733898Y-122110416D01*
X148733477Y-122110711D01*
X148733475Y-122110712D01*
X148708207Y-122128405D01*
X148557383Y-122234013D01*
X148405013Y-122386383D01*
X148404718Y-122386805D01*
X148288887Y-122552229D01*
X148281416Y-122562898D01*
X148277721Y-122570822D01*
X148228743Y-122675856D01*
X148190348Y-122758193D01*
X148190215Y-122758689D01*
X148190214Y-122758692D01*
X148139180Y-122949158D01*
X148134577Y-122966335D01*
X148134533Y-122966839D01*
X148134532Y-122966844D01*
X148118861Y-123145971D01*
X148115796Y-123181000D01*
X128518540Y-123181000D01*
X128337269Y-122990979D01*
X128336981Y-122990677D01*
X128116613Y-122816953D01*
X127873966Y-122676013D01*
X127873582Y-122675857D01*
X127873579Y-122675856D01*
X127614264Y-122570822D01*
X127614262Y-122570821D01*
X127613881Y-122570667D01*
X127613485Y-122570569D01*
X127613483Y-122570568D01*
X127480832Y-122537617D01*
X127341548Y-122503019D01*
X127102240Y-122478500D01*
X126928508Y-122478500D01*
X126803787Y-122487331D01*
X126720498Y-122493228D01*
X126720495Y-122493228D01*
X126720091Y-122493257D01*
X126719691Y-122493343D01*
X126719692Y-122493343D01*
X126446175Y-122552229D01*
X126446173Y-122552230D01*
X126445767Y-122552317D01*
X126445379Y-122552460D01*
X126445376Y-122552461D01*
X126396027Y-122570667D01*
X126182501Y-122649441D01*
X125935547Y-122782690D01*
X125935217Y-122782934D01*
X125935215Y-122782935D01*
X125710166Y-122949158D01*
X125710161Y-122949162D01*
X125709831Y-122949406D01*
X125709539Y-122949693D01*
X125709536Y-122949696D01*
X125667600Y-122990979D01*
X125509858Y-123146263D01*
X125339617Y-123369332D01*
X125339419Y-123369685D01*
X125339416Y-123369690D01*
X125324593Y-123396159D01*
X125202505Y-123614163D01*
X125101258Y-123875871D01*
X125037896Y-124149233D01*
X125013683Y-124428796D01*
X116282883Y-124428796D01*
X116270920Y-124211436D01*
X116270897Y-124211018D01*
X116258689Y-124149641D01*
X116216233Y-123936201D01*
X116216232Y-123936198D01*
X116216153Y-123935800D01*
X116195247Y-123876269D01*
X116123313Y-123671430D01*
X116123311Y-123671425D01*
X116123176Y-123671041D01*
X116093631Y-123614163D01*
X115994013Y-123422390D01*
X115993823Y-123422024D01*
X115993583Y-123421688D01*
X115830907Y-123194046D01*
X115830903Y-123194041D01*
X115830672Y-123193718D01*
X115830398Y-123193430D01*
X115830394Y-123193426D01*
X115637269Y-122990979D01*
X115636981Y-122990677D01*
X115416613Y-122816953D01*
X115173966Y-122676013D01*
X115173582Y-122675857D01*
X115173579Y-122675856D01*
X114914264Y-122570822D01*
X114914262Y-122570821D01*
X114913881Y-122570667D01*
X114913485Y-122570569D01*
X114913483Y-122570568D01*
X114780832Y-122537617D01*
X114641548Y-122503019D01*
X114402240Y-122478500D01*
X114228508Y-122478500D01*
X114103787Y-122487331D01*
X114020498Y-122493228D01*
X114020495Y-122493228D01*
X114020091Y-122493257D01*
X114019691Y-122493343D01*
X114019692Y-122493343D01*
X113746175Y-122552229D01*
X113746173Y-122552230D01*
X113745767Y-122552317D01*
X113745379Y-122552460D01*
X113745376Y-122552461D01*
X113696027Y-122570667D01*
X113482501Y-122649441D01*
X113235547Y-122782690D01*
X113235217Y-122782934D01*
X113235215Y-122782935D01*
X113010166Y-122949158D01*
X113010161Y-122949162D01*
X113009831Y-122949406D01*
X113009539Y-122949693D01*
X113009536Y-122949696D01*
X112967600Y-122990979D01*
X112809858Y-123146263D01*
X112639617Y-123369332D01*
X112639419Y-123369685D01*
X112639416Y-123369690D01*
X112624593Y-123396159D01*
X112502505Y-123614163D01*
X112401258Y-123875871D01*
X112337896Y-124149233D01*
X112313683Y-124428796D01*
X108379148Y-124428796D01*
X103592379Y-121401020D01*
X137643632Y-121401020D01*
X137660741Y-121575511D01*
X137716083Y-121741876D01*
X137806908Y-121891846D01*
X137807359Y-121892313D01*
X137876135Y-121963532D01*
X137928701Y-122017966D01*
X137929243Y-122018321D01*
X137929247Y-122018324D01*
X138022416Y-122079292D01*
X138075410Y-122113970D01*
X138076027Y-122114199D01*
X138076026Y-122114199D01*
X138239123Y-122174854D01*
X138239125Y-122174854D01*
X138239742Y-122175084D01*
X138355714Y-122190558D01*
X138412884Y-122198187D01*
X138412886Y-122198187D01*
X138413530Y-122198273D01*
X138462950Y-122193775D01*
X138587481Y-122182442D01*
X138587484Y-122182441D01*
X138588137Y-122182382D01*
X138588763Y-122182179D01*
X138588766Y-122182178D01*
X138754263Y-122128405D01*
X138754265Y-122128404D01*
X138754884Y-122128203D01*
X138905484Y-122038427D01*
X139032452Y-121917517D01*
X139049198Y-121892313D01*
X139060580Y-121875181D01*
X139129477Y-121771482D01*
X139191737Y-121607581D01*
X139216138Y-121433959D01*
X139216445Y-121412000D01*
X139215287Y-121401673D01*
X139196974Y-121238413D01*
X139196974Y-121238411D01*
X139196901Y-121237764D01*
X139139242Y-121072188D01*
X139046332Y-120923501D01*
X139035988Y-120913085D01*
X139032590Y-120904800D01*
X139034545Y-120898367D01*
X139129477Y-120755482D01*
X139191737Y-120591581D01*
X139216138Y-120417959D01*
X139216445Y-120396000D01*
X139215287Y-120385673D01*
X139196974Y-120222413D01*
X139196974Y-120222411D01*
X139196901Y-120221764D01*
X139139242Y-120056188D01*
X139046332Y-119907501D01*
X139035988Y-119897085D01*
X139032590Y-119888800D01*
X139034545Y-119882367D01*
X139129477Y-119739482D01*
X139134507Y-119726240D01*
X149430852Y-119726240D01*
X149447961Y-119900731D01*
X149503303Y-120067096D01*
X149594128Y-120217066D01*
X149715921Y-120343186D01*
X149716463Y-120343541D01*
X149716467Y-120343544D01*
X149796068Y-120395633D01*
X149862630Y-120439190D01*
X149863247Y-120439419D01*
X149863246Y-120439419D01*
X150026343Y-120500074D01*
X150026345Y-120500074D01*
X150026962Y-120500304D01*
X150142934Y-120515778D01*
X150200104Y-120523407D01*
X150200106Y-120523407D01*
X150200750Y-120523493D01*
X150250170Y-120518995D01*
X150374701Y-120507662D01*
X150374704Y-120507661D01*
X150375357Y-120507602D01*
X150375983Y-120507399D01*
X150375986Y-120507398D01*
X150541483Y-120453625D01*
X150541485Y-120453624D01*
X150542104Y-120453423D01*
X150692704Y-120363647D01*
X150819672Y-120242737D01*
X150836418Y-120217533D01*
X150847800Y-120200401D01*
X150916697Y-120096702D01*
X150928178Y-120066479D01*
X150978725Y-119933413D01*
X150978726Y-119933409D01*
X150978957Y-119932801D01*
X151003358Y-119759179D01*
X151003665Y-119737220D01*
X151002507Y-119726893D01*
X150984194Y-119563633D01*
X150984194Y-119563631D01*
X150984121Y-119562984D01*
X150926462Y-119397408D01*
X150833552Y-119248721D01*
X150710009Y-119124314D01*
X150698718Y-119117148D01*
X150578421Y-119040805D01*
X150561975Y-119030368D01*
X150396805Y-118971554D01*
X150396155Y-118971477D01*
X150396153Y-118971476D01*
X150223360Y-118950871D01*
X150223355Y-118950871D01*
X150222710Y-118950794D01*
X150048342Y-118969121D01*
X149882368Y-119025623D01*
X149733036Y-119117493D01*
X149732565Y-119117954D01*
X149732564Y-119117955D01*
X149725600Y-119124775D01*
X149607769Y-119240164D01*
X149512792Y-119387539D01*
X149452826Y-119552294D01*
X149430852Y-119726240D01*
X139134507Y-119726240D01*
X139191737Y-119575581D01*
X139216138Y-119401959D01*
X139216445Y-119380000D01*
X139215287Y-119369673D01*
X139196974Y-119206413D01*
X139196974Y-119206411D01*
X139196901Y-119205764D01*
X139139242Y-119040188D01*
X139046332Y-118891501D01*
X138922789Y-118767094D01*
X138911498Y-118759928D01*
X138775303Y-118673496D01*
X138774755Y-118673148D01*
X138609585Y-118614334D01*
X138608935Y-118614257D01*
X138608933Y-118614256D01*
X138436140Y-118593651D01*
X138436135Y-118593651D01*
X138435490Y-118593574D01*
X138261122Y-118611901D01*
X138095148Y-118668403D01*
X137945816Y-118760273D01*
X137945345Y-118760734D01*
X137945344Y-118760735D01*
X137938380Y-118767555D01*
X137820549Y-118882944D01*
X137725572Y-119030319D01*
X137665606Y-119195074D01*
X137643632Y-119369020D01*
X137660741Y-119543511D01*
X137716083Y-119709876D01*
X137806908Y-119859846D01*
X137807359Y-119860313D01*
X137824872Y-119878448D01*
X137828154Y-119886780D01*
X137824643Y-119894934D01*
X137822447Y-119897085D01*
X137820549Y-119898944D01*
X137820196Y-119899492D01*
X137820195Y-119899493D01*
X137798335Y-119933413D01*
X137725572Y-120046319D01*
X137665606Y-120211074D01*
X137643632Y-120385020D01*
X137660741Y-120559511D01*
X137716083Y-120725876D01*
X137806908Y-120875846D01*
X137807359Y-120876313D01*
X137824872Y-120894448D01*
X137828154Y-120902780D01*
X137824643Y-120910934D01*
X137822447Y-120913085D01*
X137820549Y-120914944D01*
X137725572Y-121062319D01*
X137665606Y-121227074D01*
X137643632Y-121401020D01*
X103592379Y-121401020D01*
X97078855Y-117281020D01*
X135955632Y-117281020D01*
X135972741Y-117455511D01*
X136028083Y-117621876D01*
X136118908Y-117771846D01*
X136240701Y-117897966D01*
X136241243Y-117898321D01*
X136241247Y-117898324D01*
X136293370Y-117932432D01*
X136387410Y-117993970D01*
X136388027Y-117994199D01*
X136388026Y-117994199D01*
X136551123Y-118054854D01*
X136551125Y-118054854D01*
X136551742Y-118055084D01*
X136667714Y-118070558D01*
X136724884Y-118078187D01*
X136724886Y-118078187D01*
X136725530Y-118078273D01*
X136774950Y-118073775D01*
X136899481Y-118062442D01*
X136899484Y-118062441D01*
X136900137Y-118062382D01*
X136900763Y-118062179D01*
X136900766Y-118062178D01*
X137066263Y-118008405D01*
X137066265Y-118008404D01*
X137066884Y-118008203D01*
X137169020Y-117947318D01*
X137216924Y-117918761D01*
X137216925Y-117918760D01*
X137217484Y-117918427D01*
X137344452Y-117797517D01*
X137344840Y-117796934D01*
X137372580Y-117755181D01*
X137441477Y-117651482D01*
X137460134Y-117602367D01*
X137464444Y-117591020D01*
X144247632Y-117591020D01*
X144264741Y-117765511D01*
X144320083Y-117931876D01*
X144410908Y-118081846D01*
X144532701Y-118207966D01*
X144533243Y-118208321D01*
X144533247Y-118208324D01*
X144626416Y-118269292D01*
X144679410Y-118303970D01*
X144680027Y-118304199D01*
X144680026Y-118304199D01*
X144843123Y-118364854D01*
X144843125Y-118364854D01*
X144843742Y-118365084D01*
X144959714Y-118380558D01*
X145016884Y-118388187D01*
X145016886Y-118388187D01*
X145017530Y-118388273D01*
X145066950Y-118383775D01*
X145191481Y-118372442D01*
X145191484Y-118372441D01*
X145192137Y-118372382D01*
X145192763Y-118372179D01*
X145192766Y-118372178D01*
X145358263Y-118318405D01*
X145358265Y-118318404D01*
X145358884Y-118318203D01*
X145509484Y-118228427D01*
X145636452Y-118107517D01*
X145653198Y-118082313D01*
X145671441Y-118054854D01*
X145733477Y-117961482D01*
X145750003Y-117917978D01*
X145795505Y-117798193D01*
X145795506Y-117798189D01*
X145795737Y-117797581D01*
X145820138Y-117623959D01*
X145820445Y-117602000D01*
X145819287Y-117591673D01*
X145800974Y-117428413D01*
X145800974Y-117428411D01*
X145800901Y-117427764D01*
X145743242Y-117262188D01*
X145650332Y-117113501D01*
X145526789Y-116989094D01*
X145515498Y-116981928D01*
X145379303Y-116895496D01*
X145378755Y-116895148D01*
X145213585Y-116836334D01*
X145212935Y-116836257D01*
X145212933Y-116836256D01*
X145040140Y-116815651D01*
X145040135Y-116815651D01*
X145039490Y-116815574D01*
X144865122Y-116833901D01*
X144699148Y-116890403D01*
X144549816Y-116982273D01*
X144549345Y-116982734D01*
X144549344Y-116982735D01*
X144542380Y-116989555D01*
X144424549Y-117104944D01*
X144329572Y-117252319D01*
X144269606Y-117417074D01*
X144247632Y-117591020D01*
X137464444Y-117591020D01*
X137503505Y-117488193D01*
X137503506Y-117488189D01*
X137503737Y-117487581D01*
X137528138Y-117313959D01*
X137528445Y-117292000D01*
X137527287Y-117281673D01*
X137508974Y-117118413D01*
X137508974Y-117118411D01*
X137508901Y-117117764D01*
X137463973Y-116988746D01*
X137451457Y-116952805D01*
X137451456Y-116952804D01*
X137451242Y-116952188D01*
X137358332Y-116803501D01*
X137234789Y-116679094D01*
X137223498Y-116671928D01*
X137160772Y-116632121D01*
X137086755Y-116585148D01*
X136921585Y-116526334D01*
X136920935Y-116526257D01*
X136920933Y-116526256D01*
X136748140Y-116505651D01*
X136748135Y-116505651D01*
X136747490Y-116505574D01*
X136573122Y-116523901D01*
X136407148Y-116580403D01*
X136257816Y-116672273D01*
X136257345Y-116672734D01*
X136257344Y-116672735D01*
X136205096Y-116723900D01*
X136132549Y-116794944D01*
X136132196Y-116795492D01*
X136132195Y-116795493D01*
X136105925Y-116836256D01*
X136037572Y-116942319D01*
X135977606Y-117107074D01*
X135955632Y-117281020D01*
X97078855Y-117281020D01*
X93428404Y-114972000D01*
X95402350Y-114972000D01*
X95402386Y-114972457D01*
X95414538Y-115126859D01*
X95422118Y-115223179D01*
X95422223Y-115223618D01*
X95422224Y-115223622D01*
X95478853Y-115459496D01*
X95480936Y-115468173D01*
X95481110Y-115468594D01*
X95481112Y-115468599D01*
X95520721Y-115564223D01*
X95577355Y-115700950D01*
X95577594Y-115701340D01*
X95577595Y-115701342D01*
X95708766Y-115915392D01*
X95709002Y-115915777D01*
X95872634Y-116107366D01*
X96064223Y-116270998D01*
X96064607Y-116271234D01*
X96064608Y-116271234D01*
X96213039Y-116362193D01*
X96279050Y-116402645D01*
X96368441Y-116439672D01*
X96511401Y-116498888D01*
X96511406Y-116498890D01*
X96511827Y-116499064D01*
X96512266Y-116499169D01*
X96512271Y-116499171D01*
X96756378Y-116557776D01*
X96756382Y-116557777D01*
X96756821Y-116557882D01*
X96757274Y-116557918D01*
X96757276Y-116557918D01*
X97007543Y-116577614D01*
X97008000Y-116577650D01*
X97008457Y-116577614D01*
X97258724Y-116557918D01*
X97258726Y-116557918D01*
X97259179Y-116557882D01*
X97259618Y-116557777D01*
X97259622Y-116557776D01*
X97503729Y-116499171D01*
X97503734Y-116499169D01*
X97504173Y-116499064D01*
X97504594Y-116498890D01*
X97504599Y-116498888D01*
X97647559Y-116439672D01*
X97736950Y-116402645D01*
X97802962Y-116362193D01*
X97951392Y-116271234D01*
X97951393Y-116271234D01*
X97951777Y-116270998D01*
X98143366Y-116107366D01*
X98306998Y-115915777D01*
X98307234Y-115915392D01*
X98392654Y-115776000D01*
X138121369Y-115776000D01*
X138141837Y-115970737D01*
X138202345Y-116156962D01*
X138300250Y-116326538D01*
X138431272Y-116472052D01*
X138589684Y-116587146D01*
X138768565Y-116666789D01*
X138796539Y-116672735D01*
X138959491Y-116707372D01*
X138959495Y-116707372D01*
X138960095Y-116707500D01*
X139155905Y-116707500D01*
X139156505Y-116707372D01*
X139156509Y-116707372D01*
X139319461Y-116672735D01*
X139347435Y-116666789D01*
X139526316Y-116587146D01*
X139684728Y-116472052D01*
X139815750Y-116326538D01*
X139913655Y-116156962D01*
X139914286Y-116155020D01*
X140163632Y-116155020D01*
X140180741Y-116329511D01*
X140236083Y-116495876D01*
X140326908Y-116645846D01*
X140327359Y-116646313D01*
X140444831Y-116767958D01*
X140448701Y-116771966D01*
X140449243Y-116772321D01*
X140449247Y-116772324D01*
X140515446Y-116815643D01*
X140595410Y-116867970D01*
X140596027Y-116868199D01*
X140596026Y-116868199D01*
X140759123Y-116928854D01*
X140759125Y-116928854D01*
X140759742Y-116929084D01*
X140858931Y-116942319D01*
X140932884Y-116952187D01*
X140932886Y-116952187D01*
X140933530Y-116952273D01*
X140982950Y-116947775D01*
X141107481Y-116936442D01*
X141107484Y-116936441D01*
X141108137Y-116936382D01*
X141108763Y-116936179D01*
X141108766Y-116936178D01*
X141274263Y-116882405D01*
X141274265Y-116882404D01*
X141274884Y-116882203D01*
X141425484Y-116792427D01*
X141447794Y-116771182D01*
X141456148Y-116767958D01*
X141463616Y-116771237D01*
X141463746Y-116771080D01*
X141464241Y-116771489D01*
X141464701Y-116771966D01*
X141611410Y-116867970D01*
X141612027Y-116868199D01*
X141612026Y-116868199D01*
X141775123Y-116928854D01*
X141775125Y-116928854D01*
X141775742Y-116929084D01*
X141874931Y-116942319D01*
X141948884Y-116952187D01*
X141948886Y-116952187D01*
X141949530Y-116952273D01*
X141998950Y-116947775D01*
X142123481Y-116936442D01*
X142123484Y-116936441D01*
X142124137Y-116936382D01*
X142124763Y-116936179D01*
X142124766Y-116936178D01*
X142290263Y-116882405D01*
X142290265Y-116882404D01*
X142290884Y-116882203D01*
X142441484Y-116792427D01*
X142568452Y-116671517D01*
X142585198Y-116646313D01*
X142624341Y-116587397D01*
X142665477Y-116525482D01*
X142676958Y-116495259D01*
X142727505Y-116362193D01*
X142727506Y-116362189D01*
X142727737Y-116361581D01*
X142752138Y-116187959D01*
X142752445Y-116166000D01*
X142752404Y-116165633D01*
X142732974Y-115992413D01*
X142732974Y-115992411D01*
X142732901Y-115991764D01*
X142675242Y-115826188D01*
X142643881Y-115776000D01*
X142921369Y-115776000D01*
X142941837Y-115970737D01*
X143002345Y-116156962D01*
X143100250Y-116326538D01*
X143231272Y-116472052D01*
X143389684Y-116587146D01*
X143568565Y-116666789D01*
X143596539Y-116672735D01*
X143759491Y-116707372D01*
X143759495Y-116707372D01*
X143760095Y-116707500D01*
X143955905Y-116707500D01*
X143956505Y-116707372D01*
X143956509Y-116707372D01*
X144119461Y-116672735D01*
X144147435Y-116666789D01*
X144326316Y-116587146D01*
X144484728Y-116472052D01*
X144615750Y-116326538D01*
X144713655Y-116156962D01*
X144774163Y-115970737D01*
X144794631Y-115776000D01*
X144774163Y-115581263D01*
X144713655Y-115395038D01*
X144615750Y-115225462D01*
X144524389Y-115123996D01*
X144485136Y-115080401D01*
X144485135Y-115080400D01*
X144484728Y-115079948D01*
X144380167Y-115003979D01*
X144336152Y-114972000D01*
X184302350Y-114972000D01*
X184302386Y-114972457D01*
X184314538Y-115126859D01*
X184322118Y-115223179D01*
X184322223Y-115223618D01*
X184322224Y-115223622D01*
X184378853Y-115459496D01*
X184380936Y-115468173D01*
X184381110Y-115468594D01*
X184381112Y-115468599D01*
X184420721Y-115564223D01*
X184477355Y-115700950D01*
X184477594Y-115701340D01*
X184477595Y-115701342D01*
X184608766Y-115915392D01*
X184609002Y-115915777D01*
X184772634Y-116107366D01*
X184964223Y-116270998D01*
X184964607Y-116271234D01*
X184964608Y-116271234D01*
X185113039Y-116362193D01*
X185179050Y-116402645D01*
X185268441Y-116439672D01*
X185411401Y-116498888D01*
X185411406Y-116498890D01*
X185411827Y-116499064D01*
X185412266Y-116499169D01*
X185412271Y-116499171D01*
X185656378Y-116557776D01*
X185656382Y-116557777D01*
X185656821Y-116557882D01*
X185657274Y-116557918D01*
X185657276Y-116557918D01*
X185907543Y-116577614D01*
X185908000Y-116577650D01*
X185908457Y-116577614D01*
X186158724Y-116557918D01*
X186158726Y-116557918D01*
X186159179Y-116557882D01*
X186159618Y-116557777D01*
X186159622Y-116557776D01*
X186403729Y-116499171D01*
X186403734Y-116499169D01*
X186404173Y-116499064D01*
X186404594Y-116498890D01*
X186404599Y-116498888D01*
X186547559Y-116439672D01*
X186636950Y-116402645D01*
X186702962Y-116362193D01*
X186851392Y-116271234D01*
X186851393Y-116271234D01*
X186851777Y-116270998D01*
X187043366Y-116107366D01*
X187206998Y-115915777D01*
X187207234Y-115915392D01*
X187338405Y-115701342D01*
X187338406Y-115701340D01*
X187338645Y-115700950D01*
X187395279Y-115564223D01*
X187434888Y-115468599D01*
X187434890Y-115468594D01*
X187435064Y-115468173D01*
X187437148Y-115459496D01*
X187493776Y-115223622D01*
X187493777Y-115223618D01*
X187493882Y-115223179D01*
X187501463Y-115126859D01*
X187513614Y-114972457D01*
X187513650Y-114972000D01*
X187493882Y-114720821D01*
X187493776Y-114720378D01*
X187435171Y-114476271D01*
X187435169Y-114476266D01*
X187435064Y-114475827D01*
X187338645Y-114243050D01*
X187327864Y-114225456D01*
X187207234Y-114028608D01*
X187207234Y-114028607D01*
X187206998Y-114028223D01*
X187043366Y-113836634D01*
X186851777Y-113673002D01*
X186664445Y-113558204D01*
X186637342Y-113541595D01*
X186637340Y-113541594D01*
X186636950Y-113541355D01*
X186547559Y-113504328D01*
X186404599Y-113445112D01*
X186404594Y-113445110D01*
X186404173Y-113444936D01*
X186403734Y-113444831D01*
X186403729Y-113444829D01*
X186159622Y-113386224D01*
X186159618Y-113386223D01*
X186159179Y-113386118D01*
X186158726Y-113386082D01*
X186158724Y-113386082D01*
X185908457Y-113366386D01*
X185908000Y-113366350D01*
X185907543Y-113366386D01*
X185657276Y-113386082D01*
X185657274Y-113386082D01*
X185656821Y-113386118D01*
X185656382Y-113386223D01*
X185656378Y-113386224D01*
X185412271Y-113444829D01*
X185412266Y-113444831D01*
X185411827Y-113444936D01*
X185411406Y-113445110D01*
X185411401Y-113445112D01*
X185268441Y-113504328D01*
X185179050Y-113541355D01*
X185178660Y-113541594D01*
X185178658Y-113541595D01*
X185151555Y-113558204D01*
X184964223Y-113673002D01*
X184772634Y-113836634D01*
X184609002Y-114028223D01*
X184608766Y-114028607D01*
X184608766Y-114028608D01*
X184488137Y-114225456D01*
X184477355Y-114243050D01*
X184380936Y-114475827D01*
X184380831Y-114476266D01*
X184380829Y-114476271D01*
X184322224Y-114720378D01*
X184322118Y-114720821D01*
X184302350Y-114972000D01*
X144336152Y-114972000D01*
X144326816Y-114965217D01*
X144326814Y-114965216D01*
X144326316Y-114964854D01*
X144147435Y-114885211D01*
X144088048Y-114872588D01*
X143956509Y-114844628D01*
X143956505Y-114844628D01*
X143955905Y-114844500D01*
X143760095Y-114844500D01*
X143759495Y-114844628D01*
X143759491Y-114844628D01*
X143627952Y-114872588D01*
X143568565Y-114885211D01*
X143389685Y-114964854D01*
X143231272Y-115079948D01*
X143230865Y-115080400D01*
X143230864Y-115080401D01*
X143191611Y-115123996D01*
X143100250Y-115225462D01*
X143002345Y-115395038D01*
X142941837Y-115581263D01*
X142921369Y-115776000D01*
X142643881Y-115776000D01*
X142582332Y-115677501D01*
X142486762Y-115581263D01*
X142459247Y-115553555D01*
X142459246Y-115553554D01*
X142458789Y-115553094D01*
X142447498Y-115545928D01*
X142311303Y-115459496D01*
X142310755Y-115459148D01*
X142145585Y-115400334D01*
X142144935Y-115400257D01*
X142144933Y-115400256D01*
X141972140Y-115379651D01*
X141972135Y-115379651D01*
X141971490Y-115379574D01*
X141797122Y-115397901D01*
X141631148Y-115454403D01*
X141481816Y-115546273D01*
X141481345Y-115546734D01*
X141481344Y-115546735D01*
X141466897Y-115560883D01*
X141458589Y-115564223D01*
X141450409Y-115560768D01*
X141443247Y-115553555D01*
X141443246Y-115553554D01*
X141442789Y-115553094D01*
X141431498Y-115545928D01*
X141295303Y-115459496D01*
X141294755Y-115459148D01*
X141129585Y-115400334D01*
X141128935Y-115400257D01*
X141128933Y-115400256D01*
X140956140Y-115379651D01*
X140956135Y-115379651D01*
X140955490Y-115379574D01*
X140781122Y-115397901D01*
X140615148Y-115454403D01*
X140465816Y-115546273D01*
X140465345Y-115546734D01*
X140465344Y-115546735D01*
X140429461Y-115581875D01*
X140340549Y-115668944D01*
X140245572Y-115816319D01*
X140185606Y-115981074D01*
X140163632Y-116155020D01*
X139914286Y-116155020D01*
X139974163Y-115970737D01*
X139994631Y-115776000D01*
X139974163Y-115581263D01*
X139913655Y-115395038D01*
X139815750Y-115225462D01*
X139724389Y-115123996D01*
X139685136Y-115080401D01*
X139685135Y-115080400D01*
X139684728Y-115079948D01*
X139580167Y-115003979D01*
X139526816Y-114965217D01*
X139526814Y-114965216D01*
X139526316Y-114964854D01*
X139347435Y-114885211D01*
X139288048Y-114872588D01*
X139156509Y-114844628D01*
X139156505Y-114844628D01*
X139155905Y-114844500D01*
X138960095Y-114844500D01*
X138959495Y-114844628D01*
X138959491Y-114844628D01*
X138827952Y-114872588D01*
X138768565Y-114885211D01*
X138589685Y-114964854D01*
X138431272Y-115079948D01*
X138430865Y-115080400D01*
X138430864Y-115080401D01*
X138391611Y-115123996D01*
X138300250Y-115225462D01*
X138202345Y-115395038D01*
X138141837Y-115581263D01*
X138121369Y-115776000D01*
X98392654Y-115776000D01*
X98438405Y-115701342D01*
X98438406Y-115701340D01*
X98438645Y-115700950D01*
X98495279Y-115564223D01*
X98534888Y-115468599D01*
X98534890Y-115468594D01*
X98535064Y-115468173D01*
X98537148Y-115459496D01*
X98593776Y-115223622D01*
X98593777Y-115223618D01*
X98593882Y-115223179D01*
X98601463Y-115126859D01*
X98613614Y-114972457D01*
X98613650Y-114972000D01*
X98593882Y-114720821D01*
X98593776Y-114720378D01*
X98535171Y-114476271D01*
X98535169Y-114476266D01*
X98535064Y-114475827D01*
X98438645Y-114243050D01*
X98427864Y-114225456D01*
X98307234Y-114028608D01*
X98307234Y-114028607D01*
X98306998Y-114028223D01*
X98143366Y-113836634D01*
X97993197Y-113708378D01*
X136996024Y-113708378D01*
X136996187Y-113709055D01*
X136996187Y-113709059D01*
X137034282Y-113867734D01*
X137036226Y-113875831D01*
X137115210Y-114028860D01*
X137115672Y-114029390D01*
X137115673Y-114029391D01*
X137121065Y-114035572D01*
X137228417Y-114158631D01*
X137228996Y-114159038D01*
X137368731Y-114257246D01*
X137368735Y-114257248D01*
X137369311Y-114257653D01*
X137369970Y-114257910D01*
X137429892Y-114281273D01*
X137529757Y-114320209D01*
X137661096Y-114337500D01*
X137751185Y-114337500D01*
X137751538Y-114337457D01*
X137751543Y-114337457D01*
X137854850Y-114324955D01*
X137878963Y-114322037D01*
X137879620Y-114321789D01*
X137879623Y-114321788D01*
X138039400Y-114261413D01*
X138039401Y-114261413D01*
X138040056Y-114261165D01*
X138181979Y-114163624D01*
X138182447Y-114163098D01*
X138182450Y-114163096D01*
X138296069Y-114035572D01*
X138296539Y-114035045D01*
X138377121Y-113882852D01*
X138419074Y-113715830D01*
X138419101Y-113710779D01*
X138419138Y-113703747D01*
X144326051Y-113703747D01*
X144326214Y-113704424D01*
X144326214Y-113704428D01*
X144357954Y-113836634D01*
X144363992Y-113861785D01*
X144364314Y-113862409D01*
X144375185Y-113883471D01*
X144438536Y-114006211D01*
X144438998Y-114006741D01*
X144438999Y-114006742D01*
X144464149Y-114035572D01*
X144545379Y-114128687D01*
X144545958Y-114129094D01*
X144677772Y-114221735D01*
X144677776Y-114221737D01*
X144678352Y-114222142D01*
X144679011Y-114222399D01*
X144686852Y-114225456D01*
X144829778Y-114281181D01*
X144953735Y-114297500D01*
X145458755Y-114297500D01*
X145459108Y-114297457D01*
X145459113Y-114297457D01*
X145556558Y-114285664D01*
X145579352Y-114282906D01*
X145580009Y-114282658D01*
X145580012Y-114282657D01*
X145730732Y-114225704D01*
X145730733Y-114225704D01*
X145731388Y-114225456D01*
X145865333Y-114133399D01*
X145865801Y-114132873D01*
X145865804Y-114132871D01*
X145925074Y-114066347D01*
X145973452Y-114012049D01*
X146049504Y-113868412D01*
X146087658Y-113716512D01*
X146088927Y-113711461D01*
X146088927Y-113711459D01*
X146089098Y-113710779D01*
X146089115Y-113707678D01*
X146089897Y-113558159D01*
X146089949Y-113548253D01*
X146089006Y-113544322D01*
X146052172Y-113390897D01*
X146052171Y-113390895D01*
X146052008Y-113390215D01*
X146048938Y-113384266D01*
X145977787Y-113246415D01*
X145977464Y-113245789D01*
X145972917Y-113240576D01*
X145871086Y-113123846D01*
X145870621Y-113123313D01*
X145860493Y-113116195D01*
X145738228Y-113030265D01*
X145738224Y-113030263D01*
X145737648Y-113029858D01*
X145730172Y-113026943D01*
X145586881Y-112971076D01*
X145586222Y-112970819D01*
X145462265Y-112954500D01*
X144957245Y-112954500D01*
X144956892Y-112954543D01*
X144956887Y-112954543D01*
X144859442Y-112966336D01*
X144836648Y-112969094D01*
X144835991Y-112969342D01*
X144835988Y-112969343D01*
X144770498Y-112994090D01*
X144684612Y-113026544D01*
X144550667Y-113118601D01*
X144550199Y-113119127D01*
X144550196Y-113119129D01*
X144490926Y-113185653D01*
X144442548Y-113239951D01*
X144366496Y-113383588D01*
X144362917Y-113397836D01*
X144327354Y-113539423D01*
X144326902Y-113541221D01*
X144326898Y-113541922D01*
X144326898Y-113541925D01*
X144326813Y-113558159D01*
X144326051Y-113703747D01*
X138419138Y-113703747D01*
X138419511Y-113632494D01*
X138419976Y-113543622D01*
X138419776Y-113542786D01*
X138379938Y-113376851D01*
X138379937Y-113376849D01*
X138379774Y-113376169D01*
X138300790Y-113223140D01*
X138295395Y-113216955D01*
X138188048Y-113093902D01*
X138187583Y-113093369D01*
X138179908Y-113087975D01*
X138047269Y-112994754D01*
X138047265Y-112994752D01*
X138046689Y-112994347D01*
X137986344Y-112970819D01*
X137886902Y-112932048D01*
X137886243Y-112931791D01*
X137754904Y-112914500D01*
X137664815Y-112914500D01*
X137664462Y-112914543D01*
X137664457Y-112914543D01*
X137561150Y-112927045D01*
X137537037Y-112929963D01*
X137536380Y-112930211D01*
X137536377Y-112930212D01*
X137376600Y-112990587D01*
X137375944Y-112990835D01*
X137234021Y-113088376D01*
X137233553Y-113088902D01*
X137233550Y-113088904D01*
X137207091Y-113118601D01*
X137119461Y-113216955D01*
X137038879Y-113369148D01*
X137032938Y-113392801D01*
X137010118Y-113483652D01*
X136996926Y-113536170D01*
X136996922Y-113536871D01*
X136996922Y-113536874D01*
X136996489Y-113619506D01*
X136996024Y-113708378D01*
X97993197Y-113708378D01*
X97951777Y-113673002D01*
X97764445Y-113558204D01*
X97737342Y-113541595D01*
X97737340Y-113541594D01*
X97736950Y-113541355D01*
X97647559Y-113504328D01*
X97504599Y-113445112D01*
X97504594Y-113445110D01*
X97504173Y-113444936D01*
X97503734Y-113444831D01*
X97503729Y-113444829D01*
X97259622Y-113386224D01*
X97259618Y-113386223D01*
X97259179Y-113386118D01*
X97258726Y-113386082D01*
X97258724Y-113386082D01*
X97008457Y-113366386D01*
X97008000Y-113366350D01*
X97007543Y-113366386D01*
X96757276Y-113386082D01*
X96757274Y-113386082D01*
X96756821Y-113386118D01*
X96756382Y-113386223D01*
X96756378Y-113386224D01*
X96512271Y-113444829D01*
X96512266Y-113444831D01*
X96511827Y-113444936D01*
X96511406Y-113445110D01*
X96511401Y-113445112D01*
X96368441Y-113504328D01*
X96279050Y-113541355D01*
X96278660Y-113541594D01*
X96278658Y-113541595D01*
X96251555Y-113558204D01*
X96064223Y-113673002D01*
X95872634Y-113836634D01*
X95709002Y-114028223D01*
X95708766Y-114028607D01*
X95708766Y-114028608D01*
X95588137Y-114225456D01*
X95577355Y-114243050D01*
X95480936Y-114475827D01*
X95480831Y-114476266D01*
X95480829Y-114476271D01*
X95422224Y-114720378D01*
X95422118Y-114720821D01*
X95402350Y-114972000D01*
X93428404Y-114972000D01*
X93096946Y-114762343D01*
X93091786Y-114755024D01*
X93091500Y-114752455D01*
X93091500Y-110037507D01*
X127423450Y-110037507D01*
X127457595Y-110189017D01*
X127457884Y-110189940D01*
X127541532Y-110395942D01*
X127541966Y-110396801D01*
X127658141Y-110586382D01*
X127658709Y-110587156D01*
X127804286Y-110755215D01*
X127804967Y-110755883D01*
X127976047Y-110897916D01*
X127976826Y-110898462D01*
X128168810Y-111010648D01*
X128169660Y-111011055D01*
X128318444Y-111067870D01*
X128324950Y-111074023D01*
X128325200Y-111082974D01*
X128319047Y-111089480D01*
X128314270Y-111090500D01*
X127871842Y-111090500D01*
X127871417Y-111090563D01*
X127871411Y-111090563D01*
X127807741Y-111099936D01*
X127796856Y-111101538D01*
X127796036Y-111101941D01*
X127796035Y-111101941D01*
X127683720Y-111157085D01*
X127683718Y-111157086D01*
X127682849Y-111157513D01*
X127682165Y-111158199D01*
X127682164Y-111158199D01*
X127593803Y-111246714D01*
X127593801Y-111246717D01*
X127593120Y-111247399D01*
X127592696Y-111248267D01*
X127592695Y-111248268D01*
X127538063Y-111360035D01*
X127537345Y-111361503D01*
X127526500Y-111435842D01*
X127526500Y-113208158D01*
X127526562Y-113208581D01*
X127526563Y-113208589D01*
X127535936Y-113272259D01*
X127537538Y-113283144D01*
X127537941Y-113283964D01*
X127537941Y-113283965D01*
X127591271Y-113392584D01*
X127593513Y-113397151D01*
X127594199Y-113397835D01*
X127594199Y-113397836D01*
X127682714Y-113486197D01*
X127682717Y-113486199D01*
X127683399Y-113486880D01*
X127684267Y-113487304D01*
X127684268Y-113487305D01*
X127796686Y-113542256D01*
X127796688Y-113542257D01*
X127797503Y-113542655D01*
X127871842Y-113553500D01*
X129644158Y-113553500D01*
X129644583Y-113553437D01*
X129644589Y-113553437D01*
X129708259Y-113544064D01*
X129719144Y-113542462D01*
X129725603Y-113539291D01*
X129832280Y-113486915D01*
X129832282Y-113486914D01*
X129833151Y-113486487D01*
X129874454Y-113445112D01*
X129922197Y-113397286D01*
X129922199Y-113397283D01*
X129922880Y-113396601D01*
X129923305Y-113395732D01*
X129978256Y-113283314D01*
X129978257Y-113283312D01*
X129978655Y-113282497D01*
X129989500Y-113208158D01*
X129989500Y-111476000D01*
X138121369Y-111476000D01*
X138141837Y-111670737D01*
X138202345Y-111856962D01*
X138300250Y-112026538D01*
X138300656Y-112026989D01*
X138373459Y-112107844D01*
X138431272Y-112172052D01*
X138589684Y-112287146D01*
X138768565Y-112366789D01*
X138827952Y-112379412D01*
X138959491Y-112407372D01*
X138959495Y-112407372D01*
X138960095Y-112407500D01*
X139155905Y-112407500D01*
X139156505Y-112407372D01*
X139156509Y-112407372D01*
X139288048Y-112379412D01*
X139347435Y-112366789D01*
X139526316Y-112287146D01*
X139684728Y-112172052D01*
X139742542Y-112107844D01*
X139815344Y-112026989D01*
X139815750Y-112026538D01*
X139913655Y-111856962D01*
X139974163Y-111670737D01*
X139994631Y-111476000D01*
X142921369Y-111476000D01*
X142941837Y-111670737D01*
X143002345Y-111856962D01*
X143100250Y-112026538D01*
X143100656Y-112026989D01*
X143173459Y-112107844D01*
X143231272Y-112172052D01*
X143389684Y-112287146D01*
X143568565Y-112366789D01*
X143627952Y-112379412D01*
X143759491Y-112407372D01*
X143759495Y-112407372D01*
X143760095Y-112407500D01*
X143955905Y-112407500D01*
X143956505Y-112407372D01*
X143956509Y-112407372D01*
X144088048Y-112379412D01*
X144147435Y-112366789D01*
X144248033Y-112322000D01*
X152921796Y-112322000D01*
X152940577Y-112536665D01*
X152996348Y-112744807D01*
X153087416Y-112940102D01*
X153087711Y-112940523D01*
X153087712Y-112940525D01*
X153107657Y-112969009D01*
X153211013Y-113116617D01*
X153363383Y-113268987D01*
X153384774Y-113283965D01*
X153537489Y-113390897D01*
X153539898Y-113392584D01*
X153551161Y-113397836D01*
X153734729Y-113483436D01*
X153734733Y-113483437D01*
X153735193Y-113483652D01*
X153735689Y-113483785D01*
X153735692Y-113483786D01*
X153942841Y-113539291D01*
X153942845Y-113539292D01*
X153943335Y-113539423D01*
X153943839Y-113539467D01*
X153943844Y-113539468D01*
X154157486Y-113558159D01*
X154158000Y-113558204D01*
X154158514Y-113558159D01*
X154372156Y-113539468D01*
X154372161Y-113539467D01*
X154372665Y-113539423D01*
X154373155Y-113539292D01*
X154373159Y-113539291D01*
X154580308Y-113483786D01*
X154580311Y-113483785D01*
X154580807Y-113483652D01*
X154581267Y-113483437D01*
X154581271Y-113483436D01*
X154764839Y-113397836D01*
X154776102Y-113392584D01*
X154778512Y-113390897D01*
X154931226Y-113283965D01*
X154952617Y-113268987D01*
X155104987Y-113116617D01*
X155208343Y-112969009D01*
X155228288Y-112940525D01*
X155228289Y-112940523D01*
X155228584Y-112940102D01*
X155319652Y-112744807D01*
X155375423Y-112536665D01*
X155394204Y-112322000D01*
X155381085Y-112172052D01*
X155375468Y-112107844D01*
X155375467Y-112107839D01*
X155375423Y-112107335D01*
X155353633Y-112026010D01*
X155319786Y-111899692D01*
X155319785Y-111899689D01*
X155319652Y-111899193D01*
X155228584Y-111703898D01*
X155205365Y-111670737D01*
X155105282Y-111527805D01*
X155104987Y-111527383D01*
X154952617Y-111375013D01*
X154776102Y-111251416D01*
X154688253Y-111210451D01*
X154581271Y-111160564D01*
X154581267Y-111160563D01*
X154580807Y-111160348D01*
X154580311Y-111160215D01*
X154580308Y-111160214D01*
X154373159Y-111104709D01*
X154373155Y-111104708D01*
X154372665Y-111104577D01*
X154372161Y-111104533D01*
X154372156Y-111104532D01*
X154158514Y-111085841D01*
X154158000Y-111085796D01*
X154157486Y-111085841D01*
X153943844Y-111104532D01*
X153943839Y-111104533D01*
X153943335Y-111104577D01*
X153942845Y-111104708D01*
X153942841Y-111104709D01*
X153735692Y-111160214D01*
X153735689Y-111160215D01*
X153735193Y-111160348D01*
X153734733Y-111160563D01*
X153734729Y-111160564D01*
X153627747Y-111210451D01*
X153539898Y-111251416D01*
X153363383Y-111375013D01*
X153211013Y-111527383D01*
X153210718Y-111527805D01*
X153110636Y-111670737D01*
X153087416Y-111703898D01*
X152996348Y-111899193D01*
X152996215Y-111899689D01*
X152996214Y-111899692D01*
X152962368Y-112026010D01*
X152940577Y-112107335D01*
X152940533Y-112107839D01*
X152940532Y-112107844D01*
X152934915Y-112172052D01*
X152921796Y-112322000D01*
X144248033Y-112322000D01*
X144326316Y-112287146D01*
X144484728Y-112172052D01*
X144542542Y-112107844D01*
X144615344Y-112026989D01*
X144615750Y-112026538D01*
X144713655Y-111856962D01*
X144774163Y-111670737D01*
X144794631Y-111476000D01*
X144774163Y-111281263D01*
X144713655Y-111095038D01*
X144615750Y-110925462D01*
X144590947Y-110897916D01*
X144485136Y-110780401D01*
X144485135Y-110780400D01*
X144484728Y-110779948D01*
X144394029Y-110714051D01*
X144326816Y-110665217D01*
X144326814Y-110665216D01*
X144326316Y-110664854D01*
X144147435Y-110585211D01*
X144088048Y-110572588D01*
X143956509Y-110544628D01*
X143956505Y-110544628D01*
X143955905Y-110544500D01*
X143760095Y-110544500D01*
X143759495Y-110544628D01*
X143759491Y-110544628D01*
X143627952Y-110572588D01*
X143568565Y-110585211D01*
X143389685Y-110664854D01*
X143389187Y-110665216D01*
X143389185Y-110665217D01*
X143322056Y-110713989D01*
X143231272Y-110779948D01*
X143230865Y-110780400D01*
X143230864Y-110780401D01*
X143125053Y-110897916D01*
X143100250Y-110925462D01*
X143002345Y-111095038D01*
X142941837Y-111281263D01*
X142921369Y-111476000D01*
X139994631Y-111476000D01*
X139974163Y-111281263D01*
X139913655Y-111095038D01*
X139815750Y-110925462D01*
X139790947Y-110897916D01*
X139685136Y-110780401D01*
X139685135Y-110780400D01*
X139684728Y-110779948D01*
X139594029Y-110714051D01*
X139526816Y-110665217D01*
X139526814Y-110665216D01*
X139526316Y-110664854D01*
X139347435Y-110585211D01*
X139288048Y-110572588D01*
X139156509Y-110544628D01*
X139156505Y-110544628D01*
X139155905Y-110544500D01*
X138960095Y-110544500D01*
X138959495Y-110544628D01*
X138959491Y-110544628D01*
X138827952Y-110572588D01*
X138768565Y-110585211D01*
X138589685Y-110664854D01*
X138589187Y-110665216D01*
X138589185Y-110665217D01*
X138522056Y-110713989D01*
X138431272Y-110779948D01*
X138430865Y-110780400D01*
X138430864Y-110780401D01*
X138325053Y-110897916D01*
X138300250Y-110925462D01*
X138202345Y-111095038D01*
X138141837Y-111281263D01*
X138121369Y-111476000D01*
X129989500Y-111476000D01*
X129989500Y-111435842D01*
X129980503Y-111374718D01*
X129978595Y-111361760D01*
X129978462Y-111360856D01*
X129924875Y-111251712D01*
X129922915Y-111247720D01*
X129922914Y-111247718D01*
X129922487Y-111246849D01*
X129921801Y-111246164D01*
X129833286Y-111157803D01*
X129833283Y-111157801D01*
X129832601Y-111157120D01*
X129831732Y-111156695D01*
X129719314Y-111101744D01*
X129719312Y-111101743D01*
X129718497Y-111101345D01*
X129644158Y-111090500D01*
X129202279Y-111090500D01*
X129194006Y-111087073D01*
X129190579Y-111078800D01*
X129194006Y-111070527D01*
X129198917Y-111067593D01*
X129254747Y-111050843D01*
X129255629Y-111050497D01*
X129455306Y-110952676D01*
X129456128Y-110952186D01*
X129637150Y-110823066D01*
X129637869Y-110822458D01*
X129795377Y-110665498D01*
X129795994Y-110664772D01*
X129925739Y-110484212D01*
X129926235Y-110483388D01*
X130024754Y-110284051D01*
X130025102Y-110283173D01*
X130089741Y-110070419D01*
X130089942Y-110069489D01*
X130094047Y-110038306D01*
X130093587Y-110036588D01*
X130092569Y-110036000D01*
X127425437Y-110036000D01*
X127423792Y-110036682D01*
X127423450Y-110037507D01*
X93091500Y-110037507D01*
X93091500Y-109782000D01*
X152921796Y-109782000D01*
X152940577Y-109996665D01*
X152940708Y-109997155D01*
X152940709Y-109997159D01*
X152960090Y-110069489D01*
X152996348Y-110204807D01*
X153087416Y-110400102D01*
X153211013Y-110576617D01*
X153363383Y-110728987D01*
X153539898Y-110852584D01*
X153627747Y-110893549D01*
X153734729Y-110943436D01*
X153734733Y-110943437D01*
X153735193Y-110943652D01*
X153735689Y-110943785D01*
X153735692Y-110943786D01*
X153942841Y-110999291D01*
X153942845Y-110999292D01*
X153943335Y-110999423D01*
X153943839Y-110999467D01*
X153943844Y-110999468D01*
X154157486Y-111018159D01*
X154158000Y-111018204D01*
X154158514Y-111018159D01*
X154372156Y-110999468D01*
X154372161Y-110999467D01*
X154372665Y-110999423D01*
X154373155Y-110999292D01*
X154373159Y-110999291D01*
X154580308Y-110943786D01*
X154580311Y-110943785D01*
X154580807Y-110943652D01*
X154581267Y-110943437D01*
X154581271Y-110943436D01*
X154688253Y-110893549D01*
X154776102Y-110852584D01*
X154952617Y-110728987D01*
X155104987Y-110576617D01*
X155228584Y-110400102D01*
X155319652Y-110204807D01*
X155355910Y-110069489D01*
X155375291Y-109997159D01*
X155375292Y-109997155D01*
X155375423Y-109996665D01*
X155394204Y-109782000D01*
X155375423Y-109567335D01*
X155364884Y-109528000D01*
X155319786Y-109359692D01*
X155319785Y-109359689D01*
X155319652Y-109359193D01*
X155312255Y-109343329D01*
X155228801Y-109164364D01*
X155228584Y-109163898D01*
X155104987Y-108987383D01*
X154952617Y-108835013D01*
X154776102Y-108711416D01*
X154688253Y-108670451D01*
X154581271Y-108620564D01*
X154581267Y-108620563D01*
X154580807Y-108620348D01*
X154580311Y-108620215D01*
X154580308Y-108620214D01*
X154373159Y-108564709D01*
X154373155Y-108564708D01*
X154372665Y-108564577D01*
X154372161Y-108564533D01*
X154372156Y-108564532D01*
X154164526Y-108546367D01*
X154158000Y-108545796D01*
X154151474Y-108546367D01*
X153943844Y-108564532D01*
X153943839Y-108564533D01*
X153943335Y-108564577D01*
X153942845Y-108564708D01*
X153942841Y-108564709D01*
X153735692Y-108620214D01*
X153735689Y-108620215D01*
X153735193Y-108620348D01*
X153734733Y-108620563D01*
X153734729Y-108620564D01*
X153627747Y-108670451D01*
X153539898Y-108711416D01*
X153363383Y-108835013D01*
X153211013Y-108987383D01*
X153087416Y-109163898D01*
X153087199Y-109164364D01*
X153003746Y-109343329D01*
X152996348Y-109359193D01*
X152996215Y-109359689D01*
X152996214Y-109359692D01*
X152951117Y-109528000D01*
X152940577Y-109567335D01*
X152921796Y-109782000D01*
X93091500Y-109782000D01*
X93091500Y-109525979D01*
X127419672Y-109525979D01*
X127420088Y-109527394D01*
X127421199Y-109528000D01*
X130092132Y-109528000D01*
X130093777Y-109527318D01*
X130094095Y-109526551D01*
X130048072Y-109343329D01*
X130047765Y-109342427D01*
X129959104Y-109138518D01*
X129958651Y-109137674D01*
X129837877Y-108950986D01*
X129837294Y-108950228D01*
X129687651Y-108785773D01*
X129686951Y-108785120D01*
X129512454Y-108647312D01*
X129511665Y-108646787D01*
X129317004Y-108539328D01*
X129316132Y-108538936D01*
X129305074Y-108535020D01*
X137369632Y-108535020D01*
X137386741Y-108709511D01*
X137442083Y-108875876D01*
X137532908Y-109025846D01*
X137533359Y-109026313D01*
X137613564Y-109109367D01*
X137654701Y-109151966D01*
X137655243Y-109152321D01*
X137655247Y-109152324D01*
X137748416Y-109213292D01*
X137801410Y-109247970D01*
X137802027Y-109248199D01*
X137802026Y-109248199D01*
X137965123Y-109308854D01*
X137965125Y-109308854D01*
X137965742Y-109309084D01*
X138081714Y-109324558D01*
X138138884Y-109332187D01*
X138138886Y-109332187D01*
X138139530Y-109332273D01*
X138188950Y-109327775D01*
X138313481Y-109316442D01*
X138313484Y-109316441D01*
X138314137Y-109316382D01*
X138314763Y-109316179D01*
X138314766Y-109316178D01*
X138480263Y-109262405D01*
X138480265Y-109262404D01*
X138480884Y-109262203D01*
X138631484Y-109172427D01*
X138758452Y-109051517D01*
X138775198Y-109026313D01*
X138825748Y-108950228D01*
X138855477Y-108905482D01*
X138901198Y-108785120D01*
X138917505Y-108742193D01*
X138917506Y-108742189D01*
X138917737Y-108741581D01*
X138942138Y-108567959D01*
X138942445Y-108546000D01*
X138941287Y-108535673D01*
X138922974Y-108372413D01*
X138922974Y-108372411D01*
X138922901Y-108371764D01*
X138865242Y-108206188D01*
X138772332Y-108057501D01*
X138648789Y-107933094D01*
X138637498Y-107925928D01*
X138533773Y-107860102D01*
X138500755Y-107839148D01*
X138335585Y-107780334D01*
X138334935Y-107780257D01*
X138334933Y-107780256D01*
X138162140Y-107759651D01*
X138162135Y-107759651D01*
X138161490Y-107759574D01*
X137987122Y-107777901D01*
X137821148Y-107834403D01*
X137671816Y-107926273D01*
X137671345Y-107926734D01*
X137671344Y-107926735D01*
X137664380Y-107933555D01*
X137546549Y-108048944D01*
X137451572Y-108196319D01*
X137391606Y-108361074D01*
X137369632Y-108535020D01*
X129305074Y-108535020D01*
X129106539Y-108464715D01*
X129105609Y-108464469D01*
X129066183Y-108457447D01*
X129058639Y-108452622D01*
X129056716Y-108443876D01*
X129061541Y-108436332D01*
X129065207Y-108434627D01*
X129180308Y-108403786D01*
X129180311Y-108403785D01*
X129180807Y-108403652D01*
X129181267Y-108403437D01*
X129181271Y-108403436D01*
X129288253Y-108353549D01*
X129376102Y-108312584D01*
X129552617Y-108188987D01*
X129704987Y-108036617D01*
X129828584Y-107860102D01*
X129919652Y-107664807D01*
X129975423Y-107456665D01*
X129994204Y-107242000D01*
X152921796Y-107242000D01*
X152940577Y-107456665D01*
X152996348Y-107664807D01*
X153087416Y-107860102D01*
X153211013Y-108036617D01*
X153363383Y-108188987D01*
X153539898Y-108312584D01*
X153627747Y-108353549D01*
X153734729Y-108403436D01*
X153734733Y-108403437D01*
X153735193Y-108403652D01*
X153735689Y-108403785D01*
X153735692Y-108403786D01*
X153942841Y-108459291D01*
X153942845Y-108459292D01*
X153943335Y-108459423D01*
X153943839Y-108459467D01*
X153943844Y-108459468D01*
X154157486Y-108478159D01*
X154158000Y-108478204D01*
X154158514Y-108478159D01*
X154372156Y-108459468D01*
X154372161Y-108459467D01*
X154372665Y-108459423D01*
X154373155Y-108459292D01*
X154373159Y-108459291D01*
X154580308Y-108403786D01*
X154580311Y-108403785D01*
X154580807Y-108403652D01*
X154581267Y-108403437D01*
X154581271Y-108403436D01*
X154688253Y-108353549D01*
X154776102Y-108312584D01*
X154952617Y-108188987D01*
X155104987Y-108036617D01*
X155228584Y-107860102D01*
X155319652Y-107664807D01*
X155375423Y-107456665D01*
X155394204Y-107242000D01*
X155375423Y-107027335D01*
X155319652Y-106819193D01*
X155228584Y-106623898D01*
X155104987Y-106447383D01*
X154952617Y-106295013D01*
X154776102Y-106171416D01*
X154688253Y-106130451D01*
X154581271Y-106080564D01*
X154581267Y-106080563D01*
X154580807Y-106080348D01*
X154580311Y-106080215D01*
X154580308Y-106080214D01*
X154373159Y-106024709D01*
X154373155Y-106024708D01*
X154372665Y-106024577D01*
X154372161Y-106024533D01*
X154372156Y-106024532D01*
X154158514Y-106005841D01*
X154158000Y-106005796D01*
X154157486Y-106005841D01*
X153943844Y-106024532D01*
X153943839Y-106024533D01*
X153943335Y-106024577D01*
X153942845Y-106024708D01*
X153942841Y-106024709D01*
X153735692Y-106080214D01*
X153735689Y-106080215D01*
X153735193Y-106080348D01*
X153734733Y-106080563D01*
X153734729Y-106080564D01*
X153627747Y-106130451D01*
X153539898Y-106171416D01*
X153363383Y-106295013D01*
X153211013Y-106447383D01*
X153087416Y-106623898D01*
X152996348Y-106819193D01*
X152940577Y-107027335D01*
X152921796Y-107242000D01*
X129994204Y-107242000D01*
X129975423Y-107027335D01*
X129919652Y-106819193D01*
X129828584Y-106623898D01*
X129704987Y-106447383D01*
X129552617Y-106295013D01*
X129376102Y-106171416D01*
X129288253Y-106130451D01*
X129181271Y-106080564D01*
X129181267Y-106080563D01*
X129180807Y-106080348D01*
X129180311Y-106080215D01*
X129180308Y-106080214D01*
X128973159Y-106024709D01*
X128973155Y-106024708D01*
X128972665Y-106024577D01*
X128972161Y-106024533D01*
X128972156Y-106024532D01*
X128758514Y-106005841D01*
X128758000Y-106005796D01*
X128757486Y-106005841D01*
X128543844Y-106024532D01*
X128543839Y-106024533D01*
X128543335Y-106024577D01*
X128542845Y-106024708D01*
X128542841Y-106024709D01*
X128335692Y-106080214D01*
X128335689Y-106080215D01*
X128335193Y-106080348D01*
X128334733Y-106080563D01*
X128334729Y-106080564D01*
X128227747Y-106130451D01*
X128139898Y-106171416D01*
X127963383Y-106295013D01*
X127811013Y-106447383D01*
X127687416Y-106623898D01*
X127596348Y-106819193D01*
X127540577Y-107027335D01*
X127521796Y-107242000D01*
X127540577Y-107456665D01*
X127596348Y-107664807D01*
X127687416Y-107860102D01*
X127811013Y-108036617D01*
X127963383Y-108188987D01*
X128139898Y-108312584D01*
X128227747Y-108353549D01*
X128334729Y-108403436D01*
X128334733Y-108403437D01*
X128335193Y-108403652D01*
X128335689Y-108403785D01*
X128335692Y-108403786D01*
X128445635Y-108433245D01*
X128452740Y-108438696D01*
X128453908Y-108447574D01*
X128448457Y-108454679D01*
X128444377Y-108456111D01*
X128442688Y-108456370D01*
X128441749Y-108456593D01*
X128230403Y-108525671D01*
X128229526Y-108526040D01*
X128032304Y-108628707D01*
X128031487Y-108629222D01*
X127853683Y-108762721D01*
X127852966Y-108763357D01*
X127699350Y-108924108D01*
X127698748Y-108924852D01*
X127573452Y-109108528D01*
X127572975Y-109109367D01*
X127479363Y-109311038D01*
X127479029Y-109311945D01*
X127419672Y-109525979D01*
X93091500Y-109525979D01*
X93091500Y-104702000D01*
X127521796Y-104702000D01*
X127540577Y-104916665D01*
X127596348Y-105124807D01*
X127687416Y-105320102D01*
X127811013Y-105496617D01*
X127963383Y-105648987D01*
X128139898Y-105772584D01*
X128227747Y-105813549D01*
X128334729Y-105863436D01*
X128334733Y-105863437D01*
X128335193Y-105863652D01*
X128335689Y-105863785D01*
X128335692Y-105863786D01*
X128542841Y-105919291D01*
X128542845Y-105919292D01*
X128543335Y-105919423D01*
X128543839Y-105919467D01*
X128543844Y-105919468D01*
X128757486Y-105938159D01*
X128758000Y-105938204D01*
X128758514Y-105938159D01*
X128972156Y-105919468D01*
X128972161Y-105919467D01*
X128972665Y-105919423D01*
X128973155Y-105919292D01*
X128973159Y-105919291D01*
X129180308Y-105863786D01*
X129180311Y-105863785D01*
X129180807Y-105863652D01*
X129181267Y-105863437D01*
X129181271Y-105863436D01*
X129288253Y-105813549D01*
X129376102Y-105772584D01*
X129552617Y-105648987D01*
X129704987Y-105496617D01*
X129828584Y-105320102D01*
X129919652Y-105124807D01*
X129975423Y-104916665D01*
X129994204Y-104702000D01*
X129975423Y-104487335D01*
X129919652Y-104279193D01*
X129828584Y-104083898D01*
X129704987Y-103907383D01*
X129552617Y-103755013D01*
X129376102Y-103631416D01*
X129274371Y-103583978D01*
X129181271Y-103540564D01*
X129181267Y-103540563D01*
X129180807Y-103540348D01*
X129180311Y-103540215D01*
X129180308Y-103540214D01*
X128973159Y-103484709D01*
X128973155Y-103484708D01*
X128972665Y-103484577D01*
X128972161Y-103484533D01*
X128972156Y-103484532D01*
X128758514Y-103465841D01*
X128758000Y-103465796D01*
X128757486Y-103465841D01*
X128543844Y-103484532D01*
X128543839Y-103484533D01*
X128543335Y-103484577D01*
X128542845Y-103484708D01*
X128542841Y-103484709D01*
X128335692Y-103540214D01*
X128335689Y-103540215D01*
X128335193Y-103540348D01*
X128334733Y-103540563D01*
X128334729Y-103540564D01*
X128241629Y-103583978D01*
X128139898Y-103631416D01*
X127963383Y-103755013D01*
X127811013Y-103907383D01*
X127687416Y-104083898D01*
X127596348Y-104279193D01*
X127540577Y-104487335D01*
X127521796Y-104702000D01*
X93091500Y-104702000D01*
X93091500Y-102162000D01*
X127521796Y-102162000D01*
X127521841Y-102162514D01*
X127537815Y-102345094D01*
X127540577Y-102376665D01*
X127540708Y-102377155D01*
X127540709Y-102377159D01*
X127592117Y-102569017D01*
X127596348Y-102584807D01*
X127596563Y-102585267D01*
X127596564Y-102585271D01*
X127623769Y-102643611D01*
X127687416Y-102780102D01*
X127687711Y-102780523D01*
X127687712Y-102780525D01*
X127721888Y-102829334D01*
X127811013Y-102956617D01*
X127963383Y-103108987D01*
X128139898Y-103232584D01*
X128227747Y-103273549D01*
X128334729Y-103323436D01*
X128334733Y-103323437D01*
X128335193Y-103323652D01*
X128335689Y-103323785D01*
X128335692Y-103323786D01*
X128542841Y-103379291D01*
X128542845Y-103379292D01*
X128543335Y-103379423D01*
X128543839Y-103379467D01*
X128543844Y-103379468D01*
X128757486Y-103398159D01*
X128758000Y-103398204D01*
X128758514Y-103398159D01*
X128972156Y-103379468D01*
X128972161Y-103379467D01*
X128972665Y-103379423D01*
X128973155Y-103379292D01*
X128973159Y-103379291D01*
X129180308Y-103323786D01*
X129180311Y-103323785D01*
X129180807Y-103323652D01*
X129181267Y-103323437D01*
X129181271Y-103323436D01*
X129288253Y-103273549D01*
X129376102Y-103232584D01*
X129552617Y-103108987D01*
X129704987Y-102956617D01*
X129711707Y-102947020D01*
X134575632Y-102947020D01*
X134592741Y-103121511D01*
X134648083Y-103287876D01*
X134738908Y-103437846D01*
X134739359Y-103438313D01*
X134785252Y-103485836D01*
X134860701Y-103563966D01*
X134861243Y-103564321D01*
X134861247Y-103564324D01*
X134954416Y-103625292D01*
X135007410Y-103659970D01*
X135008027Y-103660199D01*
X135008026Y-103660199D01*
X135171123Y-103720854D01*
X135171125Y-103720854D01*
X135171742Y-103721084D01*
X135287714Y-103736558D01*
X135344884Y-103744187D01*
X135344886Y-103744187D01*
X135345530Y-103744273D01*
X135394950Y-103739775D01*
X135519481Y-103728442D01*
X135519484Y-103728441D01*
X135520137Y-103728382D01*
X135520763Y-103728179D01*
X135520766Y-103728178D01*
X135686263Y-103674405D01*
X135686265Y-103674404D01*
X135686884Y-103674203D01*
X135837484Y-103584427D01*
X135964452Y-103463517D01*
X135981198Y-103438313D01*
X136007846Y-103398204D01*
X136061477Y-103317482D01*
X136093839Y-103232288D01*
X136123505Y-103154193D01*
X136123506Y-103154189D01*
X136123737Y-103153581D01*
X136148138Y-102979959D01*
X136148445Y-102958000D01*
X136147287Y-102947673D01*
X136128974Y-102784413D01*
X136128974Y-102784411D01*
X136128901Y-102783764D01*
X136071242Y-102618188D01*
X135978332Y-102469501D01*
X135854789Y-102345094D01*
X135843498Y-102337928D01*
X135739417Y-102271876D01*
X135706755Y-102251148D01*
X135541585Y-102192334D01*
X135540935Y-102192257D01*
X135540933Y-102192256D01*
X135368140Y-102171651D01*
X135368135Y-102171651D01*
X135367490Y-102171574D01*
X135193122Y-102189901D01*
X135027148Y-102246403D01*
X134877816Y-102338273D01*
X134877345Y-102338734D01*
X134877344Y-102338735D01*
X134838107Y-102377159D01*
X134752549Y-102460944D01*
X134657572Y-102608319D01*
X134597606Y-102773074D01*
X134575632Y-102947020D01*
X129711707Y-102947020D01*
X129794112Y-102829334D01*
X129828288Y-102780525D01*
X129828289Y-102780523D01*
X129828584Y-102780102D01*
X129892231Y-102643611D01*
X129919436Y-102585271D01*
X129919437Y-102585267D01*
X129919652Y-102584807D01*
X129923883Y-102569017D01*
X129975291Y-102377159D01*
X129975292Y-102377155D01*
X129975423Y-102376665D01*
X129978186Y-102345094D01*
X129994159Y-102162514D01*
X129994204Y-102162000D01*
X129992011Y-102136934D01*
X129975468Y-101947844D01*
X129975467Y-101947839D01*
X129975423Y-101947335D01*
X129974308Y-101943171D01*
X129919786Y-101739692D01*
X129919785Y-101739689D01*
X129919652Y-101739193D01*
X129912255Y-101723329D01*
X129828801Y-101544364D01*
X129828584Y-101543898D01*
X129704987Y-101367383D01*
X129552617Y-101215013D01*
X129486932Y-101169020D01*
X140925632Y-101169020D01*
X140942741Y-101343511D01*
X140998083Y-101509876D01*
X141088908Y-101659846D01*
X141210701Y-101785966D01*
X141211243Y-101786321D01*
X141211247Y-101786324D01*
X141304416Y-101847292D01*
X141357410Y-101881970D01*
X141358027Y-101882199D01*
X141358026Y-101882199D01*
X141521123Y-101942854D01*
X141521125Y-101942854D01*
X141521742Y-101943084D01*
X141637714Y-101958558D01*
X141694884Y-101966187D01*
X141694886Y-101966187D01*
X141695530Y-101966273D01*
X141744950Y-101961775D01*
X141869481Y-101950442D01*
X141869484Y-101950441D01*
X141870137Y-101950382D01*
X141870763Y-101950179D01*
X141870766Y-101950178D01*
X142036263Y-101896405D01*
X142036265Y-101896404D01*
X142036884Y-101896203D01*
X142187484Y-101806427D01*
X142314452Y-101685517D01*
X142331198Y-101660313D01*
X142408233Y-101544364D01*
X142411477Y-101539482D01*
X142411711Y-101538866D01*
X142473505Y-101376193D01*
X142473506Y-101376189D01*
X142473737Y-101375581D01*
X142474941Y-101367018D01*
X142480111Y-101330228D01*
X142498138Y-101201959D01*
X142498445Y-101180000D01*
X142498025Y-101176256D01*
X142497213Y-101169020D01*
X142957632Y-101169020D01*
X142974741Y-101343511D01*
X143030083Y-101509876D01*
X143120908Y-101659846D01*
X143242701Y-101785966D01*
X143243243Y-101786321D01*
X143243247Y-101786324D01*
X143336416Y-101847292D01*
X143389410Y-101881970D01*
X143390027Y-101882199D01*
X143390026Y-101882199D01*
X143553123Y-101942854D01*
X143553125Y-101942854D01*
X143553742Y-101943084D01*
X143669714Y-101958558D01*
X143726884Y-101966187D01*
X143726886Y-101966187D01*
X143727530Y-101966273D01*
X143776950Y-101961775D01*
X143901481Y-101950442D01*
X143901484Y-101950441D01*
X143902137Y-101950382D01*
X143902763Y-101950179D01*
X143902766Y-101950178D01*
X143961729Y-101931020D01*
X145497632Y-101931020D01*
X145514741Y-102105511D01*
X145570083Y-102271876D01*
X145660908Y-102421846D01*
X145782701Y-102547966D01*
X145783243Y-102548321D01*
X145783247Y-102548324D01*
X145874091Y-102607770D01*
X145929410Y-102643970D01*
X145930027Y-102644199D01*
X145930026Y-102644199D01*
X146093123Y-102704854D01*
X146093125Y-102704854D01*
X146093742Y-102705084D01*
X146209714Y-102720558D01*
X146266884Y-102728187D01*
X146266886Y-102728187D01*
X146267530Y-102728273D01*
X146316950Y-102723775D01*
X146441481Y-102712442D01*
X146441484Y-102712441D01*
X146442137Y-102712382D01*
X146442763Y-102712179D01*
X146442766Y-102712178D01*
X146608263Y-102658405D01*
X146608265Y-102658404D01*
X146608884Y-102658203D01*
X146731228Y-102585271D01*
X146758924Y-102568761D01*
X146758925Y-102568760D01*
X146759484Y-102568427D01*
X146886452Y-102447517D01*
X146903198Y-102422313D01*
X146906391Y-102417507D01*
X152823450Y-102417507D01*
X152857595Y-102569017D01*
X152857884Y-102569940D01*
X152941532Y-102775942D01*
X152941966Y-102776801D01*
X153058141Y-102966382D01*
X153058709Y-102967156D01*
X153204286Y-103135215D01*
X153204967Y-103135883D01*
X153376047Y-103277916D01*
X153376826Y-103278462D01*
X153568810Y-103390648D01*
X153569660Y-103391055D01*
X153777384Y-103470377D01*
X153778301Y-103470643D01*
X153852976Y-103485836D01*
X153860399Y-103490843D01*
X153862108Y-103499634D01*
X153857101Y-103507057D01*
X153853671Y-103508602D01*
X153735692Y-103540214D01*
X153735689Y-103540215D01*
X153735193Y-103540348D01*
X153734733Y-103540563D01*
X153734729Y-103540564D01*
X153641629Y-103583978D01*
X153539898Y-103631416D01*
X153363383Y-103755013D01*
X153211013Y-103907383D01*
X153087416Y-104083898D01*
X152996348Y-104279193D01*
X152940577Y-104487335D01*
X152921796Y-104702000D01*
X152940577Y-104916665D01*
X152996348Y-105124807D01*
X153087416Y-105320102D01*
X153211013Y-105496617D01*
X153363383Y-105648987D01*
X153539898Y-105772584D01*
X153627747Y-105813549D01*
X153734729Y-105863436D01*
X153734733Y-105863437D01*
X153735193Y-105863652D01*
X153735689Y-105863785D01*
X153735692Y-105863786D01*
X153942841Y-105919291D01*
X153942845Y-105919292D01*
X153943335Y-105919423D01*
X153943839Y-105919467D01*
X153943844Y-105919468D01*
X154157486Y-105938159D01*
X154158000Y-105938204D01*
X154158514Y-105938159D01*
X154372156Y-105919468D01*
X154372161Y-105919467D01*
X154372665Y-105919423D01*
X154373155Y-105919292D01*
X154373159Y-105919291D01*
X154580308Y-105863786D01*
X154580311Y-105863785D01*
X154580807Y-105863652D01*
X154581267Y-105863437D01*
X154581271Y-105863436D01*
X154688253Y-105813549D01*
X154776102Y-105772584D01*
X154952617Y-105648987D01*
X155104987Y-105496617D01*
X155228584Y-105320102D01*
X155319652Y-105124807D01*
X155375423Y-104916665D01*
X155394204Y-104702000D01*
X155375423Y-104487335D01*
X155319652Y-104279193D01*
X155228584Y-104083898D01*
X155104987Y-103907383D01*
X154952617Y-103755013D01*
X154776102Y-103631416D01*
X154674371Y-103583978D01*
X154581271Y-103540564D01*
X154581267Y-103540563D01*
X154580807Y-103540348D01*
X154580311Y-103540215D01*
X154580308Y-103540214D01*
X154466867Y-103509818D01*
X154459763Y-103504367D01*
X154458594Y-103495489D01*
X154464045Y-103488385D01*
X154466533Y-103487310D01*
X154654747Y-103430843D01*
X154655629Y-103430497D01*
X154855306Y-103332676D01*
X154856128Y-103332186D01*
X155037150Y-103203066D01*
X155037869Y-103202458D01*
X155195377Y-103045498D01*
X155195994Y-103044772D01*
X155325739Y-102864212D01*
X155326235Y-102863388D01*
X155424754Y-102664051D01*
X155425102Y-102663173D01*
X155489741Y-102450419D01*
X155489942Y-102449489D01*
X155494047Y-102418306D01*
X155493587Y-102416588D01*
X155492569Y-102416000D01*
X152825437Y-102416000D01*
X152823792Y-102416682D01*
X152823450Y-102417507D01*
X146906391Y-102417507D01*
X146914580Y-102405181D01*
X146983477Y-102301482D01*
X147004270Y-102246745D01*
X147045505Y-102138193D01*
X147045506Y-102138189D01*
X147045737Y-102137581D01*
X147070138Y-101963959D01*
X147070363Y-101947844D01*
X147070440Y-101942367D01*
X147070440Y-101942365D01*
X147070445Y-101942000D01*
X147069287Y-101931673D01*
X147066405Y-101905979D01*
X152819672Y-101905979D01*
X152820088Y-101907394D01*
X152821199Y-101908000D01*
X155492132Y-101908000D01*
X155493777Y-101907318D01*
X155494095Y-101906551D01*
X155448072Y-101723329D01*
X155447765Y-101722427D01*
X155359104Y-101518518D01*
X155358651Y-101517674D01*
X155237877Y-101330986D01*
X155237294Y-101330228D01*
X155087651Y-101165773D01*
X155086951Y-101165120D01*
X154912454Y-101027312D01*
X154911665Y-101026787D01*
X154717004Y-100919328D01*
X154716132Y-100918936D01*
X154595531Y-100876229D01*
X154588877Y-100870237D01*
X154588408Y-100861294D01*
X154594400Y-100854640D01*
X154599437Y-100853500D01*
X155044158Y-100853500D01*
X155044583Y-100853437D01*
X155044589Y-100853437D01*
X155116943Y-100842786D01*
X155119144Y-100842462D01*
X155142622Y-100830935D01*
X155232280Y-100786915D01*
X155232282Y-100786914D01*
X155233151Y-100786487D01*
X155270966Y-100748606D01*
X155322197Y-100697286D01*
X155322199Y-100697283D01*
X155322880Y-100696601D01*
X155323305Y-100695732D01*
X155378256Y-100583314D01*
X155378257Y-100583312D01*
X155378655Y-100582497D01*
X155389500Y-100508158D01*
X155389500Y-98735842D01*
X155380503Y-98674718D01*
X155378595Y-98661760D01*
X155378462Y-98660856D01*
X155331989Y-98566202D01*
X155322915Y-98547720D01*
X155322914Y-98547718D01*
X155322487Y-98546849D01*
X155274726Y-98499171D01*
X155233286Y-98457803D01*
X155233283Y-98457801D01*
X155232601Y-98457120D01*
X155231732Y-98456695D01*
X155119314Y-98401744D01*
X155119312Y-98401743D01*
X155118497Y-98401345D01*
X155044158Y-98390500D01*
X153271842Y-98390500D01*
X153271417Y-98390563D01*
X153271411Y-98390563D01*
X153207741Y-98399936D01*
X153196856Y-98401538D01*
X153196036Y-98401941D01*
X153196035Y-98401941D01*
X153083720Y-98457085D01*
X153083718Y-98457086D01*
X153082849Y-98457513D01*
X153082165Y-98458199D01*
X153082164Y-98458199D01*
X152993803Y-98546714D01*
X152993801Y-98546717D01*
X152993120Y-98547399D01*
X152992696Y-98548267D01*
X152992695Y-98548268D01*
X152938063Y-98660035D01*
X152937345Y-98661503D01*
X152926500Y-98735842D01*
X152926500Y-100508158D01*
X152926562Y-100508581D01*
X152926563Y-100508589D01*
X152935936Y-100572259D01*
X152937538Y-100583144D01*
X152937941Y-100583964D01*
X152937941Y-100583965D01*
X152991271Y-100692584D01*
X152993513Y-100697151D01*
X152994199Y-100697835D01*
X152994199Y-100697836D01*
X153082714Y-100786197D01*
X153082717Y-100786199D01*
X153083399Y-100786880D01*
X153084267Y-100787304D01*
X153084268Y-100787305D01*
X153196686Y-100842256D01*
X153196688Y-100842257D01*
X153197503Y-100842655D01*
X153271842Y-100853500D01*
X153716565Y-100853500D01*
X153724838Y-100856927D01*
X153728265Y-100865200D01*
X153724838Y-100873473D01*
X153720200Y-100876321D01*
X153630403Y-100905671D01*
X153629526Y-100906040D01*
X153432304Y-101008707D01*
X153431487Y-101009222D01*
X153253683Y-101142721D01*
X153252966Y-101143357D01*
X153099350Y-101304108D01*
X153098748Y-101304852D01*
X152973452Y-101488528D01*
X152972975Y-101489367D01*
X152879363Y-101691038D01*
X152879029Y-101691945D01*
X152819672Y-101905979D01*
X147066405Y-101905979D01*
X147050974Y-101768413D01*
X147050974Y-101768411D01*
X147050901Y-101767764D01*
X146993242Y-101602188D01*
X146900332Y-101453501D01*
X146791106Y-101343511D01*
X146777247Y-101329555D01*
X146777246Y-101329554D01*
X146776789Y-101329094D01*
X146765498Y-101321928D01*
X146634883Y-101239037D01*
X146628755Y-101235148D01*
X146463585Y-101176334D01*
X146462935Y-101176257D01*
X146462933Y-101176256D01*
X146290140Y-101155651D01*
X146290135Y-101155651D01*
X146289490Y-101155574D01*
X146115122Y-101173901D01*
X145949148Y-101230403D01*
X145799816Y-101322273D01*
X145799345Y-101322734D01*
X145799344Y-101322735D01*
X145777490Y-101344136D01*
X145674549Y-101444944D01*
X145579572Y-101592319D01*
X145519606Y-101757074D01*
X145497632Y-101931020D01*
X143961729Y-101931020D01*
X144068263Y-101896405D01*
X144068265Y-101896404D01*
X144068884Y-101896203D01*
X144219484Y-101806427D01*
X144346452Y-101685517D01*
X144363198Y-101660313D01*
X144440233Y-101544364D01*
X144443477Y-101539482D01*
X144443711Y-101538866D01*
X144505505Y-101376193D01*
X144505506Y-101376189D01*
X144505737Y-101375581D01*
X144506941Y-101367018D01*
X144512111Y-101330228D01*
X144530138Y-101201959D01*
X144530445Y-101180000D01*
X144530025Y-101176256D01*
X144510974Y-101006413D01*
X144510974Y-101006411D01*
X144510901Y-101005764D01*
X144453242Y-100840188D01*
X144360332Y-100691501D01*
X144253543Y-100583965D01*
X144237247Y-100567555D01*
X144237246Y-100567554D01*
X144236789Y-100567094D01*
X144225498Y-100559928D01*
X144089303Y-100473496D01*
X144088755Y-100473148D01*
X143923585Y-100414334D01*
X143922935Y-100414257D01*
X143922933Y-100414256D01*
X143750140Y-100393651D01*
X143750135Y-100393651D01*
X143749490Y-100393574D01*
X143575122Y-100411901D01*
X143409148Y-100468403D01*
X143259816Y-100560273D01*
X143259345Y-100560734D01*
X143259344Y-100560735D01*
X143250616Y-100569282D01*
X143134549Y-100682944D01*
X143134196Y-100683492D01*
X143134195Y-100683493D01*
X143125393Y-100697151D01*
X143039572Y-100830319D01*
X142979606Y-100995074D01*
X142957632Y-101169020D01*
X142497213Y-101169020D01*
X142478974Y-101006413D01*
X142478974Y-101006411D01*
X142478901Y-101005764D01*
X142421242Y-100840188D01*
X142328332Y-100691501D01*
X142221543Y-100583965D01*
X142205247Y-100567555D01*
X142205246Y-100567554D01*
X142204789Y-100567094D01*
X142193498Y-100559928D01*
X142057303Y-100473496D01*
X142056755Y-100473148D01*
X141891585Y-100414334D01*
X141890935Y-100414257D01*
X141890933Y-100414256D01*
X141718140Y-100393651D01*
X141718135Y-100393651D01*
X141717490Y-100393574D01*
X141543122Y-100411901D01*
X141377148Y-100468403D01*
X141227816Y-100560273D01*
X141227345Y-100560734D01*
X141227344Y-100560735D01*
X141218616Y-100569282D01*
X141102549Y-100682944D01*
X141102196Y-100683492D01*
X141102195Y-100683493D01*
X141093393Y-100697151D01*
X141007572Y-100830319D01*
X140947606Y-100995074D01*
X140925632Y-101169020D01*
X129486932Y-101169020D01*
X129376102Y-101091416D01*
X129288253Y-101050451D01*
X129181271Y-101000564D01*
X129181267Y-101000563D01*
X129180807Y-101000348D01*
X129180311Y-101000215D01*
X129180308Y-101000214D01*
X128973159Y-100944709D01*
X128973155Y-100944708D01*
X128972665Y-100944577D01*
X128972161Y-100944533D01*
X128972156Y-100944532D01*
X128758514Y-100925841D01*
X128758000Y-100925796D01*
X128757486Y-100925841D01*
X128543844Y-100944532D01*
X128543839Y-100944533D01*
X128543335Y-100944577D01*
X128542845Y-100944708D01*
X128542841Y-100944709D01*
X128335692Y-101000214D01*
X128335689Y-101000215D01*
X128335193Y-101000348D01*
X128334733Y-101000563D01*
X128334729Y-101000564D01*
X128227747Y-101050451D01*
X128139898Y-101091416D01*
X127963383Y-101215013D01*
X127811013Y-101367383D01*
X127687416Y-101543898D01*
X127687199Y-101544364D01*
X127603746Y-101723329D01*
X127596348Y-101739193D01*
X127596215Y-101739689D01*
X127596214Y-101739692D01*
X127541693Y-101943171D01*
X127540577Y-101947335D01*
X127540533Y-101947839D01*
X127540532Y-101947844D01*
X127523989Y-102136934D01*
X127521796Y-102162000D01*
X93091500Y-102162000D01*
X93091500Y-99622000D01*
X127521796Y-99622000D01*
X127521841Y-99622514D01*
X127531261Y-99730180D01*
X127540577Y-99836665D01*
X127540708Y-99837155D01*
X127540709Y-99837159D01*
X127568046Y-99939183D01*
X127596348Y-100044807D01*
X127687416Y-100240102D01*
X127811013Y-100416617D01*
X127963383Y-100568987D01*
X128061904Y-100637972D01*
X128137692Y-100691039D01*
X128139898Y-100692584D01*
X128151161Y-100697836D01*
X128334729Y-100783436D01*
X128334733Y-100783437D01*
X128335193Y-100783652D01*
X128335689Y-100783785D01*
X128335692Y-100783786D01*
X128542841Y-100839291D01*
X128542845Y-100839292D01*
X128543335Y-100839423D01*
X128543839Y-100839467D01*
X128543844Y-100839468D01*
X128757486Y-100858159D01*
X128758000Y-100858204D01*
X128758514Y-100858159D01*
X128972156Y-100839468D01*
X128972161Y-100839467D01*
X128972665Y-100839423D01*
X128973155Y-100839292D01*
X128973159Y-100839291D01*
X129180308Y-100783786D01*
X129180311Y-100783785D01*
X129180807Y-100783652D01*
X129181267Y-100783437D01*
X129181271Y-100783436D01*
X129364839Y-100697836D01*
X129376102Y-100692584D01*
X129378309Y-100691039D01*
X129454096Y-100637972D01*
X129552617Y-100568987D01*
X129704987Y-100416617D01*
X129828584Y-100240102D01*
X129882804Y-100123827D01*
X146621845Y-100123827D01*
X146636047Y-100340507D01*
X146689497Y-100550971D01*
X146780407Y-100748169D01*
X146780716Y-100748606D01*
X146891719Y-100905671D01*
X146905731Y-100925498D01*
X147061272Y-101077020D01*
X147241822Y-101197659D01*
X147441332Y-101283376D01*
X147653123Y-101331299D01*
X147653653Y-101331320D01*
X147653654Y-101331320D01*
X147869564Y-101339803D01*
X147869565Y-101339803D01*
X147870100Y-101339824D01*
X147946503Y-101328746D01*
X148084462Y-101308743D01*
X148084466Y-101308742D01*
X148084997Y-101308665D01*
X148290618Y-101238866D01*
X148357165Y-101201598D01*
X148479605Y-101133029D01*
X148479607Y-101133028D01*
X148480076Y-101132765D01*
X148647026Y-100993914D01*
X148785877Y-100826964D01*
X148808306Y-100786915D01*
X148891717Y-100637972D01*
X148891978Y-100637506D01*
X148961777Y-100431885D01*
X148964334Y-100414256D01*
X148992886Y-100217332D01*
X148992936Y-100216988D01*
X148994562Y-100154888D01*
X148974693Y-99938654D01*
X148915751Y-99729662D01*
X148819710Y-99534911D01*
X148689787Y-99360923D01*
X148665574Y-99338540D01*
X148622375Y-99298608D01*
X148530333Y-99213525D01*
X148346688Y-99097654D01*
X148312936Y-99084188D01*
X148251769Y-99059785D01*
X148145002Y-99017189D01*
X148144485Y-99017086D01*
X148144481Y-99017085D01*
X147932559Y-98974931D01*
X147932557Y-98974931D01*
X147932030Y-98974826D01*
X147789754Y-98972964D01*
X147715440Y-98971991D01*
X147714903Y-98971984D01*
X147500895Y-99008757D01*
X147500395Y-99008941D01*
X147500393Y-99008942D01*
X147297670Y-99083731D01*
X147297667Y-99083732D01*
X147297172Y-99083915D01*
X147110556Y-99194939D01*
X147110159Y-99195287D01*
X147110155Y-99195290D01*
X146984211Y-99305741D01*
X146947298Y-99338113D01*
X146812865Y-99508640D01*
X146711760Y-99700810D01*
X146711602Y-99701318D01*
X146711601Y-99701321D01*
X146669422Y-99837159D01*
X146647367Y-99908188D01*
X146621845Y-100123827D01*
X129882804Y-100123827D01*
X129919652Y-100044807D01*
X129947954Y-99939183D01*
X129975291Y-99837159D01*
X129975292Y-99837155D01*
X129975423Y-99836665D01*
X129984740Y-99730180D01*
X129994159Y-99622514D01*
X129994204Y-99622000D01*
X129990593Y-99580721D01*
X129975468Y-99407844D01*
X129975467Y-99407839D01*
X129975423Y-99407335D01*
X129972514Y-99396476D01*
X129919786Y-99199692D01*
X129919785Y-99199689D01*
X129919652Y-99199193D01*
X129917669Y-99194939D01*
X129854645Y-99059785D01*
X129828584Y-99003898D01*
X129704987Y-98827383D01*
X129692052Y-98814448D01*
X137042132Y-98814448D01*
X137059241Y-98988939D01*
X137114583Y-99155304D01*
X137205408Y-99305274D01*
X137327201Y-99431394D01*
X137327743Y-99431749D01*
X137327747Y-99431752D01*
X137418027Y-99490829D01*
X137473910Y-99527398D01*
X137494112Y-99534911D01*
X137637623Y-99588282D01*
X137637625Y-99588282D01*
X137638242Y-99588512D01*
X137754214Y-99603986D01*
X137811384Y-99611615D01*
X137811386Y-99611615D01*
X137812030Y-99611701D01*
X137861450Y-99607203D01*
X137985981Y-99595870D01*
X137985984Y-99595869D01*
X137986637Y-99595810D01*
X137987263Y-99595607D01*
X137987266Y-99595606D01*
X138152763Y-99541833D01*
X138152765Y-99541832D01*
X138153384Y-99541631D01*
X138303984Y-99451855D01*
X138304460Y-99451402D01*
X138362502Y-99396131D01*
X138370856Y-99392907D01*
X138378986Y-99396476D01*
X138412706Y-99431394D01*
X138450777Y-99470817D01*
X138451319Y-99471172D01*
X138451323Y-99471175D01*
X138537591Y-99527627D01*
X138597486Y-99566821D01*
X138598103Y-99567050D01*
X138598102Y-99567050D01*
X138761199Y-99627705D01*
X138761201Y-99627705D01*
X138761818Y-99627935D01*
X138877790Y-99643409D01*
X138934960Y-99651038D01*
X138934962Y-99651038D01*
X138935606Y-99651124D01*
X138985026Y-99646626D01*
X139109557Y-99635293D01*
X139109560Y-99635292D01*
X139110213Y-99635233D01*
X139110839Y-99635030D01*
X139110842Y-99635029D01*
X139276339Y-99581256D01*
X139276341Y-99581255D01*
X139276960Y-99581054D01*
X139427560Y-99491278D01*
X139554528Y-99370368D01*
X139561043Y-99360563D01*
X139598145Y-99304719D01*
X139651553Y-99224333D01*
X139662822Y-99194666D01*
X139713581Y-99061044D01*
X139713582Y-99061040D01*
X139713813Y-99060432D01*
X139738214Y-98886810D01*
X139738521Y-98864851D01*
X139735328Y-98836388D01*
X139719050Y-98691264D01*
X139719050Y-98691262D01*
X139718977Y-98690615D01*
X139672718Y-98557776D01*
X139661533Y-98525656D01*
X139661532Y-98525655D01*
X139661318Y-98525039D01*
X139640077Y-98491046D01*
X146626500Y-98491046D01*
X146626562Y-98491469D01*
X146626563Y-98491477D01*
X146635430Y-98551712D01*
X146637538Y-98566032D01*
X146637941Y-98566852D01*
X146637941Y-98566853D01*
X146691225Y-98675378D01*
X146693513Y-98680039D01*
X146694199Y-98680723D01*
X146694199Y-98680724D01*
X146782714Y-98769085D01*
X146782717Y-98769087D01*
X146783399Y-98769768D01*
X146784267Y-98770192D01*
X146784268Y-98770193D01*
X146896686Y-98825144D01*
X146896688Y-98825145D01*
X146897503Y-98825543D01*
X146971842Y-98836388D01*
X148644158Y-98836388D01*
X148644583Y-98836325D01*
X148644589Y-98836325D01*
X148716943Y-98825674D01*
X148719144Y-98825350D01*
X148741349Y-98814448D01*
X148832280Y-98769803D01*
X148832282Y-98769802D01*
X148833151Y-98769375D01*
X148833836Y-98768689D01*
X148922197Y-98680174D01*
X148922199Y-98680171D01*
X148922880Y-98679489D01*
X148923305Y-98678620D01*
X148978256Y-98566202D01*
X148978257Y-98566200D01*
X148978655Y-98565385D01*
X148989500Y-98491046D01*
X148989500Y-96972000D01*
X184302350Y-96972000D01*
X184302386Y-96972457D01*
X184321995Y-97221611D01*
X184322118Y-97223179D01*
X184322223Y-97223618D01*
X184322224Y-97223622D01*
X184374105Y-97439718D01*
X184380936Y-97468173D01*
X184477355Y-97700950D01*
X184477594Y-97701340D01*
X184477595Y-97701342D01*
X184550428Y-97820193D01*
X184609002Y-97915777D01*
X184772634Y-98107366D01*
X184964223Y-98270998D01*
X184964607Y-98271234D01*
X184964608Y-98271234D01*
X185177580Y-98401744D01*
X185179050Y-98402645D01*
X185197466Y-98410273D01*
X185411401Y-98498888D01*
X185411406Y-98498890D01*
X185411827Y-98499064D01*
X185412266Y-98499169D01*
X185412271Y-98499171D01*
X185656378Y-98557776D01*
X185656382Y-98557777D01*
X185656821Y-98557882D01*
X185657274Y-98557918D01*
X185657276Y-98557918D01*
X185907543Y-98577614D01*
X185908000Y-98577650D01*
X185908457Y-98577614D01*
X186158724Y-98557918D01*
X186158726Y-98557918D01*
X186159179Y-98557882D01*
X186159618Y-98557777D01*
X186159622Y-98557776D01*
X186403729Y-98499171D01*
X186403734Y-98499169D01*
X186404173Y-98499064D01*
X186404594Y-98498890D01*
X186404599Y-98498888D01*
X186618534Y-98410273D01*
X186636950Y-98402645D01*
X186638421Y-98401744D01*
X186851392Y-98271234D01*
X186851393Y-98271234D01*
X186851777Y-98270998D01*
X187043366Y-98107366D01*
X187206998Y-97915777D01*
X187265572Y-97820193D01*
X187338405Y-97701342D01*
X187338406Y-97701340D01*
X187338645Y-97700950D01*
X187435064Y-97468173D01*
X187441896Y-97439718D01*
X187493776Y-97223622D01*
X187493777Y-97223618D01*
X187493882Y-97223179D01*
X187494006Y-97221611D01*
X187513614Y-96972457D01*
X187513650Y-96972000D01*
X187510661Y-96934015D01*
X187493918Y-96721276D01*
X187493918Y-96721274D01*
X187493882Y-96720821D01*
X187484925Y-96683511D01*
X187435171Y-96476271D01*
X187435169Y-96476266D01*
X187435064Y-96475827D01*
X187434080Y-96473450D01*
X187338822Y-96243478D01*
X187338645Y-96243050D01*
X187297128Y-96175300D01*
X187207234Y-96028608D01*
X187207234Y-96028607D01*
X187206998Y-96028223D01*
X187043366Y-95836634D01*
X186851777Y-95673002D01*
X186851392Y-95672766D01*
X186637342Y-95541595D01*
X186637340Y-95541594D01*
X186636950Y-95541355D01*
X186547559Y-95504328D01*
X186404599Y-95445112D01*
X186404594Y-95445110D01*
X186404173Y-95444936D01*
X186403734Y-95444831D01*
X186403729Y-95444829D01*
X186159622Y-95386224D01*
X186159618Y-95386223D01*
X186159179Y-95386118D01*
X186158726Y-95386082D01*
X186158724Y-95386082D01*
X185945985Y-95369339D01*
X185908000Y-95366350D01*
X185870015Y-95369339D01*
X185657276Y-95386082D01*
X185657274Y-95386082D01*
X185656821Y-95386118D01*
X185656382Y-95386223D01*
X185656378Y-95386224D01*
X185412271Y-95444829D01*
X185412266Y-95444831D01*
X185411827Y-95444936D01*
X185411406Y-95445110D01*
X185411401Y-95445112D01*
X185268441Y-95504328D01*
X185179050Y-95541355D01*
X185178660Y-95541594D01*
X185178658Y-95541595D01*
X184964608Y-95672766D01*
X184964223Y-95673002D01*
X184772634Y-95836634D01*
X184609002Y-96028223D01*
X184608766Y-96028607D01*
X184608766Y-96028608D01*
X184518873Y-96175300D01*
X184477355Y-96243050D01*
X184477178Y-96243478D01*
X184381921Y-96473450D01*
X184380936Y-96475827D01*
X184380831Y-96476266D01*
X184380829Y-96476271D01*
X184331075Y-96683511D01*
X184322118Y-96720821D01*
X184322082Y-96721274D01*
X184322082Y-96721276D01*
X184305339Y-96934015D01*
X184302350Y-96972000D01*
X148989500Y-96972000D01*
X148989500Y-96818730D01*
X148978462Y-96743744D01*
X148922487Y-96629737D01*
X148921801Y-96629052D01*
X148833286Y-96540691D01*
X148833283Y-96540689D01*
X148832601Y-96540008D01*
X148791669Y-96520000D01*
X148719314Y-96484632D01*
X148719312Y-96484631D01*
X148718497Y-96484233D01*
X148644158Y-96473388D01*
X146971842Y-96473388D01*
X146971417Y-96473451D01*
X146971411Y-96473451D01*
X146907741Y-96482824D01*
X146896856Y-96484426D01*
X146896036Y-96484829D01*
X146896035Y-96484829D01*
X146783720Y-96539973D01*
X146783718Y-96539974D01*
X146782849Y-96540401D01*
X146782165Y-96541087D01*
X146782164Y-96541087D01*
X146693803Y-96629602D01*
X146693801Y-96629605D01*
X146693120Y-96630287D01*
X146692696Y-96631155D01*
X146692695Y-96631156D01*
X146638063Y-96742923D01*
X146637345Y-96744391D01*
X146626500Y-96818730D01*
X146626500Y-98491046D01*
X139640077Y-98491046D01*
X139568408Y-98376352D01*
X139444865Y-98251945D01*
X139443000Y-98250761D01*
X139297379Y-98158347D01*
X139296831Y-98157999D01*
X139131661Y-98099185D01*
X139131011Y-98099108D01*
X139131009Y-98099107D01*
X138958216Y-98078502D01*
X138958211Y-98078502D01*
X138957566Y-98078425D01*
X138783198Y-98096752D01*
X138617224Y-98153254D01*
X138467892Y-98245124D01*
X138467421Y-98245585D01*
X138467420Y-98245586D01*
X138418282Y-98293706D01*
X138409974Y-98297046D01*
X138401794Y-98293591D01*
X138321747Y-98212983D01*
X138321746Y-98212982D01*
X138321289Y-98212522D01*
X138309998Y-98205356D01*
X138173803Y-98118924D01*
X138173255Y-98118576D01*
X138008085Y-98059762D01*
X138007435Y-98059685D01*
X138007433Y-98059684D01*
X137834640Y-98039079D01*
X137834635Y-98039079D01*
X137833990Y-98039002D01*
X137659622Y-98057329D01*
X137493648Y-98113831D01*
X137344316Y-98205701D01*
X137343845Y-98206162D01*
X137343844Y-98206163D01*
X137336880Y-98212983D01*
X137219049Y-98328372D01*
X137218696Y-98328920D01*
X137218695Y-98328921D01*
X137176640Y-98394178D01*
X137124072Y-98475747D01*
X137064106Y-98640502D01*
X137042132Y-98814448D01*
X129692052Y-98814448D01*
X129552617Y-98675013D01*
X129395685Y-98565128D01*
X129376525Y-98551712D01*
X129376523Y-98551711D01*
X129376102Y-98551416D01*
X129264063Y-98499171D01*
X129181271Y-98460564D01*
X129181267Y-98460563D01*
X129180807Y-98460348D01*
X129180311Y-98460215D01*
X129180308Y-98460214D01*
X128973159Y-98404709D01*
X128973155Y-98404708D01*
X128972665Y-98404577D01*
X128972161Y-98404533D01*
X128972156Y-98404532D01*
X128758514Y-98385841D01*
X128758000Y-98385796D01*
X128757486Y-98385841D01*
X128543844Y-98404532D01*
X128543839Y-98404533D01*
X128543335Y-98404577D01*
X128542845Y-98404708D01*
X128542841Y-98404709D01*
X128335692Y-98460214D01*
X128335689Y-98460215D01*
X128335193Y-98460348D01*
X128334733Y-98460563D01*
X128334729Y-98460564D01*
X128251937Y-98499171D01*
X128139898Y-98551416D01*
X128139477Y-98551711D01*
X128139475Y-98551712D01*
X128120315Y-98565128D01*
X127963383Y-98675013D01*
X127811013Y-98827383D01*
X127687416Y-99003898D01*
X127661355Y-99059785D01*
X127598332Y-99194939D01*
X127596348Y-99199193D01*
X127596215Y-99199689D01*
X127596214Y-99199692D01*
X127543487Y-99396476D01*
X127540577Y-99407335D01*
X127540533Y-99407839D01*
X127540532Y-99407844D01*
X127525407Y-99580721D01*
X127521796Y-99622000D01*
X93091500Y-99622000D01*
X93091500Y-96972000D01*
X95402350Y-96972000D01*
X95402386Y-96972457D01*
X95421995Y-97221611D01*
X95422118Y-97223179D01*
X95422223Y-97223618D01*
X95422224Y-97223622D01*
X95474105Y-97439718D01*
X95480936Y-97468173D01*
X95577355Y-97700950D01*
X95577594Y-97701340D01*
X95577595Y-97701342D01*
X95650428Y-97820193D01*
X95709002Y-97915777D01*
X95872634Y-98107366D01*
X96064223Y-98270998D01*
X96064607Y-98271234D01*
X96064608Y-98271234D01*
X96277580Y-98401744D01*
X96279050Y-98402645D01*
X96297466Y-98410273D01*
X96511401Y-98498888D01*
X96511406Y-98498890D01*
X96511827Y-98499064D01*
X96512266Y-98499169D01*
X96512271Y-98499171D01*
X96756378Y-98557776D01*
X96756382Y-98557777D01*
X96756821Y-98557882D01*
X96757274Y-98557918D01*
X96757276Y-98557918D01*
X97007543Y-98577614D01*
X97008000Y-98577650D01*
X97008457Y-98577614D01*
X97258724Y-98557918D01*
X97258726Y-98557918D01*
X97259179Y-98557882D01*
X97259618Y-98557777D01*
X97259622Y-98557776D01*
X97503729Y-98499171D01*
X97503734Y-98499169D01*
X97504173Y-98499064D01*
X97504594Y-98498890D01*
X97504599Y-98498888D01*
X97718534Y-98410273D01*
X97736950Y-98402645D01*
X97738421Y-98401744D01*
X97951392Y-98271234D01*
X97951393Y-98271234D01*
X97951777Y-98270998D01*
X98143366Y-98107366D01*
X98306998Y-97915777D01*
X98365572Y-97820193D01*
X98438405Y-97701342D01*
X98438406Y-97701340D01*
X98438645Y-97700950D01*
X98475067Y-97613020D01*
X134321632Y-97613020D01*
X134338741Y-97787511D01*
X134394083Y-97953876D01*
X134484908Y-98103846D01*
X134606701Y-98229966D01*
X134607243Y-98230321D01*
X134607247Y-98230324D01*
X134669404Y-98270998D01*
X134753410Y-98325970D01*
X134759869Y-98328372D01*
X134917123Y-98386854D01*
X134917125Y-98386854D01*
X134917742Y-98387084D01*
X135023638Y-98401214D01*
X135090884Y-98410187D01*
X135090886Y-98410187D01*
X135091530Y-98410273D01*
X135152666Y-98404709D01*
X135265481Y-98394442D01*
X135265484Y-98394441D01*
X135266137Y-98394382D01*
X135266763Y-98394179D01*
X135266766Y-98394178D01*
X135432263Y-98340405D01*
X135432265Y-98340404D01*
X135432884Y-98340203D01*
X135580938Y-98251945D01*
X135582924Y-98250761D01*
X135582925Y-98250760D01*
X135583484Y-98250427D01*
X135710452Y-98129517D01*
X135720647Y-98114173D01*
X135758413Y-98057329D01*
X135807477Y-97983482D01*
X135869737Y-97819581D01*
X135894138Y-97645959D01*
X135894445Y-97624000D01*
X135893287Y-97613673D01*
X135874974Y-97450413D01*
X135874974Y-97450411D01*
X135874901Y-97449764D01*
X135817242Y-97284188D01*
X135724332Y-97135501D01*
X135600789Y-97011094D01*
X135589498Y-97003928D01*
X135453303Y-96917496D01*
X135452755Y-96917148D01*
X135287585Y-96858334D01*
X135286935Y-96858257D01*
X135286933Y-96858256D01*
X135114140Y-96837651D01*
X135114135Y-96837651D01*
X135113490Y-96837574D01*
X134939122Y-96855901D01*
X134773148Y-96912403D01*
X134623816Y-97004273D01*
X134623345Y-97004734D01*
X134623344Y-97004735D01*
X134616380Y-97011555D01*
X134498549Y-97126944D01*
X134403572Y-97274319D01*
X134343606Y-97439074D01*
X134321632Y-97613020D01*
X98475067Y-97613020D01*
X98535064Y-97468173D01*
X98541896Y-97439718D01*
X98593776Y-97223622D01*
X98593777Y-97223618D01*
X98593882Y-97223179D01*
X98594006Y-97221611D01*
X98613614Y-96972457D01*
X98613650Y-96972000D01*
X98610661Y-96934015D01*
X98593918Y-96721276D01*
X98593918Y-96721274D01*
X98593882Y-96720821D01*
X98584925Y-96683511D01*
X98543033Y-96509020D01*
X143993632Y-96509020D01*
X144010741Y-96683511D01*
X144066083Y-96849876D01*
X144156908Y-96999846D01*
X144278701Y-97125966D01*
X144279243Y-97126321D01*
X144279247Y-97126324D01*
X144372416Y-97187292D01*
X144425410Y-97221970D01*
X144428661Y-97223179D01*
X144589123Y-97282854D01*
X144589125Y-97282854D01*
X144589742Y-97283084D01*
X144705714Y-97298558D01*
X144762884Y-97306187D01*
X144762886Y-97306187D01*
X144763530Y-97306273D01*
X144812950Y-97301775D01*
X144937481Y-97290442D01*
X144937484Y-97290441D01*
X144938137Y-97290382D01*
X144938763Y-97290179D01*
X144938766Y-97290178D01*
X145104263Y-97236405D01*
X145104265Y-97236404D01*
X145104884Y-97236203D01*
X145255484Y-97146427D01*
X145382452Y-97025517D01*
X145396260Y-97004735D01*
X145418312Y-96971543D01*
X145479477Y-96879482D01*
X145502390Y-96819163D01*
X145541505Y-96716193D01*
X145541506Y-96716189D01*
X145541737Y-96715581D01*
X145566138Y-96541959D01*
X145566445Y-96520000D01*
X145565287Y-96509673D01*
X145546974Y-96346413D01*
X145546974Y-96346411D01*
X145546901Y-96345764D01*
X145489242Y-96180188D01*
X145396332Y-96031501D01*
X145292428Y-95926870D01*
X145273247Y-95907555D01*
X145273246Y-95907554D01*
X145272789Y-95907094D01*
X145261498Y-95899928D01*
X145182326Y-95849684D01*
X145124755Y-95813148D01*
X144959585Y-95754334D01*
X144958935Y-95754257D01*
X144958933Y-95754256D01*
X144786140Y-95733651D01*
X144786135Y-95733651D01*
X144785490Y-95733574D01*
X144611122Y-95751901D01*
X144445148Y-95808403D01*
X144295816Y-95900273D01*
X144295345Y-95900734D01*
X144295344Y-95900735D01*
X144274939Y-95920717D01*
X144170549Y-96022944D01*
X144170196Y-96023492D01*
X144170195Y-96023493D01*
X144145949Y-96061115D01*
X144075572Y-96170319D01*
X144015606Y-96335074D01*
X143993632Y-96509020D01*
X98543033Y-96509020D01*
X98535171Y-96476271D01*
X98535169Y-96476266D01*
X98535064Y-96475827D01*
X98534080Y-96473450D01*
X98438822Y-96243478D01*
X98438645Y-96243050D01*
X98397128Y-96175300D01*
X98307234Y-96028608D01*
X98307234Y-96028607D01*
X98306998Y-96028223D01*
X98143366Y-95836634D01*
X97951777Y-95673002D01*
X97951392Y-95672766D01*
X97737342Y-95541595D01*
X97737340Y-95541594D01*
X97736950Y-95541355D01*
X97647559Y-95504328D01*
X97504599Y-95445112D01*
X97504594Y-95445110D01*
X97504173Y-95444936D01*
X97503734Y-95444831D01*
X97503729Y-95444829D01*
X97259622Y-95386224D01*
X97259618Y-95386223D01*
X97259179Y-95386118D01*
X97258726Y-95386082D01*
X97258724Y-95386082D01*
X97045985Y-95369339D01*
X97008000Y-95366350D01*
X96970015Y-95369339D01*
X96757276Y-95386082D01*
X96757274Y-95386082D01*
X96756821Y-95386118D01*
X96756382Y-95386223D01*
X96756378Y-95386224D01*
X96512271Y-95444829D01*
X96512266Y-95444831D01*
X96511827Y-95444936D01*
X96511406Y-95445110D01*
X96511401Y-95445112D01*
X96368441Y-95504328D01*
X96279050Y-95541355D01*
X96278660Y-95541594D01*
X96278658Y-95541595D01*
X96064608Y-95672766D01*
X96064223Y-95673002D01*
X95872634Y-95836634D01*
X95709002Y-96028223D01*
X95708766Y-96028607D01*
X95708766Y-96028608D01*
X95618873Y-96175300D01*
X95577355Y-96243050D01*
X95577178Y-96243478D01*
X95481921Y-96473450D01*
X95480936Y-96475827D01*
X95480831Y-96476266D01*
X95480829Y-96476271D01*
X95431075Y-96683511D01*
X95422118Y-96720821D01*
X95422082Y-96721274D01*
X95422082Y-96721276D01*
X95405339Y-96934015D01*
X95402350Y-96972000D01*
X93091500Y-96972000D01*
X93091500Y-96151705D01*
X93093077Y-96145838D01*
X93641222Y-95200020D01*
X109703632Y-95200020D01*
X109720741Y-95374511D01*
X109776083Y-95540876D01*
X109866908Y-95690846D01*
X109988701Y-95816966D01*
X109989243Y-95817321D01*
X109989247Y-95817324D01*
X110053959Y-95859670D01*
X110135410Y-95912970D01*
X110156241Y-95920717D01*
X110299123Y-95973854D01*
X110299125Y-95973854D01*
X110299742Y-95974084D01*
X110415714Y-95989558D01*
X110472884Y-95997187D01*
X110472886Y-95997187D01*
X110473530Y-95997273D01*
X110522950Y-95992775D01*
X110647481Y-95981442D01*
X110647484Y-95981441D01*
X110648137Y-95981382D01*
X110648763Y-95981179D01*
X110648766Y-95981178D01*
X110814263Y-95927405D01*
X110814265Y-95927404D01*
X110814884Y-95927203D01*
X110928171Y-95859670D01*
X110964924Y-95837761D01*
X110964925Y-95837760D01*
X110965484Y-95837427D01*
X111092452Y-95716517D01*
X111109198Y-95691313D01*
X111121520Y-95672766D01*
X111189477Y-95570482D01*
X111200723Y-95540876D01*
X111251505Y-95407193D01*
X111251506Y-95407189D01*
X111251737Y-95406581D01*
X111261976Y-95333730D01*
X141023511Y-95333730D01*
X141040620Y-95508221D01*
X141095962Y-95674586D01*
X141186787Y-95824556D01*
X141187238Y-95825023D01*
X141266795Y-95907406D01*
X141308580Y-95950676D01*
X141309122Y-95951031D01*
X141309126Y-95951034D01*
X141355595Y-95981442D01*
X141455289Y-96046680D01*
X141455906Y-96046909D01*
X141455905Y-96046909D01*
X141619002Y-96107564D01*
X141619004Y-96107564D01*
X141619621Y-96107794D01*
X141735593Y-96123268D01*
X141792763Y-96130897D01*
X141792765Y-96130897D01*
X141793409Y-96130983D01*
X141842829Y-96126485D01*
X141967360Y-96115152D01*
X141967363Y-96115151D01*
X141968016Y-96115092D01*
X141968642Y-96114889D01*
X141968645Y-96114888D01*
X142134142Y-96061115D01*
X142134144Y-96061114D01*
X142134763Y-96060913D01*
X142278331Y-95975329D01*
X142284803Y-95971471D01*
X142284804Y-95971470D01*
X142285363Y-95971137D01*
X142412331Y-95850227D01*
X142420614Y-95837761D01*
X142476042Y-95754334D01*
X142509356Y-95704192D01*
X142514426Y-95690846D01*
X142571384Y-95540903D01*
X142571385Y-95540899D01*
X142571616Y-95540291D01*
X142596017Y-95366669D01*
X142596324Y-95344710D01*
X142595166Y-95334383D01*
X142576853Y-95171123D01*
X142576853Y-95171121D01*
X142576780Y-95170474D01*
X142530003Y-95036147D01*
X142519336Y-95005515D01*
X142519335Y-95005514D01*
X142519121Y-95004898D01*
X142426211Y-94856211D01*
X142302668Y-94731804D01*
X142291377Y-94724638D01*
X142155182Y-94638206D01*
X142154634Y-94637858D01*
X141989464Y-94579044D01*
X141988814Y-94578967D01*
X141988812Y-94578966D01*
X141816019Y-94558361D01*
X141816014Y-94558361D01*
X141815369Y-94558284D01*
X141641001Y-94576611D01*
X141640384Y-94576821D01*
X141596574Y-94591735D01*
X141475027Y-94633113D01*
X141325695Y-94724983D01*
X141325224Y-94725444D01*
X141325223Y-94725445D01*
X141318259Y-94732265D01*
X141200428Y-94847654D01*
X141105451Y-94995029D01*
X141045485Y-95159784D01*
X141023511Y-95333730D01*
X111261976Y-95333730D01*
X111276138Y-95232959D01*
X111276445Y-95211000D01*
X111275287Y-95200673D01*
X111256974Y-95037413D01*
X111256974Y-95037411D01*
X111256901Y-95036764D01*
X111199242Y-94871188D01*
X111106332Y-94722501D01*
X111022060Y-94637640D01*
X110983247Y-94598555D01*
X110983246Y-94598554D01*
X110982789Y-94598094D01*
X110971498Y-94590928D01*
X110835303Y-94504496D01*
X110834755Y-94504148D01*
X110669585Y-94445334D01*
X110668935Y-94445257D01*
X110668933Y-94445256D01*
X110496140Y-94424651D01*
X110496135Y-94424651D01*
X110495490Y-94424574D01*
X110321122Y-94442901D01*
X110320505Y-94443111D01*
X110286366Y-94454733D01*
X110155148Y-94499403D01*
X110005816Y-94591273D01*
X110005345Y-94591734D01*
X110005344Y-94591735D01*
X109998380Y-94598555D01*
X109880549Y-94713944D01*
X109785572Y-94861319D01*
X109725606Y-95026074D01*
X109703632Y-95200020D01*
X93641222Y-95200020D01*
X94472991Y-93764811D01*
X134421533Y-93764811D01*
X134421610Y-93765509D01*
X134421610Y-93765511D01*
X134438662Y-93919970D01*
X134439633Y-93928764D01*
X134439877Y-93929430D01*
X134439877Y-93929431D01*
X134441623Y-93934203D01*
X134496320Y-94083667D01*
X134588319Y-94220577D01*
X134710321Y-94331589D01*
X134855281Y-94410296D01*
X135014831Y-94452153D01*
X135015530Y-94452164D01*
X135179055Y-94454733D01*
X135179759Y-94454744D01*
X135180443Y-94454587D01*
X135180446Y-94454587D01*
X135339861Y-94418076D01*
X135339864Y-94418075D01*
X135340545Y-94417919D01*
X135487906Y-94343805D01*
X135613334Y-94236679D01*
X135709589Y-94102726D01*
X135771113Y-93949681D01*
X135771212Y-93948986D01*
X135771213Y-93948982D01*
X135794300Y-93786755D01*
X135794354Y-93786377D01*
X135794505Y-93772000D01*
X135793635Y-93764811D01*
X147121533Y-93764811D01*
X147121610Y-93765509D01*
X147121610Y-93765511D01*
X147138662Y-93919970D01*
X147139633Y-93928764D01*
X147139877Y-93929430D01*
X147139877Y-93929431D01*
X147141623Y-93934203D01*
X147196320Y-94083667D01*
X147288319Y-94220577D01*
X147410321Y-94331589D01*
X147555281Y-94410296D01*
X147714831Y-94452153D01*
X147715530Y-94452164D01*
X147879055Y-94454733D01*
X147879759Y-94454744D01*
X147880443Y-94454587D01*
X147880446Y-94454587D01*
X148039861Y-94418076D01*
X148039864Y-94418075D01*
X148040545Y-94417919D01*
X148187906Y-94343805D01*
X148313334Y-94236679D01*
X148409589Y-94102726D01*
X148471113Y-93949681D01*
X148471212Y-93948986D01*
X148471213Y-93948982D01*
X148494300Y-93786755D01*
X148494354Y-93786377D01*
X148494505Y-93772000D01*
X148474689Y-93608246D01*
X148472320Y-93601975D01*
X148416631Y-93454601D01*
X148416631Y-93454600D01*
X148416383Y-93453945D01*
X148322955Y-93318006D01*
X148322429Y-93317538D01*
X148322427Y-93317535D01*
X148306524Y-93303367D01*
X148281655Y-93281209D01*
X148277758Y-93273149D01*
X148280703Y-93264692D01*
X148281840Y-93263578D01*
X148309072Y-93240319D01*
X148313334Y-93236679D01*
X148334646Y-93207020D01*
X157963632Y-93207020D01*
X157980741Y-93381511D01*
X158036083Y-93547876D01*
X158126908Y-93697846D01*
X158127359Y-93698313D01*
X158192252Y-93765511D01*
X158248701Y-93823966D01*
X158249243Y-93824321D01*
X158249247Y-93824324D01*
X158342416Y-93885292D01*
X158395410Y-93919970D01*
X158396027Y-93920199D01*
X158396026Y-93920199D01*
X158559123Y-93980854D01*
X158559125Y-93980854D01*
X158559742Y-93981084D01*
X158675714Y-93996558D01*
X158732884Y-94004187D01*
X158732886Y-94004187D01*
X158733530Y-94004273D01*
X158782950Y-93999775D01*
X158907481Y-93988442D01*
X158907484Y-93988441D01*
X158908137Y-93988382D01*
X158908763Y-93988179D01*
X158908766Y-93988178D01*
X159074263Y-93934405D01*
X159074265Y-93934404D01*
X159074884Y-93934203D01*
X159225484Y-93844427D01*
X159352452Y-93723517D01*
X159369198Y-93698313D01*
X159428570Y-93608949D01*
X159449477Y-93577482D01*
X159460958Y-93547259D01*
X159511505Y-93414193D01*
X159511506Y-93414189D01*
X159511737Y-93413581D01*
X159536138Y-93239959D01*
X159536445Y-93218000D01*
X159536217Y-93215965D01*
X159516974Y-93044413D01*
X159516974Y-93044411D01*
X159516901Y-93043764D01*
X159482716Y-92945597D01*
X159459457Y-92878805D01*
X159459456Y-92878804D01*
X159459242Y-92878188D01*
X159366332Y-92729501D01*
X159242789Y-92605094D01*
X159237875Y-92601975D01*
X159127417Y-92531876D01*
X159094755Y-92511148D01*
X158929585Y-92452334D01*
X158928935Y-92452257D01*
X158928933Y-92452256D01*
X158756140Y-92431651D01*
X158756135Y-92431651D01*
X158755490Y-92431574D01*
X158581122Y-92449901D01*
X158580505Y-92450111D01*
X158570500Y-92453517D01*
X158415148Y-92506403D01*
X158265816Y-92598273D01*
X158265345Y-92598734D01*
X158265344Y-92598735D01*
X158258380Y-92605555D01*
X158140549Y-92720944D01*
X158140196Y-92721492D01*
X158140195Y-92721493D01*
X158107399Y-92772382D01*
X158045572Y-92868319D01*
X157985606Y-93033074D01*
X157963632Y-93207020D01*
X148334646Y-93207020D01*
X148409589Y-93102726D01*
X148471113Y-92949681D01*
X148471212Y-92948986D01*
X148471213Y-92948982D01*
X148488433Y-92827978D01*
X148494354Y-92786377D01*
X148494505Y-92772000D01*
X148474689Y-92608246D01*
X148473673Y-92605555D01*
X148416631Y-92454601D01*
X148416631Y-92454600D01*
X148416383Y-92453945D01*
X148322955Y-92318006D01*
X148322429Y-92317538D01*
X148322427Y-92317535D01*
X148214640Y-92221501D01*
X148199798Y-92208277D01*
X148167205Y-92191020D01*
X149327632Y-92191020D01*
X149344741Y-92365511D01*
X149400083Y-92531876D01*
X149490908Y-92681846D01*
X149491359Y-92682313D01*
X149571703Y-92765511D01*
X149612701Y-92807966D01*
X149613243Y-92808321D01*
X149613247Y-92808324D01*
X149704091Y-92867770D01*
X149759410Y-92903970D01*
X149760027Y-92904199D01*
X149760026Y-92904199D01*
X149923123Y-92964854D01*
X149923125Y-92964854D01*
X149923742Y-92965084D01*
X150039714Y-92980558D01*
X150096884Y-92988187D01*
X150096886Y-92988187D01*
X150097530Y-92988273D01*
X150146950Y-92983775D01*
X150271481Y-92972442D01*
X150271484Y-92972441D01*
X150272137Y-92972382D01*
X150272763Y-92972179D01*
X150272766Y-92972178D01*
X150438263Y-92918405D01*
X150438265Y-92918404D01*
X150438884Y-92918203D01*
X150589484Y-92828427D01*
X150716452Y-92707517D01*
X150722098Y-92699020D01*
X150782407Y-92608246D01*
X150813477Y-92561482D01*
X150824958Y-92531259D01*
X150875505Y-92398193D01*
X150875506Y-92398189D01*
X150875737Y-92397581D01*
X150894980Y-92260657D01*
X150899525Y-92252942D01*
X150908194Y-92250700D01*
X150915910Y-92255245D01*
X150917668Y-92258593D01*
X150924083Y-92277876D01*
X151014908Y-92427846D01*
X151015359Y-92428313D01*
X151095142Y-92510930D01*
X151136701Y-92553966D01*
X151137243Y-92554321D01*
X151137247Y-92554324D01*
X151230416Y-92615292D01*
X151283410Y-92649970D01*
X151284027Y-92650199D01*
X151284026Y-92650199D01*
X151447123Y-92710854D01*
X151447125Y-92710854D01*
X151447742Y-92711084D01*
X151563714Y-92726558D01*
X151620884Y-92734187D01*
X151620886Y-92734187D01*
X151621530Y-92734273D01*
X151679040Y-92729039D01*
X151795481Y-92718442D01*
X151795484Y-92718441D01*
X151796137Y-92718382D01*
X151796763Y-92718179D01*
X151796766Y-92718178D01*
X151962263Y-92664405D01*
X151962265Y-92664404D01*
X151962884Y-92664203D01*
X152113484Y-92574427D01*
X152240452Y-92453517D01*
X152242855Y-92449901D01*
X152296184Y-92369633D01*
X152337477Y-92307482D01*
X152358195Y-92252942D01*
X152399505Y-92144193D01*
X152399506Y-92144189D01*
X152399737Y-92143581D01*
X152424138Y-91969959D01*
X152424445Y-91948000D01*
X152424404Y-91947633D01*
X152404974Y-91774413D01*
X152404974Y-91774411D01*
X152404901Y-91773764D01*
X152347242Y-91608188D01*
X152254332Y-91459501D01*
X152130789Y-91335094D01*
X152119498Y-91327928D01*
X151983303Y-91241496D01*
X151982755Y-91241148D01*
X151817585Y-91182334D01*
X151816935Y-91182257D01*
X151816933Y-91182256D01*
X151644140Y-91161651D01*
X151644135Y-91161651D01*
X151643490Y-91161574D01*
X151469122Y-91179901D01*
X151468505Y-91180111D01*
X151409300Y-91200266D01*
X151303148Y-91236403D01*
X151153816Y-91328273D01*
X151153345Y-91328734D01*
X151153344Y-91328735D01*
X151146380Y-91335555D01*
X151028549Y-91450944D01*
X150933572Y-91598319D01*
X150873606Y-91763074D01*
X150861008Y-91862805D01*
X150857264Y-91892440D01*
X150852827Y-91900219D01*
X150844190Y-91902582D01*
X150836411Y-91898145D01*
X150834607Y-91894822D01*
X150823457Y-91862805D01*
X150823457Y-91862804D01*
X150823242Y-91862188D01*
X150730332Y-91713501D01*
X150626363Y-91608805D01*
X150607247Y-91589555D01*
X150607246Y-91589554D01*
X150606789Y-91589094D01*
X150595498Y-91581928D01*
X150459303Y-91495496D01*
X150458755Y-91495148D01*
X150293585Y-91436334D01*
X150292935Y-91436257D01*
X150292933Y-91436256D01*
X150120140Y-91415651D01*
X150120135Y-91415651D01*
X150119490Y-91415574D01*
X149945122Y-91433901D01*
X149779148Y-91490403D01*
X149629816Y-91582273D01*
X149629345Y-91582734D01*
X149629344Y-91582735D01*
X149577096Y-91633900D01*
X149504549Y-91704944D01*
X149409572Y-91852319D01*
X149349606Y-92017074D01*
X149327632Y-92191020D01*
X148167205Y-92191020D01*
X148054021Y-92131092D01*
X147974650Y-92111155D01*
X147894724Y-92091079D01*
X147894722Y-92091079D01*
X147894042Y-92090908D01*
X147893341Y-92090904D01*
X147893338Y-92090904D01*
X147814182Y-92090490D01*
X147729095Y-92090045D01*
X147728418Y-92090208D01*
X147728414Y-92090208D01*
X147569386Y-92128387D01*
X147569384Y-92128388D01*
X147568704Y-92128551D01*
X147422127Y-92204205D01*
X147421597Y-92204667D01*
X147421596Y-92204668D01*
X147402300Y-92221501D01*
X147297827Y-92312638D01*
X147297420Y-92313217D01*
X147203388Y-92447012D01*
X147203386Y-92447016D01*
X147202981Y-92447592D01*
X147143063Y-92601273D01*
X147121533Y-92764811D01*
X147121610Y-92765509D01*
X147121610Y-92765511D01*
X147137141Y-92906193D01*
X147139633Y-92928764D01*
X147196320Y-93083667D01*
X147288319Y-93220577D01*
X147288841Y-93221052D01*
X147334914Y-93262974D01*
X147338727Y-93271077D01*
X147335694Y-93279502D01*
X147334733Y-93280443D01*
X147297827Y-93312638D01*
X147297420Y-93313217D01*
X147203388Y-93447012D01*
X147203386Y-93447016D01*
X147202981Y-93447592D01*
X147202724Y-93448251D01*
X147184024Y-93496214D01*
X147143063Y-93601273D01*
X147121533Y-93764811D01*
X135793635Y-93764811D01*
X135774689Y-93608246D01*
X135772320Y-93601975D01*
X135716631Y-93454601D01*
X135716631Y-93454600D01*
X135716383Y-93453945D01*
X135622955Y-93318006D01*
X135622429Y-93317538D01*
X135622427Y-93317535D01*
X135606524Y-93303367D01*
X135581655Y-93281209D01*
X135577758Y-93273149D01*
X135580703Y-93264692D01*
X135581840Y-93263578D01*
X135609072Y-93240319D01*
X135613334Y-93236679D01*
X135709589Y-93102726D01*
X135771113Y-92949681D01*
X135771212Y-92948986D01*
X135771213Y-92948982D01*
X135788433Y-92827978D01*
X135794354Y-92786377D01*
X135794505Y-92772000D01*
X135774689Y-92608246D01*
X135773673Y-92605555D01*
X135716631Y-92454601D01*
X135716631Y-92454600D01*
X135716383Y-92453945D01*
X135622955Y-92318006D01*
X135622429Y-92317538D01*
X135622427Y-92317535D01*
X135514640Y-92221501D01*
X135499798Y-92208277D01*
X135354021Y-92131092D01*
X135274650Y-92111155D01*
X135194724Y-92091079D01*
X135194722Y-92091079D01*
X135194042Y-92090908D01*
X135193341Y-92090904D01*
X135193338Y-92090904D01*
X135114182Y-92090490D01*
X135029095Y-92090045D01*
X135028418Y-92090208D01*
X135028414Y-92090208D01*
X134869386Y-92128387D01*
X134869384Y-92128388D01*
X134868704Y-92128551D01*
X134722127Y-92204205D01*
X134721597Y-92204667D01*
X134721596Y-92204668D01*
X134702300Y-92221501D01*
X134597827Y-92312638D01*
X134597420Y-92313217D01*
X134503388Y-92447012D01*
X134503386Y-92447016D01*
X134502981Y-92447592D01*
X134443063Y-92601273D01*
X134421533Y-92764811D01*
X134421610Y-92765509D01*
X134421610Y-92765511D01*
X134437141Y-92906193D01*
X134439633Y-92928764D01*
X134496320Y-93083667D01*
X134588319Y-93220577D01*
X134588841Y-93221052D01*
X134634914Y-93262974D01*
X134638727Y-93271077D01*
X134635694Y-93279502D01*
X134634733Y-93280443D01*
X134597827Y-93312638D01*
X134597420Y-93313217D01*
X134503388Y-93447012D01*
X134503386Y-93447016D01*
X134502981Y-93447592D01*
X134502724Y-93448251D01*
X134484024Y-93496214D01*
X134443063Y-93601273D01*
X134421533Y-93764811D01*
X94472991Y-93764811D01*
X95090665Y-92699020D01*
X99289632Y-92699020D01*
X99306741Y-92873511D01*
X99362083Y-93039876D01*
X99452908Y-93189846D01*
X99453359Y-93190313D01*
X99532522Y-93272288D01*
X99574701Y-93315966D01*
X99575243Y-93316321D01*
X99575247Y-93316324D01*
X99668416Y-93377292D01*
X99721410Y-93411970D01*
X99722027Y-93412199D01*
X99722026Y-93412199D01*
X99885123Y-93472854D01*
X99885125Y-93472854D01*
X99885742Y-93473084D01*
X100001714Y-93488558D01*
X100058884Y-93496187D01*
X100058886Y-93496187D01*
X100059530Y-93496273D01*
X100108950Y-93491775D01*
X100233481Y-93480442D01*
X100233484Y-93480441D01*
X100234137Y-93480382D01*
X100234763Y-93480179D01*
X100234766Y-93480178D01*
X100400263Y-93426405D01*
X100400265Y-93426404D01*
X100400884Y-93426203D01*
X100551484Y-93336427D01*
X100678452Y-93215517D01*
X100684098Y-93207020D01*
X100721373Y-93150915D01*
X100775477Y-93069482D01*
X100786958Y-93039259D01*
X100837505Y-92906193D01*
X100837506Y-92906189D01*
X100837737Y-92905581D01*
X100842434Y-92872158D01*
X125290500Y-92872158D01*
X125290562Y-92872581D01*
X125290563Y-92872589D01*
X125298729Y-92928059D01*
X125301538Y-92947144D01*
X125301941Y-92947964D01*
X125301941Y-92947965D01*
X125343728Y-93033074D01*
X125357513Y-93061151D01*
X125358199Y-93061835D01*
X125358199Y-93061836D01*
X125446714Y-93150197D01*
X125446717Y-93150199D01*
X125447399Y-93150880D01*
X125448267Y-93151304D01*
X125448268Y-93151305D01*
X125560686Y-93206256D01*
X125560688Y-93206257D01*
X125561503Y-93206655D01*
X125635842Y-93217500D01*
X127308158Y-93217500D01*
X127308583Y-93217437D01*
X127308589Y-93217437D01*
X127380943Y-93206786D01*
X127383144Y-93206462D01*
X127383965Y-93206059D01*
X127496280Y-93150915D01*
X127496282Y-93150914D01*
X127497151Y-93150487D01*
X127544829Y-93102726D01*
X127586197Y-93061286D01*
X127586199Y-93061283D01*
X127586880Y-93060601D01*
X127600021Y-93033718D01*
X127642256Y-92947314D01*
X127642257Y-92947312D01*
X127642655Y-92946497D01*
X127653500Y-92872158D01*
X127653500Y-91199842D01*
X127652706Y-91194442D01*
X127642595Y-91125760D01*
X127642462Y-91124856D01*
X127605699Y-91049978D01*
X127586915Y-91011720D01*
X127586914Y-91011718D01*
X127586487Y-91010849D01*
X127582891Y-91007259D01*
X127497286Y-90921803D01*
X127497283Y-90921801D01*
X127496601Y-90921120D01*
X127495732Y-90920695D01*
X127383314Y-90865744D01*
X127383312Y-90865743D01*
X127382497Y-90865345D01*
X127308158Y-90854500D01*
X125635842Y-90854500D01*
X125635417Y-90854563D01*
X125635411Y-90854563D01*
X125571741Y-90863936D01*
X125560856Y-90865538D01*
X125560036Y-90865941D01*
X125560035Y-90865941D01*
X125447720Y-90921085D01*
X125447718Y-90921086D01*
X125446849Y-90921513D01*
X125446165Y-90922199D01*
X125446164Y-90922199D01*
X125357803Y-91010714D01*
X125357801Y-91010717D01*
X125357120Y-91011399D01*
X125356696Y-91012267D01*
X125356695Y-91012268D01*
X125302063Y-91124035D01*
X125301345Y-91125503D01*
X125290500Y-91199842D01*
X125290500Y-92872158D01*
X100842434Y-92872158D01*
X100862138Y-92731959D01*
X100862445Y-92710000D01*
X100862217Y-92707965D01*
X100842974Y-92536413D01*
X100842974Y-92536411D01*
X100842901Y-92535764D01*
X100785242Y-92370188D01*
X100692332Y-92221501D01*
X100568789Y-92097094D01*
X100559036Y-92090904D01*
X100443713Y-92017718D01*
X100420755Y-92003148D01*
X100255585Y-91944334D01*
X100254935Y-91944257D01*
X100254933Y-91944256D01*
X100082140Y-91923651D01*
X100082135Y-91923651D01*
X100081490Y-91923574D01*
X99907122Y-91941901D01*
X99741148Y-91998403D01*
X99591816Y-92090273D01*
X99591345Y-92090734D01*
X99591344Y-92090735D01*
X99584380Y-92097555D01*
X99466549Y-92212944D01*
X99371572Y-92360319D01*
X99311606Y-92525074D01*
X99289632Y-92699020D01*
X95090665Y-92699020D01*
X96512290Y-90246020D01*
X100242132Y-90246020D01*
X100259241Y-90420511D01*
X100314583Y-90586876D01*
X100405408Y-90736846D01*
X100405859Y-90737313D01*
X100505849Y-90840855D01*
X100527201Y-90862966D01*
X100527743Y-90863321D01*
X100527747Y-90863324D01*
X100615420Y-90920695D01*
X100673910Y-90958970D01*
X100674527Y-90959199D01*
X100674526Y-90959199D01*
X100837623Y-91019854D01*
X100837625Y-91019854D01*
X100838242Y-91020084D01*
X100954214Y-91035558D01*
X101011384Y-91043187D01*
X101011386Y-91043187D01*
X101012030Y-91043273D01*
X101069650Y-91038029D01*
X101185981Y-91027442D01*
X101185984Y-91027441D01*
X101186637Y-91027382D01*
X101187263Y-91027179D01*
X101187266Y-91027178D01*
X101352763Y-90973405D01*
X101352765Y-90973404D01*
X101353384Y-90973203D01*
X101503984Y-90883427D01*
X101630952Y-90762517D01*
X101652140Y-90730626D01*
X101659571Y-90725633D01*
X101668359Y-90727357D01*
X101671891Y-90731041D01*
X101675067Y-90736285D01*
X101675072Y-90736291D01*
X101675408Y-90736846D01*
X101675859Y-90737313D01*
X101775849Y-90840855D01*
X101797201Y-90862966D01*
X101797743Y-90863321D01*
X101797747Y-90863324D01*
X101885420Y-90920695D01*
X101943910Y-90958970D01*
X101944527Y-90959199D01*
X101944526Y-90959199D01*
X102107623Y-91019854D01*
X102107625Y-91019854D01*
X102108242Y-91020084D01*
X102224214Y-91035558D01*
X102281384Y-91043187D01*
X102281386Y-91043187D01*
X102282030Y-91043273D01*
X102339650Y-91038029D01*
X102455981Y-91027442D01*
X102455984Y-91027441D01*
X102456637Y-91027382D01*
X102457263Y-91027179D01*
X102457266Y-91027178D01*
X102622763Y-90973405D01*
X102622765Y-90973404D01*
X102623384Y-90973203D01*
X102773984Y-90883427D01*
X102900952Y-90762517D01*
X102917698Y-90737313D01*
X102956861Y-90678367D01*
X102997977Y-90616482D01*
X103040548Y-90504413D01*
X103060005Y-90453193D01*
X103060006Y-90453189D01*
X103060237Y-90452581D01*
X103084638Y-90278959D01*
X103084945Y-90257000D01*
X103084206Y-90250413D01*
X103065474Y-90083413D01*
X103065474Y-90083411D01*
X103065401Y-90082764D01*
X103007742Y-89917188D01*
X102914832Y-89768501D01*
X102833175Y-89686273D01*
X102791747Y-89644555D01*
X102791746Y-89644554D01*
X102791289Y-89644094D01*
X102781016Y-89637574D01*
X102643803Y-89550496D01*
X102643255Y-89550148D01*
X102516293Y-89504939D01*
X125285845Y-89504939D01*
X125285880Y-89505473D01*
X125285880Y-89505474D01*
X125285912Y-89505966D01*
X125300047Y-89721619D01*
X125353497Y-89932083D01*
X125444407Y-90129281D01*
X125444716Y-90129718D01*
X125550444Y-90279319D01*
X125569731Y-90306610D01*
X125725272Y-90458132D01*
X125905822Y-90578771D01*
X126105332Y-90664488D01*
X126317123Y-90712411D01*
X126317653Y-90712432D01*
X126317654Y-90712432D01*
X126533564Y-90720915D01*
X126533565Y-90720915D01*
X126534100Y-90720936D01*
X126593702Y-90712294D01*
X126748462Y-90689855D01*
X126748466Y-90689854D01*
X126748997Y-90689777D01*
X126954618Y-90619978D01*
X127014828Y-90586259D01*
X127143605Y-90514141D01*
X127143607Y-90514140D01*
X127144076Y-90513877D01*
X127265343Y-90413020D01*
X134849632Y-90413020D01*
X134866741Y-90587511D01*
X134922083Y-90753876D01*
X135012908Y-90903846D01*
X135013359Y-90904313D01*
X135132264Y-91027442D01*
X135134701Y-91029966D01*
X135135243Y-91030321D01*
X135135247Y-91030324D01*
X135228416Y-91091292D01*
X135281410Y-91125970D01*
X135318786Y-91139870D01*
X135445123Y-91186854D01*
X135445125Y-91186854D01*
X135445742Y-91187084D01*
X135544601Y-91200275D01*
X135618884Y-91210187D01*
X135618886Y-91210187D01*
X135619530Y-91210273D01*
X135668950Y-91205775D01*
X135793481Y-91194442D01*
X135793484Y-91194441D01*
X135794137Y-91194382D01*
X135794763Y-91194179D01*
X135794766Y-91194178D01*
X135960263Y-91140405D01*
X135960265Y-91140404D01*
X135960884Y-91140203D01*
X136111484Y-91050427D01*
X136238452Y-90929517D01*
X136255198Y-90904313D01*
X136276045Y-90872934D01*
X136335477Y-90783482D01*
X136353403Y-90736291D01*
X136379717Y-90667020D01*
X147295632Y-90667020D01*
X147312741Y-90841511D01*
X147368083Y-91007876D01*
X147458908Y-91157846D01*
X147459359Y-91158313D01*
X147539142Y-91240930D01*
X147580701Y-91283966D01*
X147581243Y-91284321D01*
X147581247Y-91284324D01*
X147659537Y-91335555D01*
X147727410Y-91379970D01*
X147728027Y-91380199D01*
X147728026Y-91380199D01*
X147891123Y-91440854D01*
X147891125Y-91440854D01*
X147891742Y-91441084D01*
X148007714Y-91456558D01*
X148064884Y-91464187D01*
X148064886Y-91464187D01*
X148065530Y-91464273D01*
X148123040Y-91459039D01*
X148239481Y-91448442D01*
X148239484Y-91448441D01*
X148240137Y-91448382D01*
X148240763Y-91448179D01*
X148240766Y-91448178D01*
X148406263Y-91394405D01*
X148406265Y-91394404D01*
X148406884Y-91394203D01*
X148557484Y-91304427D01*
X148684452Y-91183517D01*
X148686855Y-91179901D01*
X148723539Y-91124686D01*
X148781477Y-91037482D01*
X148822489Y-90929517D01*
X148843505Y-90874193D01*
X148843506Y-90874189D01*
X148843737Y-90873581D01*
X148844895Y-90865345D01*
X148856323Y-90784029D01*
X148868138Y-90699959D01*
X148868445Y-90678000D01*
X148867287Y-90667673D01*
X148848974Y-90504413D01*
X148848974Y-90504411D01*
X148848901Y-90503764D01*
X148791242Y-90338188D01*
X148698332Y-90189501D01*
X148594363Y-90084805D01*
X148575247Y-90065555D01*
X148575246Y-90065554D01*
X148574789Y-90065094D01*
X148563498Y-90057928D01*
X148427303Y-89971496D01*
X148426755Y-89971148D01*
X148261585Y-89912334D01*
X148260935Y-89912257D01*
X148260933Y-89912256D01*
X148088140Y-89891651D01*
X148088135Y-89891651D01*
X148087490Y-89891574D01*
X147913122Y-89909901D01*
X147912505Y-89910111D01*
X147889904Y-89917805D01*
X147747148Y-89966403D01*
X147597816Y-90058273D01*
X147597345Y-90058734D01*
X147597344Y-90058735D01*
X147545096Y-90109900D01*
X147472549Y-90180944D01*
X147472196Y-90181492D01*
X147472195Y-90181493D01*
X147430610Y-90246020D01*
X147377572Y-90328319D01*
X147317606Y-90493074D01*
X147295632Y-90667020D01*
X136379717Y-90667020D01*
X136397505Y-90620193D01*
X136397506Y-90620189D01*
X136397737Y-90619581D01*
X136422138Y-90445959D01*
X136422445Y-90424000D01*
X136421287Y-90413673D01*
X136402974Y-90250413D01*
X136402974Y-90250411D01*
X136402901Y-90249764D01*
X136345242Y-90084188D01*
X136252332Y-89935501D01*
X136130679Y-89812997D01*
X136129247Y-89811555D01*
X136129246Y-89811554D01*
X136128789Y-89811094D01*
X136117498Y-89803928D01*
X135981303Y-89717496D01*
X135980755Y-89717148D01*
X135815585Y-89658334D01*
X135814935Y-89658257D01*
X135814933Y-89658256D01*
X135642140Y-89637651D01*
X135642135Y-89637651D01*
X135641490Y-89637574D01*
X135467122Y-89655901D01*
X135301148Y-89712403D01*
X135151816Y-89804273D01*
X135151345Y-89804734D01*
X135151344Y-89804735D01*
X135099096Y-89855900D01*
X135026549Y-89926944D01*
X134931572Y-90074319D01*
X134871606Y-90239074D01*
X134849632Y-90413020D01*
X127265343Y-90413020D01*
X127311026Y-90375026D01*
X127449877Y-90208076D01*
X127460280Y-90189501D01*
X127555717Y-90019084D01*
X127555978Y-90018618D01*
X127625777Y-89812997D01*
X127625987Y-89811555D01*
X127656886Y-89598444D01*
X127656936Y-89598100D01*
X127657749Y-89567050D01*
X127658553Y-89536348D01*
X127658553Y-89536346D01*
X127658562Y-89536000D01*
X127649031Y-89432273D01*
X127638742Y-89320295D01*
X127638741Y-89320291D01*
X127638693Y-89319766D01*
X127579751Y-89110774D01*
X127572561Y-89096193D01*
X127527826Y-89005482D01*
X127483710Y-88916023D01*
X127463546Y-88889020D01*
X147803632Y-88889020D01*
X147820741Y-89063511D01*
X147876083Y-89229876D01*
X147966908Y-89379846D01*
X147967359Y-89380313D01*
X148002191Y-89416382D01*
X148088701Y-89505966D01*
X148089243Y-89506321D01*
X148089247Y-89506324D01*
X148182416Y-89567292D01*
X148235410Y-89601970D01*
X148236027Y-89602199D01*
X148236026Y-89602199D01*
X148399123Y-89662854D01*
X148399125Y-89662854D01*
X148399742Y-89663084D01*
X148515714Y-89678558D01*
X148572884Y-89686187D01*
X148572886Y-89686187D01*
X148573530Y-89686273D01*
X148622950Y-89681775D01*
X148747481Y-89670442D01*
X148747484Y-89670441D01*
X148748137Y-89670382D01*
X148748763Y-89670179D01*
X148748766Y-89670178D01*
X148914263Y-89616405D01*
X148914265Y-89616404D01*
X148914884Y-89616203D01*
X149034004Y-89545193D01*
X149064924Y-89526761D01*
X149064925Y-89526760D01*
X149065484Y-89526427D01*
X149192452Y-89405517D01*
X149209198Y-89380313D01*
X149249073Y-89320295D01*
X149289477Y-89259482D01*
X149330489Y-89151517D01*
X149351505Y-89096193D01*
X149351506Y-89096189D01*
X149351737Y-89095581D01*
X149376138Y-88921959D01*
X149376445Y-88900000D01*
X149375349Y-88890229D01*
X149356974Y-88726413D01*
X149356974Y-88726411D01*
X149356901Y-88725764D01*
X149299242Y-88560188D01*
X149206332Y-88411501D01*
X149102363Y-88306805D01*
X149083247Y-88287555D01*
X149083246Y-88287554D01*
X149082789Y-88287094D01*
X149071498Y-88279928D01*
X148935303Y-88193496D01*
X148934755Y-88193148D01*
X148769585Y-88134334D01*
X148768935Y-88134257D01*
X148768933Y-88134256D01*
X148596140Y-88113651D01*
X148596135Y-88113651D01*
X148595490Y-88113574D01*
X148421122Y-88131901D01*
X148255148Y-88188403D01*
X148105816Y-88280273D01*
X148105345Y-88280734D01*
X148105344Y-88280735D01*
X148053096Y-88331900D01*
X147980549Y-88402944D01*
X147885572Y-88550319D01*
X147825606Y-88715074D01*
X147803632Y-88889020D01*
X127463546Y-88889020D01*
X127353787Y-88742035D01*
X127336888Y-88726413D01*
X127237317Y-88634371D01*
X127194333Y-88594637D01*
X127139735Y-88560188D01*
X127011141Y-88479052D01*
X127010688Y-88478766D01*
X126993138Y-88471764D01*
X126956132Y-88457000D01*
X126809002Y-88398301D01*
X126808485Y-88398198D01*
X126808481Y-88398197D01*
X126596559Y-88356043D01*
X126596557Y-88356043D01*
X126596030Y-88355938D01*
X126453754Y-88354076D01*
X126379440Y-88353103D01*
X126378903Y-88353096D01*
X126164895Y-88389869D01*
X126164395Y-88390053D01*
X126164393Y-88390054D01*
X125961670Y-88464843D01*
X125961667Y-88464844D01*
X125961172Y-88465027D01*
X125774556Y-88576051D01*
X125774159Y-88576399D01*
X125774155Y-88576402D01*
X125694376Y-88646367D01*
X125611298Y-88719225D01*
X125516214Y-88839838D01*
X125477954Y-88888371D01*
X125476865Y-88889752D01*
X125375760Y-89081922D01*
X125375602Y-89082430D01*
X125375601Y-89082433D01*
X125311526Y-89288787D01*
X125311367Y-89289300D01*
X125285845Y-89504939D01*
X102516293Y-89504939D01*
X102478085Y-89491334D01*
X102477435Y-89491257D01*
X102477433Y-89491256D01*
X102304640Y-89470651D01*
X102304635Y-89470651D01*
X102303990Y-89470574D01*
X102129622Y-89488901D01*
X102129005Y-89489111D01*
X102080939Y-89505474D01*
X101963648Y-89545403D01*
X101814316Y-89637273D01*
X101813845Y-89637734D01*
X101813844Y-89637735D01*
X101788194Y-89662854D01*
X101689049Y-89759944D01*
X101688696Y-89760492D01*
X101688695Y-89760493D01*
X101673872Y-89783494D01*
X101666509Y-89788592D01*
X101657699Y-89786991D01*
X101654115Y-89783356D01*
X101651710Y-89779507D01*
X101644832Y-89768501D01*
X101563175Y-89686273D01*
X101521747Y-89644555D01*
X101521746Y-89644554D01*
X101521289Y-89644094D01*
X101511016Y-89637574D01*
X101373803Y-89550496D01*
X101373255Y-89550148D01*
X101208085Y-89491334D01*
X101207435Y-89491257D01*
X101207433Y-89491256D01*
X101034640Y-89470651D01*
X101034635Y-89470651D01*
X101033990Y-89470574D01*
X100859622Y-89488901D01*
X100859005Y-89489111D01*
X100810939Y-89505474D01*
X100693648Y-89545403D01*
X100544316Y-89637273D01*
X100543845Y-89637734D01*
X100543844Y-89637735D01*
X100518194Y-89662854D01*
X100419049Y-89759944D01*
X100418696Y-89760492D01*
X100418695Y-89760493D01*
X100393885Y-89798991D01*
X100324072Y-89907319D01*
X100264106Y-90072074D01*
X100242132Y-90246020D01*
X96512290Y-90246020D01*
X97445938Y-88635020D01*
X117831632Y-88635020D01*
X117848741Y-88809511D01*
X117904083Y-88975876D01*
X117994908Y-89125846D01*
X118116701Y-89251966D01*
X118117243Y-89252321D01*
X118117247Y-89252324D01*
X118210416Y-89313292D01*
X118263410Y-89347970D01*
X118264027Y-89348199D01*
X118264026Y-89348199D01*
X118427123Y-89408854D01*
X118427125Y-89408854D01*
X118427742Y-89409084D01*
X118543714Y-89424558D01*
X118600884Y-89432187D01*
X118600886Y-89432187D01*
X118601530Y-89432273D01*
X118650950Y-89427775D01*
X118775481Y-89416442D01*
X118775484Y-89416441D01*
X118776137Y-89416382D01*
X118776763Y-89416179D01*
X118776766Y-89416178D01*
X118942263Y-89362405D01*
X118942265Y-89362404D01*
X118942884Y-89362203D01*
X119064282Y-89289835D01*
X119092924Y-89272761D01*
X119092925Y-89272760D01*
X119093484Y-89272427D01*
X119220452Y-89151517D01*
X119237198Y-89126313D01*
X119266351Y-89082433D01*
X119317477Y-89005482D01*
X119349068Y-88922319D01*
X119379505Y-88842193D01*
X119379506Y-88842189D01*
X119379737Y-88841581D01*
X119404138Y-88667959D01*
X119404445Y-88646000D01*
X119403287Y-88635673D01*
X119384974Y-88472413D01*
X119384974Y-88472411D01*
X119384901Y-88471764D01*
X119327242Y-88306188D01*
X119234332Y-88157501D01*
X119110789Y-88033094D01*
X119099498Y-88025928D01*
X118967586Y-87942214D01*
X118962755Y-87939148D01*
X118797585Y-87880334D01*
X118796935Y-87880257D01*
X118796933Y-87880256D01*
X118624140Y-87859651D01*
X118624135Y-87859651D01*
X118623490Y-87859574D01*
X118449122Y-87877901D01*
X118283148Y-87934403D01*
X118133816Y-88026273D01*
X118133345Y-88026734D01*
X118133344Y-88026735D01*
X118126380Y-88033555D01*
X118008549Y-88148944D01*
X118008196Y-88149492D01*
X118008195Y-88149493D01*
X117995350Y-88169425D01*
X117913572Y-88296319D01*
X117853606Y-88461074D01*
X117831632Y-88635020D01*
X97445938Y-88635020D01*
X98309461Y-87145020D01*
X134341632Y-87145020D01*
X134358741Y-87319511D01*
X134414083Y-87485876D01*
X134504908Y-87635846D01*
X134626701Y-87761966D01*
X134627243Y-87762321D01*
X134627247Y-87762324D01*
X134720416Y-87823292D01*
X134773410Y-87857970D01*
X134774027Y-87858199D01*
X134774026Y-87858199D01*
X134937123Y-87918854D01*
X134937125Y-87918854D01*
X134937742Y-87919084D01*
X135050975Y-87934193D01*
X135110884Y-87942187D01*
X135110886Y-87942187D01*
X135111530Y-87942273D01*
X135160950Y-87937775D01*
X135285481Y-87926442D01*
X135285484Y-87926441D01*
X135286137Y-87926382D01*
X135286763Y-87926179D01*
X135286766Y-87926178D01*
X135452263Y-87872405D01*
X135452265Y-87872404D01*
X135452884Y-87872203D01*
X135603484Y-87782427D01*
X135730452Y-87661517D01*
X135747198Y-87636313D01*
X135796678Y-87561838D01*
X135827477Y-87515482D01*
X135863253Y-87421302D01*
X135875902Y-87388003D01*
X139952615Y-87388003D01*
X139969724Y-87562494D01*
X140025066Y-87728859D01*
X140115891Y-87878829D01*
X140116342Y-87879296D01*
X140174141Y-87939148D01*
X140237684Y-88004949D01*
X140238226Y-88005304D01*
X140238230Y-88005307D01*
X140281398Y-88033555D01*
X140384393Y-88100953D01*
X140385010Y-88101182D01*
X140385009Y-88101182D01*
X140548106Y-88161837D01*
X140548108Y-88161837D01*
X140548725Y-88162067D01*
X140664697Y-88177541D01*
X140721867Y-88185170D01*
X140721869Y-88185170D01*
X140722513Y-88185256D01*
X140771933Y-88180758D01*
X140896464Y-88169425D01*
X140896467Y-88169424D01*
X140897120Y-88169365D01*
X140897746Y-88169162D01*
X140897749Y-88169161D01*
X141063246Y-88115388D01*
X141063248Y-88115387D01*
X141063867Y-88115186D01*
X141202161Y-88032746D01*
X141213907Y-88025744D01*
X141213908Y-88025743D01*
X141214467Y-88025410D01*
X141341435Y-87904500D01*
X141358181Y-87879296D01*
X141372588Y-87857611D01*
X141438460Y-87758465D01*
X141475287Y-87661517D01*
X141500488Y-87595176D01*
X141500489Y-87595172D01*
X141500720Y-87594564D01*
X141525121Y-87420942D01*
X141525428Y-87398983D01*
X141524270Y-87388656D01*
X141505957Y-87225396D01*
X141505957Y-87225394D01*
X141505884Y-87224747D01*
X141469330Y-87119777D01*
X141448440Y-87059788D01*
X141448439Y-87059787D01*
X141448225Y-87059171D01*
X141355315Y-86910484D01*
X141252485Y-86806935D01*
X141232230Y-86786538D01*
X141232229Y-86786537D01*
X141231772Y-86786077D01*
X141220481Y-86778911D01*
X141084286Y-86692479D01*
X141083738Y-86692131D01*
X140918568Y-86633317D01*
X140917918Y-86633240D01*
X140917916Y-86633239D01*
X140745123Y-86612634D01*
X140745118Y-86612634D01*
X140744473Y-86612557D01*
X140570105Y-86630884D01*
X140404131Y-86687386D01*
X140254799Y-86779256D01*
X140254328Y-86779717D01*
X140254327Y-86779718D01*
X140247363Y-86786538D01*
X140129532Y-86901927D01*
X140034555Y-87049302D01*
X139974589Y-87214057D01*
X139952615Y-87388003D01*
X135875902Y-87388003D01*
X135889505Y-87352193D01*
X135889506Y-87352189D01*
X135889737Y-87351581D01*
X135914138Y-87177959D01*
X135914445Y-87156000D01*
X135913287Y-87145673D01*
X135894974Y-86982413D01*
X135894974Y-86982411D01*
X135894901Y-86981764D01*
X135845643Y-86840313D01*
X135837457Y-86816805D01*
X135837456Y-86816804D01*
X135837242Y-86816188D01*
X135744332Y-86667501D01*
X135620789Y-86543094D01*
X135609498Y-86535928D01*
X135473303Y-86449496D01*
X135472755Y-86449148D01*
X135354911Y-86407186D01*
X142781798Y-86407186D01*
X142798907Y-86581677D01*
X142854249Y-86748042D01*
X142945074Y-86898012D01*
X143066867Y-87024132D01*
X143067409Y-87024487D01*
X143067413Y-87024490D01*
X143146748Y-87076405D01*
X143213576Y-87120136D01*
X143214193Y-87120365D01*
X143214192Y-87120365D01*
X143377289Y-87181020D01*
X143377291Y-87181020D01*
X143377908Y-87181250D01*
X143493880Y-87196724D01*
X143551050Y-87204353D01*
X143551052Y-87204353D01*
X143551696Y-87204439D01*
X143601116Y-87199941D01*
X143725647Y-87188608D01*
X143725650Y-87188607D01*
X143726303Y-87188548D01*
X143726929Y-87188345D01*
X143726932Y-87188344D01*
X143892429Y-87134571D01*
X143892431Y-87134570D01*
X143893050Y-87134369D01*
X144020126Y-87058616D01*
X144043090Y-87044927D01*
X144043091Y-87044926D01*
X144043650Y-87044593D01*
X144170618Y-86923683D01*
X144179388Y-86910484D01*
X144198746Y-86881347D01*
X144267643Y-86777648D01*
X144279124Y-86747425D01*
X144329671Y-86614359D01*
X144329672Y-86614355D01*
X144329903Y-86613747D01*
X144354304Y-86440125D01*
X144354611Y-86418166D01*
X144353453Y-86407839D01*
X144346855Y-86349020D01*
X147803632Y-86349020D01*
X147820741Y-86523511D01*
X147876083Y-86689876D01*
X147966908Y-86839846D01*
X147967359Y-86840313D01*
X148035657Y-86911037D01*
X148088701Y-86965966D01*
X148089243Y-86966321D01*
X148089247Y-86966324D01*
X148176869Y-87023662D01*
X148235410Y-87061970D01*
X148236027Y-87062199D01*
X148236026Y-87062199D01*
X148399123Y-87122854D01*
X148399125Y-87122854D01*
X148399742Y-87123084D01*
X148515714Y-87138558D01*
X148572884Y-87146187D01*
X148572886Y-87146187D01*
X148573530Y-87146273D01*
X148622950Y-87141775D01*
X148747481Y-87130442D01*
X148747484Y-87130441D01*
X148748137Y-87130382D01*
X148748763Y-87130179D01*
X148748766Y-87130178D01*
X148914263Y-87076405D01*
X148914265Y-87076404D01*
X148914884Y-87076203D01*
X149065484Y-86986427D01*
X149192452Y-86865517D01*
X149209198Y-86840313D01*
X149244925Y-86786538D01*
X149289477Y-86719482D01*
X149289711Y-86718866D01*
X149351505Y-86556193D01*
X149351506Y-86556189D01*
X149351737Y-86555581D01*
X149376138Y-86381959D01*
X149376445Y-86360000D01*
X149375287Y-86349673D01*
X149356974Y-86186413D01*
X149356974Y-86186411D01*
X149356901Y-86185764D01*
X149299242Y-86020188D01*
X149206332Y-85871501D01*
X149082789Y-85747094D01*
X149071498Y-85739928D01*
X148967417Y-85673876D01*
X148934755Y-85653148D01*
X148769585Y-85594334D01*
X148768935Y-85594257D01*
X148768933Y-85594256D01*
X148596140Y-85573651D01*
X148596135Y-85573651D01*
X148595490Y-85573574D01*
X148421122Y-85591901D01*
X148255148Y-85648403D01*
X148105816Y-85740273D01*
X148105345Y-85740734D01*
X148105344Y-85740735D01*
X148098380Y-85747555D01*
X147980549Y-85862944D01*
X147885572Y-86010319D01*
X147825606Y-86175074D01*
X147803632Y-86349020D01*
X144346855Y-86349020D01*
X144335140Y-86244579D01*
X144335140Y-86244577D01*
X144335067Y-86243930D01*
X144277408Y-86078354D01*
X144184498Y-85929667D01*
X144060955Y-85805260D01*
X144049664Y-85798094D01*
X143913469Y-85711662D01*
X143912921Y-85711314D01*
X143747751Y-85652500D01*
X143747101Y-85652423D01*
X143747099Y-85652422D01*
X143574306Y-85631817D01*
X143574301Y-85631817D01*
X143573656Y-85631740D01*
X143399288Y-85650067D01*
X143398671Y-85650277D01*
X143389215Y-85653496D01*
X143233314Y-85706569D01*
X143083982Y-85798439D01*
X143083511Y-85798900D01*
X143083510Y-85798901D01*
X143076546Y-85805721D01*
X142958715Y-85921110D01*
X142958362Y-85921658D01*
X142958361Y-85921659D01*
X142939888Y-85950324D01*
X142863738Y-86068485D01*
X142803772Y-86233240D01*
X142781798Y-86407186D01*
X135354911Y-86407186D01*
X135307585Y-86390334D01*
X135306935Y-86390257D01*
X135306933Y-86390256D01*
X135134140Y-86369651D01*
X135134135Y-86369651D01*
X135133490Y-86369574D01*
X134959122Y-86387901D01*
X134958505Y-86388111D01*
X134900554Y-86407839D01*
X134793148Y-86444403D01*
X134643816Y-86536273D01*
X134643345Y-86536734D01*
X134643344Y-86536735D01*
X134636380Y-86543555D01*
X134518549Y-86658944D01*
X134423572Y-86806319D01*
X134363606Y-86971074D01*
X134341632Y-87145020D01*
X98309461Y-87145020D01*
X99359597Y-85333020D01*
X117831632Y-85333020D01*
X117848741Y-85507511D01*
X117904083Y-85673876D01*
X117994908Y-85823846D01*
X118116701Y-85949966D01*
X118117243Y-85950321D01*
X118117247Y-85950324D01*
X118208091Y-86009770D01*
X118263410Y-86045970D01*
X118264027Y-86046199D01*
X118264026Y-86046199D01*
X118427123Y-86106854D01*
X118427125Y-86106854D01*
X118427742Y-86107084D01*
X118543714Y-86122558D01*
X118600884Y-86130187D01*
X118600886Y-86130187D01*
X118601530Y-86130273D01*
X118650950Y-86125775D01*
X118775481Y-86114442D01*
X118775484Y-86114441D01*
X118776137Y-86114382D01*
X118776763Y-86114179D01*
X118776766Y-86114178D01*
X118942263Y-86060405D01*
X118942265Y-86060404D01*
X118942884Y-86060203D01*
X119093484Y-85970427D01*
X119220452Y-85849517D01*
X119237198Y-85824313D01*
X119288501Y-85747094D01*
X119317477Y-85703482D01*
X119337688Y-85650277D01*
X119379505Y-85540193D01*
X119379506Y-85540189D01*
X119379737Y-85539581D01*
X119404138Y-85365959D01*
X119404445Y-85344000D01*
X119403287Y-85333673D01*
X119384974Y-85170413D01*
X119384974Y-85170411D01*
X119384901Y-85169764D01*
X119327242Y-85004188D01*
X119234332Y-84855501D01*
X119124822Y-84745225D01*
X119111247Y-84731555D01*
X119111246Y-84731554D01*
X119110789Y-84731094D01*
X119099498Y-84723928D01*
X118967586Y-84640214D01*
X118962755Y-84637148D01*
X118797585Y-84578334D01*
X118796935Y-84578257D01*
X118796933Y-84578256D01*
X118624140Y-84557651D01*
X118624135Y-84557651D01*
X118623490Y-84557574D01*
X118449122Y-84575901D01*
X118283148Y-84632403D01*
X118133816Y-84724273D01*
X118133345Y-84724734D01*
X118133344Y-84724735D01*
X118081096Y-84775900D01*
X118008549Y-84846944D01*
X117913572Y-84994319D01*
X117853606Y-85159074D01*
X117831632Y-85333020D01*
X99359597Y-85333020D01*
X100275332Y-83752929D01*
X141330275Y-83752929D01*
X141347384Y-83927420D01*
X141402726Y-84093785D01*
X141493551Y-84243755D01*
X141494002Y-84244222D01*
X141580793Y-84334096D01*
X141615344Y-84369875D01*
X141615886Y-84370230D01*
X141615890Y-84370233D01*
X141701060Y-84425966D01*
X141762053Y-84465879D01*
X141762670Y-84466108D01*
X141762669Y-84466108D01*
X141925766Y-84526763D01*
X141925768Y-84526763D01*
X141926385Y-84526993D01*
X142042357Y-84542467D01*
X142099527Y-84550096D01*
X142099529Y-84550096D01*
X142100173Y-84550182D01*
X142151728Y-84545490D01*
X142274124Y-84534351D01*
X142274127Y-84534350D01*
X142274780Y-84534291D01*
X142275406Y-84534088D01*
X142275409Y-84534087D01*
X142440906Y-84480314D01*
X142440908Y-84480313D01*
X142441527Y-84480112D01*
X142562891Y-84407764D01*
X142591567Y-84390670D01*
X142591568Y-84390669D01*
X142592127Y-84390336D01*
X142625060Y-84358974D01*
X142651547Y-84333751D01*
X142659902Y-84330527D01*
X142668033Y-84334096D01*
X142702584Y-84369875D01*
X142703126Y-84370230D01*
X142703130Y-84370233D01*
X142788300Y-84425966D01*
X142849293Y-84465879D01*
X142849910Y-84466108D01*
X142849909Y-84466108D01*
X143013006Y-84526763D01*
X143013008Y-84526763D01*
X143013625Y-84526993D01*
X143137824Y-84543565D01*
X143145571Y-84548056D01*
X143147873Y-84556709D01*
X143147272Y-84559158D01*
X143146723Y-84560666D01*
X143124749Y-84734612D01*
X143141858Y-84909103D01*
X143197200Y-85075468D01*
X143288025Y-85225438D01*
X143288476Y-85225905D01*
X143358294Y-85298203D01*
X143409818Y-85351558D01*
X143410360Y-85351913D01*
X143410364Y-85351916D01*
X143503533Y-85412884D01*
X143556527Y-85447562D01*
X143557144Y-85447791D01*
X143557143Y-85447791D01*
X143720240Y-85508446D01*
X143720242Y-85508446D01*
X143720859Y-85508676D01*
X143836831Y-85524150D01*
X143894001Y-85531779D01*
X143894003Y-85531779D01*
X143894647Y-85531865D01*
X143944067Y-85527367D01*
X144068598Y-85516034D01*
X144068601Y-85516033D01*
X144069254Y-85515974D01*
X144069880Y-85515771D01*
X144069883Y-85515770D01*
X144235380Y-85461997D01*
X144235382Y-85461996D01*
X144236001Y-85461795D01*
X144386601Y-85372019D01*
X144513569Y-85251109D01*
X144530315Y-85225905D01*
X144568024Y-85169147D01*
X144610594Y-85105074D01*
X144652666Y-84994319D01*
X144672622Y-84941785D01*
X144672623Y-84941781D01*
X144672854Y-84941173D01*
X144697255Y-84767551D01*
X144697338Y-84761581D01*
X144697557Y-84745959D01*
X144697557Y-84745957D01*
X144697562Y-84745592D01*
X144696404Y-84735265D01*
X144678091Y-84572005D01*
X144678091Y-84572003D01*
X144678018Y-84571356D01*
X144630897Y-84436040D01*
X144631412Y-84427101D01*
X144635955Y-84422143D01*
X144671046Y-84401225D01*
X144671047Y-84401224D01*
X144671606Y-84400891D01*
X144798574Y-84279981D01*
X144823684Y-84242188D01*
X144862056Y-84184432D01*
X144895599Y-84133946D01*
X144895833Y-84133330D01*
X144957627Y-83970657D01*
X144957628Y-83970653D01*
X144957859Y-83970045D01*
X144980490Y-83809020D01*
X145263632Y-83809020D01*
X145280741Y-83983511D01*
X145336083Y-84149876D01*
X145426908Y-84299846D01*
X145427359Y-84300313D01*
X145494081Y-84369405D01*
X145548701Y-84425966D01*
X145549243Y-84426321D01*
X145549247Y-84426324D01*
X145631240Y-84479978D01*
X145695410Y-84521970D01*
X145728702Y-84534351D01*
X145859123Y-84582854D01*
X145859125Y-84582854D01*
X145859742Y-84583084D01*
X145975714Y-84598558D01*
X146032884Y-84606187D01*
X146032886Y-84606187D01*
X146033530Y-84606273D01*
X146082950Y-84601775D01*
X146207481Y-84590442D01*
X146207484Y-84590441D01*
X146208137Y-84590382D01*
X146208763Y-84590179D01*
X146208766Y-84590178D01*
X146374263Y-84536405D01*
X146374265Y-84536404D01*
X146374884Y-84536203D01*
X146525484Y-84446427D01*
X146652452Y-84325517D01*
X146669198Y-84300313D01*
X146726524Y-84214029D01*
X146749477Y-84179482D01*
X146766567Y-84134493D01*
X146811505Y-84016193D01*
X146811506Y-84016189D01*
X146811737Y-84015581D01*
X146835989Y-83843020D01*
X147549632Y-83843020D01*
X147566741Y-84017511D01*
X147622083Y-84183876D01*
X147712908Y-84333846D01*
X147713359Y-84334313D01*
X147821627Y-84446427D01*
X147834701Y-84459966D01*
X147835243Y-84460321D01*
X147835247Y-84460324D01*
X147928416Y-84521292D01*
X147981410Y-84555970D01*
X148020225Y-84570405D01*
X148145123Y-84616854D01*
X148145125Y-84616854D01*
X148145742Y-84617084D01*
X148258975Y-84632193D01*
X148318884Y-84640187D01*
X148318886Y-84640187D01*
X148319530Y-84640273D01*
X148368950Y-84635775D01*
X148493481Y-84624442D01*
X148493484Y-84624441D01*
X148494137Y-84624382D01*
X148494763Y-84624179D01*
X148494766Y-84624178D01*
X148658370Y-84571020D01*
X152629632Y-84571020D01*
X152646741Y-84745511D01*
X152702083Y-84911876D01*
X152792908Y-85061846D01*
X152914701Y-85187966D01*
X152915243Y-85188321D01*
X152915247Y-85188324D01*
X153008416Y-85249292D01*
X153061410Y-85283970D01*
X153062027Y-85284199D01*
X153062026Y-85284199D01*
X153225123Y-85344854D01*
X153225125Y-85344854D01*
X153225742Y-85345084D01*
X153341714Y-85360558D01*
X153398884Y-85368187D01*
X153398886Y-85368187D01*
X153399530Y-85368273D01*
X153448950Y-85363775D01*
X153573481Y-85352442D01*
X153573484Y-85352441D01*
X153574137Y-85352382D01*
X153574763Y-85352179D01*
X153574766Y-85352178D01*
X153740263Y-85298405D01*
X153740265Y-85298404D01*
X153740884Y-85298203D01*
X153891484Y-85208427D01*
X154018452Y-85087517D01*
X154035198Y-85062313D01*
X154080737Y-84993770D01*
X154115477Y-84941482D01*
X154177737Y-84777581D01*
X154202138Y-84603959D01*
X154202445Y-84582000D01*
X154202025Y-84578256D01*
X154182974Y-84408413D01*
X154182974Y-84408411D01*
X154182901Y-84407764D01*
X154125788Y-84243755D01*
X154125457Y-84242805D01*
X154125456Y-84242804D01*
X154125242Y-84242188D01*
X154032332Y-84093501D01*
X153923106Y-83983511D01*
X153909247Y-83969555D01*
X153909246Y-83969554D01*
X153908789Y-83969094D01*
X153897498Y-83961928D01*
X153761303Y-83875496D01*
X153760755Y-83875148D01*
X153595585Y-83816334D01*
X153594935Y-83816257D01*
X153594933Y-83816256D01*
X153422140Y-83795651D01*
X153422135Y-83795651D01*
X153421490Y-83795574D01*
X153247122Y-83813901D01*
X153081148Y-83870403D01*
X152931816Y-83962273D01*
X152931345Y-83962734D01*
X152931344Y-83962735D01*
X152909490Y-83984136D01*
X152806549Y-84084944D01*
X152711572Y-84232319D01*
X152651606Y-84397074D01*
X152629632Y-84571020D01*
X148658370Y-84571020D01*
X148660263Y-84570405D01*
X148660265Y-84570404D01*
X148660884Y-84570203D01*
X148811484Y-84480427D01*
X148938452Y-84359517D01*
X148955198Y-84334313D01*
X149015053Y-84244222D01*
X149035477Y-84213482D01*
X149048626Y-84178866D01*
X149097505Y-84050193D01*
X149097506Y-84050189D01*
X149097737Y-84049581D01*
X149122138Y-83875959D01*
X149122445Y-83854000D01*
X149121287Y-83843673D01*
X149102974Y-83680413D01*
X149102974Y-83680411D01*
X149102901Y-83679764D01*
X149045242Y-83514188D01*
X148952332Y-83365501D01*
X148828789Y-83241094D01*
X148817498Y-83233928D01*
X148681303Y-83147496D01*
X148680755Y-83147148D01*
X148515585Y-83088334D01*
X148514935Y-83088257D01*
X148514933Y-83088256D01*
X148342140Y-83067651D01*
X148342135Y-83067651D01*
X148341490Y-83067574D01*
X148167122Y-83085901D01*
X148001148Y-83142403D01*
X147851816Y-83234273D01*
X147851345Y-83234734D01*
X147851344Y-83234735D01*
X147817986Y-83267402D01*
X147726549Y-83356944D01*
X147631572Y-83504319D01*
X147571606Y-83669074D01*
X147549632Y-83843020D01*
X146835989Y-83843020D01*
X146836138Y-83841959D01*
X146836445Y-83820000D01*
X146836025Y-83816256D01*
X146816974Y-83646413D01*
X146816974Y-83646411D01*
X146816901Y-83645764D01*
X146759242Y-83480188D01*
X146666332Y-83331501D01*
X146542789Y-83207094D01*
X146531498Y-83199928D01*
X146395303Y-83113496D01*
X146394755Y-83113148D01*
X146229585Y-83054334D01*
X146228935Y-83054257D01*
X146228933Y-83054256D01*
X146056140Y-83033651D01*
X146056135Y-83033651D01*
X146055490Y-83033574D01*
X145881122Y-83051901D01*
X145880505Y-83052111D01*
X145833949Y-83067960D01*
X145715148Y-83108403D01*
X145565816Y-83200273D01*
X145565345Y-83200734D01*
X145565344Y-83200735D01*
X145558380Y-83207555D01*
X145440549Y-83322944D01*
X145440196Y-83323492D01*
X145440195Y-83323493D01*
X145413123Y-83365501D01*
X145345572Y-83470319D01*
X145285606Y-83635074D01*
X145263632Y-83809020D01*
X144980490Y-83809020D01*
X144982260Y-83796423D01*
X144982567Y-83774464D01*
X144980225Y-83753582D01*
X144963096Y-83600877D01*
X144963096Y-83600875D01*
X144963023Y-83600228D01*
X144917999Y-83470935D01*
X144905579Y-83435269D01*
X144905578Y-83435268D01*
X144905364Y-83434652D01*
X144812454Y-83285965D01*
X144688911Y-83161558D01*
X144660988Y-83143837D01*
X144604814Y-83108188D01*
X144540877Y-83067612D01*
X144375707Y-83008798D01*
X144375057Y-83008721D01*
X144375055Y-83008720D01*
X144202262Y-82988115D01*
X144202257Y-82988115D01*
X144201612Y-82988038D01*
X144077964Y-83001034D01*
X144069379Y-82998491D01*
X144065106Y-82990621D01*
X144065156Y-82987770D01*
X144085023Y-82846408D01*
X144085330Y-82824449D01*
X144084172Y-82814122D01*
X144065859Y-82650862D01*
X144065859Y-82650860D01*
X144065786Y-82650213D01*
X144054389Y-82617485D01*
X144054904Y-82608546D01*
X144061590Y-82602589D01*
X144066984Y-82602041D01*
X144125894Y-82609901D01*
X144189562Y-82618397D01*
X144189564Y-82618397D01*
X144190208Y-82618483D01*
X144239628Y-82613985D01*
X144364159Y-82602652D01*
X144364162Y-82602651D01*
X144364815Y-82602592D01*
X144365441Y-82602389D01*
X144365444Y-82602388D01*
X144530941Y-82548615D01*
X144530943Y-82548614D01*
X144531562Y-82548413D01*
X144682162Y-82458637D01*
X144809130Y-82337727D01*
X144825876Y-82312523D01*
X144855248Y-82268313D01*
X144906155Y-82191692D01*
X144934195Y-82117876D01*
X144967189Y-82031020D01*
X152629632Y-82031020D01*
X152646741Y-82205511D01*
X152702083Y-82371876D01*
X152792908Y-82521846D01*
X152793359Y-82522313D01*
X152907170Y-82640167D01*
X152914701Y-82647966D01*
X152915243Y-82648321D01*
X152915247Y-82648324D01*
X153008416Y-82709292D01*
X153061410Y-82743970D01*
X153062027Y-82744199D01*
X153062026Y-82744199D01*
X153225123Y-82804854D01*
X153225125Y-82804854D01*
X153225742Y-82805084D01*
X153341714Y-82820558D01*
X153398884Y-82828187D01*
X153398886Y-82828187D01*
X153399530Y-82828273D01*
X153448950Y-82823775D01*
X153573481Y-82812442D01*
X153573484Y-82812441D01*
X153574137Y-82812382D01*
X153574763Y-82812179D01*
X153574766Y-82812178D01*
X153740263Y-82758405D01*
X153740265Y-82758404D01*
X153740884Y-82758203D01*
X153891484Y-82668427D01*
X154018452Y-82547517D01*
X154030403Y-82529530D01*
X154056924Y-82489611D01*
X154115477Y-82401482D01*
X154139695Y-82337727D01*
X154177505Y-82238193D01*
X154177506Y-82238189D01*
X154177737Y-82237581D01*
X154202138Y-82063959D01*
X154202445Y-82042000D01*
X154201287Y-82031673D01*
X154182974Y-81868413D01*
X154182974Y-81868411D01*
X154182901Y-81867764D01*
X154125242Y-81702188D01*
X154032332Y-81553501D01*
X153928363Y-81448805D01*
X153909247Y-81429555D01*
X153909246Y-81429554D01*
X153908789Y-81429094D01*
X153897498Y-81421928D01*
X153773520Y-81343249D01*
X153760755Y-81335148D01*
X153595585Y-81276334D01*
X153594935Y-81276257D01*
X153594933Y-81276256D01*
X153422140Y-81255651D01*
X153422135Y-81255651D01*
X153421490Y-81255574D01*
X153247122Y-81273901D01*
X153081148Y-81330403D01*
X152931816Y-81422273D01*
X152931345Y-81422734D01*
X152931344Y-81422735D01*
X152879096Y-81473900D01*
X152806549Y-81544944D01*
X152711572Y-81692319D01*
X152651606Y-81857074D01*
X152629632Y-82031020D01*
X144967189Y-82031020D01*
X144968183Y-82028403D01*
X144968184Y-82028399D01*
X144968415Y-82027791D01*
X144992816Y-81854169D01*
X144993123Y-81832210D01*
X144991965Y-81821883D01*
X144973652Y-81658623D01*
X144973652Y-81658621D01*
X144973579Y-81657974D01*
X144915920Y-81492398D01*
X144823010Y-81343711D01*
X144734894Y-81254979D01*
X144699925Y-81219765D01*
X144699924Y-81219764D01*
X144699467Y-81219304D01*
X144696825Y-81217627D01*
X144551981Y-81125706D01*
X144551433Y-81125358D01*
X144386263Y-81066544D01*
X144385613Y-81066467D01*
X144385611Y-81066466D01*
X144212818Y-81045861D01*
X144212813Y-81045861D01*
X144212168Y-81045784D01*
X144037800Y-81064111D01*
X144037183Y-81064321D01*
X144006795Y-81074666D01*
X143871826Y-81120613D01*
X143722494Y-81212483D01*
X143722023Y-81212944D01*
X143722022Y-81212945D01*
X143720652Y-81214287D01*
X143712344Y-81217627D01*
X143706197Y-81215807D01*
X143580853Y-81136261D01*
X143580305Y-81135913D01*
X143415135Y-81077099D01*
X143414485Y-81077022D01*
X143414483Y-81077021D01*
X143241690Y-81056416D01*
X143241685Y-81056416D01*
X143241040Y-81056339D01*
X143066672Y-81074666D01*
X143066055Y-81074876D01*
X143047631Y-81081148D01*
X142900698Y-81131168D01*
X142751366Y-81223038D01*
X142750895Y-81223499D01*
X142750894Y-81223500D01*
X142727050Y-81246850D01*
X142718741Y-81250190D01*
X142710562Y-81246735D01*
X142683780Y-81219765D01*
X142683779Y-81219764D01*
X142683322Y-81219304D01*
X142680680Y-81217627D01*
X142535836Y-81125706D01*
X142535288Y-81125358D01*
X142370118Y-81066544D01*
X142369468Y-81066467D01*
X142369466Y-81066466D01*
X142196673Y-81045861D01*
X142196668Y-81045861D01*
X142196023Y-81045784D01*
X142021655Y-81064111D01*
X142021038Y-81064321D01*
X141990650Y-81074666D01*
X141855681Y-81120613D01*
X141706349Y-81212483D01*
X141705878Y-81212944D01*
X141705877Y-81212945D01*
X141695099Y-81223500D01*
X141581082Y-81335154D01*
X141486105Y-81482529D01*
X141426139Y-81647284D01*
X141404165Y-81821230D01*
X141421274Y-81995721D01*
X141476616Y-82162086D01*
X141567441Y-82312056D01*
X141567892Y-82312523D01*
X141646887Y-82394324D01*
X141689234Y-82438176D01*
X141689776Y-82438531D01*
X141689780Y-82438534D01*
X141768383Y-82489970D01*
X141835943Y-82534180D01*
X141836560Y-82534409D01*
X141836559Y-82534409D01*
X141999656Y-82595064D01*
X141999658Y-82595064D01*
X142000275Y-82595294D01*
X142099591Y-82608546D01*
X142173417Y-82618397D01*
X142173419Y-82618397D01*
X142174063Y-82618483D01*
X142223483Y-82613985D01*
X142348014Y-82602652D01*
X142348017Y-82602651D01*
X142348670Y-82602592D01*
X142349296Y-82602389D01*
X142349299Y-82602388D01*
X142514796Y-82548615D01*
X142514798Y-82548614D01*
X142515417Y-82548413D01*
X142539895Y-82533821D01*
X142553903Y-82525471D01*
X142562764Y-82524179D01*
X142569944Y-82529530D01*
X142571236Y-82538391D01*
X142570889Y-82539519D01*
X142534491Y-82639523D01*
X142512517Y-82813469D01*
X142529626Y-82987960D01*
X142529834Y-82988585D01*
X142566649Y-83099256D01*
X142566009Y-83108188D01*
X142559240Y-83114051D01*
X142550308Y-83113411D01*
X142549283Y-83112831D01*
X142461398Y-83057057D01*
X142296228Y-82998243D01*
X142295578Y-82998166D01*
X142295576Y-82998165D01*
X142122783Y-82977560D01*
X142122778Y-82977560D01*
X142122133Y-82977483D01*
X141947765Y-82995810D01*
X141947148Y-82996020D01*
X141927822Y-83002599D01*
X141781791Y-83052312D01*
X141632459Y-83144182D01*
X141631988Y-83144643D01*
X141631987Y-83144644D01*
X141579739Y-83195809D01*
X141507192Y-83266853D01*
X141412215Y-83414228D01*
X141352249Y-83578983D01*
X141330275Y-83752929D01*
X100275332Y-83752929D01*
X101420461Y-81777020D01*
X120117632Y-81777020D01*
X120134741Y-81951511D01*
X120190083Y-82117876D01*
X120280908Y-82267846D01*
X120402701Y-82393966D01*
X120403243Y-82394321D01*
X120403247Y-82394324D01*
X120470808Y-82438534D01*
X120549410Y-82489970D01*
X120550027Y-82490199D01*
X120550026Y-82490199D01*
X120713123Y-82550854D01*
X120713125Y-82550854D01*
X120713742Y-82551084D01*
X120829714Y-82566558D01*
X120886884Y-82574187D01*
X120886886Y-82574187D01*
X120887530Y-82574273D01*
X120936950Y-82569775D01*
X121061481Y-82558442D01*
X121061484Y-82558441D01*
X121062137Y-82558382D01*
X121062763Y-82558179D01*
X121062766Y-82558178D01*
X121228263Y-82504405D01*
X121228265Y-82504404D01*
X121228884Y-82504203D01*
X121379484Y-82414427D01*
X121506452Y-82293517D01*
X121523198Y-82268313D01*
X121544045Y-82236934D01*
X121603477Y-82147482D01*
X121635068Y-82064319D01*
X121665505Y-81984193D01*
X121665506Y-81984189D01*
X121665737Y-81983581D01*
X121690138Y-81809959D01*
X121690445Y-81788000D01*
X121689287Y-81777673D01*
X121689214Y-81777020D01*
X134595632Y-81777020D01*
X134612741Y-81951511D01*
X134668083Y-82117876D01*
X134758908Y-82267846D01*
X134880701Y-82393966D01*
X134881243Y-82394321D01*
X134881247Y-82394324D01*
X134948808Y-82438534D01*
X135027410Y-82489970D01*
X135028027Y-82490199D01*
X135028026Y-82490199D01*
X135191123Y-82550854D01*
X135191125Y-82550854D01*
X135191742Y-82551084D01*
X135307714Y-82566558D01*
X135364884Y-82574187D01*
X135364886Y-82574187D01*
X135365530Y-82574273D01*
X135414950Y-82569775D01*
X135539481Y-82558442D01*
X135539484Y-82558441D01*
X135540137Y-82558382D01*
X135540763Y-82558179D01*
X135540766Y-82558178D01*
X135706263Y-82504405D01*
X135706265Y-82504404D01*
X135706884Y-82504203D01*
X135857484Y-82414427D01*
X135984452Y-82293517D01*
X136001198Y-82268313D01*
X136022045Y-82236934D01*
X136081477Y-82147482D01*
X136113068Y-82064319D01*
X136143505Y-81984193D01*
X136143506Y-81984189D01*
X136143737Y-81983581D01*
X136168138Y-81809959D01*
X136168445Y-81788000D01*
X136167287Y-81777673D01*
X136148974Y-81614413D01*
X136148974Y-81614411D01*
X136148901Y-81613764D01*
X136103201Y-81482529D01*
X136091457Y-81448805D01*
X136091456Y-81448804D01*
X136091242Y-81448188D01*
X135998332Y-81299501D01*
X135874789Y-81175094D01*
X135863498Y-81167928D01*
X135727303Y-81081496D01*
X135726755Y-81081148D01*
X135561585Y-81022334D01*
X135560935Y-81022257D01*
X135560933Y-81022256D01*
X135388140Y-81001651D01*
X135388135Y-81001651D01*
X135387490Y-81001574D01*
X135213122Y-81019901D01*
X135047148Y-81076403D01*
X134897816Y-81168273D01*
X134897345Y-81168734D01*
X134897344Y-81168735D01*
X134890380Y-81175555D01*
X134772549Y-81290944D01*
X134772196Y-81291492D01*
X134772195Y-81291493D01*
X134743837Y-81335496D01*
X134677572Y-81438319D01*
X134617606Y-81603074D01*
X134595632Y-81777020D01*
X121689214Y-81777020D01*
X121670974Y-81614413D01*
X121670974Y-81614411D01*
X121670901Y-81613764D01*
X121625201Y-81482529D01*
X121613457Y-81448805D01*
X121613456Y-81448804D01*
X121613242Y-81448188D01*
X121520332Y-81299501D01*
X121396789Y-81175094D01*
X121385498Y-81167928D01*
X121249303Y-81081496D01*
X121248755Y-81081148D01*
X121083585Y-81022334D01*
X121082935Y-81022257D01*
X121082933Y-81022256D01*
X120910140Y-81001651D01*
X120910135Y-81001651D01*
X120909490Y-81001574D01*
X120735122Y-81019901D01*
X120569148Y-81076403D01*
X120419816Y-81168273D01*
X120419345Y-81168734D01*
X120419344Y-81168735D01*
X120412380Y-81175555D01*
X120294549Y-81290944D01*
X120294196Y-81291492D01*
X120294195Y-81291493D01*
X120265837Y-81335496D01*
X120199572Y-81438319D01*
X120139606Y-81603074D01*
X120117632Y-81777020D01*
X101420461Y-81777020D01*
X103186915Y-78729020D01*
X126975632Y-78729020D01*
X126992741Y-78903511D01*
X127048083Y-79069876D01*
X127138908Y-79219846D01*
X127260701Y-79345966D01*
X127261243Y-79346321D01*
X127261247Y-79346324D01*
X127354416Y-79407292D01*
X127407410Y-79441970D01*
X127408027Y-79442199D01*
X127408026Y-79442199D01*
X127571123Y-79502854D01*
X127571125Y-79502854D01*
X127571742Y-79503084D01*
X127687714Y-79518558D01*
X127744884Y-79526187D01*
X127744886Y-79526187D01*
X127745530Y-79526273D01*
X127794950Y-79521775D01*
X127919481Y-79510442D01*
X127919484Y-79510441D01*
X127920137Y-79510382D01*
X127920763Y-79510179D01*
X127920766Y-79510178D01*
X128086263Y-79456405D01*
X128086265Y-79456404D01*
X128086884Y-79456203D01*
X128237484Y-79366427D01*
X128364452Y-79245517D01*
X128381198Y-79220313D01*
X128402045Y-79188934D01*
X128461477Y-79099482D01*
X128485438Y-79036405D01*
X128505717Y-78983020D01*
X134595632Y-78983020D01*
X134612741Y-79157511D01*
X134668083Y-79323876D01*
X134758908Y-79473846D01*
X134759359Y-79474313D01*
X134794191Y-79510382D01*
X134880701Y-79599966D01*
X134881243Y-79600321D01*
X134881247Y-79600324D01*
X134974416Y-79661292D01*
X135027410Y-79695970D01*
X135028027Y-79696199D01*
X135028026Y-79696199D01*
X135191123Y-79756854D01*
X135191125Y-79756854D01*
X135191742Y-79757084D01*
X135307714Y-79772558D01*
X135364884Y-79780187D01*
X135364886Y-79780187D01*
X135365530Y-79780273D01*
X135414950Y-79775775D01*
X135539481Y-79764442D01*
X135539484Y-79764441D01*
X135540137Y-79764382D01*
X135540763Y-79764179D01*
X135540766Y-79764178D01*
X135706263Y-79710405D01*
X135706265Y-79710404D01*
X135706884Y-79710203D01*
X135857484Y-79620427D01*
X135984452Y-79499517D01*
X136001198Y-79474313D01*
X136072876Y-79366427D01*
X136081477Y-79353482D01*
X136122489Y-79245517D01*
X136143505Y-79190193D01*
X136143506Y-79190189D01*
X136143737Y-79189581D01*
X136168138Y-79015959D01*
X136168445Y-78994000D01*
X136167287Y-78983673D01*
X136148974Y-78820413D01*
X136148974Y-78820411D01*
X136148901Y-78819764D01*
X136091242Y-78654188D01*
X135998332Y-78505501D01*
X135894363Y-78400805D01*
X135875247Y-78381555D01*
X135875246Y-78381554D01*
X135874789Y-78381094D01*
X135863498Y-78373928D01*
X135761219Y-78309020D01*
X148037632Y-78309020D01*
X148054741Y-78483511D01*
X148110083Y-78649876D01*
X148200908Y-78799846D01*
X148322701Y-78925966D01*
X148323243Y-78926321D01*
X148323247Y-78926324D01*
X148409888Y-78983020D01*
X148469410Y-79021970D01*
X148470027Y-79022199D01*
X148470026Y-79022199D01*
X148633123Y-79082854D01*
X148633125Y-79082854D01*
X148633742Y-79083084D01*
X148749714Y-79098558D01*
X148806884Y-79106187D01*
X148806886Y-79106187D01*
X148807530Y-79106273D01*
X148876138Y-79100029D01*
X148981481Y-79090442D01*
X148981484Y-79090441D01*
X148982137Y-79090382D01*
X148982763Y-79090179D01*
X148982766Y-79090178D01*
X149148263Y-79036405D01*
X149148265Y-79036404D01*
X149148884Y-79036203D01*
X149299484Y-78946427D01*
X149426452Y-78825517D01*
X149443198Y-78800313D01*
X149490995Y-78728371D01*
X149523477Y-78679482D01*
X149566428Y-78566413D01*
X149585505Y-78516193D01*
X149585506Y-78516189D01*
X149585737Y-78515581D01*
X149610138Y-78341959D01*
X149610445Y-78320000D01*
X149609287Y-78309673D01*
X149590974Y-78146413D01*
X149590974Y-78146411D01*
X149590901Y-78145764D01*
X149551684Y-78033148D01*
X149533457Y-77980805D01*
X149533456Y-77980804D01*
X149533242Y-77980188D01*
X149440332Y-77831501D01*
X149316789Y-77707094D01*
X149305498Y-77699928D01*
X149169303Y-77613496D01*
X149168755Y-77613148D01*
X149003585Y-77554334D01*
X149002935Y-77554257D01*
X149002933Y-77554256D01*
X148830140Y-77533651D01*
X148830135Y-77533651D01*
X148829490Y-77533574D01*
X148655122Y-77551901D01*
X148489148Y-77608403D01*
X148339816Y-77700273D01*
X148339345Y-77700734D01*
X148339344Y-77700735D01*
X148329023Y-77710842D01*
X148214549Y-77822944D01*
X148119572Y-77970319D01*
X148059606Y-78135074D01*
X148037632Y-78309020D01*
X135761219Y-78309020D01*
X135727303Y-78287496D01*
X135726755Y-78287148D01*
X135561585Y-78228334D01*
X135560935Y-78228257D01*
X135560933Y-78228256D01*
X135388140Y-78207651D01*
X135388135Y-78207651D01*
X135387490Y-78207574D01*
X135213122Y-78225901D01*
X135047148Y-78282403D01*
X134897816Y-78374273D01*
X134897345Y-78374734D01*
X134897344Y-78374735D01*
X134845096Y-78425900D01*
X134772549Y-78496944D01*
X134677572Y-78644319D01*
X134617606Y-78809074D01*
X134595632Y-78983020D01*
X128505717Y-78983020D01*
X128523505Y-78936193D01*
X128523506Y-78936189D01*
X128523737Y-78935581D01*
X128548138Y-78761959D01*
X128548445Y-78740000D01*
X128547287Y-78729673D01*
X128528974Y-78566413D01*
X128528974Y-78566411D01*
X128528901Y-78565764D01*
X128471242Y-78400188D01*
X128378332Y-78251501D01*
X128308786Y-78181469D01*
X128255247Y-78127555D01*
X128255246Y-78127554D01*
X128254789Y-78127094D01*
X128243498Y-78119928D01*
X128107303Y-78033496D01*
X128106755Y-78033148D01*
X127941585Y-77974334D01*
X127940935Y-77974257D01*
X127940933Y-77974256D01*
X127768140Y-77953651D01*
X127768135Y-77953651D01*
X127767490Y-77953574D01*
X127593122Y-77971901D01*
X127592505Y-77972111D01*
X127557158Y-77984144D01*
X127427148Y-78028403D01*
X127277816Y-78120273D01*
X127277345Y-78120734D01*
X127277344Y-78120735D01*
X127251123Y-78146413D01*
X127152549Y-78242944D01*
X127057572Y-78390319D01*
X126997606Y-78555074D01*
X126975632Y-78729020D01*
X103186915Y-78729020D01*
X104460756Y-76531020D01*
X148037632Y-76531020D01*
X148054741Y-76705511D01*
X148110083Y-76871876D01*
X148200908Y-77021846D01*
X148322701Y-77147966D01*
X148323243Y-77148321D01*
X148323247Y-77148324D01*
X148416416Y-77209292D01*
X148469410Y-77243970D01*
X148470027Y-77244199D01*
X148470026Y-77244199D01*
X148633123Y-77304854D01*
X148633125Y-77304854D01*
X148633742Y-77305084D01*
X148749714Y-77320558D01*
X148806884Y-77328187D01*
X148806886Y-77328187D01*
X148807530Y-77328273D01*
X148856950Y-77323775D01*
X148981481Y-77312442D01*
X148981484Y-77312441D01*
X148982137Y-77312382D01*
X148982763Y-77312179D01*
X148982766Y-77312178D01*
X149148263Y-77258405D01*
X149148265Y-77258404D01*
X149148884Y-77258203D01*
X149299484Y-77168427D01*
X149426452Y-77047517D01*
X149427824Y-77045453D01*
X149454580Y-77005181D01*
X149523477Y-76901482D01*
X149568055Y-76784129D01*
X149585505Y-76738193D01*
X149585506Y-76738189D01*
X149585737Y-76737581D01*
X149587564Y-76724585D01*
X149610087Y-76564319D01*
X149610138Y-76563959D01*
X149610445Y-76542000D01*
X149609287Y-76531673D01*
X149590974Y-76368413D01*
X149590974Y-76368411D01*
X149590901Y-76367764D01*
X149533242Y-76202188D01*
X149440332Y-76053501D01*
X149316789Y-75929094D01*
X149305498Y-75921928D01*
X149169303Y-75835496D01*
X149168755Y-75835148D01*
X149003585Y-75776334D01*
X149002935Y-75776257D01*
X149002933Y-75776256D01*
X148830140Y-75755651D01*
X148830135Y-75755651D01*
X148829490Y-75755574D01*
X148655122Y-75773901D01*
X148489148Y-75830403D01*
X148339816Y-75922273D01*
X148339345Y-75922734D01*
X148339344Y-75922735D01*
X148332380Y-75929555D01*
X148214549Y-76044944D01*
X148119572Y-76192319D01*
X148059606Y-76357074D01*
X148037632Y-76531020D01*
X104460756Y-76531020D01*
X105880461Y-74081333D01*
X105887574Y-74075894D01*
X105890584Y-74075500D01*
X127700300Y-74075500D01*
X127708573Y-74078927D01*
G37*
%TD.AperFunction*%
%TD*%
M02*
