M48
; DRILL file {KiCad (6.0.9-0)} date Tuesday, March 14, 2023 at 05:35:53 PM
; FORMAT={-:-/ absolute / inch / decimal}
; #@! TF.CreationDate,2023-03-14T17:35:53-07:00
; #@! TF.GenerationSoftware,Kicad,Pcbnew,(6.0.9-0)
; #@! TF.FileFunction,Plated,1,4,PTH
FMAT,2
INCH
; #@! TA.AperFunction,Plated,PTH,ComponentDrill
T1C0.0098
; #@! TA.AperFunction,Plated,PTH,ViaDrill
T2C0.0157
; #@! TA.AperFunction,Plated,PTH,ComponentDrill
T3C0.0276
; #@! TA.AperFunction,Plated,PTH,ComponentDrill
T4C0.0315
; #@! TA.AperFunction,Plated,PTH,ComponentDrill
T5C0.0394
%
G90
G05
T1
X5.3192Y-3.6524
X5.3192Y-3.6918
X5.8192Y-3.6524
X5.8192Y-3.6918
T2
X3.94Y-3.65
X3.9775Y-3.5534
X4.0275Y-3.5534
X4.0833Y-3.7533
X4.35Y-3.7485
X4.67Y-3.36
X4.67Y-3.49
X4.76Y-3.22
X5.03Y-3.1
X5.06Y-3.3
X5.13Y-3.55
X5.2872Y-3.0172
X5.3Y-4.83
X5.3192Y-3.8435
X5.32Y-3.4313
X5.3292Y-4.0535
X5.33Y-3.11
X5.33Y-3.22
X5.34Y-3.01
X5.34Y-3.56
X5.3835Y-4.6178
X5.39Y-3.01
X5.41Y-3.64
X5.4263Y-3.8908
X5.4392Y-4.2735
X5.45Y-4.7
X5.45Y-4.74
X5.45Y-4.78
X5.4706Y-3.8923
X5.5409Y-3.4409
X5.5492Y-4.5735
X5.5792Y-3.9835
X5.58Y-4.8346
X5.5831Y-3.7537
X5.5892Y-4.5735
X5.5951Y-3.2978
X5.5981Y-3.2217
X5.6379Y-3.2978
X5.6392Y-3.2222
X5.6417Y-3.2608
X5.645Y-4.695
X5.6523Y-3.4023
X5.6592Y-3.9835
X5.6658Y-3.3364
X5.67Y-4.72
X5.675Y-3.665
X5.677Y-3.2982
X5.6774Y-3.2217
X5.7Y-3.8
X5.71Y-4.63
X5.75Y-3.3
X5.7592Y-4.0135
X5.83Y-3.57
X5.84Y-3.3013
X5.85Y-3.4
X5.85Y-3.5
X5.8592Y-3.0135
X5.8592Y-3.0835
X5.91Y-3.63
X5.9141Y-4.7141
X5.97Y-3.62
X6.04Y-3.23
X6.04Y-3.33
X6.2469Y-4.7327
X6.25Y-3.67
T3
X5.4747Y-4.3888
X5.4747Y-4.5581
X5.6637Y-4.3888
X5.6637Y-4.5581
T4
X4.9792Y-3.525
X4.9792Y-3.6235
X5.8192Y-3.8447
X5.8192Y-3.9431
T5
X5.0692Y-3.9221
X5.0692Y-4.0221
X5.0692Y-4.1221
X5.0692Y-4.2221
X5.0692Y-4.3221
X5.0692Y-4.4221
X5.88Y-4.8496
X5.88Y-4.9496
X6.0692Y-3.9221
X6.0692Y-4.0221
X6.0692Y-4.1221
X6.0692Y-4.2221
X6.0692Y-4.3221
X6.0692Y-4.4221
T0
M30
