%TF.GenerationSoftware,KiCad,Pcbnew,(6.0.9-0)*%
%TF.CreationDate,2023-03-14T17:35:55-07:00*%
%TF.ProjectId,MiniDusty,4d696e69-4475-4737-9479-2e6b69636164,rev?*%
%TF.SameCoordinates,Original*%
%TF.FileFunction,Paste,Top*%
%TF.FilePolarity,Positive*%
%FSLAX46Y46*%
G04 Gerber Fmt 4.6, Leading zero omitted, Abs format (unit mm)*
G04 Created by KiCad (PCBNEW (6.0.9-0)) date 2023-03-14 17:35:55*
%MOMM*%
%LPD*%
G01*
G04 APERTURE LIST*
G04 Aperture macros list*
%AMRoundRect*
0 Rectangle with rounded corners*
0 $1 Rounding radius*
0 $2 $3 $4 $5 $6 $7 $8 $9 X,Y pos of 4 corners*
0 Add a 4 corners polygon primitive as box body*
4,1,4,$2,$3,$4,$5,$6,$7,$8,$9,$2,$3,0*
0 Add four circle primitives for the rounded corners*
1,1,$1+$1,$2,$3*
1,1,$1+$1,$4,$5*
1,1,$1+$1,$6,$7*
1,1,$1+$1,$8,$9*
0 Add four rect primitives between the rounded corners*
20,1,$1+$1,$2,$3,$4,$5,0*
20,1,$1+$1,$4,$5,$6,$7,0*
20,1,$1+$1,$6,$7,$8,$9,0*
20,1,$1+$1,$8,$9,$2,$3,0*%
%AMFreePoly0*
4,1,48,0.036020,0.199191,0.037970,0.199714,0.040958,0.198321,0.057086,0.195477,0.069630,0.184951,0.084467,0.178033,0.290533,-0.028033,0.293203,-0.031847,0.294953,-0.032857,0.296081,-0.035957,0.305473,-0.049370,0.306900,-0.065680,0.312500,-0.081066,0.312500,-0.125000,0.310782,-0.134742,0.311361,-0.138024,0.309695,-0.140910,0.307977,-0.150652,0.295451,-0.165579,0.285709,-0.182453,
0.279350,-0.184767,0.275000,-0.189952,0.255809,-0.193336,0.237500,-0.200000,-0.237500,-0.200000,-0.247242,-0.198282,-0.250524,-0.198861,-0.253410,-0.197195,-0.263152,-0.195477,-0.278079,-0.182951,-0.294953,-0.173209,-0.297267,-0.166850,-0.302452,-0.162500,-0.305836,-0.143309,-0.312500,-0.125000,-0.312500,0.125000,-0.310782,0.134742,-0.311361,0.138024,-0.309695,0.140910,-0.307977,0.150652,
-0.295451,0.165579,-0.285709,0.182453,-0.279350,0.184767,-0.275000,0.189952,-0.255809,0.193336,-0.237500,0.200000,0.031434,0.200000,0.036020,0.199191,0.036020,0.199191,$1*%
%AMFreePoly1*
4,1,48,0.247242,0.198282,0.250524,0.198861,0.253410,0.197195,0.263152,0.195477,0.278079,0.182951,0.294953,0.173209,0.297267,0.166850,0.302452,0.162500,0.305836,0.143309,0.312500,0.125000,0.312500,0.081066,0.311691,0.076480,0.312214,0.074529,0.310820,0.071540,0.307977,0.055414,0.297452,0.042871,0.290533,0.028033,0.084467,-0.178033,0.080653,-0.180703,0.079643,-0.182453,
0.076543,-0.183581,0.063130,-0.192973,0.046819,-0.194400,0.031434,-0.200000,-0.237500,-0.200000,-0.247242,-0.198282,-0.250524,-0.198861,-0.253410,-0.197195,-0.263152,-0.195477,-0.278079,-0.182951,-0.294953,-0.173209,-0.297267,-0.166850,-0.302452,-0.162500,-0.305836,-0.143309,-0.312500,-0.125000,-0.312500,0.125000,-0.310782,0.134742,-0.311361,0.138024,-0.309695,0.140910,-0.307977,0.150652,
-0.295451,0.165579,-0.285709,0.182453,-0.279350,0.184767,-0.275000,0.189952,-0.255809,0.193336,-0.237500,0.200000,0.237500,0.200000,0.247242,0.198282,0.247242,0.198282,$1*%
%AMFreePoly2*
4,1,48,0.134742,0.310782,0.138024,0.311361,0.140910,0.309695,0.150652,0.307977,0.165579,0.295451,0.182453,0.285709,0.184767,0.279350,0.189952,0.275000,0.193336,0.255809,0.200000,0.237500,0.200000,-0.237500,0.198282,-0.247242,0.198861,-0.250524,0.197195,-0.253410,0.195477,-0.263152,0.182951,-0.278079,0.173209,-0.294953,0.166850,-0.297267,0.162500,-0.302452,0.143309,-0.305836,
0.125000,-0.312500,-0.125000,-0.312500,-0.134742,-0.310782,-0.138024,-0.311361,-0.140910,-0.309695,-0.150652,-0.307977,-0.165579,-0.295451,-0.182453,-0.285709,-0.184767,-0.279350,-0.189952,-0.275000,-0.193336,-0.255809,-0.200000,-0.237500,-0.200000,0.031434,-0.199191,0.036020,-0.199714,0.037970,-0.198321,0.040958,-0.195477,0.057086,-0.184951,0.069630,-0.178033,0.084467,0.028033,0.290533,
0.031847,0.293203,0.032857,0.294953,0.035957,0.296081,0.049370,0.305473,0.065680,0.306900,0.081066,0.312500,0.125000,0.312500,0.134742,0.310782,0.134742,0.310782,$1*%
%AMFreePoly3*
4,1,48,-0.076480,0.311691,-0.074530,0.312214,-0.071542,0.310821,-0.055414,0.307977,-0.042870,0.297451,-0.028033,0.290533,0.178033,0.084467,0.180703,0.080653,0.182453,0.079643,0.183581,0.076543,0.192973,0.063130,0.194400,0.046820,0.200000,0.031434,0.200000,-0.237500,0.198282,-0.247242,0.198861,-0.250524,0.197195,-0.253410,0.195477,-0.263152,0.182951,-0.278079,0.173209,-0.294953,
0.166850,-0.297267,0.162500,-0.302452,0.143309,-0.305836,0.125000,-0.312500,-0.125000,-0.312500,-0.134742,-0.310782,-0.138024,-0.311361,-0.140910,-0.309695,-0.150652,-0.307977,-0.165579,-0.295451,-0.182453,-0.285709,-0.184767,-0.279350,-0.189952,-0.275000,-0.193336,-0.255809,-0.200000,-0.237500,-0.200000,0.237500,-0.198282,0.247242,-0.198861,0.250524,-0.197195,0.253410,-0.195477,0.263152,
-0.182951,0.278079,-0.173209,0.294953,-0.166850,0.297267,-0.162500,0.302452,-0.143309,0.305836,-0.125000,0.312500,-0.081066,0.312500,-0.076480,0.311691,-0.076480,0.311691,$1*%
%AMFreePoly4*
4,1,48,0.247242,0.198282,0.250524,0.198861,0.253410,0.197195,0.263152,0.195477,0.278079,0.182951,0.294953,0.173209,0.297267,0.166850,0.302452,0.162500,0.305836,0.143309,0.312500,0.125000,0.312500,-0.125000,0.310782,-0.134742,0.311361,-0.138024,0.309695,-0.140910,0.307977,-0.150652,0.295451,-0.165579,0.285709,-0.182453,0.279350,-0.184767,0.275000,-0.189952,0.255809,-0.193336,
0.237500,-0.200000,-0.031434,-0.200000,-0.036020,-0.199191,-0.037971,-0.199714,-0.040960,-0.198320,-0.057086,-0.195477,-0.069629,-0.184952,-0.084467,-0.178033,-0.290533,0.028033,-0.293203,0.031847,-0.294953,0.032857,-0.296081,0.035957,-0.305473,0.049370,-0.306900,0.065681,-0.312500,0.081066,-0.312500,0.125000,-0.310782,0.134742,-0.311361,0.138024,-0.309695,0.140910,-0.307977,0.150652,
-0.295451,0.165579,-0.285709,0.182453,-0.279350,0.184767,-0.275000,0.189952,-0.255809,0.193336,-0.237500,0.200000,0.237500,0.200000,0.247242,0.198282,0.247242,0.198282,$1*%
%AMFreePoly5*
4,1,48,0.247242,0.198282,0.250524,0.198861,0.253410,0.197195,0.263152,0.195477,0.278079,0.182951,0.294953,0.173209,0.297267,0.166850,0.302452,0.162500,0.305836,0.143309,0.312500,0.125000,0.312500,-0.125000,0.310782,-0.134742,0.311361,-0.138024,0.309695,-0.140910,0.307977,-0.150652,0.295451,-0.165579,0.285709,-0.182453,0.279350,-0.184767,0.275000,-0.189952,0.255809,-0.193336,
0.237500,-0.200000,-0.237500,-0.200000,-0.247242,-0.198282,-0.250524,-0.198861,-0.253410,-0.197195,-0.263152,-0.195477,-0.278079,-0.182951,-0.294953,-0.173209,-0.297267,-0.166850,-0.302452,-0.162500,-0.305836,-0.143309,-0.312500,-0.125000,-0.312500,-0.081066,-0.311691,-0.076480,-0.312214,-0.074530,-0.310821,-0.071542,-0.307977,-0.055414,-0.297451,-0.042870,-0.290533,-0.028033,-0.084467,0.178033,
-0.080653,0.180703,-0.079643,0.182453,-0.076543,0.183581,-0.063130,0.192973,-0.046820,0.194400,-0.031434,0.200000,0.237500,0.200000,0.247242,0.198282,0.247242,0.198282,$1*%
%AMFreePoly6*
4,1,48,0.134742,0.310782,0.138024,0.311361,0.140910,0.309695,0.150652,0.307977,0.165579,0.295451,0.182453,0.285709,0.184767,0.279350,0.189952,0.275000,0.193336,0.255809,0.200000,0.237500,0.200000,-0.031434,0.199191,-0.036020,0.199714,-0.037971,0.198320,-0.040960,0.195477,-0.057086,0.184952,-0.069629,0.178033,-0.084467,-0.028033,-0.290533,-0.031847,-0.293203,-0.032857,-0.294953,
-0.035957,-0.296081,-0.049370,-0.305473,-0.065681,-0.306900,-0.081066,-0.312500,-0.125000,-0.312500,-0.134742,-0.310782,-0.138024,-0.311361,-0.140910,-0.309695,-0.150652,-0.307977,-0.165579,-0.295451,-0.182453,-0.285709,-0.184767,-0.279350,-0.189952,-0.275000,-0.193336,-0.255809,-0.200000,-0.237500,-0.200000,0.237500,-0.198282,0.247242,-0.198861,0.250524,-0.197195,0.253410,-0.195477,0.263152,
-0.182951,0.278079,-0.173209,0.294953,-0.166850,0.297267,-0.162500,0.302452,-0.143309,0.305836,-0.125000,0.312500,0.125000,0.312500,0.134742,0.310782,0.134742,0.310782,$1*%
%AMFreePoly7*
4,1,48,0.134742,0.310782,0.138024,0.311361,0.140910,0.309695,0.150652,0.307977,0.165579,0.295451,0.182453,0.285709,0.184767,0.279350,0.189952,0.275000,0.193336,0.255809,0.200000,0.237500,0.200000,-0.237500,0.198282,-0.247242,0.198861,-0.250524,0.197195,-0.253410,0.195477,-0.263152,0.182951,-0.278079,0.173209,-0.294953,0.166850,-0.297267,0.162500,-0.302452,0.143309,-0.305836,
0.125000,-0.312500,0.081066,-0.312500,0.076480,-0.311691,0.074529,-0.312214,0.071540,-0.310820,0.055414,-0.307977,0.042871,-0.297452,0.028033,-0.290533,-0.178033,-0.084467,-0.180703,-0.080653,-0.182453,-0.079643,-0.183581,-0.076543,-0.192973,-0.063130,-0.194400,-0.046819,-0.200000,-0.031434,-0.200000,0.237500,-0.198282,0.247242,-0.198861,0.250524,-0.197195,0.253410,-0.195477,0.263152,
-0.182951,0.278079,-0.173209,0.294953,-0.166850,0.297267,-0.162500,0.302452,-0.143309,0.305836,-0.125000,0.312500,0.125000,0.312500,0.134742,0.310782,0.134742,0.310782,$1*%
G04 Aperture macros list end*
%ADD10RoundRect,0.225000X0.250000X-0.225000X0.250000X0.225000X-0.250000X0.225000X-0.250000X-0.225000X0*%
%ADD11RoundRect,0.218750X-0.256250X0.218750X-0.256250X-0.218750X0.256250X-0.218750X0.256250X0.218750X0*%
%ADD12R,2.700000X0.800000*%
%ADD13RoundRect,0.225000X-0.250000X0.225000X-0.250000X-0.225000X0.250000X-0.225000X0.250000X0.225000X0*%
%ADD14R,0.750000X0.650000*%
%ADD15R,0.500000X0.250000*%
%ADD16R,0.900000X1.700000*%
%ADD17RoundRect,0.200000X-0.275000X0.200000X-0.275000X-0.200000X0.275000X-0.200000X0.275000X0.200000X0*%
%ADD18R,0.300000X0.850000*%
%ADD19C,1.100000*%
%ADD20RoundRect,0.200000X0.200000X0.275000X-0.200000X0.275000X-0.200000X-0.275000X0.200000X-0.275000X0*%
%ADD21RoundRect,0.200000X0.275000X-0.200000X0.275000X0.200000X-0.275000X0.200000X-0.275000X-0.200000X0*%
%ADD22R,1.500000X0.900000*%
%ADD23R,4.000000X4.000000*%
%ADD24FreePoly0,0.000000*%
%ADD25RoundRect,0.100000X-0.212500X-0.100000X0.212500X-0.100000X0.212500X0.100000X-0.212500X0.100000X0*%
%ADD26FreePoly1,0.000000*%
%ADD27FreePoly2,0.000000*%
%ADD28RoundRect,0.100000X-0.100000X-0.212500X0.100000X-0.212500X0.100000X0.212500X-0.100000X0.212500X0*%
%ADD29FreePoly3,0.000000*%
%ADD30FreePoly4,0.000000*%
%ADD31FreePoly5,0.000000*%
%ADD32FreePoly6,0.000000*%
%ADD33FreePoly7,0.000000*%
%ADD34R,1.000000X1.500000*%
%ADD35RoundRect,0.212500X-0.212500X-0.212500X0.212500X-0.212500X0.212500X0.212500X-0.212500X0.212500X0*%
%ADD36RoundRect,0.075000X-0.350000X-0.075000X0.350000X-0.075000X0.350000X0.075000X-0.350000X0.075000X0*%
%ADD37RoundRect,0.075000X-0.075000X-0.350000X0.075000X-0.350000X0.075000X0.350000X-0.075000X0.350000X0*%
%ADD38RoundRect,0.225000X-0.225000X-0.250000X0.225000X-0.250000X0.225000X0.250000X-0.225000X0.250000X0*%
%ADD39RoundRect,0.225000X0.225000X0.250000X-0.225000X0.250000X-0.225000X-0.250000X0.225000X-0.250000X0*%
%ADD40RoundRect,0.218750X0.218750X0.256250X-0.218750X0.256250X-0.218750X-0.256250X0.218750X-0.256250X0*%
%ADD41R,0.340000X0.700000*%
G04 APERTURE END LIST*
D10*
%TO.C,C10*%
X143510000Y-96800000D03*
X143510000Y-95250000D03*
%TD*%
D11*
%TO.C,D4*%
X145014000Y-103694500D03*
X145014000Y-105269500D03*
%TD*%
%TO.C,D5*%
X147046000Y-103694500D03*
X147046000Y-105269500D03*
%TD*%
D12*
%TO.C,L1*%
X144272000Y-123900000D03*
X144272000Y-121700000D03*
%TD*%
D13*
%TO.C,C11*%
X141732000Y-103399000D03*
X141732000Y-104949000D03*
%TD*%
D10*
%TO.C,C7*%
X168890000Y-83325000D03*
X168890000Y-81775000D03*
%TD*%
D14*
%TO.C,U1*%
X135108000Y-92872000D03*
X135108000Y-93672000D03*
D15*
X134158000Y-92522000D03*
X134158000Y-93022000D03*
X134158000Y-93522000D03*
X134158000Y-94022000D03*
X136058000Y-94022000D03*
X136058000Y-93522000D03*
X136058000Y-93022000D03*
X136058000Y-92522000D03*
%TD*%
D16*
%TO.C,SW1*%
X116615000Y-93980000D03*
X113215000Y-93980000D03*
%TD*%
D17*
%TO.C,R4*%
X136017000Y-123245000D03*
X136017000Y-124895000D03*
%TD*%
%TO.C,R10*%
X135108000Y-113626000D03*
X135108000Y-115276000D03*
%TD*%
%TO.C,R2*%
X129520000Y-78511000D03*
X129520000Y-80161000D03*
%TD*%
D18*
%TO.C,J4*%
X138708000Y-112791000D03*
X139208000Y-112791000D03*
X139708000Y-112791000D03*
X140208000Y-112791000D03*
X140708000Y-112791000D03*
X141208000Y-112791000D03*
X141708000Y-112791000D03*
X142208000Y-112791000D03*
X142708000Y-112791000D03*
X143208000Y-112791000D03*
X143708000Y-112791000D03*
X144208000Y-112791000D03*
X144208000Y-114461000D03*
X143708000Y-114461000D03*
X143208000Y-114461000D03*
X142708000Y-114461000D03*
X142208000Y-114461000D03*
X141708000Y-114461000D03*
X141208000Y-114461000D03*
X140708000Y-114461000D03*
X140208000Y-114461000D03*
X139708000Y-114461000D03*
X139208000Y-114461000D03*
X138708000Y-114461000D03*
D19*
X139058000Y-111476000D03*
X139058000Y-115776000D03*
X143858000Y-115776000D03*
X143858000Y-111476000D03*
%TD*%
D17*
%TO.C,R13*%
X145014000Y-107467000D03*
X145014000Y-109117000D03*
%TD*%
D20*
%TO.C,R8*%
X102869500Y-88733000D03*
X101219500Y-88733000D03*
%TD*%
D21*
%TO.C,R5*%
X137922000Y-124895000D03*
X137922000Y-123245000D03*
%TD*%
D13*
%TO.C,C6*%
X104753727Y-80698473D03*
X104753727Y-82248473D03*
%TD*%
D22*
%TO.C,U3*%
X132962000Y-76638000D03*
X132962000Y-78138000D03*
X132962000Y-79638000D03*
X132962000Y-81138000D03*
X132962000Y-82638000D03*
X132962000Y-84138000D03*
X132962000Y-85638000D03*
X132962000Y-87138000D03*
X132962000Y-88638000D03*
X150462000Y-88638000D03*
X150462000Y-87138000D03*
X150462000Y-85638000D03*
X150462000Y-84138000D03*
X150462000Y-82638000D03*
X150462000Y-81138000D03*
X150462000Y-79638000D03*
X150462000Y-78138000D03*
X150462000Y-76638000D03*
D23*
X142812000Y-83248000D03*
%TD*%
D24*
%TO.C,U5*%
X101390000Y-91793000D03*
D25*
X101390000Y-92293000D03*
X101390000Y-92793000D03*
D26*
X101390000Y-93293000D03*
D27*
X102052500Y-93455500D03*
D28*
X102552500Y-93455500D03*
D29*
X103052500Y-93455500D03*
D30*
X103715000Y-93293000D03*
D25*
X103715000Y-92793000D03*
X103715000Y-92293000D03*
D31*
X103715000Y-91793000D03*
D32*
X103052500Y-91630500D03*
D28*
X102552500Y-91630500D03*
D33*
X102052500Y-91630500D03*
%TD*%
D34*
%TO.C,D2*%
X174300000Y-76290000D03*
X171100000Y-76290000D03*
X171100000Y-81190000D03*
X174300000Y-81190000D03*
%TD*%
D10*
%TO.C,C13*%
X125984000Y-76213000D03*
X125984000Y-74663000D03*
%TD*%
D35*
%TO.C,U6*%
X137885000Y-98877000D03*
X137885000Y-99927000D03*
X138935000Y-98877000D03*
X138935000Y-99927000D03*
D36*
X136460000Y-98427000D03*
X136460000Y-99077000D03*
X136460000Y-99727000D03*
X136460000Y-100377000D03*
D37*
X137435000Y-101352000D03*
X138085000Y-101352000D03*
X138735000Y-101352000D03*
X139385000Y-101352000D03*
D36*
X140360000Y-100377000D03*
X140360000Y-99727000D03*
X140360000Y-99077000D03*
X140360000Y-98427000D03*
D37*
X139385000Y-97452000D03*
X138735000Y-97452000D03*
X138085000Y-97452000D03*
X137435000Y-97452000D03*
%TD*%
D21*
%TO.C,R11*%
X139680000Y-105053000D03*
X139680000Y-103403000D03*
%TD*%
D16*
%TO.C,SW2*%
X165940000Y-93980000D03*
X169340000Y-93980000D03*
%TD*%
D17*
%TO.C,R3*%
X130028000Y-83845000D03*
X130028000Y-85495000D03*
%TD*%
%TO.C,R14*%
X147046000Y-107467000D03*
X147046000Y-109117000D03*
%TD*%
D38*
%TO.C,C1*%
X126205000Y-80606000D03*
X127755000Y-80606000D03*
%TD*%
D39*
%TO.C,C5*%
X141237000Y-121530000D03*
X139687000Y-121530000D03*
%TD*%
%TO.C,C9*%
X137153000Y-106768000D03*
X135603000Y-106768000D03*
%TD*%
D21*
%TO.C,R6*%
X130028000Y-88797000D03*
X130028000Y-87147000D03*
%TD*%
D17*
%TO.C,R9*%
X135108000Y-110007000D03*
X135108000Y-111657000D03*
%TD*%
D39*
%TO.C,C2*%
X141237000Y-126610000D03*
X139687000Y-126610000D03*
%TD*%
D38*
%TO.C,C8*%
X139674321Y-107395844D03*
X141224321Y-107395844D03*
%TD*%
D14*
%TO.C,U2*%
X147808000Y-93672000D03*
X147808000Y-92872000D03*
D15*
X148758000Y-94022000D03*
X148758000Y-93522000D03*
X148758000Y-93022000D03*
X148758000Y-92522000D03*
X146858000Y-92522000D03*
X146858000Y-93022000D03*
X146858000Y-93522000D03*
X146858000Y-94022000D03*
%TD*%
D34*
%TO.C,D3*%
X110800000Y-76290000D03*
X107600000Y-76290000D03*
X107600000Y-81190000D03*
X110800000Y-81190000D03*
%TD*%
D40*
%TO.C,D1*%
X153264049Y-119713921D03*
X151689049Y-119713921D03*
%TD*%
D41*
%TO.C,U4*%
X139962000Y-124820000D03*
X140462000Y-124820000D03*
X140962000Y-124820000D03*
X140962000Y-123320000D03*
X140462000Y-123320000D03*
X139962000Y-123320000D03*
%TD*%
D39*
%TO.C,R7*%
X141237000Y-119625000D03*
X139687000Y-119625000D03*
%TD*%
%TO.C,C12*%
X125850000Y-78066000D03*
X124300000Y-78066000D03*
%TD*%
D21*
%TO.C,R12*%
X137140000Y-105053000D03*
X137140000Y-103403000D03*
%TD*%
M02*
