%TF.GenerationSoftware,KiCad,Pcbnew,(6.0.9-0)*%
%TF.CreationDate,2023-03-14T17:35:55-07:00*%
%TF.ProjectId,MiniDusty,4d696e69-4475-4737-9479-2e6b69636164,rev?*%
%TF.SameCoordinates,Original*%
%TF.FileFunction,Legend,Top*%
%TF.FilePolarity,Positive*%
%FSLAX46Y46*%
G04 Gerber Fmt 4.6, Leading zero omitted, Abs format (unit mm)*
G04 Created by KiCad (PCBNEW (6.0.9-0)) date 2023-03-14 17:35:55*
%MOMM*%
%LPD*%
G01*
G04 APERTURE LIST*
%ADD10C,0.300000*%
%ADD11C,0.150000*%
%ADD12C,0.120000*%
G04 APERTURE END LIST*
D10*
X113074285Y-115103571D02*
X113074285Y-113603571D01*
X113574285Y-114675000D01*
X114074285Y-113603571D01*
X114074285Y-115103571D01*
X114788571Y-115103571D02*
X114788571Y-113603571D01*
X115502857Y-115103571D02*
X115502857Y-113603571D01*
X115860000Y-113603571D01*
X116074285Y-113675000D01*
X116217142Y-113817857D01*
X116288571Y-113960714D01*
X116360000Y-114246428D01*
X116360000Y-114460714D01*
X116288571Y-114746428D01*
X116217142Y-114889285D01*
X116074285Y-115032142D01*
X115860000Y-115103571D01*
X115502857Y-115103571D01*
X117002857Y-113603571D02*
X117002857Y-114817857D01*
X117074285Y-114960714D01*
X117145714Y-115032142D01*
X117288571Y-115103571D01*
X117574285Y-115103571D01*
X117717142Y-115032142D01*
X117788571Y-114960714D01*
X117860000Y-114817857D01*
X117860000Y-113603571D01*
X118502857Y-115032142D02*
X118717142Y-115103571D01*
X119074285Y-115103571D01*
X119217142Y-115032142D01*
X119288571Y-114960714D01*
X119360000Y-114817857D01*
X119360000Y-114675000D01*
X119288571Y-114532142D01*
X119217142Y-114460714D01*
X119074285Y-114389285D01*
X118788571Y-114317857D01*
X118645714Y-114246428D01*
X118574285Y-114175000D01*
X118502857Y-114032142D01*
X118502857Y-113889285D01*
X118574285Y-113746428D01*
X118645714Y-113675000D01*
X118788571Y-113603571D01*
X119145714Y-113603571D01*
X119360000Y-113675000D01*
X120931428Y-113603571D02*
X121431428Y-115103571D01*
X121931428Y-113603571D01*
X123217142Y-115103571D02*
X122360000Y-115103571D01*
X122788571Y-115103571D02*
X122788571Y-113603571D01*
X122645714Y-113817857D01*
X122502857Y-113960714D01*
X122360000Y-114032142D01*
X106895714Y-117518571D02*
X106395714Y-116804285D01*
X106038571Y-117518571D02*
X106038571Y-116018571D01*
X106610000Y-116018571D01*
X106752857Y-116090000D01*
X106824285Y-116161428D01*
X106895714Y-116304285D01*
X106895714Y-116518571D01*
X106824285Y-116661428D01*
X106752857Y-116732857D01*
X106610000Y-116804285D01*
X106038571Y-116804285D01*
X107467142Y-117090000D02*
X108181428Y-117090000D01*
X107324285Y-117518571D02*
X107824285Y-116018571D01*
X108324285Y-117518571D01*
X108824285Y-117518571D02*
X108824285Y-116018571D01*
X108824285Y-116732857D02*
X109681428Y-116732857D01*
X109681428Y-117518571D02*
X109681428Y-116018571D01*
X110395714Y-116732857D02*
X110895714Y-116732857D01*
X111110000Y-117518571D02*
X110395714Y-117518571D01*
X110395714Y-116018571D01*
X111110000Y-116018571D01*
X111752857Y-116732857D02*
X112252857Y-116732857D01*
X112467142Y-117518571D02*
X111752857Y-117518571D01*
X111752857Y-116018571D01*
X112467142Y-116018571D01*
X113824285Y-117518571D02*
X113110000Y-117518571D01*
X113110000Y-116018571D01*
X116324285Y-117518571D02*
X115824285Y-116804285D01*
X115467142Y-117518571D02*
X115467142Y-116018571D01*
X116038571Y-116018571D01*
X116181428Y-116090000D01*
X116252857Y-116161428D01*
X116324285Y-116304285D01*
X116324285Y-116518571D01*
X116252857Y-116661428D01*
X116181428Y-116732857D01*
X116038571Y-116804285D01*
X115467142Y-116804285D01*
X116967142Y-116732857D02*
X117467142Y-116732857D01*
X117681428Y-117518571D02*
X116967142Y-117518571D01*
X116967142Y-116018571D01*
X117681428Y-116018571D01*
X118324285Y-117518571D02*
X118324285Y-116018571D01*
X118324285Y-116732857D02*
X119181428Y-116732857D01*
X119181428Y-117518571D02*
X119181428Y-116018571D01*
X119895714Y-117518571D02*
X119895714Y-116018571D01*
X120395714Y-117090000D01*
X120895714Y-116018571D01*
X120895714Y-117518571D01*
X121538571Y-117090000D02*
X122252857Y-117090000D01*
X121395714Y-117518571D02*
X121895714Y-116018571D01*
X122395714Y-117518571D01*
X122681428Y-116018571D02*
X123538571Y-116018571D01*
X123110000Y-117518571D02*
X123110000Y-116018571D01*
X124038571Y-116018571D02*
X124038571Y-117232857D01*
X124110000Y-117375714D01*
X124181428Y-117447142D01*
X124324285Y-117518571D01*
X124610000Y-117518571D01*
X124752857Y-117447142D01*
X124824285Y-117375714D01*
X124895714Y-117232857D01*
X124895714Y-116018571D01*
X126324285Y-117518571D02*
X125610000Y-117518571D01*
X125610000Y-116018571D01*
X127538571Y-117518571D02*
X126824285Y-117518571D01*
X126824285Y-116018571D01*
X127967142Y-117090000D02*
X128681428Y-117090000D01*
X127824285Y-117518571D02*
X128324285Y-116018571D01*
X128824285Y-117518571D01*
X129324285Y-117518571D02*
X129324285Y-116018571D01*
X129324285Y-116732857D02*
X130181428Y-116732857D01*
X130181428Y-117518571D02*
X130181428Y-116018571D01*
X111717142Y-119933571D02*
X111717142Y-118433571D01*
X112217142Y-119505000D01*
X112717142Y-118433571D01*
X112717142Y-119933571D01*
X114074285Y-119933571D02*
X114074285Y-119147857D01*
X114002857Y-119005000D01*
X113860000Y-118933571D01*
X113574285Y-118933571D01*
X113431428Y-119005000D01*
X114074285Y-119862142D02*
X113931428Y-119933571D01*
X113574285Y-119933571D01*
X113431428Y-119862142D01*
X113360000Y-119719285D01*
X113360000Y-119576428D01*
X113431428Y-119433571D01*
X113574285Y-119362142D01*
X113931428Y-119362142D01*
X114074285Y-119290714D01*
X114788571Y-119933571D02*
X114788571Y-118933571D01*
X114788571Y-119219285D02*
X114860000Y-119076428D01*
X114931428Y-119005000D01*
X115074285Y-118933571D01*
X115217142Y-118933571D01*
X116360000Y-119862142D02*
X116217142Y-119933571D01*
X115931428Y-119933571D01*
X115788571Y-119862142D01*
X115717142Y-119790714D01*
X115645714Y-119647857D01*
X115645714Y-119219285D01*
X115717142Y-119076428D01*
X115788571Y-119005000D01*
X115931428Y-118933571D01*
X116217142Y-118933571D01*
X116360000Y-119005000D01*
X117002857Y-119933571D02*
X117002857Y-118433571D01*
X117645714Y-119933571D02*
X117645714Y-119147857D01*
X117574285Y-119005000D01*
X117431428Y-118933571D01*
X117217142Y-118933571D01*
X117074285Y-119005000D01*
X117002857Y-119076428D01*
X119431428Y-118576428D02*
X119502857Y-118505000D01*
X119645714Y-118433571D01*
X120002857Y-118433571D01*
X120145714Y-118505000D01*
X120217142Y-118576428D01*
X120288571Y-118719285D01*
X120288571Y-118862142D01*
X120217142Y-119076428D01*
X119360000Y-119933571D01*
X120288571Y-119933571D01*
X121217142Y-118433571D02*
X121360000Y-118433571D01*
X121502857Y-118505000D01*
X121574285Y-118576428D01*
X121645714Y-118719285D01*
X121717142Y-119005000D01*
X121717142Y-119362142D01*
X121645714Y-119647857D01*
X121574285Y-119790714D01*
X121502857Y-119862142D01*
X121360000Y-119933571D01*
X121217142Y-119933571D01*
X121074285Y-119862142D01*
X121002857Y-119790714D01*
X120931428Y-119647857D01*
X120860000Y-119362142D01*
X120860000Y-119005000D01*
X120931428Y-118719285D01*
X121002857Y-118576428D01*
X121074285Y-118505000D01*
X121217142Y-118433571D01*
X122288571Y-118576428D02*
X122360000Y-118505000D01*
X122502857Y-118433571D01*
X122860000Y-118433571D01*
X123002857Y-118505000D01*
X123074285Y-118576428D01*
X123145714Y-118719285D01*
X123145714Y-118862142D01*
X123074285Y-119076428D01*
X122217142Y-119933571D01*
X123145714Y-119933571D01*
X123645714Y-118433571D02*
X124574285Y-118433571D01*
X124074285Y-119005000D01*
X124288571Y-119005000D01*
X124431428Y-119076428D01*
X124502857Y-119147857D01*
X124574285Y-119290714D01*
X124574285Y-119647857D01*
X124502857Y-119790714D01*
X124431428Y-119862142D01*
X124288571Y-119933571D01*
X123860000Y-119933571D01*
X123717142Y-119862142D01*
X123645714Y-119790714D01*
X156557156Y-99963106D02*
X156557156Y-98312106D01*
X157057156Y-99491392D01*
X157557156Y-98312106D01*
X157557156Y-99963106D01*
X158271442Y-99334154D02*
X159414299Y-99334154D01*
X158842871Y-99963106D02*
X158842871Y-98705202D01*
X156414299Y-100970216D02*
X157342871Y-100970216D01*
X156842871Y-101599169D01*
X157057156Y-101599169D01*
X157200014Y-101677788D01*
X157271442Y-101756407D01*
X157342871Y-101913645D01*
X157342871Y-102306740D01*
X157271442Y-102463978D01*
X157200014Y-102542597D01*
X157057156Y-102621216D01*
X156628585Y-102621216D01*
X156485728Y-102542597D01*
X156414299Y-102463978D01*
X157771442Y-100970216D02*
X158271442Y-102621216D01*
X158771442Y-100970216D01*
X159128585Y-100970216D02*
X160057156Y-100970216D01*
X159557156Y-101599169D01*
X159771442Y-101599169D01*
X159914299Y-101677788D01*
X159985728Y-101756407D01*
X160057156Y-101913645D01*
X160057156Y-102306740D01*
X159985728Y-102463978D01*
X159914299Y-102542597D01*
X159771442Y-102621216D01*
X159342871Y-102621216D01*
X159200014Y-102542597D01*
X159128585Y-102463978D01*
X156557156Y-104414517D02*
X157057156Y-104414517D01*
X157271442Y-105279326D02*
X156557156Y-105279326D01*
X156557156Y-103628326D01*
X157271442Y-103628326D01*
X157842871Y-104807612D02*
X158557156Y-104807612D01*
X157700014Y-105279326D02*
X158200014Y-103628326D01*
X158700014Y-105279326D01*
X156485728Y-107465722D02*
X157200014Y-107465722D01*
X156342871Y-107937436D02*
X156842871Y-106286436D01*
X157342871Y-107937436D01*
X158342871Y-107072627D02*
X158557156Y-107151246D01*
X158628585Y-107229865D01*
X158700014Y-107387103D01*
X158700014Y-107622960D01*
X158628585Y-107780198D01*
X158557156Y-107858817D01*
X158414299Y-107937436D01*
X157842871Y-107937436D01*
X157842871Y-106286436D01*
X158342871Y-106286436D01*
X158485728Y-106365056D01*
X158557156Y-106443675D01*
X158628585Y-106600913D01*
X158628585Y-106758151D01*
X158557156Y-106915389D01*
X158485728Y-106994008D01*
X158342871Y-107072627D01*
X157842871Y-107072627D01*
X157342871Y-109023166D02*
X157200014Y-108944546D01*
X156985728Y-108944546D01*
X156771442Y-109023166D01*
X156628585Y-109180404D01*
X156557156Y-109337642D01*
X156485728Y-109652118D01*
X156485728Y-109887975D01*
X156557156Y-110202451D01*
X156628585Y-110359689D01*
X156771442Y-110516927D01*
X156985728Y-110595546D01*
X157128585Y-110595546D01*
X157342871Y-110516927D01*
X157414299Y-110438308D01*
X157414299Y-109887975D01*
X157128585Y-109887975D01*
X158057156Y-110595546D02*
X158057156Y-108944546D01*
X158914299Y-110595546D01*
X158914299Y-108944546D01*
X159628585Y-110595546D02*
X159628585Y-108944546D01*
X159985728Y-108944546D01*
X160200014Y-109023166D01*
X160342871Y-109180404D01*
X160414299Y-109337642D01*
X160485728Y-109652118D01*
X160485728Y-109887975D01*
X160414299Y-110202451D01*
X160342871Y-110359689D01*
X160200014Y-110516927D01*
X159985728Y-110595546D01*
X159628585Y-110595546D01*
X156557156Y-113253656D02*
X156557156Y-111602656D01*
X157057156Y-112781942D01*
X157557156Y-111602656D01*
X157557156Y-113253656D01*
X158271442Y-112624704D02*
X159414299Y-112624704D01*
X126875857Y-112008249D02*
X126875857Y-113659249D01*
X126375857Y-112479963D01*
X125875857Y-113659249D01*
X125875857Y-112008249D01*
X125161571Y-112637201D02*
X124018714Y-112637201D01*
X124590142Y-112008249D02*
X124590142Y-113266153D01*
X127018714Y-111001139D02*
X126090142Y-111001139D01*
X126590142Y-110372186D01*
X126375857Y-110372186D01*
X126233000Y-110293567D01*
X126161571Y-110214948D01*
X126090142Y-110057710D01*
X126090142Y-109664615D01*
X126161571Y-109507377D01*
X126233000Y-109428758D01*
X126375857Y-109350139D01*
X126804428Y-109350139D01*
X126947285Y-109428758D01*
X127018714Y-109507377D01*
X125661571Y-111001139D02*
X125161571Y-109350139D01*
X124661571Y-111001139D01*
X124304428Y-111001139D02*
X123375857Y-111001139D01*
X123875857Y-110372186D01*
X123661571Y-110372186D01*
X123518714Y-110293567D01*
X123447285Y-110214948D01*
X123375857Y-110057710D01*
X123375857Y-109664615D01*
X123447285Y-109507377D01*
X123518714Y-109428758D01*
X123661571Y-109350139D01*
X124090142Y-109350139D01*
X124233000Y-109428758D01*
X124304428Y-109507377D01*
X126875857Y-107556838D02*
X126375857Y-107556838D01*
X126161571Y-106692029D02*
X126875857Y-106692029D01*
X126875857Y-108343029D01*
X126161571Y-108343029D01*
X125590142Y-107163743D02*
X124875857Y-107163743D01*
X125733000Y-106692029D02*
X125233000Y-108343029D01*
X124733000Y-106692029D01*
X126947285Y-104505633D02*
X126233000Y-104505633D01*
X127090142Y-104033919D02*
X126590142Y-105684919D01*
X126090142Y-104033919D01*
X125090142Y-104898728D02*
X124875857Y-104820109D01*
X124804428Y-104741490D01*
X124733000Y-104584252D01*
X124733000Y-104348395D01*
X124804428Y-104191157D01*
X124875857Y-104112538D01*
X125018714Y-104033919D01*
X125590142Y-104033919D01*
X125590142Y-105684919D01*
X125090142Y-105684919D01*
X124947285Y-105606300D01*
X124875857Y-105527680D01*
X124804428Y-105370442D01*
X124804428Y-105213204D01*
X124875857Y-105055966D01*
X124947285Y-104977347D01*
X125090142Y-104898728D01*
X125590142Y-104898728D01*
X126090142Y-102948190D02*
X126233000Y-103026809D01*
X126447285Y-103026809D01*
X126661571Y-102948190D01*
X126804428Y-102790951D01*
X126875857Y-102633713D01*
X126947285Y-102319237D01*
X126947285Y-102083380D01*
X126875857Y-101768904D01*
X126804428Y-101611666D01*
X126661571Y-101454428D01*
X126447285Y-101375809D01*
X126304428Y-101375809D01*
X126090142Y-101454428D01*
X126018714Y-101533047D01*
X126018714Y-102083380D01*
X126304428Y-102083380D01*
X125375857Y-101375809D02*
X125375857Y-103026809D01*
X124518714Y-101375809D01*
X124518714Y-103026809D01*
X123804428Y-101375809D02*
X123804428Y-103026809D01*
X123447285Y-103026809D01*
X123233000Y-102948190D01*
X123090142Y-102790951D01*
X123018714Y-102633713D01*
X122947285Y-102319237D01*
X122947285Y-102083380D01*
X123018714Y-101768904D01*
X123090142Y-101611666D01*
X123233000Y-101454428D01*
X123447285Y-101375809D01*
X123804428Y-101375809D01*
X126875857Y-98717699D02*
X126875857Y-100368699D01*
X126375857Y-99189413D01*
X125875857Y-100368699D01*
X125875857Y-98717699D01*
X125161571Y-99346651D02*
X124018714Y-99346651D01*
D11*
%TO.C,C10*%
X142437142Y-96667857D02*
X142484761Y-96715476D01*
X142532380Y-96858333D01*
X142532380Y-96953571D01*
X142484761Y-97096428D01*
X142389523Y-97191666D01*
X142294285Y-97239285D01*
X142103809Y-97286904D01*
X141960952Y-97286904D01*
X141770476Y-97239285D01*
X141675238Y-97191666D01*
X141580000Y-97096428D01*
X141532380Y-96953571D01*
X141532380Y-96858333D01*
X141580000Y-96715476D01*
X141627619Y-96667857D01*
X142532380Y-95715476D02*
X142532380Y-96286904D01*
X142532380Y-96001190D02*
X141532380Y-96001190D01*
X141675238Y-96096428D01*
X141770476Y-96191666D01*
X141818095Y-96286904D01*
X141532380Y-95096428D02*
X141532380Y-95001190D01*
X141580000Y-94905952D01*
X141627619Y-94858333D01*
X141722857Y-94810714D01*
X141913333Y-94763095D01*
X142151428Y-94763095D01*
X142341904Y-94810714D01*
X142437142Y-94858333D01*
X142484761Y-94905952D01*
X142532380Y-95001190D01*
X142532380Y-95096428D01*
X142484761Y-95191666D01*
X142437142Y-95239285D01*
X142341904Y-95286904D01*
X142151428Y-95334523D01*
X141913333Y-95334523D01*
X141722857Y-95286904D01*
X141627619Y-95239285D01*
X141580000Y-95191666D01*
X141532380Y-95096428D01*
%TO.C,D4*%
X145466380Y-102426095D02*
X144466380Y-102426095D01*
X144466380Y-102188000D01*
X144514000Y-102045142D01*
X144609238Y-101949904D01*
X144704476Y-101902285D01*
X144894952Y-101854666D01*
X145037809Y-101854666D01*
X145228285Y-101902285D01*
X145323523Y-101949904D01*
X145418761Y-102045142D01*
X145466380Y-102188000D01*
X145466380Y-102426095D01*
X144799714Y-100997523D02*
X145466380Y-100997523D01*
X144418761Y-101235619D02*
X145133047Y-101473714D01*
X145133047Y-100854666D01*
%TO.C,D5*%
X149042380Y-106148095D02*
X148042380Y-106148095D01*
X148042380Y-105910000D01*
X148090000Y-105767142D01*
X148185238Y-105671904D01*
X148280476Y-105624285D01*
X148470952Y-105576666D01*
X148613809Y-105576666D01*
X148804285Y-105624285D01*
X148899523Y-105671904D01*
X148994761Y-105767142D01*
X149042380Y-105910000D01*
X149042380Y-106148095D01*
X148042380Y-104671904D02*
X148042380Y-105148095D01*
X148518571Y-105195714D01*
X148470952Y-105148095D01*
X148423333Y-105052857D01*
X148423333Y-104814761D01*
X148470952Y-104719523D01*
X148518571Y-104671904D01*
X148613809Y-104624285D01*
X148851904Y-104624285D01*
X148947142Y-104671904D01*
X148994761Y-104719523D01*
X149042380Y-104814761D01*
X149042380Y-105052857D01*
X148994761Y-105148095D01*
X148947142Y-105195714D01*
%TO.C,L1*%
X145705333Y-120721147D02*
X145229142Y-120721147D01*
X145229142Y-119721147D01*
X146562476Y-120721147D02*
X145991047Y-120721147D01*
X146276761Y-120721147D02*
X146276761Y-119721147D01*
X146181523Y-119864005D01*
X146086285Y-119959243D01*
X145991047Y-120006862D01*
%TO.C,J3*%
X128424666Y-114544380D02*
X128424666Y-115258666D01*
X128377047Y-115401523D01*
X128281809Y-115496761D01*
X128138952Y-115544380D01*
X128043714Y-115544380D01*
X128805619Y-114544380D02*
X129424666Y-114544380D01*
X129091333Y-114925333D01*
X129234190Y-114925333D01*
X129329428Y-114972952D01*
X129377047Y-115020571D01*
X129424666Y-115115809D01*
X129424666Y-115353904D01*
X129377047Y-115449142D01*
X129329428Y-115496761D01*
X129234190Y-115544380D01*
X128948476Y-115544380D01*
X128853238Y-115496761D01*
X128805619Y-115449142D01*
%TO.C,C11*%
X143519142Y-104816857D02*
X143566761Y-104864476D01*
X143614380Y-105007333D01*
X143614380Y-105102571D01*
X143566761Y-105245428D01*
X143471523Y-105340666D01*
X143376285Y-105388285D01*
X143185809Y-105435904D01*
X143042952Y-105435904D01*
X142852476Y-105388285D01*
X142757238Y-105340666D01*
X142662000Y-105245428D01*
X142614380Y-105102571D01*
X142614380Y-105007333D01*
X142662000Y-104864476D01*
X142709619Y-104816857D01*
X143614380Y-103864476D02*
X143614380Y-104435904D01*
X143614380Y-104150190D02*
X142614380Y-104150190D01*
X142757238Y-104245428D01*
X142852476Y-104340666D01*
X142900095Y-104435904D01*
X143614380Y-102912095D02*
X143614380Y-103483523D01*
X143614380Y-103197809D02*
X142614380Y-103197809D01*
X142757238Y-103293047D01*
X142852476Y-103388285D01*
X142900095Y-103483523D01*
%TO.C,C7*%
X167817142Y-82716666D02*
X167864761Y-82764285D01*
X167912380Y-82907142D01*
X167912380Y-83002380D01*
X167864761Y-83145238D01*
X167769523Y-83240476D01*
X167674285Y-83288095D01*
X167483809Y-83335714D01*
X167340952Y-83335714D01*
X167150476Y-83288095D01*
X167055238Y-83240476D01*
X166960000Y-83145238D01*
X166912380Y-83002380D01*
X166912380Y-82907142D01*
X166960000Y-82764285D01*
X167007619Y-82716666D01*
X166912380Y-82383333D02*
X166912380Y-81716666D01*
X167912380Y-82145238D01*
%TO.C,U1*%
X134726095Y-90824380D02*
X134726095Y-91633904D01*
X134773714Y-91729142D01*
X134821333Y-91776761D01*
X134916571Y-91824380D01*
X135107047Y-91824380D01*
X135202285Y-91776761D01*
X135249904Y-91729142D01*
X135297523Y-91633904D01*
X135297523Y-90824380D01*
X136297523Y-91824380D02*
X135726095Y-91824380D01*
X136011809Y-91824380D02*
X136011809Y-90824380D01*
X135916571Y-90967238D01*
X135821333Y-91062476D01*
X135726095Y-91110095D01*
%TO.C,SW1*%
X113581666Y-96884761D02*
X113724523Y-96932380D01*
X113962619Y-96932380D01*
X114057857Y-96884761D01*
X114105476Y-96837142D01*
X114153095Y-96741904D01*
X114153095Y-96646666D01*
X114105476Y-96551428D01*
X114057857Y-96503809D01*
X113962619Y-96456190D01*
X113772142Y-96408571D01*
X113676904Y-96360952D01*
X113629285Y-96313333D01*
X113581666Y-96218095D01*
X113581666Y-96122857D01*
X113629285Y-96027619D01*
X113676904Y-95980000D01*
X113772142Y-95932380D01*
X114010238Y-95932380D01*
X114153095Y-95980000D01*
X114486428Y-95932380D02*
X114724523Y-96932380D01*
X114915000Y-96218095D01*
X115105476Y-96932380D01*
X115343571Y-95932380D01*
X116248333Y-96932380D02*
X115676904Y-96932380D01*
X115962619Y-96932380D02*
X115962619Y-95932380D01*
X115867380Y-96075238D01*
X115772142Y-96170476D01*
X115676904Y-96218095D01*
%TO.C,R4*%
X136444943Y-126798551D02*
X135968753Y-127131885D01*
X136444943Y-127369980D02*
X135444943Y-127369980D01*
X135444943Y-126989027D01*
X135492563Y-126893789D01*
X135540182Y-126846170D01*
X135635420Y-126798551D01*
X135778277Y-126798551D01*
X135873515Y-126846170D01*
X135921134Y-126893789D01*
X135968753Y-126989027D01*
X135968753Y-127369980D01*
X135778277Y-125941408D02*
X136444943Y-125941408D01*
X135397324Y-126179504D02*
X136111610Y-126417599D01*
X136111610Y-125798551D01*
%TO.C,R10*%
X133802380Y-115331115D02*
X133326190Y-115664448D01*
X133802380Y-115902543D02*
X132802380Y-115902543D01*
X132802380Y-115521591D01*
X132850000Y-115426353D01*
X132897619Y-115378734D01*
X132992857Y-115331115D01*
X133135714Y-115331115D01*
X133230952Y-115378734D01*
X133278571Y-115426353D01*
X133326190Y-115521591D01*
X133326190Y-115902543D01*
X133802380Y-114378734D02*
X133802380Y-114950162D01*
X133802380Y-114664448D02*
X132802380Y-114664448D01*
X132945238Y-114759686D01*
X133040476Y-114854924D01*
X133088095Y-114950162D01*
X132802380Y-113759686D02*
X132802380Y-113664448D01*
X132850000Y-113569210D01*
X132897619Y-113521591D01*
X132992857Y-113473972D01*
X133183333Y-113426353D01*
X133421428Y-113426353D01*
X133611904Y-113473972D01*
X133707142Y-113521591D01*
X133754761Y-113569210D01*
X133802380Y-113664448D01*
X133802380Y-113759686D01*
X133754761Y-113854924D01*
X133707142Y-113902543D01*
X133611904Y-113950162D01*
X133421428Y-113997781D01*
X133183333Y-113997781D01*
X132992857Y-113950162D01*
X132897619Y-113902543D01*
X132850000Y-113854924D01*
X132802380Y-113759686D01*
%TO.C,R2*%
X131402380Y-79502666D02*
X130926190Y-79836000D01*
X131402380Y-80074095D02*
X130402380Y-80074095D01*
X130402380Y-79693142D01*
X130450000Y-79597904D01*
X130497619Y-79550285D01*
X130592857Y-79502666D01*
X130735714Y-79502666D01*
X130830952Y-79550285D01*
X130878571Y-79597904D01*
X130926190Y-79693142D01*
X130926190Y-80074095D01*
X130497619Y-79121714D02*
X130450000Y-79074095D01*
X130402380Y-78978857D01*
X130402380Y-78740761D01*
X130450000Y-78645523D01*
X130497619Y-78597904D01*
X130592857Y-78550285D01*
X130688095Y-78550285D01*
X130830952Y-78597904D01*
X131402380Y-79169333D01*
X131402380Y-78550285D01*
%TO.C,J4*%
X146780735Y-114601075D02*
X146780735Y-115315361D01*
X146733116Y-115458218D01*
X146637878Y-115553456D01*
X146495021Y-115601075D01*
X146399783Y-115601075D01*
X147685497Y-114934409D02*
X147685497Y-115601075D01*
X147447402Y-114553456D02*
X147209307Y-115267742D01*
X147828354Y-115267742D01*
%TO.C,C3*%
X150963333Y-96877142D02*
X150915714Y-96924761D01*
X150772857Y-96972380D01*
X150677619Y-96972380D01*
X150534761Y-96924761D01*
X150439523Y-96829523D01*
X150391904Y-96734285D01*
X150344285Y-96543809D01*
X150344285Y-96400952D01*
X150391904Y-96210476D01*
X150439523Y-96115238D01*
X150534761Y-96020000D01*
X150677619Y-95972380D01*
X150772857Y-95972380D01*
X150915714Y-96020000D01*
X150963333Y-96067619D01*
X151296666Y-95972380D02*
X151915714Y-95972380D01*
X151582380Y-96353333D01*
X151725238Y-96353333D01*
X151820476Y-96400952D01*
X151868095Y-96448571D01*
X151915714Y-96543809D01*
X151915714Y-96781904D01*
X151868095Y-96877142D01*
X151820476Y-96924761D01*
X151725238Y-96972380D01*
X151439523Y-96972380D01*
X151344285Y-96924761D01*
X151296666Y-96877142D01*
%TO.C,R13*%
X143942380Y-108934857D02*
X143466190Y-109268190D01*
X143942380Y-109506285D02*
X142942380Y-109506285D01*
X142942380Y-109125333D01*
X142990000Y-109030095D01*
X143037619Y-108982476D01*
X143132857Y-108934857D01*
X143275714Y-108934857D01*
X143370952Y-108982476D01*
X143418571Y-109030095D01*
X143466190Y-109125333D01*
X143466190Y-109506285D01*
X143942380Y-107982476D02*
X143942380Y-108553904D01*
X143942380Y-108268190D02*
X142942380Y-108268190D01*
X143085238Y-108363428D01*
X143180476Y-108458666D01*
X143228095Y-108553904D01*
X142942380Y-107649142D02*
X142942380Y-107030095D01*
X143323333Y-107363428D01*
X143323333Y-107220571D01*
X143370952Y-107125333D01*
X143418571Y-107077714D01*
X143513809Y-107030095D01*
X143751904Y-107030095D01*
X143847142Y-107077714D01*
X143894761Y-107125333D01*
X143942380Y-107220571D01*
X143942380Y-107506285D01*
X143894761Y-107601523D01*
X143847142Y-107649142D01*
%TO.C,J1*%
X149018666Y-120102380D02*
X149018666Y-120816666D01*
X148971047Y-120959523D01*
X148875809Y-121054761D01*
X148732952Y-121102380D01*
X148637714Y-121102380D01*
X150018666Y-121102380D02*
X149447238Y-121102380D01*
X149732952Y-121102380D02*
X149732952Y-120102380D01*
X149637714Y-120245238D01*
X149542476Y-120340476D01*
X149447238Y-120388095D01*
%TO.C,R8*%
X101877833Y-87661380D02*
X101544500Y-87185190D01*
X101306404Y-87661380D02*
X101306404Y-86661380D01*
X101687357Y-86661380D01*
X101782595Y-86709000D01*
X101830214Y-86756619D01*
X101877833Y-86851857D01*
X101877833Y-86994714D01*
X101830214Y-87089952D01*
X101782595Y-87137571D01*
X101687357Y-87185190D01*
X101306404Y-87185190D01*
X102449261Y-87089952D02*
X102354023Y-87042333D01*
X102306404Y-86994714D01*
X102258785Y-86899476D01*
X102258785Y-86851857D01*
X102306404Y-86756619D01*
X102354023Y-86709000D01*
X102449261Y-86661380D01*
X102639738Y-86661380D01*
X102734976Y-86709000D01*
X102782595Y-86756619D01*
X102830214Y-86851857D01*
X102830214Y-86899476D01*
X102782595Y-86994714D01*
X102734976Y-87042333D01*
X102639738Y-87089952D01*
X102449261Y-87089952D01*
X102354023Y-87137571D01*
X102306404Y-87185190D01*
X102258785Y-87280428D01*
X102258785Y-87470904D01*
X102306404Y-87566142D01*
X102354023Y-87613761D01*
X102449261Y-87661380D01*
X102639738Y-87661380D01*
X102734976Y-87613761D01*
X102782595Y-87566142D01*
X102830214Y-87470904D01*
X102830214Y-87280428D01*
X102782595Y-87185190D01*
X102734976Y-87137571D01*
X102639738Y-87089952D01*
%TO.C,R5*%
X138364396Y-126745963D02*
X137888206Y-127079297D01*
X138364396Y-127317392D02*
X137364396Y-127317392D01*
X137364396Y-126936439D01*
X137412016Y-126841201D01*
X137459635Y-126793582D01*
X137554873Y-126745963D01*
X137697730Y-126745963D01*
X137792968Y-126793582D01*
X137840587Y-126841201D01*
X137888206Y-126936439D01*
X137888206Y-127317392D01*
X137364396Y-125841201D02*
X137364396Y-126317392D01*
X137840587Y-126365011D01*
X137792968Y-126317392D01*
X137745349Y-126222154D01*
X137745349Y-125984058D01*
X137792968Y-125888820D01*
X137840587Y-125841201D01*
X137935825Y-125793582D01*
X138173920Y-125793582D01*
X138269158Y-125841201D01*
X138316777Y-125888820D01*
X138364396Y-125984058D01*
X138364396Y-126222154D01*
X138316777Y-126317392D01*
X138269158Y-126365011D01*
%TO.C,C6*%
X104490588Y-84103710D02*
X104442969Y-84151329D01*
X104300112Y-84198948D01*
X104204874Y-84198948D01*
X104062016Y-84151329D01*
X103966778Y-84056091D01*
X103919159Y-83960853D01*
X103871540Y-83770377D01*
X103871540Y-83627520D01*
X103919159Y-83437044D01*
X103966778Y-83341806D01*
X104062016Y-83246568D01*
X104204874Y-83198948D01*
X104300112Y-83198948D01*
X104442969Y-83246568D01*
X104490588Y-83294187D01*
X105347731Y-83198948D02*
X105157255Y-83198948D01*
X105062016Y-83246568D01*
X105014397Y-83294187D01*
X104919159Y-83437044D01*
X104871540Y-83627520D01*
X104871540Y-84008472D01*
X104919159Y-84103710D01*
X104966778Y-84151329D01*
X105062016Y-84198948D01*
X105252493Y-84198948D01*
X105347731Y-84151329D01*
X105395350Y-84103710D01*
X105442969Y-84008472D01*
X105442969Y-83770377D01*
X105395350Y-83675139D01*
X105347731Y-83627520D01*
X105252493Y-83579901D01*
X105062016Y-83579901D01*
X104966778Y-83627520D01*
X104919159Y-83675139D01*
X104871540Y-83770377D01*
%TO.C,U3*%
X141478095Y-76922380D02*
X141478095Y-77731904D01*
X141525714Y-77827142D01*
X141573333Y-77874761D01*
X141668571Y-77922380D01*
X141859047Y-77922380D01*
X141954285Y-77874761D01*
X142001904Y-77827142D01*
X142049523Y-77731904D01*
X142049523Y-76922380D01*
X142430476Y-76922380D02*
X143049523Y-76922380D01*
X142716190Y-77303333D01*
X142859047Y-77303333D01*
X142954285Y-77350952D01*
X143001904Y-77398571D01*
X143049523Y-77493809D01*
X143049523Y-77731904D01*
X143001904Y-77827142D01*
X142954285Y-77874761D01*
X142859047Y-77922380D01*
X142573333Y-77922380D01*
X142478095Y-77874761D01*
X142430476Y-77827142D01*
%TO.C,U5*%
X104648095Y-92162380D02*
X104648095Y-92971904D01*
X104695714Y-93067142D01*
X104743333Y-93114761D01*
X104838571Y-93162380D01*
X105029047Y-93162380D01*
X105124285Y-93114761D01*
X105171904Y-93067142D01*
X105219523Y-92971904D01*
X105219523Y-92162380D01*
X106171904Y-92162380D02*
X105695714Y-92162380D01*
X105648095Y-92638571D01*
X105695714Y-92590952D01*
X105790952Y-92543333D01*
X106029047Y-92543333D01*
X106124285Y-92590952D01*
X106171904Y-92638571D01*
X106219523Y-92733809D01*
X106219523Y-92971904D01*
X106171904Y-93067142D01*
X106124285Y-93114761D01*
X106029047Y-93162380D01*
X105790952Y-93162380D01*
X105695714Y-93114761D01*
X105648095Y-93067142D01*
%TO.C,D2*%
X169652380Y-79478095D02*
X168652380Y-79478095D01*
X168652380Y-79240000D01*
X168700000Y-79097142D01*
X168795238Y-79001904D01*
X168890476Y-78954285D01*
X169080952Y-78906666D01*
X169223809Y-78906666D01*
X169414285Y-78954285D01*
X169509523Y-79001904D01*
X169604761Y-79097142D01*
X169652380Y-79240000D01*
X169652380Y-79478095D01*
X168747619Y-78525714D02*
X168700000Y-78478095D01*
X168652380Y-78382857D01*
X168652380Y-78144761D01*
X168700000Y-78049523D01*
X168747619Y-78001904D01*
X168842857Y-77954285D01*
X168938095Y-77954285D01*
X169080952Y-78001904D01*
X169652380Y-78573333D01*
X169652380Y-77954285D01*
%TO.C,C13*%
X124911142Y-76080857D02*
X124958761Y-76128476D01*
X125006380Y-76271333D01*
X125006380Y-76366571D01*
X124958761Y-76509428D01*
X124863523Y-76604666D01*
X124768285Y-76652285D01*
X124577809Y-76699904D01*
X124434952Y-76699904D01*
X124244476Y-76652285D01*
X124149238Y-76604666D01*
X124054000Y-76509428D01*
X124006380Y-76366571D01*
X124006380Y-76271333D01*
X124054000Y-76128476D01*
X124101619Y-76080857D01*
X125006380Y-75128476D02*
X125006380Y-75699904D01*
X125006380Y-75414190D02*
X124006380Y-75414190D01*
X124149238Y-75509428D01*
X124244476Y-75604666D01*
X124292095Y-75699904D01*
X124006380Y-74795142D02*
X124006380Y-74176095D01*
X124387333Y-74509428D01*
X124387333Y-74366571D01*
X124434952Y-74271333D01*
X124482571Y-74223714D01*
X124577809Y-74176095D01*
X124815904Y-74176095D01*
X124911142Y-74223714D01*
X124958761Y-74271333D01*
X125006380Y-74366571D01*
X125006380Y-74652285D01*
X124958761Y-74747523D01*
X124911142Y-74795142D01*
%TO.C,C4*%
X122555333Y-91143142D02*
X122507714Y-91190761D01*
X122364857Y-91238380D01*
X122269619Y-91238380D01*
X122126761Y-91190761D01*
X122031523Y-91095523D01*
X121983904Y-91000285D01*
X121936285Y-90809809D01*
X121936285Y-90666952D01*
X121983904Y-90476476D01*
X122031523Y-90381238D01*
X122126761Y-90286000D01*
X122269619Y-90238380D01*
X122364857Y-90238380D01*
X122507714Y-90286000D01*
X122555333Y-90333619D01*
X123412476Y-90571714D02*
X123412476Y-91238380D01*
X123174380Y-90190761D02*
X122936285Y-90905047D01*
X123555333Y-90905047D01*
%TO.C,U6*%
X137648095Y-95534380D02*
X137648095Y-96343904D01*
X137695714Y-96439142D01*
X137743333Y-96486761D01*
X137838571Y-96534380D01*
X138029047Y-96534380D01*
X138124285Y-96486761D01*
X138171904Y-96439142D01*
X138219523Y-96343904D01*
X138219523Y-95534380D01*
X139124285Y-95534380D02*
X138933809Y-95534380D01*
X138838571Y-95582000D01*
X138790952Y-95629619D01*
X138695714Y-95772476D01*
X138648095Y-95962952D01*
X138648095Y-96343904D01*
X138695714Y-96439142D01*
X138743333Y-96486761D01*
X138838571Y-96534380D01*
X139029047Y-96534380D01*
X139124285Y-96486761D01*
X139171904Y-96439142D01*
X139219523Y-96343904D01*
X139219523Y-96105809D01*
X139171904Y-96010571D01*
X139124285Y-95962952D01*
X139029047Y-95915333D01*
X138838571Y-95915333D01*
X138743333Y-95962952D01*
X138695714Y-96010571D01*
X138648095Y-96105809D01*
%TO.C,R11*%
X138702380Y-104870857D02*
X138226190Y-105204190D01*
X138702380Y-105442285D02*
X137702380Y-105442285D01*
X137702380Y-105061333D01*
X137750000Y-104966095D01*
X137797619Y-104918476D01*
X137892857Y-104870857D01*
X138035714Y-104870857D01*
X138130952Y-104918476D01*
X138178571Y-104966095D01*
X138226190Y-105061333D01*
X138226190Y-105442285D01*
X138702380Y-103918476D02*
X138702380Y-104489904D01*
X138702380Y-104204190D02*
X137702380Y-104204190D01*
X137845238Y-104299428D01*
X137940476Y-104394666D01*
X137988095Y-104489904D01*
X138702380Y-102966095D02*
X138702380Y-103537523D01*
X138702380Y-103251809D02*
X137702380Y-103251809D01*
X137845238Y-103347047D01*
X137940476Y-103442285D01*
X137988095Y-103537523D01*
%TO.C,SW2*%
X166306666Y-91884761D02*
X166449523Y-91932380D01*
X166687619Y-91932380D01*
X166782857Y-91884761D01*
X166830476Y-91837142D01*
X166878095Y-91741904D01*
X166878095Y-91646666D01*
X166830476Y-91551428D01*
X166782857Y-91503809D01*
X166687619Y-91456190D01*
X166497142Y-91408571D01*
X166401904Y-91360952D01*
X166354285Y-91313333D01*
X166306666Y-91218095D01*
X166306666Y-91122857D01*
X166354285Y-91027619D01*
X166401904Y-90980000D01*
X166497142Y-90932380D01*
X166735238Y-90932380D01*
X166878095Y-90980000D01*
X167211428Y-90932380D02*
X167449523Y-91932380D01*
X167640000Y-91218095D01*
X167830476Y-91932380D01*
X168068571Y-90932380D01*
X168401904Y-91027619D02*
X168449523Y-90980000D01*
X168544761Y-90932380D01*
X168782857Y-90932380D01*
X168878095Y-90980000D01*
X168925714Y-91027619D01*
X168973333Y-91122857D01*
X168973333Y-91218095D01*
X168925714Y-91360952D01*
X168354285Y-91932380D01*
X168973333Y-91932380D01*
%TO.C,R3*%
X131910380Y-84836666D02*
X131434190Y-85170000D01*
X131910380Y-85408095D02*
X130910380Y-85408095D01*
X130910380Y-85027142D01*
X130958000Y-84931904D01*
X131005619Y-84884285D01*
X131100857Y-84836666D01*
X131243714Y-84836666D01*
X131338952Y-84884285D01*
X131386571Y-84931904D01*
X131434190Y-85027142D01*
X131434190Y-85408095D01*
X130910380Y-84503333D02*
X130910380Y-83884285D01*
X131291333Y-84217619D01*
X131291333Y-84074761D01*
X131338952Y-83979523D01*
X131386571Y-83931904D01*
X131481809Y-83884285D01*
X131719904Y-83884285D01*
X131815142Y-83931904D01*
X131862761Y-83979523D01*
X131910380Y-84074761D01*
X131910380Y-84360476D01*
X131862761Y-84455714D01*
X131815142Y-84503333D01*
%TO.C,R14*%
X148928380Y-108934857D02*
X148452190Y-109268190D01*
X148928380Y-109506285D02*
X147928380Y-109506285D01*
X147928380Y-109125333D01*
X147976000Y-109030095D01*
X148023619Y-108982476D01*
X148118857Y-108934857D01*
X148261714Y-108934857D01*
X148356952Y-108982476D01*
X148404571Y-109030095D01*
X148452190Y-109125333D01*
X148452190Y-109506285D01*
X148928380Y-107982476D02*
X148928380Y-108553904D01*
X148928380Y-108268190D02*
X147928380Y-108268190D01*
X148071238Y-108363428D01*
X148166476Y-108458666D01*
X148214095Y-108553904D01*
X148261714Y-107125333D02*
X148928380Y-107125333D01*
X147880761Y-107363428D02*
X148595047Y-107601523D01*
X148595047Y-106982476D01*
%TO.C,C1*%
X124330781Y-80950847D02*
X124283162Y-80998466D01*
X124140305Y-81046085D01*
X124045067Y-81046085D01*
X123902209Y-80998466D01*
X123806971Y-80903228D01*
X123759352Y-80807990D01*
X123711733Y-80617514D01*
X123711733Y-80474657D01*
X123759352Y-80284181D01*
X123806971Y-80188943D01*
X123902209Y-80093705D01*
X124045067Y-80046085D01*
X124140305Y-80046085D01*
X124283162Y-80093705D01*
X124330781Y-80141324D01*
X125283162Y-81046085D02*
X124711733Y-81046085D01*
X124997448Y-81046085D02*
X124997448Y-80046085D01*
X124902209Y-80188943D01*
X124806971Y-80284181D01*
X124711733Y-80331800D01*
%TO.C,C5*%
X136993333Y-121887142D02*
X136945714Y-121934761D01*
X136802857Y-121982380D01*
X136707619Y-121982380D01*
X136564761Y-121934761D01*
X136469523Y-121839523D01*
X136421904Y-121744285D01*
X136374285Y-121553809D01*
X136374285Y-121410952D01*
X136421904Y-121220476D01*
X136469523Y-121125238D01*
X136564761Y-121030000D01*
X136707619Y-120982380D01*
X136802857Y-120982380D01*
X136945714Y-121030000D01*
X136993333Y-121077619D01*
X137898095Y-120982380D02*
X137421904Y-120982380D01*
X137374285Y-121458571D01*
X137421904Y-121410952D01*
X137517142Y-121363333D01*
X137755238Y-121363333D01*
X137850476Y-121410952D01*
X137898095Y-121458571D01*
X137945714Y-121553809D01*
X137945714Y-121791904D01*
X137898095Y-121887142D01*
X137850476Y-121934761D01*
X137755238Y-121982380D01*
X137517142Y-121982380D01*
X137421904Y-121934761D01*
X137374285Y-121887142D01*
%TO.C,C9*%
X136211333Y-108555142D02*
X136163714Y-108602761D01*
X136020857Y-108650380D01*
X135925619Y-108650380D01*
X135782761Y-108602761D01*
X135687523Y-108507523D01*
X135639904Y-108412285D01*
X135592285Y-108221809D01*
X135592285Y-108078952D01*
X135639904Y-107888476D01*
X135687523Y-107793238D01*
X135782761Y-107698000D01*
X135925619Y-107650380D01*
X136020857Y-107650380D01*
X136163714Y-107698000D01*
X136211333Y-107745619D01*
X136687523Y-108650380D02*
X136878000Y-108650380D01*
X136973238Y-108602761D01*
X137020857Y-108555142D01*
X137116095Y-108412285D01*
X137163714Y-108221809D01*
X137163714Y-107840857D01*
X137116095Y-107745619D01*
X137068476Y-107698000D01*
X136973238Y-107650380D01*
X136782761Y-107650380D01*
X136687523Y-107698000D01*
X136639904Y-107745619D01*
X136592285Y-107840857D01*
X136592285Y-108078952D01*
X136639904Y-108174190D01*
X136687523Y-108221809D01*
X136782761Y-108269428D01*
X136973238Y-108269428D01*
X137068476Y-108221809D01*
X137116095Y-108174190D01*
X137163714Y-108078952D01*
%TO.C,R6*%
X129050380Y-88138666D02*
X128574190Y-88472000D01*
X129050380Y-88710095D02*
X128050380Y-88710095D01*
X128050380Y-88329142D01*
X128098000Y-88233904D01*
X128145619Y-88186285D01*
X128240857Y-88138666D01*
X128383714Y-88138666D01*
X128478952Y-88186285D01*
X128526571Y-88233904D01*
X128574190Y-88329142D01*
X128574190Y-88710095D01*
X128050380Y-87281523D02*
X128050380Y-87472000D01*
X128098000Y-87567238D01*
X128145619Y-87614857D01*
X128288476Y-87710095D01*
X128478952Y-87757714D01*
X128859904Y-87757714D01*
X128955142Y-87710095D01*
X129002761Y-87662476D01*
X129050380Y-87567238D01*
X129050380Y-87376761D01*
X129002761Y-87281523D01*
X128955142Y-87233904D01*
X128859904Y-87186285D01*
X128621809Y-87186285D01*
X128526571Y-87233904D01*
X128478952Y-87281523D01*
X128431333Y-87376761D01*
X128431333Y-87567238D01*
X128478952Y-87662476D01*
X128526571Y-87710095D01*
X128621809Y-87757714D01*
%TO.C,R9*%
X133802380Y-110998666D02*
X133326190Y-111332000D01*
X133802380Y-111570095D02*
X132802380Y-111570095D01*
X132802380Y-111189142D01*
X132850000Y-111093904D01*
X132897619Y-111046285D01*
X132992857Y-110998666D01*
X133135714Y-110998666D01*
X133230952Y-111046285D01*
X133278571Y-111093904D01*
X133326190Y-111189142D01*
X133326190Y-111570095D01*
X133802380Y-110522476D02*
X133802380Y-110332000D01*
X133754761Y-110236761D01*
X133707142Y-110189142D01*
X133564285Y-110093904D01*
X133373809Y-110046285D01*
X132992857Y-110046285D01*
X132897619Y-110093904D01*
X132850000Y-110141523D01*
X132802380Y-110236761D01*
X132802380Y-110427238D01*
X132850000Y-110522476D01*
X132897619Y-110570095D01*
X132992857Y-110617714D01*
X133230952Y-110617714D01*
X133326190Y-110570095D01*
X133373809Y-110522476D01*
X133421428Y-110427238D01*
X133421428Y-110236761D01*
X133373809Y-110141523D01*
X133326190Y-110093904D01*
X133230952Y-110046285D01*
%TO.C,C2*%
X142925243Y-126910146D02*
X142877624Y-126957765D01*
X142734767Y-127005384D01*
X142639529Y-127005384D01*
X142496671Y-126957765D01*
X142401433Y-126862527D01*
X142353814Y-126767289D01*
X142306195Y-126576813D01*
X142306195Y-126433956D01*
X142353814Y-126243480D01*
X142401433Y-126148242D01*
X142496671Y-126053004D01*
X142639529Y-126005384D01*
X142734767Y-126005384D01*
X142877624Y-126053004D01*
X142925243Y-126100623D01*
X143306195Y-126100623D02*
X143353814Y-126053004D01*
X143449052Y-126005384D01*
X143687148Y-126005384D01*
X143782386Y-126053004D01*
X143830005Y-126100623D01*
X143877624Y-126195861D01*
X143877624Y-126291099D01*
X143830005Y-126433956D01*
X143258576Y-127005384D01*
X143877624Y-127005384D01*
%TO.C,C8*%
X140282654Y-109230116D02*
X140235035Y-109277735D01*
X140092178Y-109325354D01*
X139996940Y-109325354D01*
X139854082Y-109277735D01*
X139758844Y-109182497D01*
X139711225Y-109087259D01*
X139663606Y-108896783D01*
X139663606Y-108753926D01*
X139711225Y-108563450D01*
X139758844Y-108468212D01*
X139854082Y-108372974D01*
X139996940Y-108325354D01*
X140092178Y-108325354D01*
X140235035Y-108372974D01*
X140282654Y-108420593D01*
X140854082Y-108753926D02*
X140758844Y-108706307D01*
X140711225Y-108658688D01*
X140663606Y-108563450D01*
X140663606Y-108515831D01*
X140711225Y-108420593D01*
X140758844Y-108372974D01*
X140854082Y-108325354D01*
X141044559Y-108325354D01*
X141139797Y-108372974D01*
X141187416Y-108420593D01*
X141235035Y-108515831D01*
X141235035Y-108563450D01*
X141187416Y-108658688D01*
X141139797Y-108706307D01*
X141044559Y-108753926D01*
X140854082Y-108753926D01*
X140758844Y-108801545D01*
X140711225Y-108849164D01*
X140663606Y-108944402D01*
X140663606Y-109134878D01*
X140711225Y-109230116D01*
X140758844Y-109277735D01*
X140854082Y-109325354D01*
X141044559Y-109325354D01*
X141139797Y-109277735D01*
X141187416Y-109230116D01*
X141235035Y-109134878D01*
X141235035Y-108944402D01*
X141187416Y-108849164D01*
X141139797Y-108801545D01*
X141044559Y-108753926D01*
%TO.C,REF\u002A\u002A*%
X184574666Y-93924380D02*
X184241333Y-93448190D01*
X184003238Y-93924380D02*
X184003238Y-92924380D01*
X184384190Y-92924380D01*
X184479428Y-92972000D01*
X184527047Y-93019619D01*
X184574666Y-93114857D01*
X184574666Y-93257714D01*
X184527047Y-93352952D01*
X184479428Y-93400571D01*
X184384190Y-93448190D01*
X184003238Y-93448190D01*
X185003238Y-93400571D02*
X185336571Y-93400571D01*
X185479428Y-93924380D02*
X185003238Y-93924380D01*
X185003238Y-92924380D01*
X185479428Y-92924380D01*
X186241333Y-93400571D02*
X185908000Y-93400571D01*
X185908000Y-93924380D02*
X185908000Y-92924380D01*
X186384190Y-92924380D01*
X186908000Y-92924380D02*
X186908000Y-93162476D01*
X186669904Y-93067238D02*
X186908000Y-93162476D01*
X187146095Y-93067238D01*
X186765142Y-93352952D02*
X186908000Y-93162476D01*
X187050857Y-93352952D01*
X187669904Y-92924380D02*
X187669904Y-93162476D01*
X187431809Y-93067238D02*
X187669904Y-93162476D01*
X187908000Y-93067238D01*
X187527047Y-93352952D02*
X187669904Y-93162476D01*
X187812761Y-93352952D01*
%TO.C,U2*%
X146666095Y-94624380D02*
X146666095Y-95433904D01*
X146713714Y-95529142D01*
X146761333Y-95576761D01*
X146856571Y-95624380D01*
X147047047Y-95624380D01*
X147142285Y-95576761D01*
X147189904Y-95529142D01*
X147237523Y-95433904D01*
X147237523Y-94624380D01*
X147666095Y-94719619D02*
X147713714Y-94672000D01*
X147808952Y-94624380D01*
X148047047Y-94624380D01*
X148142285Y-94672000D01*
X148189904Y-94719619D01*
X148237523Y-94814857D01*
X148237523Y-94910095D01*
X148189904Y-95052952D01*
X147618476Y-95624380D01*
X148237523Y-95624380D01*
%TO.C,D3*%
X106152380Y-79478095D02*
X105152380Y-79478095D01*
X105152380Y-79240000D01*
X105200000Y-79097142D01*
X105295238Y-79001904D01*
X105390476Y-78954285D01*
X105580952Y-78906666D01*
X105723809Y-78906666D01*
X105914285Y-78954285D01*
X106009523Y-79001904D01*
X106104761Y-79097142D01*
X106152380Y-79240000D01*
X106152380Y-79478095D01*
X105152380Y-78573333D02*
X105152380Y-77954285D01*
X105533333Y-78287619D01*
X105533333Y-78144761D01*
X105580952Y-78049523D01*
X105628571Y-78001904D01*
X105723809Y-77954285D01*
X105961904Y-77954285D01*
X106057142Y-78001904D01*
X106104761Y-78049523D01*
X106152380Y-78144761D01*
X106152380Y-78430476D01*
X106104761Y-78525714D01*
X106057142Y-78573333D01*
%TO.C,D1*%
X153271429Y-118420016D02*
X152271429Y-118420016D01*
X152271429Y-118181921D01*
X152319049Y-118039063D01*
X152414287Y-117943825D01*
X152509525Y-117896206D01*
X152700001Y-117848587D01*
X152842858Y-117848587D01*
X153033334Y-117896206D01*
X153128572Y-117943825D01*
X153223810Y-118039063D01*
X153271429Y-118181921D01*
X153271429Y-118420016D01*
X153271429Y-116896206D02*
X153271429Y-117467635D01*
X153271429Y-117181921D02*
X152271429Y-117181921D01*
X152414287Y-117277159D01*
X152509525Y-117372397D01*
X152557144Y-117467635D01*
%TO.C,U4*%
X142277417Y-124795865D02*
X142277417Y-125605389D01*
X142325036Y-125700627D01*
X142372655Y-125748246D01*
X142467893Y-125795865D01*
X142658369Y-125795865D01*
X142753607Y-125748246D01*
X142801226Y-125700627D01*
X142848845Y-125605389D01*
X142848845Y-124795865D01*
X143753607Y-125129199D02*
X143753607Y-125795865D01*
X143515512Y-124748246D02*
X143277417Y-125462532D01*
X143896464Y-125462532D01*
%TO.C,R7*%
X136993333Y-119832380D02*
X136660000Y-119356190D01*
X136421904Y-119832380D02*
X136421904Y-118832380D01*
X136802857Y-118832380D01*
X136898095Y-118880000D01*
X136945714Y-118927619D01*
X136993333Y-119022857D01*
X136993333Y-119165714D01*
X136945714Y-119260952D01*
X136898095Y-119308571D01*
X136802857Y-119356190D01*
X136421904Y-119356190D01*
X137326666Y-118832380D02*
X137993333Y-118832380D01*
X137564761Y-119832380D01*
%TO.C,C12*%
X121401707Y-78479240D02*
X121354088Y-78526859D01*
X121211231Y-78574478D01*
X121115993Y-78574478D01*
X120973136Y-78526859D01*
X120877898Y-78431621D01*
X120830279Y-78336383D01*
X120782660Y-78145907D01*
X120782660Y-78003050D01*
X120830279Y-77812574D01*
X120877898Y-77717336D01*
X120973136Y-77622098D01*
X121115993Y-77574478D01*
X121211231Y-77574478D01*
X121354088Y-77622098D01*
X121401707Y-77669717D01*
X122354088Y-78574478D02*
X121782660Y-78574478D01*
X122068374Y-78574478D02*
X122068374Y-77574478D01*
X121973136Y-77717336D01*
X121877898Y-77812574D01*
X121782660Y-77860193D01*
X122735041Y-77669717D02*
X122782660Y-77622098D01*
X122877898Y-77574478D01*
X123115993Y-77574478D01*
X123211231Y-77622098D01*
X123258850Y-77669717D01*
X123306469Y-77764955D01*
X123306469Y-77860193D01*
X123258850Y-78003050D01*
X122687422Y-78574478D01*
X123306469Y-78574478D01*
%TO.C,R12*%
X136162380Y-104870857D02*
X135686190Y-105204190D01*
X136162380Y-105442285D02*
X135162380Y-105442285D01*
X135162380Y-105061333D01*
X135210000Y-104966095D01*
X135257619Y-104918476D01*
X135352857Y-104870857D01*
X135495714Y-104870857D01*
X135590952Y-104918476D01*
X135638571Y-104966095D01*
X135686190Y-105061333D01*
X135686190Y-105442285D01*
X136162380Y-103918476D02*
X136162380Y-104489904D01*
X136162380Y-104204190D02*
X135162380Y-104204190D01*
X135305238Y-104299428D01*
X135400476Y-104394666D01*
X135448095Y-104489904D01*
X135257619Y-103537523D02*
X135210000Y-103489904D01*
X135162380Y-103394666D01*
X135162380Y-103156571D01*
X135210000Y-103061333D01*
X135257619Y-103013714D01*
X135352857Y-102966095D01*
X135448095Y-102966095D01*
X135590952Y-103013714D01*
X136162380Y-103585142D01*
X136162380Y-102966095D01*
%TO.C,J2*%
X153824666Y-96304380D02*
X153824666Y-97018666D01*
X153777047Y-97161523D01*
X153681809Y-97256761D01*
X153538952Y-97304380D01*
X153443714Y-97304380D01*
X154253238Y-96399619D02*
X154300857Y-96352000D01*
X154396095Y-96304380D01*
X154634190Y-96304380D01*
X154729428Y-96352000D01*
X154777047Y-96399619D01*
X154824666Y-96494857D01*
X154824666Y-96590095D01*
X154777047Y-96732952D01*
X154205619Y-97304380D01*
X154824666Y-97304380D01*
D12*
%TO.C,C10*%
X143000000Y-96165580D02*
X143000000Y-95884420D01*
X144020000Y-96165580D02*
X144020000Y-95884420D01*
%TO.C,D4*%
X145749000Y-105282000D02*
X145749000Y-102997000D01*
X144279000Y-102997000D02*
X144279000Y-105282000D01*
X145749000Y-102997000D02*
X144279000Y-102997000D01*
%TO.C,D5*%
X147781000Y-105282000D02*
X147781000Y-102997000D01*
X146311000Y-102997000D02*
X146311000Y-105282000D01*
X147781000Y-102997000D02*
X146311000Y-102997000D01*
%TO.C,L1*%
X142672000Y-124300000D02*
X142672000Y-121300000D01*
X145872000Y-124300000D02*
X145872000Y-121300000D01*
%TO.C,J3*%
X130088000Y-111052000D02*
X127428000Y-111052000D01*
X127428000Y-113652000D02*
X127428000Y-112322000D01*
X127428000Y-111052000D02*
X127428000Y-98292000D01*
X130088000Y-111052000D02*
X130088000Y-98292000D01*
X128758000Y-113652000D02*
X127428000Y-113652000D01*
X130088000Y-98292000D02*
X127428000Y-98292000D01*
%TO.C,C11*%
X141222000Y-104033420D02*
X141222000Y-104314580D01*
X142242000Y-104033420D02*
X142242000Y-104314580D01*
%TO.C,C7*%
X168380000Y-82690580D02*
X168380000Y-82409420D01*
X169400000Y-82690580D02*
X169400000Y-82409420D01*
%TO.C,U1*%
X133608000Y-92152000D02*
X135608000Y-92152000D01*
X135608000Y-94392000D02*
X134608000Y-94392000D01*
%TO.C,SW1*%
X113265000Y-95380000D02*
X113265000Y-95080000D01*
X116565000Y-95380000D02*
X113265000Y-95380000D01*
X116565000Y-95080000D02*
X116565000Y-95380000D01*
X116565000Y-92580000D02*
X113265000Y-92580000D01*
X113265000Y-92580000D02*
X113265000Y-92880000D01*
X116565000Y-92880000D02*
X116565000Y-92580000D01*
%TO.C,R4*%
X136539500Y-123832742D02*
X136539500Y-124307258D01*
X135494500Y-123832742D02*
X135494500Y-124307258D01*
%TO.C,REF\u002A\u002A*%
X97008000Y-114972000D02*
X92758000Y-114972000D01*
X92758000Y-105972000D02*
X82758000Y-105972000D01*
X92758000Y-114972000D02*
X92758000Y-96972000D01*
X92758000Y-96972000D02*
X104258000Y-96972000D01*
X97008000Y-114972000D02*
X104258000Y-114972000D01*
X104258000Y-96972000D02*
X104258000Y-114972000D01*
X104258000Y-102972000D02*
X124758000Y-102972000D01*
X124758000Y-102972000D02*
X124758000Y-108972000D01*
X124758000Y-108972000D02*
X104258000Y-108972000D01*
X104258000Y-108972000D02*
X104258000Y-102972000D01*
%TO.C,R10*%
X135630500Y-114213742D02*
X135630500Y-114688258D01*
X134585500Y-114213742D02*
X134585500Y-114688258D01*
%TO.C,R2*%
X130042500Y-79098742D02*
X130042500Y-79573258D01*
X128997500Y-79098742D02*
X128997500Y-79573258D01*
%TO.C,kibuzzard-640F60C6*%
G36*
X117549083Y-93049990D02*
G01*
X121210917Y-93049990D01*
X121210917Y-94910010D01*
X117549083Y-94910010D01*
X117549083Y-94420531D01*
X117879812Y-94420531D01*
X117889337Y-94503081D01*
X117931406Y-94547134D01*
X118019512Y-94561819D01*
X118101269Y-94551103D01*
X118143337Y-94518956D01*
X118158419Y-94476888D01*
X118160800Y-94422119D01*
X118160800Y-94242731D01*
X118360825Y-94242731D01*
X118410037Y-94239556D01*
X118471774Y-94385783D01*
X118513049Y-94481562D01*
X118533862Y-94526894D01*
X118563231Y-94557850D01*
X118614031Y-94572931D01*
X118695787Y-94550706D01*
X118769606Y-94504669D01*
X118794212Y-94449106D01*
X118770400Y-94366556D01*
X118744917Y-94308613D01*
X118857712Y-94308613D01*
X118898987Y-94399894D01*
X118913275Y-94417356D01*
X118959312Y-94465775D01*
X119030750Y-94515781D01*
X119138700Y-94561025D01*
X119207359Y-94574717D01*
X119279987Y-94579281D01*
X119375414Y-94569933D01*
X119466960Y-94541887D01*
X119554625Y-94495144D01*
X119614950Y-94443352D01*
X119662575Y-94373700D01*
X119693531Y-94288967D01*
X119703850Y-94191931D01*
X119693730Y-94096880D01*
X119663369Y-94018100D01*
X119617927Y-93957973D01*
X119562562Y-93918881D01*
X119499459Y-93892489D01*
X119430800Y-93870462D01*
X119362141Y-93853198D01*
X119299037Y-93841094D01*
X119198231Y-93804581D01*
X119157750Y-93733937D01*
X119191881Y-93665675D01*
X119277606Y-93641069D01*
X119362537Y-93661706D01*
X119387144Y-93682344D01*
X119405400Y-93698219D01*
X119487950Y-93729969D01*
X119544306Y-93710125D01*
X119599075Y-93650594D01*
X119637175Y-93563281D01*
X119605036Y-93512481D01*
X119767350Y-93512481D01*
X119775287Y-93579156D01*
X119807037Y-93616462D01*
X119881650Y-93628369D01*
X120186450Y-93628369D01*
X120186450Y-94425294D01*
X120188831Y-94480062D01*
X120203119Y-94521338D01*
X120244394Y-94553881D01*
X120322975Y-94563406D01*
X120402350Y-94553881D01*
X120444419Y-94521338D01*
X120458706Y-94480856D01*
X120461087Y-94426881D01*
X120461087Y-93628369D01*
X120764300Y-93628369D01*
X120845263Y-93614081D01*
X120872250Y-93579950D01*
X120880188Y-93514069D01*
X120872250Y-93447394D01*
X120840500Y-93410088D01*
X120765887Y-93398181D01*
X119883238Y-93398181D01*
X119802275Y-93412469D01*
X119775287Y-93446600D01*
X119767350Y-93512481D01*
X119605036Y-93512481D01*
X119587962Y-93485494D01*
X119548275Y-93455331D01*
X119439531Y-93405325D01*
X119356783Y-93386870D01*
X119265700Y-93380719D01*
X119154487Y-93392272D01*
X119060031Y-93426933D01*
X118982331Y-93484700D01*
X118924564Y-93557990D01*
X118889903Y-93639217D01*
X118878350Y-93728381D01*
X118888470Y-93822639D01*
X118918831Y-93902212D01*
X118964273Y-93964720D01*
X119019637Y-94007781D01*
X119082344Y-94038936D01*
X119149812Y-94065725D01*
X119217281Y-94086958D01*
X119279987Y-94101444D01*
X119380794Y-94137163D01*
X119421275Y-94198281D01*
X119404871Y-94265309D01*
X119355658Y-94305526D01*
X119273637Y-94318931D01*
X119197437Y-94294325D01*
X119133937Y-94242731D01*
X119063294Y-94183200D01*
X119010112Y-94163356D01*
X118925975Y-94201456D01*
X118874778Y-94261583D01*
X118857712Y-94308613D01*
X118744917Y-94308613D01*
X118725950Y-94265485D01*
X118689967Y-94182406D01*
X118662450Y-94117319D01*
X118728596Y-94033005D01*
X118768283Y-93934580D01*
X118781512Y-93822044D01*
X118771194Y-93723619D01*
X118740237Y-93634719D01*
X118693406Y-93559312D01*
X118635462Y-93501369D01*
X118546739Y-93444924D01*
X118456251Y-93411058D01*
X118364000Y-93399769D01*
X118021100Y-93399769D01*
X117939344Y-93410484D01*
X117897275Y-93442631D01*
X117882194Y-93484700D01*
X117879812Y-93539469D01*
X117879812Y-94420531D01*
X117549083Y-94420531D01*
X117549083Y-93049990D01*
G37*
G36*
X118456075Y-93716475D02*
G01*
X118502112Y-93822044D01*
X118456075Y-93926819D01*
X118364000Y-93961744D01*
X118160800Y-93961744D01*
X118160800Y-93680756D01*
X118360825Y-93680756D01*
X118456075Y-93716475D01*
G37*
%TO.C,J4*%
X137188000Y-115646000D02*
X137988000Y-115646000D01*
X145728000Y-111606000D02*
X145728000Y-112506000D01*
X137038000Y-111456000D02*
X137038000Y-111956000D01*
X137188000Y-111606000D02*
X137188000Y-112506000D01*
X137188000Y-115646000D02*
X137188000Y-114746000D01*
X137038000Y-111456000D02*
X137538000Y-111456000D01*
X145728000Y-115646000D02*
X144928000Y-115646000D01*
X145728000Y-115646000D02*
X145728000Y-114746000D01*
X145728000Y-111606000D02*
X144928000Y-111606000D01*
X137188000Y-111606000D02*
X137988000Y-111606000D01*
%TO.C,C3*%
X149251000Y-101065888D02*
X148848000Y-101065888D01*
X146768000Y-99985888D02*
X145460000Y-99985888D01*
X146768000Y-99705888D02*
X145353000Y-99705888D01*
X146768000Y-100385888D02*
X145686000Y-100385888D01*
X150344000Y-99384888D02*
X148848000Y-99384888D01*
X146768000Y-101105888D02*
X146425000Y-101105888D01*
X146768000Y-99224888D02*
X145247000Y-99224888D01*
X149059000Y-101185888D02*
X148848000Y-101185888D01*
X146768000Y-100985888D02*
X146254000Y-100985888D01*
X149812000Y-100545888D02*
X148848000Y-100545888D01*
X146768000Y-99424888D02*
X145280000Y-99424888D01*
X150190000Y-99905888D02*
X148848000Y-99905888D01*
X146768000Y-99825888D02*
X145394000Y-99825888D01*
X149551000Y-100825888D02*
X148848000Y-100825888D01*
X149413000Y-100945888D02*
X148848000Y-100945888D01*
X150388000Y-98944888D02*
X145228000Y-98944888D01*
X150381000Y-99104888D02*
X145235000Y-99104888D01*
X146768000Y-100425888D02*
X145713000Y-100425888D01*
X150336000Y-99424888D02*
X148848000Y-99424888D01*
X146768000Y-100025888D02*
X145479000Y-100025888D01*
X148326000Y-101465888D02*
X147290000Y-101465888D01*
X146768000Y-100465888D02*
X145743000Y-100465888D01*
X150364000Y-99264888D02*
X148848000Y-99264888D01*
X146768000Y-101025888D02*
X146308000Y-101025888D01*
X146768000Y-99304888D02*
X145258000Y-99304888D01*
X146768000Y-100225888D02*
X145584000Y-100225888D01*
X148819000Y-101305888D02*
X146797000Y-101305888D01*
X146768000Y-99745888D02*
X145366000Y-99745888D01*
X149779000Y-100585888D02*
X148848000Y-100585888D01*
X146768000Y-99504888D02*
X145297000Y-99504888D01*
X146768000Y-100305888D02*
X145633000Y-100305888D01*
X150008000Y-100265888D02*
X148848000Y-100265888D01*
X148906000Y-101265888D02*
X146710000Y-101265888D01*
X149930000Y-100385888D02*
X148848000Y-100385888D01*
X149593000Y-100785888D02*
X148848000Y-100785888D01*
X146768000Y-100145888D02*
X145540000Y-100145888D01*
X146768000Y-99344888D02*
X145265000Y-99344888D01*
X150319000Y-99504888D02*
X148848000Y-99504888D01*
X149873000Y-100465888D02*
X148848000Y-100465888D01*
X150055000Y-100185888D02*
X148848000Y-100185888D01*
X146768000Y-101145888D02*
X146489000Y-101145888D01*
X149362000Y-100985888D02*
X148848000Y-100985888D01*
X146768000Y-100265888D02*
X145608000Y-100265888D01*
X146768000Y-99264888D02*
X145252000Y-99264888D01*
X146768000Y-100185888D02*
X145561000Y-100185888D01*
X150206000Y-99865888D02*
X148848000Y-99865888D01*
X146768000Y-100945888D02*
X146203000Y-100945888D01*
X146768000Y-99665888D02*
X145340000Y-99665888D01*
X146768000Y-100665888D02*
X145907000Y-100665888D01*
X146768000Y-100345888D02*
X145659000Y-100345888D01*
X146768000Y-99144888D02*
X145239000Y-99144888D01*
X146768000Y-100785888D02*
X146023000Y-100785888D01*
X146768000Y-99625888D02*
X145328000Y-99625888D01*
X146768000Y-99384888D02*
X145272000Y-99384888D01*
X146768000Y-99865888D02*
X145410000Y-99865888D01*
X149634000Y-100745888D02*
X148848000Y-100745888D01*
X146768000Y-101065888D02*
X146365000Y-101065888D01*
X149283000Y-96100113D02*
X149283000Y-96600113D01*
X146768000Y-99785888D02*
X145380000Y-99785888D01*
X150388000Y-98904888D02*
X145228000Y-98904888D01*
X150222000Y-99825888D02*
X148848000Y-99825888D01*
X149507000Y-100865888D02*
X148848000Y-100865888D01*
X150387000Y-98984888D02*
X145229000Y-98984888D01*
X150351000Y-99344888D02*
X148848000Y-99344888D01*
X149308000Y-101025888D02*
X148848000Y-101025888D01*
X150076000Y-100145888D02*
X148848000Y-100145888D01*
X149127000Y-101145888D02*
X148848000Y-101145888D01*
X146768000Y-99464888D02*
X145288000Y-99464888D01*
X149533000Y-96350113D02*
X149033000Y-96350113D01*
X146768000Y-100505888D02*
X145773000Y-100505888D01*
X150118000Y-100065888D02*
X148848000Y-100065888D01*
X148613000Y-101385888D02*
X147003000Y-101385888D01*
X146768000Y-99905888D02*
X145426000Y-99905888D01*
X150386000Y-99024888D02*
X145230000Y-99024888D01*
X149983000Y-100305888D02*
X148848000Y-100305888D01*
X148986000Y-101225888D02*
X146630000Y-101225888D01*
X150328000Y-99464888D02*
X148848000Y-99464888D01*
X146768000Y-100105888D02*
X145518000Y-100105888D01*
X150032000Y-100225888D02*
X148848000Y-100225888D01*
X149191000Y-101105888D02*
X148848000Y-101105888D01*
X146768000Y-100865888D02*
X146109000Y-100865888D01*
X146768000Y-100905888D02*
X146155000Y-100905888D01*
X146768000Y-100625888D02*
X145871000Y-100625888D01*
X150137000Y-100025888D02*
X148848000Y-100025888D01*
X149843000Y-100505888D02*
X148848000Y-100505888D01*
X149709000Y-100665888D02*
X148848000Y-100665888D01*
X146768000Y-99584888D02*
X145317000Y-99584888D01*
X150098000Y-100105888D02*
X148848000Y-100105888D01*
X150369000Y-99224888D02*
X148848000Y-99224888D01*
X146768000Y-101185888D02*
X146557000Y-101185888D01*
X150373000Y-99184888D02*
X148848000Y-99184888D01*
X149461000Y-100905888D02*
X148848000Y-100905888D01*
X146768000Y-99184888D02*
X145243000Y-99184888D01*
X149957000Y-100345888D02*
X148848000Y-100345888D01*
X146768000Y-100065888D02*
X145498000Y-100065888D01*
X150236000Y-99785888D02*
X148848000Y-99785888D01*
X149903000Y-100425888D02*
X148848000Y-100425888D01*
X150250000Y-99745888D02*
X148848000Y-99745888D01*
X148092000Y-101505888D02*
X147524000Y-101505888D01*
X150309000Y-99544888D02*
X148848000Y-99544888D01*
X150263000Y-99705888D02*
X148848000Y-99705888D01*
X149745000Y-100625888D02*
X148848000Y-100625888D01*
X150384000Y-99064888D02*
X145232000Y-99064888D01*
X150173000Y-99945888D02*
X148848000Y-99945888D01*
X146768000Y-100585888D02*
X145837000Y-100585888D01*
X150156000Y-99985888D02*
X148848000Y-99985888D01*
X146768000Y-99945888D02*
X145443000Y-99945888D01*
X150377000Y-99144888D02*
X148848000Y-99144888D01*
X146768000Y-100705888D02*
X145944000Y-100705888D01*
X150276000Y-99665888D02*
X148848000Y-99665888D01*
X150288000Y-99625888D02*
X148848000Y-99625888D01*
X146768000Y-99544888D02*
X145307000Y-99544888D01*
X146768000Y-100825888D02*
X146065000Y-100825888D01*
X150299000Y-99584888D02*
X148848000Y-99584888D01*
X146768000Y-100545888D02*
X145804000Y-100545888D01*
X148485000Y-101425888D02*
X147131000Y-101425888D01*
X148723000Y-101345888D02*
X146893000Y-101345888D01*
X150358000Y-99304888D02*
X148848000Y-99304888D01*
X149672000Y-100705888D02*
X148848000Y-100705888D01*
X146768000Y-100745888D02*
X145982000Y-100745888D01*
X150428000Y-98904888D02*
G75*
G03*
X150428000Y-98904888I-2620000J0D01*
G01*
%TO.C,R13*%
X144491500Y-108054742D02*
X144491500Y-108529258D01*
X145536500Y-108054742D02*
X145536500Y-108529258D01*
%TO.C,J1*%
X148022000Y-124451000D02*
X148022000Y-121851000D01*
X150682000Y-127051000D02*
X149352000Y-127051000D01*
X150682000Y-125721000D02*
X150682000Y-127051000D01*
X150682000Y-121851000D02*
X148022000Y-121851000D01*
X150682000Y-124451000D02*
X150682000Y-121851000D01*
X150682000Y-124451000D02*
X148022000Y-124451000D01*
%TO.C,R8*%
X102281758Y-88210500D02*
X101807242Y-88210500D01*
X102281758Y-89255500D02*
X101807242Y-89255500D01*
%TO.C,R5*%
X137399500Y-124307258D02*
X137399500Y-123832742D01*
X138444500Y-124307258D02*
X138444500Y-123832742D01*
%TO.C,C6*%
X104243727Y-81332893D02*
X104243727Y-81614053D01*
X105263727Y-81332893D02*
X105263727Y-81614053D01*
%TO.C,U3*%
X150832000Y-89338000D02*
X150832000Y-89638000D01*
X132592000Y-89658000D02*
X133612000Y-89658000D01*
X132592000Y-69418000D02*
X150832000Y-69418000D01*
X150832000Y-69418000D02*
X150832000Y-75938000D01*
X132592000Y-69418000D02*
X132592000Y-75438000D01*
X132592000Y-75438000D02*
X130712000Y-75438000D01*
X149712000Y-89658000D02*
X150832000Y-89658000D01*
X132592000Y-89338000D02*
X132592000Y-89658000D01*
%TO.C,U5*%
X101592500Y-93903000D02*
X100942500Y-93903000D01*
X104162500Y-91183000D02*
X104162500Y-91333000D01*
X103512500Y-91183000D02*
X104162500Y-91183000D01*
X103512500Y-93903000D02*
X104162500Y-93903000D01*
X104162500Y-93903000D02*
X104162500Y-93753000D01*
X100942500Y-93903000D02*
X100942500Y-93753000D01*
X101592500Y-91183000D02*
X100942500Y-91183000D01*
%TO.C,D2*%
X169950000Y-82390000D02*
X169950000Y-75090000D01*
X175450000Y-75090000D02*
X174300000Y-75090000D01*
X175450000Y-82390000D02*
X175450000Y-75090000D01*
%TO.C,C13*%
X125474000Y-75578580D02*
X125474000Y-75297420D01*
X126494000Y-75578580D02*
X126494000Y-75297420D01*
%TO.C,C4*%
X127512000Y-89585000D02*
X128762000Y-89585000D01*
X123929000Y-90346000D02*
X125432000Y-90346000D01*
X123911000Y-90466000D02*
X125432000Y-90466000D01*
X127512000Y-90186000D02*
X128983000Y-90186000D01*
X124377000Y-89265000D02*
X125432000Y-89265000D01*
X124407000Y-89225000D02*
X125432000Y-89225000D01*
X124124000Y-89705000D02*
X125432000Y-89705000D01*
X124687000Y-88905000D02*
X125432000Y-88905000D01*
X123892000Y-90786000D02*
X129052000Y-90786000D01*
X127512000Y-89185000D02*
X128507000Y-89185000D01*
X127512000Y-90025000D02*
X128940000Y-90025000D01*
X124107000Y-89745000D02*
X125432000Y-89745000D01*
X127512000Y-90306000D02*
X129008000Y-90306000D01*
X127512000Y-89065000D02*
X128409000Y-89065000D01*
X125667000Y-88305000D02*
X127277000Y-88305000D01*
X127512000Y-89985000D02*
X128927000Y-89985000D01*
X124972000Y-88665000D02*
X125432000Y-88665000D01*
X124004000Y-90025000D02*
X125432000Y-90025000D01*
X127512000Y-89025000D02*
X128373000Y-89025000D01*
X123899000Y-90586000D02*
X129045000Y-90586000D01*
X127512000Y-90106000D02*
X128963000Y-90106000D01*
X123936000Y-90306000D02*
X125432000Y-90306000D01*
X127512000Y-88825000D02*
X128171000Y-88825000D01*
X123981000Y-90106000D02*
X125432000Y-90106000D01*
X124437000Y-89185000D02*
X125432000Y-89185000D01*
X124997000Y-93590775D02*
X124997000Y-93090775D01*
X124204000Y-89545000D02*
X125432000Y-89545000D01*
X123944000Y-90266000D02*
X125432000Y-90266000D01*
X127512000Y-88665000D02*
X127972000Y-88665000D01*
X127512000Y-88905000D02*
X128257000Y-88905000D01*
X124058000Y-89865000D02*
X125432000Y-89865000D01*
X124297000Y-89385000D02*
X125432000Y-89385000D01*
X127512000Y-89905000D02*
X128900000Y-89905000D01*
X125089000Y-88585000D02*
X125432000Y-88585000D01*
X124350000Y-89305000D02*
X125432000Y-89305000D01*
X127512000Y-88745000D02*
X128077000Y-88745000D01*
X123961000Y-90186000D02*
X125432000Y-90186000D01*
X123952000Y-90226000D02*
X125432000Y-90226000D01*
X127512000Y-90466000D02*
X129033000Y-90466000D01*
X124535000Y-89065000D02*
X125432000Y-89065000D01*
X124323000Y-89345000D02*
X125432000Y-89345000D01*
X125029000Y-88625000D02*
X125432000Y-88625000D01*
X124272000Y-89425000D02*
X125432000Y-89425000D01*
X124017000Y-89985000D02*
X125432000Y-89985000D01*
X123903000Y-90546000D02*
X125432000Y-90546000D01*
X127512000Y-88705000D02*
X128026000Y-88705000D01*
X123922000Y-90386000D02*
X125432000Y-90386000D01*
X125461000Y-88385000D02*
X127483000Y-88385000D01*
X125221000Y-88505000D02*
X125432000Y-88505000D01*
X125153000Y-88545000D02*
X125432000Y-88545000D01*
X127512000Y-90226000D02*
X128992000Y-90226000D01*
X124819000Y-88785000D02*
X125432000Y-88785000D01*
X127512000Y-89705000D02*
X128820000Y-89705000D01*
X127512000Y-88785000D02*
X128125000Y-88785000D01*
X127512000Y-88945000D02*
X128298000Y-88945000D01*
X127512000Y-89625000D02*
X128782000Y-89625000D01*
X124867000Y-88745000D02*
X125432000Y-88745000D01*
X127512000Y-89305000D02*
X128594000Y-89305000D01*
X125374000Y-88425000D02*
X127570000Y-88425000D01*
X127512000Y-90266000D02*
X129000000Y-90266000D01*
X124918000Y-88705000D02*
X125432000Y-88705000D01*
X124225000Y-89505000D02*
X125432000Y-89505000D01*
X127512000Y-89225000D02*
X128537000Y-89225000D01*
X124646000Y-88945000D02*
X125432000Y-88945000D01*
X127512000Y-89265000D02*
X128567000Y-89265000D01*
X124143000Y-89665000D02*
X125432000Y-89665000D01*
X123894000Y-90666000D02*
X129050000Y-90666000D01*
X127512000Y-88625000D02*
X127915000Y-88625000D01*
X124608000Y-88985000D02*
X125432000Y-88985000D01*
X123992000Y-90065000D02*
X125432000Y-90065000D01*
X125294000Y-88465000D02*
X127650000Y-88465000D01*
X124773000Y-88825000D02*
X125432000Y-88825000D01*
X127512000Y-89865000D02*
X128886000Y-89865000D01*
X127512000Y-90426000D02*
X129028000Y-90426000D01*
X125557000Y-88345000D02*
X127387000Y-88345000D01*
X124729000Y-88865000D02*
X125432000Y-88865000D01*
X127512000Y-89745000D02*
X128837000Y-89745000D01*
X127512000Y-89665000D02*
X128801000Y-89665000D01*
X127512000Y-89105000D02*
X128443000Y-89105000D01*
X125795000Y-88265000D02*
X127149000Y-88265000D01*
X125954000Y-88225000D02*
X126990000Y-88225000D01*
X127512000Y-89145000D02*
X128476000Y-89145000D01*
X127512000Y-88505000D02*
X127723000Y-88505000D01*
X127512000Y-90146000D02*
X128973000Y-90146000D01*
X127512000Y-88545000D02*
X127791000Y-88545000D01*
X127512000Y-88585000D02*
X127855000Y-88585000D01*
X127512000Y-89825000D02*
X128870000Y-89825000D01*
X124090000Y-89785000D02*
X125432000Y-89785000D01*
X127512000Y-89545000D02*
X128740000Y-89545000D01*
X127512000Y-90506000D02*
X129037000Y-90506000D01*
X127512000Y-90386000D02*
X129022000Y-90386000D01*
X124182000Y-89585000D02*
X125432000Y-89585000D01*
X124074000Y-89825000D02*
X125432000Y-89825000D01*
X127512000Y-90546000D02*
X129041000Y-90546000D01*
X124468000Y-89145000D02*
X125432000Y-89145000D01*
X127512000Y-89345000D02*
X128621000Y-89345000D01*
X127512000Y-90065000D02*
X128952000Y-90065000D01*
X127512000Y-89385000D02*
X128647000Y-89385000D01*
X124747000Y-93340775D02*
X125247000Y-93340775D01*
X126188000Y-88185000D02*
X126756000Y-88185000D01*
X124030000Y-89945000D02*
X125432000Y-89945000D01*
X123893000Y-90706000D02*
X129051000Y-90706000D01*
X124248000Y-89465000D02*
X125432000Y-89465000D01*
X124571000Y-89025000D02*
X125432000Y-89025000D01*
X123896000Y-90626000D02*
X129048000Y-90626000D01*
X127512000Y-90346000D02*
X129015000Y-90346000D01*
X127512000Y-89785000D02*
X128854000Y-89785000D01*
X123916000Y-90426000D02*
X125432000Y-90426000D01*
X127512000Y-89505000D02*
X128719000Y-89505000D01*
X127512000Y-89945000D02*
X128914000Y-89945000D01*
X127512000Y-88865000D02*
X128215000Y-88865000D01*
X127512000Y-88985000D02*
X128336000Y-88985000D01*
X123892000Y-90746000D02*
X129052000Y-90746000D01*
X124501000Y-89105000D02*
X125432000Y-89105000D01*
X127512000Y-89465000D02*
X128696000Y-89465000D01*
X127512000Y-89425000D02*
X128672000Y-89425000D01*
X124044000Y-89905000D02*
X125432000Y-89905000D01*
X123907000Y-90506000D02*
X125432000Y-90506000D01*
X123971000Y-90146000D02*
X125432000Y-90146000D01*
X124162000Y-89625000D02*
X125432000Y-89625000D01*
X129092000Y-90786000D02*
G75*
G03*
X129092000Y-90786000I-2620000J0D01*
G01*
%TO.C,U6*%
X136300000Y-101512000D02*
X136300000Y-100787000D01*
X137025000Y-101512000D02*
X136300000Y-101512000D01*
X139795000Y-97292000D02*
X140520000Y-97292000D01*
X137025000Y-97292000D02*
X136300000Y-97292000D01*
X140520000Y-97292000D02*
X140520000Y-98017000D01*
X140520000Y-101512000D02*
X140520000Y-100787000D01*
X139795000Y-101512000D02*
X140520000Y-101512000D01*
%TO.C,R11*%
X139157500Y-104465258D02*
X139157500Y-103990742D01*
X140202500Y-104465258D02*
X140202500Y-103990742D01*
%TO.C,SW2*%
X165990000Y-95380000D02*
X169290000Y-95380000D01*
X165990000Y-92580000D02*
X169290000Y-92580000D01*
X169290000Y-95380000D02*
X169290000Y-95080000D01*
X165990000Y-92880000D02*
X165990000Y-92580000D01*
X165990000Y-95080000D02*
X165990000Y-95380000D01*
X169290000Y-92580000D02*
X169290000Y-92880000D01*
%TO.C,R3*%
X130550500Y-84432742D02*
X130550500Y-84907258D01*
X129505500Y-84432742D02*
X129505500Y-84907258D01*
%TO.C,TP4*%
X158430000Y-89850000D02*
X156530000Y-89850000D01*
X156530000Y-89850000D02*
X156530000Y-87950000D01*
X156530000Y-87950000D02*
X158430000Y-87950000D01*
X158430000Y-87950000D02*
X158430000Y-89850000D01*
%TO.C,kibuzzard-640F6059*%
G36*
X151825668Y-81843679D02*
G01*
X151852353Y-81663778D01*
X151896544Y-81487358D01*
X151957814Y-81316119D01*
X152035574Y-81151711D01*
X152129074Y-80995716D01*
X152237413Y-80849637D01*
X152359550Y-80714880D01*
X152494307Y-80592743D01*
X152640386Y-80484404D01*
X152796381Y-80390904D01*
X152960789Y-80313144D01*
X153132028Y-80251874D01*
X153308448Y-80207683D01*
X153488349Y-80180998D01*
X153670000Y-80172074D01*
X153851651Y-80180998D01*
X154031552Y-80207683D01*
X154207972Y-80251874D01*
X154379211Y-80313144D01*
X154543619Y-80390904D01*
X154699614Y-80484404D01*
X154845693Y-80592743D01*
X154980450Y-80714880D01*
X155102587Y-80849637D01*
X155210926Y-80995716D01*
X155304426Y-81151711D01*
X155382186Y-81316119D01*
X155443456Y-81487358D01*
X155487647Y-81663778D01*
X155514332Y-81843679D01*
X155523256Y-82025330D01*
X155523256Y-87467926D01*
X151816744Y-87467926D01*
X151816744Y-86482712D01*
X152478202Y-86482712D01*
X152587685Y-86686037D01*
X152778498Y-86806468D01*
X152978695Y-86700113D01*
X153670000Y-86071370D01*
X154361305Y-86700113D01*
X154558374Y-86806468D01*
X154752315Y-86684473D01*
X154861798Y-86482712D01*
X154736675Y-86290335D01*
X154054754Y-85696000D01*
X154736675Y-85101665D01*
X154861798Y-84909288D01*
X154750751Y-84704399D01*
X154558374Y-84582404D01*
X154361305Y-84691887D01*
X153670000Y-85320631D01*
X152978695Y-84691887D01*
X152778498Y-84582404D01*
X152589249Y-84705963D01*
X152478202Y-84909288D01*
X152603325Y-85101665D01*
X153285246Y-85696000D01*
X152603325Y-86290335D01*
X152478202Y-86482712D01*
X151816744Y-86482712D01*
X151816744Y-84133525D01*
X152490714Y-84133525D01*
X152534507Y-84294621D01*
X152625222Y-84440076D01*
X152734704Y-84488562D01*
X152897365Y-84441640D01*
X153096519Y-84354054D01*
X153260222Y-84283151D01*
X153388473Y-84228931D01*
X153554609Y-84359268D01*
X153748550Y-84437470D01*
X153970296Y-84463537D01*
X154164236Y-84443205D01*
X154339409Y-84382207D01*
X154487993Y-84289929D01*
X154602167Y-84175754D01*
X154713388Y-84000929D01*
X154780120Y-83822628D01*
X154802365Y-83640852D01*
X154802365Y-82965187D01*
X154781250Y-82804091D01*
X154717906Y-82721197D01*
X154635012Y-82691480D01*
X154527094Y-82686788D01*
X152791010Y-82686788D01*
X152628350Y-82705557D01*
X152541546Y-82788451D01*
X152512611Y-82962059D01*
X152533725Y-83123155D01*
X152597069Y-83206049D01*
X152679963Y-83235766D01*
X152787882Y-83240458D01*
X153141355Y-83240458D01*
X153141355Y-83634596D01*
X153147611Y-83731567D01*
X152859480Y-83853214D01*
X152670753Y-83934544D01*
X152581429Y-83975557D01*
X152520431Y-84033426D01*
X152490714Y-84133525D01*
X151816744Y-84133525D01*
X151816744Y-82025330D01*
X151825668Y-81843679D01*
G37*
G36*
X154248695Y-83634596D02*
G01*
X154178313Y-83822281D01*
X153970296Y-83912995D01*
X153763842Y-83822281D01*
X153695025Y-83640852D01*
X153695025Y-83240458D01*
X154248695Y-83240458D01*
X154248695Y-83634596D01*
G37*
%TO.C,kibuzzard-640F5FD6*%
G36*
X109236703Y-90725979D02*
G01*
X109048533Y-90712099D01*
X108861271Y-90689002D01*
X108675368Y-90656745D01*
X108491272Y-90615404D01*
X108309426Y-90565081D01*
X108130268Y-90505895D01*
X107954230Y-90437990D01*
X107781736Y-90361529D01*
X107613202Y-90276695D01*
X107449033Y-90183695D01*
X107289625Y-90082751D01*
X107135363Y-89974107D01*
X106986617Y-89858025D01*
X106843746Y-89734783D01*
X106707094Y-89604680D01*
X106641527Y-89535813D01*
X110877016Y-89535813D01*
X110931335Y-89655942D01*
X110958346Y-89715678D01*
X110986499Y-89750087D01*
X111077213Y-89845493D01*
X111217977Y-89944028D01*
X111430686Y-90033178D01*
X111565975Y-90060158D01*
X111709085Y-90069151D01*
X111897117Y-90050730D01*
X112077503Y-89995467D01*
X112250243Y-89903363D01*
X112369110Y-89801309D01*
X112462952Y-89664065D01*
X112523950Y-89497103D01*
X112544282Y-89305900D01*
X112524341Y-89118606D01*
X112464516Y-88963375D01*
X112401867Y-88880481D01*
X112700686Y-88880481D01*
X112721410Y-89115478D01*
X112783580Y-89332488D01*
X112845860Y-89457565D01*
X112877813Y-89521737D01*
X112994725Y-89673449D01*
X113131188Y-89796226D01*
X113284073Y-89898671D01*
X113442823Y-89977655D01*
X113596881Y-90030050D01*
X113747810Y-90059376D01*
X113897176Y-90069151D01*
X114048497Y-90056639D01*
X114205292Y-90019102D01*
X114416437Y-89937772D01*
X114524356Y-89872082D01*
X114622890Y-89793880D01*
X114636162Y-89759471D01*
X114871573Y-89759471D01*
X114890341Y-89919003D01*
X114973235Y-90008153D01*
X115146844Y-90037870D01*
X116120873Y-90037870D01*
X116120873Y-89574914D01*
X116120873Y-90037870D01*
X116272952Y-90037870D01*
X116435612Y-90006589D01*
X116488789Y-89937772D01*
X116504430Y-89804828D01*
X116488789Y-89671885D01*
X116426228Y-89598375D01*
X116276080Y-89574914D01*
X116120873Y-89574914D01*
X115425243Y-89574914D01*
X115425243Y-88023387D01*
X115409602Y-87860727D01*
X115324362Y-87773923D01*
X115149972Y-87744988D01*
X114988876Y-87766103D01*
X114905982Y-87829446D01*
X114876265Y-87912341D01*
X114871573Y-88020259D01*
X114871573Y-89759471D01*
X114636162Y-89759471D01*
X114665119Y-89684397D01*
X114596302Y-89509225D01*
X114487601Y-89377845D01*
X114386720Y-89334052D01*
X114236573Y-89396614D01*
X114180267Y-89437279D01*
X114056708Y-89487328D01*
X113873716Y-89512353D01*
X113671172Y-89477944D01*
X113476450Y-89374717D01*
X113316918Y-89177648D01*
X113269996Y-89044314D01*
X113254356Y-88894557D01*
X113269996Y-88744801D01*
X113316918Y-88611466D01*
X113473321Y-88417525D01*
X113671954Y-88311953D01*
X113873716Y-88276762D01*
X114070785Y-88303350D01*
X114224060Y-88383116D01*
X114383592Y-88451934D01*
X114486819Y-88409705D01*
X114602558Y-88283018D01*
X114668248Y-88109410D01*
X114586918Y-87960826D01*
X114499331Y-87904520D01*
X114424257Y-87860727D01*
X114194344Y-87768449D01*
X114043805Y-87734431D01*
X113895612Y-87723092D01*
X113689506Y-87741860D01*
X113484096Y-87798166D01*
X113279381Y-87892008D01*
X113125714Y-87990152D01*
X112990033Y-88109410D01*
X112874685Y-88256429D01*
X112845860Y-88312863D01*
X112845860Y-89457565D01*
X112845860Y-88312863D01*
X112782016Y-88437858D01*
X112721018Y-88647830D01*
X112700686Y-88880481D01*
X112401867Y-88880481D01*
X112374975Y-88844899D01*
X112265883Y-88767870D01*
X112141542Y-88715866D01*
X112006252Y-88672464D01*
X111870963Y-88638446D01*
X111746622Y-88614594D01*
X111547989Y-88542648D01*
X111468223Y-88403449D01*
X111535477Y-88268942D01*
X111704393Y-88220456D01*
X111871745Y-88261121D01*
X111920230Y-88301786D01*
X111956203Y-88333067D01*
X112118863Y-88395629D01*
X112229910Y-88356528D01*
X112337829Y-88239225D01*
X112412903Y-88067180D01*
X112315932Y-87913905D01*
X112237730Y-87854471D01*
X112023457Y-87755937D01*
X111860406Y-87719573D01*
X111680932Y-87707451D01*
X111461793Y-87730217D01*
X111275672Y-87798513D01*
X111122570Y-87912341D01*
X111008743Y-88056754D01*
X110940447Y-88216807D01*
X110931335Y-88287128D01*
X110931335Y-88519667D01*
X110937623Y-88578230D01*
X110997447Y-88735025D01*
X111086988Y-88858193D01*
X111196080Y-88943043D01*
X111319639Y-89004431D01*
X111452583Y-89057217D01*
X111585526Y-89099055D01*
X111709085Y-89127599D01*
X111907718Y-89197981D01*
X111987484Y-89318412D01*
X111914756Y-89496712D01*
X111696573Y-89556146D01*
X111546425Y-89507661D01*
X111421302Y-89405998D01*
X111282102Y-89288695D01*
X111177312Y-89249594D01*
X111011523Y-89324668D01*
X110931335Y-89418843D01*
X110931335Y-89655942D01*
X110931335Y-89418843D01*
X110910643Y-89443144D01*
X110877016Y-89535813D01*
X106641527Y-89535813D01*
X106576991Y-89468029D01*
X106453750Y-89325158D01*
X106337668Y-89176412D01*
X106229024Y-89022149D01*
X106128080Y-88862742D01*
X106035079Y-88698573D01*
X105950246Y-88530039D01*
X105889280Y-88392501D01*
X110917681Y-88392501D01*
X110931335Y-88519667D01*
X110931335Y-88287128D01*
X110917681Y-88392501D01*
X105889280Y-88392501D01*
X105873785Y-88357545D01*
X105805880Y-88181507D01*
X105746694Y-88002349D01*
X105696371Y-87820503D01*
X105655030Y-87636407D01*
X105622773Y-87450504D01*
X105599677Y-87263242D01*
X105585796Y-87075072D01*
X105581166Y-86886448D01*
X105585796Y-86697824D01*
X105599677Y-86509654D01*
X105622773Y-86322392D01*
X105655030Y-86136489D01*
X105696371Y-85952393D01*
X105746694Y-85770547D01*
X105805880Y-85591389D01*
X105818168Y-85559533D01*
X110086785Y-85559533D01*
X110169335Y-85742095D01*
X110197910Y-85777020D01*
X110289985Y-85873858D01*
X110432860Y-85973870D01*
X110648760Y-86064358D01*
X110786079Y-86091742D01*
X110931335Y-86100870D01*
X111122188Y-86082173D01*
X111305280Y-86026081D01*
X111480610Y-85932595D01*
X111601260Y-85829011D01*
X111632468Y-85783370D01*
X111985435Y-85783370D01*
X112023535Y-85986570D01*
X112107673Y-86046101D01*
X112264835Y-86065945D01*
X112845860Y-86065945D01*
X113079719Y-86044315D01*
X113295519Y-85979426D01*
X113493262Y-85871278D01*
X113529765Y-85840520D01*
X114141260Y-85840520D01*
X114187298Y-85948470D01*
X114325410Y-86043720D01*
X114495273Y-86097695D01*
X114596873Y-86067533D01*
X114654023Y-86008795D01*
X114703235Y-85916720D01*
X114868335Y-85573820D01*
X115747810Y-85573820D01*
X115912910Y-85916720D01*
X115962123Y-86011970D01*
X116019273Y-86072295D01*
X116120873Y-86100870D01*
X116290735Y-86046895D01*
X116428848Y-85949264D01*
X116474885Y-85840520D01*
X116420910Y-85678595D01*
X115563660Y-83906945D01*
X115458885Y-83783120D01*
X115309660Y-83741845D01*
X115158848Y-83786295D01*
X115052485Y-83903770D01*
X114195235Y-85678595D01*
X114141260Y-85840520D01*
X113529765Y-85840520D01*
X113672948Y-85719870D01*
X113822272Y-85538201D01*
X113928932Y-85339267D01*
X113992928Y-85123069D01*
X114014260Y-84889608D01*
X113992432Y-84657039D01*
X113926948Y-84443520D01*
X113817807Y-84249051D01*
X113665010Y-84073633D01*
X113483440Y-83928476D01*
X113287979Y-83824792D01*
X113078627Y-83762582D01*
X112855385Y-83741845D01*
X112268010Y-83738670D01*
X112104498Y-83760101D01*
X112020360Y-83824395D01*
X111990198Y-83906945D01*
X111985435Y-84018070D01*
X111985435Y-85783370D01*
X111632468Y-85783370D01*
X111696510Y-85689708D01*
X111758423Y-85520242D01*
X111779060Y-85326170D01*
X111758819Y-85136067D01*
X111698098Y-84978508D01*
X111607213Y-84858254D01*
X111496485Y-84780070D01*
X111370279Y-84727286D01*
X111232960Y-84683233D01*
X111095641Y-84648704D01*
X110969435Y-84624495D01*
X110767823Y-84551470D01*
X110686860Y-84410183D01*
X110755123Y-84273658D01*
X110926573Y-84224445D01*
X111096435Y-84265720D01*
X111145648Y-84306995D01*
X111182160Y-84338745D01*
X111347260Y-84402245D01*
X111459973Y-84362558D01*
X111569510Y-84243495D01*
X111645710Y-84068870D01*
X111547285Y-83913295D01*
X111467910Y-83852970D01*
X111250423Y-83752958D01*
X111084926Y-83716048D01*
X110902760Y-83703745D01*
X110680334Y-83726852D01*
X110491421Y-83796173D01*
X110336023Y-83911708D01*
X110220488Y-84058287D01*
X110151167Y-84220741D01*
X110128060Y-84399070D01*
X110148301Y-84587586D01*
X110209023Y-84746733D01*
X110299907Y-84871748D01*
X110410635Y-84957870D01*
X110536048Y-85020179D01*
X110670985Y-85073758D01*
X110805923Y-85116223D01*
X110931335Y-85145195D01*
X111132948Y-85216633D01*
X111213910Y-85338870D01*
X111181102Y-85472926D01*
X111082677Y-85553359D01*
X110918635Y-85580170D01*
X110766235Y-85530958D01*
X110639235Y-85427770D01*
X110497948Y-85308708D01*
X110391585Y-85269020D01*
X110223310Y-85345220D01*
X110120916Y-85465473D01*
X110086785Y-85559533D01*
X105818168Y-85559533D01*
X105873785Y-85415351D01*
X105950246Y-85242857D01*
X106035079Y-85074323D01*
X106128080Y-84910154D01*
X106229024Y-84750747D01*
X106337668Y-84596484D01*
X106453750Y-84447738D01*
X106576991Y-84304867D01*
X106707094Y-84168216D01*
X106843746Y-84038113D01*
X106986617Y-83914871D01*
X107135363Y-83798789D01*
X107289625Y-83690145D01*
X107449033Y-83589201D01*
X107613202Y-83496201D01*
X107781736Y-83411367D01*
X107954230Y-83334906D01*
X108130268Y-83267001D01*
X108309426Y-83207815D01*
X108491272Y-83157492D01*
X108675368Y-83116151D01*
X108861271Y-83083894D01*
X109048533Y-83060797D01*
X109236703Y-83046917D01*
X109425327Y-83042287D01*
X117165888Y-83042287D01*
X117165888Y-90730609D01*
X109425327Y-90730609D01*
X109236703Y-90725979D01*
G37*
G36*
X115519210Y-85103920D02*
G01*
X115096935Y-85103920D01*
X115306485Y-84668945D01*
X115519210Y-85103920D01*
G37*
G36*
X113078032Y-84347079D02*
G01*
X113272898Y-84476858D01*
X113407438Y-84670929D01*
X113452285Y-84907070D01*
X113406248Y-85142417D01*
X113268135Y-85334108D01*
X113072873Y-85461504D01*
X112855385Y-85503970D01*
X112547410Y-85503970D01*
X112547410Y-84303820D01*
X112852210Y-84303820D01*
X113078032Y-84347079D01*
G37*
%TO.C,kibuzzard-640F60AF*%
G36*
X172124092Y-93684328D02*
G01*
X172220731Y-93749812D01*
X172271443Y-93814371D01*
X172301870Y-93891629D01*
X172312012Y-93981587D01*
X172301958Y-94071369D01*
X172271796Y-94148099D01*
X172221525Y-94211775D01*
X172125481Y-94276069D01*
X172018325Y-94297500D01*
X171910970Y-94275473D01*
X171814331Y-94209394D01*
X171763619Y-94144747D01*
X171733192Y-94068283D01*
X171723050Y-93980000D01*
X171733104Y-93891717D01*
X171763267Y-93815253D01*
X171813537Y-93750606D01*
X171909581Y-93684527D01*
X172016737Y-93662500D01*
X172124092Y-93684328D01*
G37*
G36*
X171022169Y-93691075D02*
G01*
X171048362Y-93746637D01*
X171043600Y-93803787D01*
X170967400Y-93837125D01*
X170869769Y-93859350D01*
X170840400Y-93950631D01*
X170868975Y-94041913D01*
X170954700Y-94064138D01*
X171043600Y-94076838D01*
X171072969Y-94108588D01*
X171081700Y-94168912D01*
X171056697Y-94249875D01*
X170981687Y-94276863D01*
X170721337Y-94276863D01*
X170721337Y-93675200D01*
X170943587Y-93675200D01*
X171022169Y-93691075D01*
G37*
G36*
X170109621Y-93050783D02*
G01*
X175330379Y-93050783D01*
X175330379Y-94909217D01*
X170109621Y-94909217D01*
X170109621Y-94414975D01*
X170440350Y-94414975D01*
X170449875Y-94497525D01*
X170491944Y-94542769D01*
X170580050Y-94557850D01*
X170997562Y-94557850D01*
X171093077Y-94545944D01*
X171178537Y-94510225D01*
X171253944Y-94450694D01*
X171312946Y-94373524D01*
X171349194Y-94284888D01*
X171362687Y-94184787D01*
X171352281Y-94095711D01*
X171321060Y-94012632D01*
X171304389Y-93987937D01*
X171442062Y-93987937D01*
X171452629Y-94104420D01*
X171484330Y-94212569D01*
X171537164Y-94312383D01*
X171611131Y-94403863D01*
X171700180Y-94480261D01*
X171798258Y-94534831D01*
X171905364Y-94567573D01*
X172021500Y-94578488D01*
X172137387Y-94567425D01*
X172243750Y-94534236D01*
X172340587Y-94478921D01*
X172427900Y-94401481D01*
X172500131Y-94308315D01*
X172551725Y-94205822D01*
X172582681Y-94094002D01*
X172591715Y-93987937D01*
X172672375Y-93987937D01*
X172682942Y-94104420D01*
X172714642Y-94212569D01*
X172767476Y-94312383D01*
X172841444Y-94403863D01*
X172930493Y-94480261D01*
X173028570Y-94534831D01*
X173135677Y-94567573D01*
X173251812Y-94578488D01*
X173367700Y-94567425D01*
X173474062Y-94534236D01*
X173570900Y-94478921D01*
X173658212Y-94401481D01*
X173730444Y-94308315D01*
X173782037Y-94205822D01*
X173812994Y-94094002D01*
X173823312Y-93972856D01*
X173812498Y-93852157D01*
X173780053Y-93741677D01*
X173725979Y-93641416D01*
X173650275Y-93551375D01*
X173598142Y-93508512D01*
X173886812Y-93508512D01*
X173894750Y-93575187D01*
X173926500Y-93612494D01*
X174001112Y-93624400D01*
X174305912Y-93624400D01*
X174305912Y-94421325D01*
X174308294Y-94476094D01*
X174322581Y-94517369D01*
X174363856Y-94549913D01*
X174442437Y-94559437D01*
X174521812Y-94549913D01*
X174563881Y-94517369D01*
X174578169Y-94476887D01*
X174580550Y-94422913D01*
X174580550Y-93624400D01*
X174883762Y-93624400D01*
X174964725Y-93610112D01*
X174991712Y-93575981D01*
X174999650Y-93510100D01*
X174991712Y-93443425D01*
X174959962Y-93406119D01*
X174885350Y-93394212D01*
X174002700Y-93394212D01*
X173921737Y-93408500D01*
X173894750Y-93442631D01*
X173886812Y-93508512D01*
X173598142Y-93508512D01*
X173559887Y-93477060D01*
X173461759Y-93423978D01*
X173355893Y-93392129D01*
X173242287Y-93381512D01*
X173134337Y-93392625D01*
X173029562Y-93425962D01*
X172932328Y-93478747D01*
X172847000Y-93548200D01*
X172775562Y-93635314D01*
X172720000Y-93741081D01*
X172684281Y-93860342D01*
X172672375Y-93987937D01*
X172591715Y-93987937D01*
X172593000Y-93972856D01*
X172582185Y-93852157D01*
X172549741Y-93741677D01*
X172495666Y-93641416D01*
X172419962Y-93551375D01*
X172329574Y-93477060D01*
X172231447Y-93423978D01*
X172125580Y-93392129D01*
X172011975Y-93381512D01*
X171904025Y-93392625D01*
X171799250Y-93425962D01*
X171702016Y-93478747D01*
X171616687Y-93548200D01*
X171545250Y-93635314D01*
X171489687Y-93741081D01*
X171453969Y-93860342D01*
X171442062Y-93987937D01*
X171304389Y-93987937D01*
X171269025Y-93935550D01*
X171314269Y-93843872D01*
X171329350Y-93743462D01*
X171317885Y-93651740D01*
X171283489Y-93569190D01*
X171226162Y-93495812D01*
X171155254Y-93439368D01*
X171073762Y-93405501D01*
X170981687Y-93394212D01*
X170581637Y-93394212D01*
X170499881Y-93404928D01*
X170457812Y-93437075D01*
X170442731Y-93478350D01*
X170440350Y-93533913D01*
X170440350Y-94414975D01*
X170109621Y-94414975D01*
X170109621Y-93050783D01*
G37*
G36*
X173354405Y-93684328D02*
G01*
X173451044Y-93749812D01*
X173501756Y-93814371D01*
X173532183Y-93891629D01*
X173542325Y-93981587D01*
X173532271Y-94071369D01*
X173502108Y-94148099D01*
X173451837Y-94211775D01*
X173355794Y-94276069D01*
X173248637Y-94297500D01*
X173141283Y-94275473D01*
X173044644Y-94209394D01*
X172993932Y-94144747D01*
X172963505Y-94068283D01*
X172953362Y-93980000D01*
X172963417Y-93891717D01*
X172993579Y-93815253D01*
X173043850Y-93750606D01*
X173139894Y-93684527D01*
X173247050Y-93662500D01*
X173354405Y-93684328D01*
G37*
%TO.C,R14*%
X147568500Y-108054742D02*
X147568500Y-108529258D01*
X146523500Y-108054742D02*
X146523500Y-108529258D01*
%TO.C,C1*%
X126839420Y-80096000D02*
X127120580Y-80096000D01*
X126839420Y-81116000D02*
X127120580Y-81116000D01*
%TO.C,C5*%
X140602580Y-121020000D02*
X140321420Y-121020000D01*
X140602580Y-122040000D02*
X140321420Y-122040000D01*
%TO.C,C9*%
X136518580Y-107278000D02*
X136237420Y-107278000D01*
X136518580Y-106258000D02*
X136237420Y-106258000D01*
%TO.C,R6*%
X129505500Y-88209258D02*
X129505500Y-87734742D01*
X130550500Y-88209258D02*
X130550500Y-87734742D01*
%TO.C,R9*%
X135630500Y-110594742D02*
X135630500Y-111069258D01*
X134585500Y-110594742D02*
X134585500Y-111069258D01*
%TO.C,C2*%
X140602580Y-127120000D02*
X140321420Y-127120000D01*
X140602580Y-126100000D02*
X140321420Y-126100000D01*
%TO.C,C8*%
X140308741Y-107905844D02*
X140589901Y-107905844D01*
X140308741Y-106885844D02*
X140589901Y-106885844D01*
%TO.C,TP1*%
X157720646Y-121159896D02*
X157720646Y-119259896D01*
X157720646Y-119259896D02*
X159620646Y-119259896D01*
X159620646Y-119259896D02*
X159620646Y-121159896D01*
X159620646Y-121159896D02*
X157720646Y-121159896D01*
%TO.C,TP5*%
X152720000Y-89850000D02*
X152720000Y-87950000D01*
X154620000Y-89850000D02*
X152720000Y-89850000D01*
X154620000Y-87950000D02*
X154620000Y-89850000D01*
X152720000Y-87950000D02*
X154620000Y-87950000D01*
%TO.C,REF\u002A\u002A*%
X178658000Y-114972000D02*
X178658000Y-96972000D01*
X190158000Y-105972000D02*
X200158000Y-105972000D01*
X190158000Y-96972000D02*
X190158000Y-114972000D01*
X185908000Y-96972000D02*
X178658000Y-96972000D01*
X190158000Y-114972000D02*
X178658000Y-114972000D01*
X185908000Y-96972000D02*
X190158000Y-96972000D01*
X178658000Y-108972000D02*
X158158000Y-108972000D01*
X158158000Y-108972000D02*
X158158000Y-102972000D01*
X158158000Y-102972000D02*
X178658000Y-102972000D01*
X178658000Y-102972000D02*
X178658000Y-108972000D01*
%TO.C,U2*%
X147308000Y-92152000D02*
X148308000Y-92152000D01*
X149308000Y-94392000D02*
X147308000Y-94392000D01*
%TO.C,D3*%
X111950000Y-82390000D02*
X111950000Y-75090000D01*
X106450000Y-82390000D02*
X106450000Y-75090000D01*
X111950000Y-75090000D02*
X110800000Y-75090000D01*
%TO.C,D1*%
X153961549Y-118978921D02*
X151676549Y-118978921D01*
X153961549Y-120448921D02*
X153961549Y-118978921D01*
X151676549Y-120448921D02*
X153961549Y-120448921D01*
%TO.C,kibuzzard-640F6079*%
G36*
X160177163Y-117527917D02*
G01*
X168170754Y-117527917D01*
X168352290Y-117536835D01*
X168532078Y-117563504D01*
X168708386Y-117607667D01*
X168879516Y-117668898D01*
X169043820Y-117746608D01*
X169199717Y-117840049D01*
X169345703Y-117948320D01*
X169480375Y-118070379D01*
X169602434Y-118205051D01*
X169710705Y-118351038D01*
X169804146Y-118506934D01*
X169881856Y-118671238D01*
X169943087Y-118842369D01*
X169987250Y-119018676D01*
X170013919Y-119198464D01*
X170022837Y-119380000D01*
X170013919Y-119561536D01*
X169987250Y-119741324D01*
X169943087Y-119917631D01*
X169881856Y-120088762D01*
X169804146Y-120253066D01*
X169710705Y-120408962D01*
X169602434Y-120554949D01*
X169480375Y-120689621D01*
X169345703Y-120811680D01*
X169199717Y-120919951D01*
X169043820Y-121013392D01*
X168879516Y-121091102D01*
X168708386Y-121152333D01*
X168532078Y-121196496D01*
X168352290Y-121223165D01*
X168170754Y-121232083D01*
X160177163Y-121232083D01*
X160177163Y-118449725D01*
X160838621Y-118449725D01*
X160886246Y-118602125D01*
X161762546Y-120380125D01*
X161868908Y-120492838D01*
X162019721Y-120535700D01*
X162051471Y-120535700D01*
X162199108Y-120492838D01*
X162305471Y-120380125D01*
X162806214Y-119364125D01*
X163356396Y-119364125D01*
X163377430Y-119602647D01*
X163440533Y-119822913D01*
X163536180Y-120015000D01*
X163654846Y-120168988D01*
X163793355Y-120293606D01*
X163948533Y-120397588D01*
X164109665Y-120477756D01*
X164266033Y-120530938D01*
X164419227Y-120560703D01*
X164570833Y-120570625D01*
X164724424Y-120557925D01*
X164883571Y-120519825D01*
X165097883Y-120437275D01*
X165207421Y-120370600D01*
X165307433Y-120291225D01*
X165350296Y-120180100D01*
X165280446Y-120002300D01*
X165170115Y-119868950D01*
X165067721Y-119824500D01*
X164915321Y-119888000D01*
X164858171Y-119929275D01*
X164732758Y-119980075D01*
X164547021Y-120005475D01*
X164341440Y-119970550D01*
X164143796Y-119865775D01*
X163981871Y-119665750D01*
X163934246Y-119530416D01*
X163918371Y-119378413D01*
X163919863Y-119364125D01*
X165512221Y-119364125D01*
X165533255Y-119602647D01*
X165596358Y-119822913D01*
X165692005Y-120015000D01*
X165810671Y-120168988D01*
X165949180Y-120293606D01*
X166104358Y-120397588D01*
X166265490Y-120477756D01*
X166421858Y-120530938D01*
X166575052Y-120560703D01*
X166726658Y-120570625D01*
X166880249Y-120557925D01*
X167039396Y-120519825D01*
X167253708Y-120437275D01*
X167363246Y-120370600D01*
X167463258Y-120291225D01*
X167506121Y-120180100D01*
X167436271Y-120002300D01*
X167325940Y-119868950D01*
X167223546Y-119824500D01*
X167071146Y-119888000D01*
X167013996Y-119929275D01*
X166888583Y-119980075D01*
X166702846Y-120005475D01*
X166497265Y-119970550D01*
X166299621Y-119865775D01*
X166137696Y-119665750D01*
X166090071Y-119530416D01*
X166074196Y-119378413D01*
X166090071Y-119226409D01*
X166137696Y-119091075D01*
X166296446Y-118894225D01*
X166498058Y-118787069D01*
X166702846Y-118751350D01*
X166902871Y-118778338D01*
X167058446Y-118859300D01*
X167220371Y-118929150D01*
X167325146Y-118886288D01*
X167442621Y-118757700D01*
X167509296Y-118581487D01*
X167426746Y-118430675D01*
X167337846Y-118373525D01*
X167261646Y-118329075D01*
X167028283Y-118235413D01*
X166875486Y-118200884D01*
X166725071Y-118189375D01*
X166515874Y-118208425D01*
X166307382Y-118265575D01*
X166099596Y-118360825D01*
X165943624Y-118460441D01*
X165805908Y-118581487D01*
X165688830Y-118730713D01*
X165594771Y-118914863D01*
X165532858Y-119127984D01*
X165512221Y-119364125D01*
X163919863Y-119364125D01*
X163934246Y-119226409D01*
X163981871Y-119091075D01*
X164140621Y-118894225D01*
X164342233Y-118787069D01*
X164547021Y-118751350D01*
X164747046Y-118778338D01*
X164902621Y-118859300D01*
X165064546Y-118929150D01*
X165169321Y-118886288D01*
X165286796Y-118757700D01*
X165353471Y-118581487D01*
X165270921Y-118430675D01*
X165182021Y-118373525D01*
X165105821Y-118329075D01*
X164872458Y-118235413D01*
X164719661Y-118200884D01*
X164569246Y-118189375D01*
X164360049Y-118208425D01*
X164151557Y-118265575D01*
X163943771Y-118360825D01*
X163787799Y-118460441D01*
X163650083Y-118581487D01*
X163533005Y-118730713D01*
X163438946Y-118914863D01*
X163377033Y-119127984D01*
X163356396Y-119364125D01*
X162806214Y-119364125D01*
X163181771Y-118602125D01*
X163229396Y-118449725D01*
X163182565Y-118343363D01*
X163042071Y-118246525D01*
X162854746Y-118192550D01*
X162715046Y-118278275D01*
X162670596Y-118373525D01*
X162035596Y-119764175D01*
X162001068Y-119690753D01*
X161922883Y-119521288D01*
X161819696Y-119297053D01*
X161710158Y-119059325D01*
X161601018Y-118821597D01*
X161499021Y-118597363D01*
X161419249Y-118422738D01*
X161376783Y-118333838D01*
X161324396Y-118249700D01*
X161270421Y-118205250D01*
X161186283Y-118192550D01*
X161025946Y-118246525D01*
X160885452Y-118343363D01*
X160838621Y-118449725D01*
X160177163Y-118449725D01*
X160177163Y-117527917D01*
G37*
%TO.C,kibuzzard-640F6063*%
G36*
X155617877Y-81384732D02*
G01*
X155644820Y-81203095D01*
X155689437Y-81024974D01*
X155751298Y-80852084D01*
X155829808Y-80686089D01*
X155924209Y-80528589D01*
X156033594Y-80381101D01*
X156156909Y-80245044D01*
X156292966Y-80121730D01*
X156440454Y-80012345D01*
X156597954Y-79917943D01*
X156763948Y-79839434D01*
X156936839Y-79777572D01*
X157114960Y-79732955D01*
X157296597Y-79706012D01*
X157480000Y-79697002D01*
X157663403Y-79706012D01*
X157845040Y-79732955D01*
X158023161Y-79777572D01*
X158196052Y-79839434D01*
X158362046Y-79917943D01*
X158519546Y-80012345D01*
X158667034Y-80121730D01*
X158803091Y-80245044D01*
X158926406Y-80381101D01*
X159035791Y-80528589D01*
X159130192Y-80686089D01*
X159208702Y-80852084D01*
X159270563Y-81024974D01*
X159315180Y-81203095D01*
X159342123Y-81384732D01*
X159351133Y-81568135D01*
X159351133Y-87469402D01*
X155608867Y-87469402D01*
X155608867Y-86479331D01*
X156270325Y-86479331D01*
X156381450Y-86685706D01*
X156575125Y-86807944D01*
X156778325Y-86699994D01*
X157480000Y-86061819D01*
X158181675Y-86699994D01*
X158381700Y-86807944D01*
X158578550Y-86684119D01*
X158689675Y-86479331D01*
X158562675Y-86284069D01*
X157870525Y-85680819D01*
X158562675Y-85077569D01*
X158689675Y-84882306D01*
X158576963Y-84674344D01*
X158381700Y-84550519D01*
X158181675Y-84661644D01*
X157480000Y-85299819D01*
X156778325Y-84661644D01*
X156575125Y-84550519D01*
X156383037Y-84675931D01*
X156270325Y-84882306D01*
X156397325Y-85077569D01*
X157089475Y-85680819D01*
X156397325Y-86284069D01*
X156270325Y-86479331D01*
X155608867Y-86479331D01*
X155608867Y-83340844D01*
X156302075Y-83340844D01*
X156321125Y-83499594D01*
X156386212Y-83583731D01*
X156467175Y-83612306D01*
X156575125Y-83617069D01*
X158172150Y-83617069D01*
X158172150Y-84223494D01*
X158200725Y-84385419D01*
X158268988Y-84439394D01*
X158400750Y-84455269D01*
X158534100Y-84439394D01*
X158608713Y-84375894D01*
X158632525Y-84226669D01*
X158632525Y-82461369D01*
X158603950Y-82299444D01*
X158535688Y-82245469D01*
X158403925Y-82229594D01*
X158270575Y-82245469D01*
X158195963Y-82308969D01*
X158172150Y-82458194D01*
X158172150Y-83067794D01*
X156578300Y-83067794D01*
X156468763Y-83072556D01*
X156386212Y-83101131D01*
X156321125Y-83183681D01*
X156302075Y-83340844D01*
X155608867Y-83340844D01*
X155608867Y-81568135D01*
X155617877Y-81384732D01*
G37*
%TO.C,U4*%
X141362000Y-123420000D02*
X141362000Y-124720000D01*
X139562000Y-124970000D02*
X139562000Y-123420000D01*
%TO.C,TP3*%
X117668000Y-87696000D02*
X119568000Y-87696000D01*
X119568000Y-89596000D02*
X117668000Y-89596000D01*
X119568000Y-87696000D02*
X119568000Y-89596000D01*
X117668000Y-89596000D02*
X117668000Y-87696000D01*
%TO.C,R7*%
X140602580Y-120135000D02*
X140321420Y-120135000D01*
X140602580Y-119115000D02*
X140321420Y-119115000D01*
%TO.C,C12*%
X125215580Y-78576000D02*
X124934420Y-78576000D01*
X125215580Y-77556000D02*
X124934420Y-77556000D01*
%TO.C,R12*%
X137662500Y-104465258D02*
X137662500Y-103990742D01*
X136617500Y-104465258D02*
X136617500Y-103990742D01*
%TO.C,J2*%
X155488000Y-100892000D02*
X155488000Y-113652000D01*
X152828000Y-100892000D02*
X152828000Y-113652000D01*
X155488000Y-98292000D02*
X155488000Y-99622000D01*
X152828000Y-113652000D02*
X155488000Y-113652000D01*
X154158000Y-98292000D02*
X155488000Y-98292000D01*
X152828000Y-100892000D02*
X155488000Y-100892000D01*
%TO.C,TP2*%
X119568000Y-86294000D02*
X117668000Y-86294000D01*
X119568000Y-84394000D02*
X119568000Y-86294000D01*
X117668000Y-86294000D02*
X117668000Y-84394000D01*
X117668000Y-84394000D02*
X119568000Y-84394000D01*
%TD*%
M02*
