%TF.GenerationSoftware,KiCad,Pcbnew,(6.0.9-0)*%
%TF.CreationDate,2023-03-14T17:35:55-07:00*%
%TF.ProjectId,MiniDusty,4d696e69-4475-4737-9479-2e6b69636164,rev?*%
%TF.SameCoordinates,Original*%
%TF.FileFunction,Copper,L3,Inr*%
%TF.FilePolarity,Positive*%
%FSLAX46Y46*%
G04 Gerber Fmt 4.6, Leading zero omitted, Abs format (unit mm)*
G04 Created by KiCad (PCBNEW (6.0.9-0)) date 2023-03-14 17:35:55*
%MOMM*%
%LPD*%
G01*
G04 APERTURE LIST*
%TA.AperFunction,ComponentPad*%
%ADD10R,1.700000X1.700000*%
%TD*%
%TA.AperFunction,ComponentPad*%
%ADD11O,1.700000X1.700000*%
%TD*%
%TA.AperFunction,ComponentPad*%
%ADD12C,0.600000*%
%TD*%
%TA.AperFunction,ComponentPad*%
%ADD13C,1.100000*%
%TD*%
%TA.AperFunction,ComponentPad*%
%ADD14R,1.600000X1.600000*%
%TD*%
%TA.AperFunction,ComponentPad*%
%ADD15C,1.600000*%
%TD*%
%TA.AperFunction,ViaPad*%
%ADD16C,0.800000*%
%TD*%
G04 APERTURE END LIST*
D10*
%TO.N,/M2OUT1*%
%TO.C,J3*%
X128758000Y-112322000D03*
D11*
%TO.N,+3V3*%
X128758000Y-109782000D03*
%TO.N,/Motor2PhaseB*%
X128758000Y-107242000D03*
%TO.N,/Motor2PhaseA*%
X128758000Y-104702000D03*
%TO.N,GND*%
X128758000Y-102162000D03*
%TO.N,/M2OUT2*%
X128758000Y-99622000D03*
%TD*%
D12*
%TO.N,N/C*%
%TO.C,U1*%
X135108000Y-92772000D03*
X135108000Y-93772000D03*
%TD*%
D13*
%TO.N,GND*%
%TO.C,J4*%
X139058000Y-111476000D03*
X139058000Y-115776000D03*
X143858000Y-115776000D03*
X143858000Y-111476000D03*
%TD*%
D14*
%TO.N,/+VBatt*%
%TO.C,C3*%
X147808000Y-97654888D03*
D15*
%TO.N,GND*%
X147808000Y-100154888D03*
%TD*%
D10*
%TO.N,/+VBatt*%
%TO.C,J1*%
X149352000Y-125721000D03*
D11*
%TO.N,GND*%
X149352000Y-123181000D03*
%TD*%
D14*
%TO.N,/+VBatt*%
%TO.C,C4*%
X126472000Y-92036000D03*
D15*
%TO.N,GND*%
X126472000Y-89536000D03*
%TD*%
D12*
%TO.N,N/C*%
%TO.C,U2*%
X147808000Y-93772000D03*
X147808000Y-92772000D03*
%TD*%
D10*
%TO.N,/M1OUT1*%
%TO.C,J2*%
X154158000Y-99622000D03*
D11*
%TO.N,+3V3*%
X154158000Y-102162000D03*
%TO.N,/Motor1PhaseB*%
X154158000Y-104702000D03*
%TO.N,/Motor1PhaseA*%
X154158000Y-107242000D03*
%TO.N,GND*%
X154158000Y-109782000D03*
%TO.N,/M1OUT2*%
X154158000Y-112322000D03*
%TD*%
D16*
%TO.N,GND*%
X143911117Y-84745592D03*
X142116643Y-83763909D03*
X143203883Y-83763909D03*
X144196122Y-83774464D03*
X143298885Y-82824449D03*
X142190533Y-81832210D03*
X143235550Y-81842765D03*
X144206678Y-81832210D03*
X100076000Y-92710000D03*
X138952076Y-98864851D03*
X138430000Y-121412000D03*
X150114000Y-92202000D03*
X137828500Y-98825428D03*
X138430000Y-119380000D03*
X138430000Y-120396000D03*
%TO.N,Net-(C1-Pad2)*%
X120904000Y-81788000D03*
X110490000Y-95211000D03*
%TO.N,/+VBatt*%
X158750000Y-93218000D03*
%TO.N,+3V3*%
X137414000Y-92456000D03*
X134620000Y-122682000D03*
X130302000Y-90170000D03*
X135636000Y-76454000D03*
X144018000Y-119888000D03*
X158670646Y-120209896D03*
X134296000Y-76638000D03*
X141732000Y-122800000D03*
X128524000Y-83820000D03*
X144145000Y-93091000D03*
X103715000Y-95333000D03*
X136906000Y-76454000D03*
X143383000Y-119253000D03*
%TO.N,/D+*%
X140950000Y-116166000D03*
X138156000Y-108546000D03*
%TO.N,/USB3V3*%
X141712000Y-101180000D03*
X135108000Y-97624000D03*
X144780000Y-96520000D03*
X143744000Y-101180000D03*
%TO.N,/V_USB_BUS*%
X150217220Y-119737220D03*
X145034000Y-117602000D03*
%TO.N,Net-(D2-Pad2)*%
X127762000Y-78740000D03*
X148082000Y-90678000D03*
%TO.N,Net-(D5-Pad1)*%
X146284000Y-101942000D03*
X135362000Y-102958000D03*
%TO.N,Net-(J4-PadB5)*%
X136742000Y-117292000D03*
X141966000Y-116166000D03*
%TO.N,/SDA*%
X118618000Y-85344000D03*
X101028500Y-90257000D03*
%TO.N,/SCL*%
X151638000Y-91948000D03*
X118618000Y-88646000D03*
X135128000Y-87156000D03*
X102298500Y-90257000D03*
%TO.N,/TX*%
X143568166Y-86418166D03*
X148590000Y-86360000D03*
%TO.N,/RX*%
X148590000Y-88900000D03*
X140738983Y-87398983D03*
%TO.N,/MotorSleepEN*%
X135636000Y-90424000D03*
X141809879Y-95344710D03*
%TO.N,/Motor1EN*%
X148824000Y-78320000D03*
X148336000Y-83854000D03*
%TO.N,/Motor1Phase*%
X148824000Y-76542000D03*
X146050000Y-83820000D03*
%TO.N,/Motor1PhaseA*%
X135382000Y-78994000D03*
%TO.N,/Motor1PhaseB*%
X135382000Y-81788000D03*
%TO.N,/Motor2PhaseB*%
X153416000Y-82042000D03*
%TO.N,/Motor2PhaseA*%
X153416000Y-84582000D03*
%TD*%
%TA.AperFunction,Conductor*%
%TO.N,GND*%
G36*
X127708573Y-73747927D02*
G01*
X127712000Y-73756200D01*
X127712000Y-75538000D01*
X154464652Y-75538000D01*
X154472925Y-75541427D01*
X154476352Y-75549700D01*
X154475684Y-75553596D01*
X154420312Y-75710397D01*
X154420230Y-75710811D01*
X154420229Y-75710816D01*
X154384800Y-75890569D01*
X154368380Y-75973878D01*
X154368360Y-75974288D01*
X154368359Y-75974293D01*
X154365799Y-76025718D01*
X154355028Y-76242095D01*
X154355068Y-76242513D01*
X154355068Y-76242518D01*
X154372625Y-76426533D01*
X154380534Y-76509431D01*
X154380635Y-76509843D01*
X154380635Y-76509844D01*
X154388689Y-76542760D01*
X154444364Y-76770285D01*
X154444522Y-76770675D01*
X154528715Y-76978536D01*
X154545182Y-77019192D01*
X154680875Y-77250938D01*
X154681139Y-77251268D01*
X154681141Y-77251271D01*
X154798419Y-77397920D01*
X154848601Y-77460669D01*
X155044846Y-77643991D01*
X155265499Y-77797064D01*
X155265876Y-77797251D01*
X155265875Y-77797251D01*
X155505557Y-77916491D01*
X155505563Y-77916494D01*
X155505938Y-77916680D01*
X155506335Y-77916810D01*
X155506337Y-77916811D01*
X155760725Y-78000204D01*
X155760731Y-78000205D01*
X155761126Y-78000335D01*
X155761535Y-78000406D01*
X155761539Y-78000407D01*
X155966804Y-78036047D01*
X156025717Y-78046276D01*
X156059349Y-78047950D01*
X156110421Y-78050493D01*
X156110431Y-78050493D01*
X156110567Y-78050500D01*
X156278223Y-78050500D01*
X156278424Y-78050485D01*
X156278436Y-78050485D01*
X156434005Y-78039197D01*
X156477846Y-78036016D01*
X156478260Y-78035925D01*
X156478264Y-78035924D01*
X156739665Y-77978212D01*
X156739670Y-77978211D01*
X156740080Y-77978120D01*
X156991211Y-77882975D01*
X157225976Y-77752574D01*
X157439458Y-77589650D01*
X157627185Y-77397614D01*
X157785225Y-77180491D01*
X157910265Y-76942828D01*
X157999688Y-76689603D01*
X158028781Y-76542000D01*
X158051539Y-76426533D01*
X158051620Y-76426122D01*
X158053618Y-76386000D01*
X158060781Y-76242095D01*
X160705028Y-76242095D01*
X160705068Y-76242513D01*
X160705068Y-76242518D01*
X160722625Y-76426533D01*
X160730534Y-76509431D01*
X160730635Y-76509843D01*
X160730635Y-76509844D01*
X160738689Y-76542760D01*
X160794364Y-76770285D01*
X160794522Y-76770675D01*
X160878715Y-76978536D01*
X160895182Y-77019192D01*
X161030875Y-77250938D01*
X161031139Y-77251268D01*
X161031141Y-77251271D01*
X161148419Y-77397920D01*
X161198601Y-77460669D01*
X161394846Y-77643991D01*
X161615499Y-77797064D01*
X161615876Y-77797251D01*
X161615875Y-77797251D01*
X161855557Y-77916491D01*
X161855563Y-77916494D01*
X161855938Y-77916680D01*
X161856335Y-77916810D01*
X161856337Y-77916811D01*
X162110725Y-78000204D01*
X162110731Y-78000205D01*
X162111126Y-78000335D01*
X162111535Y-78000406D01*
X162111539Y-78000407D01*
X162316804Y-78036047D01*
X162375717Y-78046276D01*
X162409349Y-78047950D01*
X162460421Y-78050493D01*
X162460431Y-78050493D01*
X162460567Y-78050500D01*
X162628223Y-78050500D01*
X162628424Y-78050485D01*
X162628436Y-78050485D01*
X162784005Y-78039197D01*
X162827846Y-78036016D01*
X162828260Y-78035925D01*
X162828264Y-78035924D01*
X163089665Y-77978212D01*
X163089670Y-77978211D01*
X163090080Y-77978120D01*
X163341211Y-77882975D01*
X163575976Y-77752574D01*
X163789458Y-77589650D01*
X163977185Y-77397614D01*
X164135225Y-77180491D01*
X164260265Y-76942828D01*
X164349688Y-76689603D01*
X164378781Y-76542000D01*
X164401539Y-76426533D01*
X164401620Y-76426122D01*
X164403618Y-76386000D01*
X164414951Y-76158325D01*
X164414972Y-76157905D01*
X164414329Y-76151159D01*
X164389507Y-75890996D01*
X164389506Y-75890992D01*
X164389466Y-75890569D01*
X164325636Y-75629715D01*
X164294805Y-75553596D01*
X164224975Y-75381195D01*
X164224974Y-75381192D01*
X164224818Y-75380808D01*
X164089125Y-75149062D01*
X163972105Y-75002735D01*
X163921668Y-74939667D01*
X163921666Y-74939665D01*
X163921399Y-74939331D01*
X163725154Y-74756009D01*
X163504501Y-74602936D01*
X163481655Y-74591570D01*
X163264443Y-74483509D01*
X163264437Y-74483506D01*
X163264062Y-74483320D01*
X163263665Y-74483190D01*
X163263663Y-74483189D01*
X163009275Y-74399796D01*
X163009269Y-74399795D01*
X163008874Y-74399665D01*
X163008465Y-74399594D01*
X163008461Y-74399593D01*
X162744623Y-74353783D01*
X162744622Y-74353783D01*
X162744283Y-74353724D01*
X162710651Y-74352050D01*
X162659579Y-74349507D01*
X162659569Y-74349507D01*
X162659433Y-74349500D01*
X162491777Y-74349500D01*
X162491576Y-74349515D01*
X162491564Y-74349515D01*
X162335995Y-74360803D01*
X162292154Y-74363984D01*
X162291740Y-74364075D01*
X162291736Y-74364076D01*
X162030335Y-74421788D01*
X162030330Y-74421789D01*
X162029920Y-74421880D01*
X161778789Y-74517025D01*
X161544024Y-74647426D01*
X161330542Y-74810350D01*
X161142815Y-75002386D01*
X160984775Y-75219509D01*
X160859735Y-75457172D01*
X160770312Y-75710397D01*
X160770230Y-75710811D01*
X160770229Y-75710816D01*
X160734800Y-75890569D01*
X160718380Y-75973878D01*
X160718360Y-75974288D01*
X160718359Y-75974293D01*
X160715799Y-76025718D01*
X160705028Y-76242095D01*
X158060781Y-76242095D01*
X158064951Y-76158325D01*
X158064972Y-76157905D01*
X158064329Y-76151159D01*
X158039507Y-75890996D01*
X158039506Y-75890992D01*
X158039466Y-75890569D01*
X157975636Y-75629715D01*
X157944805Y-75553596D01*
X157874975Y-75381195D01*
X157874974Y-75381192D01*
X157874818Y-75380808D01*
X157739125Y-75149062D01*
X157622105Y-75002735D01*
X157571668Y-74939667D01*
X157571666Y-74939665D01*
X157571399Y-74939331D01*
X157375154Y-74756009D01*
X157154501Y-74602936D01*
X157131655Y-74591570D01*
X156914443Y-74483509D01*
X156914437Y-74483506D01*
X156914062Y-74483320D01*
X156913665Y-74483190D01*
X156913663Y-74483189D01*
X156659275Y-74399796D01*
X156659269Y-74399795D01*
X156658874Y-74399665D01*
X156658465Y-74399594D01*
X156658461Y-74399593D01*
X156394623Y-74353783D01*
X156394622Y-74353783D01*
X156394283Y-74353724D01*
X156360651Y-74352050D01*
X156309579Y-74349507D01*
X156309569Y-74349507D01*
X156309433Y-74349500D01*
X156141777Y-74349500D01*
X156141576Y-74349515D01*
X156141564Y-74349515D01*
X155985995Y-74360803D01*
X155942154Y-74363984D01*
X155941740Y-74364075D01*
X155941736Y-74364076D01*
X155726222Y-74411657D01*
X155717405Y-74410094D01*
X155712275Y-74402754D01*
X155712000Y-74400232D01*
X155712000Y-73756200D01*
X155715427Y-73747927D01*
X155723700Y-73744500D01*
X177256157Y-73744500D01*
X177264430Y-73747927D01*
X177266280Y-73750333D01*
X190193923Y-96056855D01*
X190195500Y-96062722D01*
X190195500Y-114934746D01*
X190192073Y-114943019D01*
X190190055Y-114944633D01*
X171492341Y-126771500D01*
X169152234Y-128251688D01*
X169145980Y-128253500D01*
X113810020Y-128253500D01*
X113803766Y-128251688D01*
X111177899Y-126590748D01*
X148301500Y-126590748D01*
X148313133Y-126649231D01*
X148357448Y-126715552D01*
X148423769Y-126759867D01*
X148424898Y-126760092D01*
X148424899Y-126760092D01*
X148481683Y-126771387D01*
X148481685Y-126771387D01*
X148482252Y-126771500D01*
X150221748Y-126771500D01*
X150222315Y-126771387D01*
X150222317Y-126771387D01*
X150279101Y-126760092D01*
X150279102Y-126760092D01*
X150280231Y-126759867D01*
X150346552Y-126715552D01*
X150390867Y-126649231D01*
X150402500Y-126590748D01*
X150402500Y-124851252D01*
X150390867Y-124792769D01*
X150374988Y-124769004D01*
X150347192Y-124727406D01*
X150346552Y-124726448D01*
X150280231Y-124682133D01*
X150279102Y-124681908D01*
X150279101Y-124681908D01*
X150222317Y-124670613D01*
X150222315Y-124670613D01*
X150221748Y-124670500D01*
X148482252Y-124670500D01*
X148481685Y-124670613D01*
X148481683Y-124670613D01*
X148424899Y-124681908D01*
X148424898Y-124681908D01*
X148423769Y-124682133D01*
X148357448Y-124726448D01*
X148356808Y-124727406D01*
X148329013Y-124769004D01*
X148313133Y-124792769D01*
X148301500Y-124851252D01*
X148301500Y-126590748D01*
X111177899Y-126590748D01*
X107875838Y-124502095D01*
X112445028Y-124502095D01*
X112445068Y-124502513D01*
X112445068Y-124502518D01*
X112462625Y-124686533D01*
X112470534Y-124769431D01*
X112534364Y-125030285D01*
X112534522Y-125030675D01*
X112604086Y-125202419D01*
X112635182Y-125279192D01*
X112770875Y-125510938D01*
X112771139Y-125511268D01*
X112771141Y-125511271D01*
X112888419Y-125657920D01*
X112938601Y-125720669D01*
X113134846Y-125903991D01*
X113355499Y-126057064D01*
X113355876Y-126057251D01*
X113355875Y-126057251D01*
X113595557Y-126176491D01*
X113595563Y-126176494D01*
X113595938Y-126176680D01*
X113596335Y-126176810D01*
X113596337Y-126176811D01*
X113850725Y-126260204D01*
X113850731Y-126260205D01*
X113851126Y-126260335D01*
X113851535Y-126260406D01*
X113851539Y-126260407D01*
X114056804Y-126296047D01*
X114115717Y-126306276D01*
X114149349Y-126307950D01*
X114200421Y-126310493D01*
X114200431Y-126310493D01*
X114200567Y-126310500D01*
X114368223Y-126310500D01*
X114368424Y-126310485D01*
X114368436Y-126310485D01*
X114524005Y-126299197D01*
X114567846Y-126296016D01*
X114568260Y-126295925D01*
X114568264Y-126295924D01*
X114829665Y-126238212D01*
X114829670Y-126238211D01*
X114830080Y-126238120D01*
X115081211Y-126142975D01*
X115315976Y-126012574D01*
X115529458Y-125849650D01*
X115717185Y-125657614D01*
X115875225Y-125440491D01*
X116000265Y-125202828D01*
X116089688Y-124949603D01*
X116125119Y-124769844D01*
X116141539Y-124686533D01*
X116141620Y-124686122D01*
X116150042Y-124516950D01*
X116150781Y-124502095D01*
X125145028Y-124502095D01*
X125145068Y-124502513D01*
X125145068Y-124502518D01*
X125162625Y-124686533D01*
X125170534Y-124769431D01*
X125234364Y-125030285D01*
X125234522Y-125030675D01*
X125304086Y-125202419D01*
X125335182Y-125279192D01*
X125470875Y-125510938D01*
X125471139Y-125511268D01*
X125471141Y-125511271D01*
X125588419Y-125657920D01*
X125638601Y-125720669D01*
X125834846Y-125903991D01*
X126055499Y-126057064D01*
X126055876Y-126057251D01*
X126055875Y-126057251D01*
X126295557Y-126176491D01*
X126295563Y-126176494D01*
X126295938Y-126176680D01*
X126296335Y-126176810D01*
X126296337Y-126176811D01*
X126550725Y-126260204D01*
X126550731Y-126260205D01*
X126551126Y-126260335D01*
X126551535Y-126260406D01*
X126551539Y-126260407D01*
X126756804Y-126296047D01*
X126815717Y-126306276D01*
X126849349Y-126307950D01*
X126900421Y-126310493D01*
X126900431Y-126310493D01*
X126900567Y-126310500D01*
X127068223Y-126310500D01*
X127068424Y-126310485D01*
X127068436Y-126310485D01*
X127224005Y-126299197D01*
X127267846Y-126296016D01*
X127268260Y-126295925D01*
X127268264Y-126295924D01*
X127529665Y-126238212D01*
X127529670Y-126238211D01*
X127530080Y-126238120D01*
X127781211Y-126142975D01*
X128015976Y-126012574D01*
X128229458Y-125849650D01*
X128417185Y-125657614D01*
X128575225Y-125440491D01*
X128700265Y-125202828D01*
X128789688Y-124949603D01*
X128825119Y-124769844D01*
X128841539Y-124686533D01*
X128841620Y-124686122D01*
X128850042Y-124516950D01*
X128850124Y-124515305D01*
X149606000Y-124515305D01*
X149606682Y-124516950D01*
X149607777Y-124517404D01*
X149634837Y-124513938D01*
X149635767Y-124513740D01*
X149674582Y-124502095D01*
X153085028Y-124502095D01*
X153085068Y-124502513D01*
X153085068Y-124502518D01*
X153102625Y-124686533D01*
X153110534Y-124769431D01*
X153174364Y-125030285D01*
X153174522Y-125030675D01*
X153244086Y-125202419D01*
X153275182Y-125279192D01*
X153410875Y-125510938D01*
X153411139Y-125511268D01*
X153411141Y-125511271D01*
X153528419Y-125657920D01*
X153578601Y-125720669D01*
X153774846Y-125903991D01*
X153995499Y-126057064D01*
X153995876Y-126057251D01*
X153995875Y-126057251D01*
X154235557Y-126176491D01*
X154235563Y-126176494D01*
X154235938Y-126176680D01*
X154236335Y-126176810D01*
X154236337Y-126176811D01*
X154490725Y-126260204D01*
X154490731Y-126260205D01*
X154491126Y-126260335D01*
X154491535Y-126260406D01*
X154491539Y-126260407D01*
X154696804Y-126296047D01*
X154755717Y-126306276D01*
X154789349Y-126307950D01*
X154840421Y-126310493D01*
X154840431Y-126310493D01*
X154840567Y-126310500D01*
X155008223Y-126310500D01*
X155008424Y-126310485D01*
X155008436Y-126310485D01*
X155164005Y-126299197D01*
X155207846Y-126296016D01*
X155208260Y-126295925D01*
X155208264Y-126295924D01*
X155469665Y-126238212D01*
X155469670Y-126238211D01*
X155470080Y-126238120D01*
X155721211Y-126142975D01*
X155955976Y-126012574D01*
X156169458Y-125849650D01*
X156357185Y-125657614D01*
X156515225Y-125440491D01*
X156640265Y-125202828D01*
X156729688Y-124949603D01*
X156765119Y-124769844D01*
X156781539Y-124686533D01*
X156781620Y-124686122D01*
X156790042Y-124516950D01*
X156790781Y-124502095D01*
X165785028Y-124502095D01*
X165785068Y-124502513D01*
X165785068Y-124502518D01*
X165802625Y-124686533D01*
X165810534Y-124769431D01*
X165874364Y-125030285D01*
X165874522Y-125030675D01*
X165944086Y-125202419D01*
X165975182Y-125279192D01*
X166110875Y-125510938D01*
X166111139Y-125511268D01*
X166111141Y-125511271D01*
X166228419Y-125657920D01*
X166278601Y-125720669D01*
X166474846Y-125903991D01*
X166695499Y-126057064D01*
X166695876Y-126057251D01*
X166695875Y-126057251D01*
X166935557Y-126176491D01*
X166935563Y-126176494D01*
X166935938Y-126176680D01*
X166936335Y-126176810D01*
X166936337Y-126176811D01*
X167190725Y-126260204D01*
X167190731Y-126260205D01*
X167191126Y-126260335D01*
X167191535Y-126260406D01*
X167191539Y-126260407D01*
X167396804Y-126296047D01*
X167455717Y-126306276D01*
X167489349Y-126307950D01*
X167540421Y-126310493D01*
X167540431Y-126310493D01*
X167540567Y-126310500D01*
X167708223Y-126310500D01*
X167708424Y-126310485D01*
X167708436Y-126310485D01*
X167864005Y-126299197D01*
X167907846Y-126296016D01*
X167908260Y-126295925D01*
X167908264Y-126295924D01*
X168169665Y-126238212D01*
X168169670Y-126238211D01*
X168170080Y-126238120D01*
X168421211Y-126142975D01*
X168655976Y-126012574D01*
X168869458Y-125849650D01*
X169057185Y-125657614D01*
X169215225Y-125440491D01*
X169340265Y-125202828D01*
X169429688Y-124949603D01*
X169465119Y-124769844D01*
X169481539Y-124686533D01*
X169481620Y-124686122D01*
X169490042Y-124516950D01*
X169494951Y-124418325D01*
X169494972Y-124417905D01*
X169494185Y-124409648D01*
X169469507Y-124150996D01*
X169469506Y-124150992D01*
X169469466Y-124150569D01*
X169405636Y-123889715D01*
X169367249Y-123794942D01*
X169304975Y-123641195D01*
X169304974Y-123641192D01*
X169304818Y-123640808D01*
X169169125Y-123409062D01*
X169149998Y-123385144D01*
X169001668Y-123199667D01*
X169001666Y-123199665D01*
X169001399Y-123199331D01*
X168805154Y-123016009D01*
X168584501Y-122862936D01*
X168535909Y-122838762D01*
X168344443Y-122743509D01*
X168344437Y-122743506D01*
X168344062Y-122743320D01*
X168343665Y-122743190D01*
X168343663Y-122743189D01*
X168089275Y-122659796D01*
X168089269Y-122659795D01*
X168088874Y-122659665D01*
X168088465Y-122659594D01*
X168088461Y-122659593D01*
X167824623Y-122613783D01*
X167824622Y-122613783D01*
X167824283Y-122613724D01*
X167790651Y-122612050D01*
X167739579Y-122609507D01*
X167739569Y-122609507D01*
X167739433Y-122609500D01*
X167571777Y-122609500D01*
X167571576Y-122609515D01*
X167571564Y-122609515D01*
X167415995Y-122620803D01*
X167372154Y-122623984D01*
X167371740Y-122624075D01*
X167371736Y-122624076D01*
X167110335Y-122681788D01*
X167110330Y-122681789D01*
X167109920Y-122681880D01*
X166858789Y-122777025D01*
X166624024Y-122907426D01*
X166410542Y-123070350D01*
X166222815Y-123262386D01*
X166064775Y-123479509D01*
X165939735Y-123717172D01*
X165850312Y-123970397D01*
X165850230Y-123970811D01*
X165850229Y-123970816D01*
X165813950Y-124154883D01*
X165798380Y-124233878D01*
X165785028Y-124502095D01*
X156790781Y-124502095D01*
X156794951Y-124418325D01*
X156794972Y-124417905D01*
X156794185Y-124409648D01*
X156769507Y-124150996D01*
X156769506Y-124150992D01*
X156769466Y-124150569D01*
X156705636Y-123889715D01*
X156667249Y-123794942D01*
X156604975Y-123641195D01*
X156604974Y-123641192D01*
X156604818Y-123640808D01*
X156469125Y-123409062D01*
X156449998Y-123385144D01*
X156301668Y-123199667D01*
X156301666Y-123199665D01*
X156301399Y-123199331D01*
X156105154Y-123016009D01*
X155884501Y-122862936D01*
X155835909Y-122838762D01*
X155644443Y-122743509D01*
X155644437Y-122743506D01*
X155644062Y-122743320D01*
X155643665Y-122743190D01*
X155643663Y-122743189D01*
X155389275Y-122659796D01*
X155389269Y-122659795D01*
X155388874Y-122659665D01*
X155388465Y-122659594D01*
X155388461Y-122659593D01*
X155124623Y-122613783D01*
X155124622Y-122613783D01*
X155124283Y-122613724D01*
X155090651Y-122612050D01*
X155039579Y-122609507D01*
X155039569Y-122609507D01*
X155039433Y-122609500D01*
X154871777Y-122609500D01*
X154871576Y-122609515D01*
X154871564Y-122609515D01*
X154715995Y-122620803D01*
X154672154Y-122623984D01*
X154671740Y-122624075D01*
X154671736Y-122624076D01*
X154410335Y-122681788D01*
X154410330Y-122681789D01*
X154409920Y-122681880D01*
X154158789Y-122777025D01*
X153924024Y-122907426D01*
X153710542Y-123070350D01*
X153522815Y-123262386D01*
X153364775Y-123479509D01*
X153239735Y-123717172D01*
X153150312Y-123970397D01*
X153150230Y-123970811D01*
X153150229Y-123970816D01*
X153113950Y-124154883D01*
X153098380Y-124233878D01*
X153085028Y-124502095D01*
X149674582Y-124502095D01*
X149848747Y-124449843D01*
X149849629Y-124449497D01*
X150049306Y-124351676D01*
X150050128Y-124351186D01*
X150231150Y-124222066D01*
X150231869Y-124221458D01*
X150389377Y-124064498D01*
X150389994Y-124063772D01*
X150519739Y-123883212D01*
X150520235Y-123882388D01*
X150618754Y-123683051D01*
X150619102Y-123682173D01*
X150683741Y-123469419D01*
X150683942Y-123468489D01*
X150688047Y-123437306D01*
X150687587Y-123435588D01*
X150686569Y-123435000D01*
X149608327Y-123435000D01*
X149606682Y-123435682D01*
X149606000Y-123437327D01*
X149606000Y-124515305D01*
X128850124Y-124515305D01*
X128854951Y-124418325D01*
X128854972Y-124417905D01*
X128854185Y-124409648D01*
X128829507Y-124150996D01*
X128829506Y-124150992D01*
X128829466Y-124150569D01*
X128765636Y-123889715D01*
X128727249Y-123794942D01*
X128664975Y-123641195D01*
X128664974Y-123641192D01*
X128664818Y-123640808D01*
X128545195Y-123436507D01*
X148017450Y-123436507D01*
X148051595Y-123588017D01*
X148051884Y-123588940D01*
X148135532Y-123794942D01*
X148135966Y-123795801D01*
X148252141Y-123985382D01*
X148252709Y-123986156D01*
X148398286Y-124154215D01*
X148398967Y-124154883D01*
X148570047Y-124296916D01*
X148570826Y-124297462D01*
X148762810Y-124409648D01*
X148763660Y-124410055D01*
X148971384Y-124489377D01*
X148972301Y-124489643D01*
X149095719Y-124514753D01*
X149097468Y-124514413D01*
X149098000Y-124513624D01*
X149098000Y-123437327D01*
X149097318Y-123435682D01*
X149095673Y-123435000D01*
X148019437Y-123435000D01*
X148017792Y-123435682D01*
X148017450Y-123436507D01*
X128545195Y-123436507D01*
X128529125Y-123409062D01*
X128509998Y-123385144D01*
X128361668Y-123199667D01*
X128361666Y-123199665D01*
X128361399Y-123199331D01*
X128165154Y-123016009D01*
X127944501Y-122862936D01*
X127895909Y-122838762D01*
X127704443Y-122743509D01*
X127704437Y-122743506D01*
X127704062Y-122743320D01*
X127703665Y-122743190D01*
X127703663Y-122743189D01*
X127517008Y-122682000D01*
X134014318Y-122682000D01*
X134034956Y-122838762D01*
X134095464Y-122984841D01*
X134191718Y-123110282D01*
X134317159Y-123206536D01*
X134463238Y-123267044D01*
X134620000Y-123287682D01*
X134776762Y-123267044D01*
X134922841Y-123206536D01*
X135048282Y-123110282D01*
X135144536Y-122984841D01*
X135205044Y-122838762D01*
X135210147Y-122800000D01*
X141126318Y-122800000D01*
X141146956Y-122956762D01*
X141207464Y-123102841D01*
X141207935Y-123103454D01*
X141207935Y-123103455D01*
X141213174Y-123110282D01*
X141303718Y-123228282D01*
X141429159Y-123324536D01*
X141575238Y-123385044D01*
X141732000Y-123405682D01*
X141888762Y-123385044D01*
X142034841Y-123324536D01*
X142160282Y-123228282D01*
X142250826Y-123110282D01*
X142256065Y-123103455D01*
X142256065Y-123103454D01*
X142256536Y-123102841D01*
X142317044Y-122956762D01*
X142321228Y-122924979D01*
X148013672Y-122924979D01*
X148014088Y-122926394D01*
X148015199Y-122927000D01*
X149095673Y-122927000D01*
X149097318Y-122926318D01*
X149098000Y-122924673D01*
X149606000Y-122924673D01*
X149606682Y-122926318D01*
X149608327Y-122927000D01*
X150686132Y-122927000D01*
X150687777Y-122926318D01*
X150688095Y-122925551D01*
X150642072Y-122742329D01*
X150641765Y-122741427D01*
X150553104Y-122537518D01*
X150552651Y-122536674D01*
X150431877Y-122349986D01*
X150431294Y-122349228D01*
X150281651Y-122184773D01*
X150280951Y-122184120D01*
X150106454Y-122046312D01*
X150105665Y-122045787D01*
X149911004Y-121938328D01*
X149910132Y-121937936D01*
X149700539Y-121863715D01*
X149699609Y-121863469D01*
X149608290Y-121847203D01*
X149606551Y-121847585D01*
X149606000Y-121848447D01*
X149606000Y-122924673D01*
X149098000Y-122924673D01*
X149098000Y-121848314D01*
X149097318Y-121846669D01*
X149096301Y-121846247D01*
X149036688Y-121855370D01*
X149035749Y-121855593D01*
X148824403Y-121924671D01*
X148823526Y-121925040D01*
X148626304Y-122027707D01*
X148625487Y-122028222D01*
X148447683Y-122161721D01*
X148446966Y-122162357D01*
X148293350Y-122323108D01*
X148292748Y-122323852D01*
X148167452Y-122507528D01*
X148166975Y-122508367D01*
X148073363Y-122710038D01*
X148073029Y-122710945D01*
X148013672Y-122924979D01*
X142321228Y-122924979D01*
X142337682Y-122800000D01*
X142317044Y-122643238D01*
X142256536Y-122497159D01*
X142160282Y-122371718D01*
X142034841Y-122275464D01*
X141888762Y-122214956D01*
X141732000Y-122194318D01*
X141575238Y-122214956D01*
X141429159Y-122275464D01*
X141303718Y-122371718D01*
X141207464Y-122497159D01*
X141146956Y-122643238D01*
X141126318Y-122800000D01*
X135210147Y-122800000D01*
X135225682Y-122682000D01*
X135205044Y-122525238D01*
X135144536Y-122379159D01*
X135139295Y-122372328D01*
X135048750Y-122254328D01*
X135048282Y-122253718D01*
X134922841Y-122157464D01*
X134776762Y-122096956D01*
X134620000Y-122076318D01*
X134463238Y-122096956D01*
X134317159Y-122157464D01*
X134191718Y-122253718D01*
X134191250Y-122254328D01*
X134100706Y-122372328D01*
X134095464Y-122379159D01*
X134034956Y-122525238D01*
X134014318Y-122682000D01*
X127517008Y-122682000D01*
X127449275Y-122659796D01*
X127449269Y-122659795D01*
X127448874Y-122659665D01*
X127448465Y-122659594D01*
X127448461Y-122659593D01*
X127184623Y-122613783D01*
X127184622Y-122613783D01*
X127184283Y-122613724D01*
X127150651Y-122612050D01*
X127099579Y-122609507D01*
X127099569Y-122609507D01*
X127099433Y-122609500D01*
X126931777Y-122609500D01*
X126931576Y-122609515D01*
X126931564Y-122609515D01*
X126775995Y-122620803D01*
X126732154Y-122623984D01*
X126731740Y-122624075D01*
X126731736Y-122624076D01*
X126470335Y-122681788D01*
X126470330Y-122681789D01*
X126469920Y-122681880D01*
X126218789Y-122777025D01*
X125984024Y-122907426D01*
X125770542Y-123070350D01*
X125582815Y-123262386D01*
X125424775Y-123479509D01*
X125299735Y-123717172D01*
X125210312Y-123970397D01*
X125210230Y-123970811D01*
X125210229Y-123970816D01*
X125173950Y-124154883D01*
X125158380Y-124233878D01*
X125145028Y-124502095D01*
X116150781Y-124502095D01*
X116154951Y-124418325D01*
X116154972Y-124417905D01*
X116154185Y-124409648D01*
X116129507Y-124150996D01*
X116129506Y-124150992D01*
X116129466Y-124150569D01*
X116065636Y-123889715D01*
X116027249Y-123794942D01*
X115964975Y-123641195D01*
X115964974Y-123641192D01*
X115964818Y-123640808D01*
X115829125Y-123409062D01*
X115809998Y-123385144D01*
X115661668Y-123199667D01*
X115661666Y-123199665D01*
X115661399Y-123199331D01*
X115465154Y-123016009D01*
X115244501Y-122862936D01*
X115195909Y-122838762D01*
X115004443Y-122743509D01*
X115004437Y-122743506D01*
X115004062Y-122743320D01*
X115003665Y-122743190D01*
X115003663Y-122743189D01*
X114749275Y-122659796D01*
X114749269Y-122659795D01*
X114748874Y-122659665D01*
X114748465Y-122659594D01*
X114748461Y-122659593D01*
X114484623Y-122613783D01*
X114484622Y-122613783D01*
X114484283Y-122613724D01*
X114450651Y-122612050D01*
X114399579Y-122609507D01*
X114399569Y-122609507D01*
X114399433Y-122609500D01*
X114231777Y-122609500D01*
X114231576Y-122609515D01*
X114231564Y-122609515D01*
X114075995Y-122620803D01*
X114032154Y-122623984D01*
X114031740Y-122624075D01*
X114031736Y-122624076D01*
X113770335Y-122681788D01*
X113770330Y-122681789D01*
X113769920Y-122681880D01*
X113518789Y-122777025D01*
X113284024Y-122907426D01*
X113070542Y-123070350D01*
X112882815Y-123262386D01*
X112724775Y-123479509D01*
X112599735Y-123717172D01*
X112510312Y-123970397D01*
X112510230Y-123970811D01*
X112510229Y-123970816D01*
X112473950Y-124154883D01*
X112458380Y-124233878D01*
X112445028Y-124502095D01*
X107875838Y-124502095D01*
X99577269Y-119253000D01*
X142777318Y-119253000D01*
X142797956Y-119409762D01*
X142858464Y-119555841D01*
X142858935Y-119556454D01*
X142858935Y-119556455D01*
X142911341Y-119624752D01*
X142954718Y-119681282D01*
X143080159Y-119777536D01*
X143226238Y-119838044D01*
X143383000Y-119858682D01*
X143401646Y-119856227D01*
X143410295Y-119858545D01*
X143414773Y-119866300D01*
X143414773Y-119869352D01*
X143412318Y-119888000D01*
X143412418Y-119888760D01*
X143413199Y-119894694D01*
X143432956Y-120044762D01*
X143493464Y-120190841D01*
X143493935Y-120191454D01*
X143493935Y-120191455D01*
X143547517Y-120261285D01*
X143589718Y-120316282D01*
X143715159Y-120412536D01*
X143861238Y-120473044D01*
X144018000Y-120493682D01*
X144174762Y-120473044D01*
X144320841Y-120412536D01*
X144446282Y-120316282D01*
X144488483Y-120261285D01*
X144542065Y-120191455D01*
X144542065Y-120191454D01*
X144542536Y-120190841D01*
X144603044Y-120044762D01*
X144622801Y-119894694D01*
X144623582Y-119888760D01*
X144623682Y-119888000D01*
X144603832Y-119737220D01*
X149611538Y-119737220D01*
X149632176Y-119893982D01*
X149692684Y-120040061D01*
X149693155Y-120040674D01*
X149693155Y-120040675D01*
X149702169Y-120052422D01*
X149788938Y-120165502D01*
X149914379Y-120261756D01*
X150060458Y-120322264D01*
X150217220Y-120342902D01*
X150373982Y-120322264D01*
X150520061Y-120261756D01*
X150587646Y-120209896D01*
X158064964Y-120209896D01*
X158085602Y-120366658D01*
X158146110Y-120512737D01*
X158242364Y-120638178D01*
X158367805Y-120734432D01*
X158513884Y-120794940D01*
X158670646Y-120815578D01*
X158827408Y-120794940D01*
X158973487Y-120734432D01*
X159098928Y-120638178D01*
X159195182Y-120512737D01*
X159255690Y-120366658D01*
X159276328Y-120209896D01*
X159255690Y-120053134D01*
X159195182Y-119907055D01*
X159179978Y-119887240D01*
X159099396Y-119782224D01*
X159098928Y-119781614D01*
X158973487Y-119685360D01*
X158827408Y-119624852D01*
X158670646Y-119604214D01*
X158513884Y-119624852D01*
X158367805Y-119685360D01*
X158242364Y-119781614D01*
X158241896Y-119782224D01*
X158161315Y-119887240D01*
X158146110Y-119907055D01*
X158085602Y-120053134D01*
X158064964Y-120209896D01*
X150587646Y-120209896D01*
X150645502Y-120165502D01*
X150732271Y-120052422D01*
X150741285Y-120040675D01*
X150741285Y-120040674D01*
X150741756Y-120040061D01*
X150802264Y-119893982D01*
X150822902Y-119737220D01*
X150822115Y-119731238D01*
X150819777Y-119713480D01*
X150802264Y-119580458D01*
X150741756Y-119434379D01*
X150645502Y-119308938D01*
X150520061Y-119212684D01*
X150373982Y-119152176D01*
X150217220Y-119131538D01*
X150060458Y-119152176D01*
X149914379Y-119212684D01*
X149788938Y-119308938D01*
X149692684Y-119434379D01*
X149632176Y-119580458D01*
X149614663Y-119713480D01*
X149612326Y-119731238D01*
X149611538Y-119737220D01*
X144603832Y-119737220D01*
X144603044Y-119731238D01*
X144542536Y-119585159D01*
X144538383Y-119579746D01*
X144446750Y-119460328D01*
X144446282Y-119459718D01*
X144320841Y-119363464D01*
X144174762Y-119302956D01*
X144018000Y-119282318D01*
X143999354Y-119284773D01*
X143990705Y-119282455D01*
X143986227Y-119274700D01*
X143986227Y-119271646D01*
X143988582Y-119253760D01*
X143988682Y-119253000D01*
X143968044Y-119096238D01*
X143907536Y-118950159D01*
X143811282Y-118824718D01*
X143685841Y-118728464D01*
X143539762Y-118667956D01*
X143383000Y-118647318D01*
X143226238Y-118667956D01*
X143080159Y-118728464D01*
X142954718Y-118824718D01*
X142858464Y-118950159D01*
X142797956Y-119096238D01*
X142777318Y-119253000D01*
X99577269Y-119253000D01*
X96477021Y-117292000D01*
X136136318Y-117292000D01*
X136156956Y-117448762D01*
X136217464Y-117594841D01*
X136313718Y-117720282D01*
X136439159Y-117816536D01*
X136585238Y-117877044D01*
X136742000Y-117897682D01*
X136898762Y-117877044D01*
X137044841Y-117816536D01*
X137170282Y-117720282D01*
X137261043Y-117602000D01*
X144428318Y-117602000D01*
X144448956Y-117758762D01*
X144509464Y-117904841D01*
X144605718Y-118030282D01*
X144731159Y-118126536D01*
X144877238Y-118187044D01*
X145034000Y-118207682D01*
X145190762Y-118187044D01*
X145336841Y-118126536D01*
X145462282Y-118030282D01*
X145558536Y-117904841D01*
X145619044Y-117758762D01*
X145639682Y-117602000D01*
X145619044Y-117445238D01*
X145558536Y-117299159D01*
X145462282Y-117173718D01*
X145336841Y-117077464D01*
X145190762Y-117016956D01*
X145034000Y-116996318D01*
X144877238Y-117016956D01*
X144731159Y-117077464D01*
X144605718Y-117173718D01*
X144509464Y-117299159D01*
X144448956Y-117445238D01*
X144428318Y-117602000D01*
X137261043Y-117602000D01*
X137266536Y-117594841D01*
X137327044Y-117448762D01*
X137347682Y-117292000D01*
X137327044Y-117135238D01*
X137266536Y-116989159D01*
X137170282Y-116863718D01*
X137044841Y-116767464D01*
X136898762Y-116706956D01*
X136742000Y-116686318D01*
X136585238Y-116706956D01*
X136439159Y-116767464D01*
X136313718Y-116863718D01*
X136217464Y-116989159D01*
X136156956Y-117135238D01*
X136136318Y-117292000D01*
X96477021Y-117292000D01*
X95513129Y-116682309D01*
X138511865Y-116682309D01*
X138512155Y-116683010D01*
X138631882Y-116749924D01*
X138632926Y-116750380D01*
X138829167Y-116814142D01*
X138830276Y-116814386D01*
X139035175Y-116838819D01*
X139036298Y-116838843D01*
X139242039Y-116823012D01*
X139243163Y-116822813D01*
X139441895Y-116767326D01*
X139442965Y-116766911D01*
X139604816Y-116685154D01*
X139605978Y-116683802D01*
X139605928Y-116683138D01*
X139059646Y-116136856D01*
X139058000Y-116136174D01*
X139056354Y-116136856D01*
X138512547Y-116680663D01*
X138511865Y-116682309D01*
X95513129Y-116682309D01*
X92809212Y-114972000D01*
X95733450Y-114972000D01*
X95752813Y-115193323D01*
X95752944Y-115193813D01*
X95752945Y-115193817D01*
X95800536Y-115371428D01*
X95810315Y-115407922D01*
X95810530Y-115408382D01*
X95810531Y-115408386D01*
X95828702Y-115447353D01*
X95904207Y-115609275D01*
X96031638Y-115791265D01*
X96188735Y-115948362D01*
X96370725Y-116075793D01*
X96387253Y-116083500D01*
X96571614Y-116169469D01*
X96571618Y-116169470D01*
X96572078Y-116169685D01*
X96572574Y-116169818D01*
X96572577Y-116169819D01*
X96786183Y-116227055D01*
X96786187Y-116227056D01*
X96786677Y-116227187D01*
X96787181Y-116227231D01*
X96787186Y-116227232D01*
X97007486Y-116246505D01*
X97008000Y-116246550D01*
X97008514Y-116246505D01*
X97228814Y-116227232D01*
X97228819Y-116227231D01*
X97229323Y-116227187D01*
X97229813Y-116227056D01*
X97229817Y-116227055D01*
X97443423Y-116169819D01*
X97443426Y-116169818D01*
X97443922Y-116169685D01*
X97444382Y-116169470D01*
X97444386Y-116169469D01*
X97628747Y-116083500D01*
X97645275Y-116075793D01*
X97827265Y-115948362D01*
X97984362Y-115791265D01*
X98005043Y-115761729D01*
X137995033Y-115761729D01*
X138012298Y-115967343D01*
X138012503Y-115968461D01*
X138069379Y-116166808D01*
X138069801Y-116167873D01*
X138149230Y-116322426D01*
X138150588Y-116323578D01*
X138151268Y-116323522D01*
X138697144Y-115777646D01*
X138697826Y-115776000D01*
X139418174Y-115776000D01*
X139418856Y-115777646D01*
X139962501Y-116321291D01*
X139964147Y-116321973D01*
X139964863Y-116321676D01*
X140028925Y-116208908D01*
X140029389Y-116207866D01*
X140043316Y-116166000D01*
X140344318Y-116166000D01*
X140364956Y-116322762D01*
X140425464Y-116468841D01*
X140521718Y-116594282D01*
X140647159Y-116690536D01*
X140793238Y-116751044D01*
X140950000Y-116771682D01*
X141106762Y-116751044D01*
X141252841Y-116690536D01*
X141378282Y-116594282D01*
X141448719Y-116502487D01*
X141456473Y-116498010D01*
X141465123Y-116500328D01*
X141467280Y-116502485D01*
X141537718Y-116594282D01*
X141663159Y-116690536D01*
X141809238Y-116751044D01*
X141966000Y-116771682D01*
X142122762Y-116751044D01*
X142268841Y-116690536D01*
X142279563Y-116682309D01*
X143311865Y-116682309D01*
X143312155Y-116683010D01*
X143431882Y-116749924D01*
X143432926Y-116750380D01*
X143629167Y-116814142D01*
X143630276Y-116814386D01*
X143835175Y-116838819D01*
X143836298Y-116838843D01*
X144042039Y-116823012D01*
X144043163Y-116822813D01*
X144241895Y-116767326D01*
X144242965Y-116766911D01*
X144404816Y-116685154D01*
X144405978Y-116683802D01*
X144405928Y-116683138D01*
X143859646Y-116136856D01*
X143858000Y-116136174D01*
X143856354Y-116136856D01*
X143312547Y-116680663D01*
X143311865Y-116682309D01*
X142279563Y-116682309D01*
X142394282Y-116594282D01*
X142490536Y-116468841D01*
X142551044Y-116322762D01*
X142571682Y-116166000D01*
X142551044Y-116009238D01*
X142490536Y-115863159D01*
X142412706Y-115761729D01*
X142795033Y-115761729D01*
X142812298Y-115967343D01*
X142812503Y-115968461D01*
X142869379Y-116166808D01*
X142869801Y-116167873D01*
X142949230Y-116322426D01*
X142950588Y-116323578D01*
X142951268Y-116323522D01*
X143497144Y-115777646D01*
X143497826Y-115776000D01*
X144218174Y-115776000D01*
X144218856Y-115777646D01*
X144762501Y-116321291D01*
X144764147Y-116321973D01*
X144764863Y-116321676D01*
X144828925Y-116208908D01*
X144829389Y-116207866D01*
X144894521Y-116012071D01*
X144894771Y-116010969D01*
X144920664Y-115806012D01*
X144920710Y-115805352D01*
X144921114Y-115776332D01*
X144921086Y-115775666D01*
X144900928Y-115570078D01*
X144900707Y-115568958D01*
X144841068Y-115371428D01*
X144840630Y-115370365D01*
X144766122Y-115230237D01*
X144764747Y-115229103D01*
X144764039Y-115229171D01*
X144218856Y-115774354D01*
X144218174Y-115776000D01*
X143497826Y-115776000D01*
X143497144Y-115774354D01*
X142953136Y-115230346D01*
X142951490Y-115229664D01*
X142950804Y-115229948D01*
X142881123Y-115356696D01*
X142880677Y-115357737D01*
X142818286Y-115554420D01*
X142818049Y-115555533D01*
X142795049Y-115760586D01*
X142795033Y-115761729D01*
X142412706Y-115761729D01*
X142394282Y-115737718D01*
X142268841Y-115641464D01*
X142122762Y-115580956D01*
X141966000Y-115560318D01*
X141809238Y-115580956D01*
X141663159Y-115641464D01*
X141537718Y-115737718D01*
X141467282Y-115829513D01*
X141459527Y-115833990D01*
X141450877Y-115831672D01*
X141448718Y-115829513D01*
X141378282Y-115737718D01*
X141252841Y-115641464D01*
X141106762Y-115580956D01*
X140950000Y-115560318D01*
X140793238Y-115580956D01*
X140647159Y-115641464D01*
X140521718Y-115737718D01*
X140425464Y-115863159D01*
X140364956Y-116009238D01*
X140344318Y-116166000D01*
X140043316Y-116166000D01*
X140094521Y-116012071D01*
X140094771Y-116010969D01*
X140120664Y-115806012D01*
X140120710Y-115805352D01*
X140121114Y-115776332D01*
X140121086Y-115775666D01*
X140100928Y-115570078D01*
X140100707Y-115568958D01*
X140041068Y-115371428D01*
X140040630Y-115370365D01*
X139966122Y-115230237D01*
X139964747Y-115229103D01*
X139964039Y-115229171D01*
X139418856Y-115774354D01*
X139418174Y-115776000D01*
X138697826Y-115776000D01*
X138697144Y-115774354D01*
X138153136Y-115230346D01*
X138151490Y-115229664D01*
X138150804Y-115229948D01*
X138081123Y-115356696D01*
X138080677Y-115357737D01*
X138018286Y-115554420D01*
X138018049Y-115555533D01*
X137995049Y-115760586D01*
X137995033Y-115761729D01*
X98005043Y-115761729D01*
X98111793Y-115609275D01*
X98187298Y-115447353D01*
X98205469Y-115408386D01*
X98205470Y-115408382D01*
X98205685Y-115407922D01*
X98215464Y-115371428D01*
X98263055Y-115193817D01*
X98263056Y-115193813D01*
X98263187Y-115193323D01*
X98282550Y-114972000D01*
X98280015Y-114943019D01*
X98273534Y-114868940D01*
X138510782Y-114868940D01*
X138510844Y-114869634D01*
X139056354Y-115415144D01*
X139058000Y-115415826D01*
X139059646Y-115415144D01*
X139603895Y-114870895D01*
X139604577Y-114869249D01*
X139604449Y-114868940D01*
X143310782Y-114868940D01*
X143310844Y-114869634D01*
X143856354Y-115415144D01*
X143858000Y-115415826D01*
X143859646Y-115415144D01*
X144302790Y-114972000D01*
X184633450Y-114972000D01*
X184652813Y-115193323D01*
X184652944Y-115193813D01*
X184652945Y-115193817D01*
X184700536Y-115371428D01*
X184710315Y-115407922D01*
X184710530Y-115408382D01*
X184710531Y-115408386D01*
X184728702Y-115447353D01*
X184804207Y-115609275D01*
X184931638Y-115791265D01*
X185088735Y-115948362D01*
X185270725Y-116075793D01*
X185287253Y-116083500D01*
X185471614Y-116169469D01*
X185471618Y-116169470D01*
X185472078Y-116169685D01*
X185472574Y-116169818D01*
X185472577Y-116169819D01*
X185686183Y-116227055D01*
X185686187Y-116227056D01*
X185686677Y-116227187D01*
X185687181Y-116227231D01*
X185687186Y-116227232D01*
X185907486Y-116246505D01*
X185908000Y-116246550D01*
X185908514Y-116246505D01*
X186128814Y-116227232D01*
X186128819Y-116227231D01*
X186129323Y-116227187D01*
X186129813Y-116227056D01*
X186129817Y-116227055D01*
X186343423Y-116169819D01*
X186343426Y-116169818D01*
X186343922Y-116169685D01*
X186344382Y-116169470D01*
X186344386Y-116169469D01*
X186528747Y-116083500D01*
X186545275Y-116075793D01*
X186727265Y-115948362D01*
X186884362Y-115791265D01*
X187011793Y-115609275D01*
X187087298Y-115447353D01*
X187105469Y-115408386D01*
X187105470Y-115408382D01*
X187105685Y-115407922D01*
X187115464Y-115371428D01*
X187163055Y-115193817D01*
X187163056Y-115193813D01*
X187163187Y-115193323D01*
X187182550Y-114972000D01*
X187180015Y-114943019D01*
X187163232Y-114751186D01*
X187163231Y-114751181D01*
X187163187Y-114750677D01*
X187158092Y-114731660D01*
X187105819Y-114536577D01*
X187105818Y-114536574D01*
X187105685Y-114536078D01*
X187100407Y-114524758D01*
X187012010Y-114335191D01*
X187011793Y-114334725D01*
X186884362Y-114152735D01*
X186727265Y-113995638D01*
X186596130Y-113903816D01*
X186545698Y-113868503D01*
X186545696Y-113868502D01*
X186545275Y-113868207D01*
X186410636Y-113805424D01*
X186344386Y-113774531D01*
X186344382Y-113774530D01*
X186343922Y-113774315D01*
X186343426Y-113774182D01*
X186343423Y-113774181D01*
X186129817Y-113716945D01*
X186129813Y-113716944D01*
X186129323Y-113716813D01*
X186128819Y-113716769D01*
X186128814Y-113716768D01*
X185908514Y-113697495D01*
X185908000Y-113697450D01*
X185907486Y-113697495D01*
X185687186Y-113716768D01*
X185687181Y-113716769D01*
X185686677Y-113716813D01*
X185686187Y-113716944D01*
X185686183Y-113716945D01*
X185472577Y-113774181D01*
X185472574Y-113774182D01*
X185472078Y-113774315D01*
X185471618Y-113774530D01*
X185471614Y-113774531D01*
X185405364Y-113805424D01*
X185270725Y-113868207D01*
X185270304Y-113868502D01*
X185270302Y-113868503D01*
X185219870Y-113903816D01*
X185088735Y-113995638D01*
X184931638Y-114152735D01*
X184804207Y-114334725D01*
X184803990Y-114335191D01*
X184715594Y-114524758D01*
X184710315Y-114536078D01*
X184710182Y-114536574D01*
X184710181Y-114536577D01*
X184657909Y-114731660D01*
X184652813Y-114750677D01*
X184652769Y-114751181D01*
X184652768Y-114751186D01*
X184642467Y-114868940D01*
X184636127Y-114941407D01*
X184633450Y-114972000D01*
X144302790Y-114972000D01*
X144403895Y-114870895D01*
X144404577Y-114869249D01*
X144404299Y-114868577D01*
X144270482Y-114796224D01*
X144269425Y-114795780D01*
X144072313Y-114734763D01*
X144071204Y-114734536D01*
X143865993Y-114712967D01*
X143864851Y-114712959D01*
X143659364Y-114731660D01*
X143658238Y-114731875D01*
X143460295Y-114790132D01*
X143459247Y-114790555D01*
X143311923Y-114867574D01*
X143310782Y-114868940D01*
X139604449Y-114868940D01*
X139604299Y-114868577D01*
X139470482Y-114796224D01*
X139469425Y-114795780D01*
X139272313Y-114734763D01*
X139271204Y-114734536D01*
X139065993Y-114712967D01*
X139064851Y-114712959D01*
X138859364Y-114731660D01*
X138858238Y-114731875D01*
X138660295Y-114790132D01*
X138659247Y-114790555D01*
X138511923Y-114867574D01*
X138510782Y-114868940D01*
X98273534Y-114868940D01*
X98263232Y-114751186D01*
X98263231Y-114751181D01*
X98263187Y-114750677D01*
X98258092Y-114731660D01*
X98205819Y-114536577D01*
X98205818Y-114536574D01*
X98205685Y-114536078D01*
X98200407Y-114524758D01*
X98112010Y-114335191D01*
X98111793Y-114334725D01*
X97984362Y-114152735D01*
X97827265Y-113995638D01*
X97696130Y-113903816D01*
X97645698Y-113868503D01*
X97645696Y-113868502D01*
X97645275Y-113868207D01*
X97510636Y-113805424D01*
X97444386Y-113774531D01*
X97444382Y-113774530D01*
X97443922Y-113774315D01*
X97443426Y-113774182D01*
X97443423Y-113774181D01*
X97229817Y-113716945D01*
X97229813Y-113716944D01*
X97229323Y-113716813D01*
X97228819Y-113716769D01*
X97228814Y-113716768D01*
X97008514Y-113697495D01*
X97008000Y-113697450D01*
X97007486Y-113697495D01*
X96787186Y-113716768D01*
X96787181Y-113716769D01*
X96786677Y-113716813D01*
X96786187Y-113716944D01*
X96786183Y-113716945D01*
X96572577Y-113774181D01*
X96572574Y-113774182D01*
X96572078Y-113774315D01*
X96571618Y-113774530D01*
X96571614Y-113774531D01*
X96505364Y-113805424D01*
X96370725Y-113868207D01*
X96370304Y-113868502D01*
X96370302Y-113868503D01*
X96319870Y-113903816D01*
X96188735Y-113995638D01*
X96031638Y-114152735D01*
X95904207Y-114334725D01*
X95903990Y-114335191D01*
X95815594Y-114524758D01*
X95810315Y-114536078D01*
X95810182Y-114536574D01*
X95810181Y-114536577D01*
X95757909Y-114731660D01*
X95752813Y-114750677D01*
X95752769Y-114751181D01*
X95752768Y-114751186D01*
X95742467Y-114868940D01*
X95736127Y-114941407D01*
X95733450Y-114972000D01*
X92809212Y-114972000D01*
X92765946Y-114944633D01*
X92760786Y-114937314D01*
X92760500Y-114934745D01*
X92760500Y-113626000D01*
X137122491Y-113626000D01*
X137142442Y-113777541D01*
X137200934Y-113918754D01*
X137293983Y-114040017D01*
X137415246Y-114133066D01*
X137556459Y-114191558D01*
X137669953Y-114206500D01*
X137746047Y-114206500D01*
X137859541Y-114191558D01*
X138000754Y-114133066D01*
X138122017Y-114040017D01*
X138215066Y-113918755D01*
X138273558Y-113777541D01*
X138288999Y-113660257D01*
X144453495Y-113660257D01*
X144482765Y-113805424D01*
X144483127Y-113806135D01*
X144483128Y-113806137D01*
X144540821Y-113919365D01*
X144549996Y-113937371D01*
X144550538Y-113937960D01*
X144550539Y-113937962D01*
X144644811Y-114040482D01*
X144650233Y-114046378D01*
X144776092Y-114124414D01*
X144776855Y-114124636D01*
X144776858Y-114124637D01*
X144868184Y-114151169D01*
X144918300Y-114165729D01*
X144918901Y-114165773D01*
X144918906Y-114165774D01*
X144928603Y-114166486D01*
X144928613Y-114166486D01*
X144928799Y-114166500D01*
X145455099Y-114166500D01*
X145530726Y-114156140D01*
X145563931Y-114151592D01*
X145563932Y-114151592D01*
X145564718Y-114151484D01*
X145565444Y-114151170D01*
X145565447Y-114151169D01*
X145643943Y-114117200D01*
X145700626Y-114092671D01*
X145815712Y-113999477D01*
X145818441Y-113995638D01*
X145901033Y-113879419D01*
X145901497Y-113878766D01*
X145951660Y-113739433D01*
X145959934Y-113626760D01*
X145962447Y-113592538D01*
X145962447Y-113592535D01*
X145962505Y-113591743D01*
X145933235Y-113446576D01*
X145895533Y-113372581D01*
X145866367Y-113315341D01*
X145866366Y-113315340D01*
X145866004Y-113314629D01*
X145858346Y-113306300D01*
X145766309Y-113206211D01*
X145766307Y-113206210D01*
X145765767Y-113205622D01*
X145639908Y-113127586D01*
X145639145Y-113127364D01*
X145639142Y-113127363D01*
X145499431Y-113086774D01*
X145497700Y-113086271D01*
X145497099Y-113086227D01*
X145497094Y-113086226D01*
X145487397Y-113085514D01*
X145487387Y-113085514D01*
X145487201Y-113085500D01*
X144960901Y-113085500D01*
X144885274Y-113095860D01*
X144852069Y-113100408D01*
X144852068Y-113100408D01*
X144851282Y-113100516D01*
X144850556Y-113100830D01*
X144850553Y-113100831D01*
X144788727Y-113127586D01*
X144715374Y-113159329D01*
X144600288Y-113252523D01*
X144599829Y-113253169D01*
X144599827Y-113253171D01*
X144554785Y-113316552D01*
X144514503Y-113373234D01*
X144464340Y-113512567D01*
X144464282Y-113513362D01*
X144456011Y-113626000D01*
X144453495Y-113660257D01*
X138288999Y-113660257D01*
X138293509Y-113626000D01*
X138273558Y-113474459D01*
X138215066Y-113333246D01*
X138122017Y-113211983D01*
X138000754Y-113118934D01*
X137859541Y-113060442D01*
X137746047Y-113045500D01*
X137669953Y-113045500D01*
X137556459Y-113060442D01*
X137415246Y-113118934D01*
X137293983Y-113211983D01*
X137200934Y-113333245D01*
X137142442Y-113474459D01*
X137122491Y-113626000D01*
X92760500Y-113626000D01*
X92760500Y-113191748D01*
X127707500Y-113191748D01*
X127707613Y-113192315D01*
X127707613Y-113192317D01*
X127711779Y-113213258D01*
X127719133Y-113250231D01*
X127763448Y-113316552D01*
X127829769Y-113360867D01*
X127830898Y-113361092D01*
X127830899Y-113361092D01*
X127887683Y-113372387D01*
X127887685Y-113372387D01*
X127888252Y-113372500D01*
X129627748Y-113372500D01*
X129628315Y-113372387D01*
X129628317Y-113372387D01*
X129685101Y-113361092D01*
X129685102Y-113361092D01*
X129686231Y-113360867D01*
X129752552Y-113316552D01*
X129796867Y-113250231D01*
X129804222Y-113213258D01*
X129808387Y-113192317D01*
X129808387Y-113192315D01*
X129808500Y-113191748D01*
X129808500Y-112382309D01*
X138511865Y-112382309D01*
X138512155Y-112383010D01*
X138631882Y-112449924D01*
X138632926Y-112450380D01*
X138829167Y-112514142D01*
X138830276Y-112514386D01*
X139035175Y-112538819D01*
X139036298Y-112538843D01*
X139242039Y-112523012D01*
X139243163Y-112522813D01*
X139441895Y-112467326D01*
X139442965Y-112466911D01*
X139604816Y-112385154D01*
X139605978Y-112383802D01*
X139605928Y-112383138D01*
X139605099Y-112382309D01*
X143311865Y-112382309D01*
X143312155Y-112383010D01*
X143431882Y-112449924D01*
X143432926Y-112450380D01*
X143629167Y-112514142D01*
X143630276Y-112514386D01*
X143835175Y-112538819D01*
X143836298Y-112538843D01*
X144042039Y-112523012D01*
X144043163Y-112522813D01*
X144241895Y-112467326D01*
X144242965Y-112466911D01*
X144404816Y-112385154D01*
X144405978Y-112383802D01*
X144405928Y-112383138D01*
X144330052Y-112307262D01*
X153102520Y-112307262D01*
X153119759Y-112512553D01*
X153119916Y-112513100D01*
X153119916Y-112513101D01*
X153132016Y-112555300D01*
X153176544Y-112710586D01*
X153270712Y-112893818D01*
X153398677Y-113055270D01*
X153399114Y-113055642D01*
X153399115Y-113055643D01*
X153434197Y-113085500D01*
X153555564Y-113188791D01*
X153735398Y-113289297D01*
X153735937Y-113289472D01*
X153735939Y-113289473D01*
X153811543Y-113314038D01*
X153931329Y-113352959D01*
X154135894Y-113377351D01*
X154136454Y-113377308D01*
X154136456Y-113377308D01*
X154340730Y-113361590D01*
X154340731Y-113361590D01*
X154341300Y-113361546D01*
X154539725Y-113306145D01*
X154573079Y-113289297D01*
X154644596Y-113253171D01*
X154723610Y-113213258D01*
X154724467Y-113212589D01*
X154832728Y-113128006D01*
X154885951Y-113086424D01*
X155020564Y-112930472D01*
X155122323Y-112751344D01*
X155135882Y-112710586D01*
X155187172Y-112556402D01*
X155187173Y-112556399D01*
X155187351Y-112555863D01*
X155213171Y-112351474D01*
X155213583Y-112322000D01*
X155193480Y-112116970D01*
X155189293Y-112103100D01*
X155134098Y-111920288D01*
X155134097Y-111920286D01*
X155133935Y-111919749D01*
X155037218Y-111737849D01*
X154907011Y-111578200D01*
X154748275Y-111446882D01*
X154732705Y-111438463D01*
X154567562Y-111349171D01*
X154567561Y-111349171D01*
X154567055Y-111348897D01*
X154370254Y-111287977D01*
X154165369Y-111266443D01*
X153960203Y-111285114D01*
X153949905Y-111288145D01*
X153763118Y-111343119D01*
X153763115Y-111343120D01*
X153762572Y-111343280D01*
X153762074Y-111343541D01*
X153762070Y-111343542D01*
X153580505Y-111438463D01*
X153580002Y-111438726D01*
X153579560Y-111439081D01*
X153579556Y-111439084D01*
X153419892Y-111567457D01*
X153419447Y-111567815D01*
X153419087Y-111568244D01*
X153419082Y-111568249D01*
X153299326Y-111710969D01*
X153287024Y-111725630D01*
X153286751Y-111726126D01*
X153286750Y-111726128D01*
X153280032Y-111738348D01*
X153187776Y-111906162D01*
X153187605Y-111906702D01*
X153187603Y-111906706D01*
X153138771Y-112060647D01*
X153125484Y-112102532D01*
X153125421Y-112103097D01*
X153125420Y-112103100D01*
X153123800Y-112117542D01*
X153102520Y-112307262D01*
X144330052Y-112307262D01*
X143859646Y-111836856D01*
X143858000Y-111836174D01*
X143856354Y-111836856D01*
X143312547Y-112380663D01*
X143311865Y-112382309D01*
X139605099Y-112382309D01*
X139059646Y-111836856D01*
X139058000Y-111836174D01*
X139056354Y-111836856D01*
X138512547Y-112380663D01*
X138511865Y-112382309D01*
X129808500Y-112382309D01*
X129808500Y-111461729D01*
X137995033Y-111461729D01*
X138012298Y-111667343D01*
X138012503Y-111668461D01*
X138069379Y-111866808D01*
X138069801Y-111867873D01*
X138149230Y-112022426D01*
X138150588Y-112023578D01*
X138151268Y-112023522D01*
X138697144Y-111477646D01*
X138697826Y-111476000D01*
X139418174Y-111476000D01*
X139418856Y-111477646D01*
X139962501Y-112021291D01*
X139964147Y-112021973D01*
X139964863Y-112021676D01*
X140028925Y-111908908D01*
X140029389Y-111907866D01*
X140094521Y-111712071D01*
X140094771Y-111710969D01*
X140120664Y-111506012D01*
X140120710Y-111505352D01*
X140121114Y-111476332D01*
X140121086Y-111475666D01*
X140119719Y-111461729D01*
X142795033Y-111461729D01*
X142812298Y-111667343D01*
X142812503Y-111668461D01*
X142869379Y-111866808D01*
X142869801Y-111867873D01*
X142949230Y-112022426D01*
X142950588Y-112023578D01*
X142951268Y-112023522D01*
X143497144Y-111477646D01*
X143497826Y-111476000D01*
X144218174Y-111476000D01*
X144218856Y-111477646D01*
X144762501Y-112021291D01*
X144764147Y-112021973D01*
X144764863Y-112021676D01*
X144828925Y-111908908D01*
X144829389Y-111907866D01*
X144894521Y-111712071D01*
X144894771Y-111710969D01*
X144920664Y-111506012D01*
X144920710Y-111505352D01*
X144921114Y-111476332D01*
X144921086Y-111475666D01*
X144900928Y-111270078D01*
X144900707Y-111268958D01*
X144854617Y-111116305D01*
X154412000Y-111116305D01*
X154412682Y-111117950D01*
X154413777Y-111118404D01*
X154440837Y-111114938D01*
X154441767Y-111114740D01*
X154654747Y-111050843D01*
X154655629Y-111050497D01*
X154855306Y-110952676D01*
X154856128Y-110952186D01*
X155037150Y-110823066D01*
X155037869Y-110822458D01*
X155195377Y-110665498D01*
X155195994Y-110664772D01*
X155325739Y-110484212D01*
X155326235Y-110483388D01*
X155424754Y-110284051D01*
X155425102Y-110283173D01*
X155489741Y-110070419D01*
X155489942Y-110069489D01*
X155494047Y-110038306D01*
X155493587Y-110036588D01*
X155492569Y-110036000D01*
X154414327Y-110036000D01*
X154412682Y-110036682D01*
X154412000Y-110038327D01*
X154412000Y-111116305D01*
X144854617Y-111116305D01*
X144841068Y-111071428D01*
X144840630Y-111070365D01*
X144766122Y-110930237D01*
X144764747Y-110929103D01*
X144764039Y-110929171D01*
X144218856Y-111474354D01*
X144218174Y-111476000D01*
X143497826Y-111476000D01*
X143497144Y-111474354D01*
X142953136Y-110930346D01*
X142951490Y-110929664D01*
X142950804Y-110929948D01*
X142881123Y-111056696D01*
X142880677Y-111057737D01*
X142818286Y-111254420D01*
X142818049Y-111255533D01*
X142795049Y-111460586D01*
X142795033Y-111461729D01*
X140119719Y-111461729D01*
X140100928Y-111270078D01*
X140100707Y-111268958D01*
X140041068Y-111071428D01*
X140040630Y-111070365D01*
X139966122Y-110930237D01*
X139964747Y-110929103D01*
X139964039Y-110929171D01*
X139418856Y-111474354D01*
X139418174Y-111476000D01*
X138697826Y-111476000D01*
X138697144Y-111474354D01*
X138153136Y-110930346D01*
X138151490Y-110929664D01*
X138150804Y-110929948D01*
X138081123Y-111056696D01*
X138080677Y-111057737D01*
X138018286Y-111254420D01*
X138018049Y-111255533D01*
X137995049Y-111460586D01*
X137995033Y-111461729D01*
X129808500Y-111461729D01*
X129808500Y-111452252D01*
X129796867Y-111393769D01*
X129752552Y-111327448D01*
X129693732Y-111288145D01*
X129687189Y-111283773D01*
X129686231Y-111283133D01*
X129685102Y-111282908D01*
X129685101Y-111282908D01*
X129628317Y-111271613D01*
X129628315Y-111271613D01*
X129627748Y-111271500D01*
X127888252Y-111271500D01*
X127887685Y-111271613D01*
X127887683Y-111271613D01*
X127830899Y-111282908D01*
X127830898Y-111282908D01*
X127829769Y-111283133D01*
X127828811Y-111283773D01*
X127822268Y-111288145D01*
X127763448Y-111327448D01*
X127719133Y-111393769D01*
X127707500Y-111452252D01*
X127707500Y-113191748D01*
X92760500Y-113191748D01*
X92760500Y-109767262D01*
X127702520Y-109767262D01*
X127719759Y-109972553D01*
X127776544Y-110170586D01*
X127776808Y-110171099D01*
X127834406Y-110283173D01*
X127870712Y-110353818D01*
X127998677Y-110515270D01*
X128155564Y-110648791D01*
X128335398Y-110749297D01*
X128335937Y-110749472D01*
X128335939Y-110749473D01*
X128418945Y-110776443D01*
X128531329Y-110812959D01*
X128735894Y-110837351D01*
X128736454Y-110837308D01*
X128736456Y-110837308D01*
X128940730Y-110821590D01*
X128940731Y-110821590D01*
X128941300Y-110821546D01*
X129139725Y-110766145D01*
X129160041Y-110755883D01*
X129323097Y-110673517D01*
X129323610Y-110673258D01*
X129333543Y-110665498D01*
X129433816Y-110587156D01*
X129457132Y-110568940D01*
X138510782Y-110568940D01*
X138510844Y-110569634D01*
X139056354Y-111115144D01*
X139058000Y-111115826D01*
X139059646Y-111115144D01*
X139603895Y-110570895D01*
X139604577Y-110569249D01*
X139604449Y-110568940D01*
X143310782Y-110568940D01*
X143310844Y-110569634D01*
X143856354Y-111115144D01*
X143858000Y-111115826D01*
X143859646Y-111115144D01*
X144403895Y-110570895D01*
X144404577Y-110569249D01*
X144404299Y-110568577D01*
X144270482Y-110496224D01*
X144269425Y-110495780D01*
X144072313Y-110434763D01*
X144071204Y-110434536D01*
X143865993Y-110412967D01*
X143864851Y-110412959D01*
X143659364Y-110431660D01*
X143658238Y-110431875D01*
X143460295Y-110490132D01*
X143459247Y-110490555D01*
X143311923Y-110567574D01*
X143310782Y-110568940D01*
X139604449Y-110568940D01*
X139604299Y-110568577D01*
X139470482Y-110496224D01*
X139469425Y-110495780D01*
X139272313Y-110434763D01*
X139271204Y-110434536D01*
X139065993Y-110412967D01*
X139064851Y-110412959D01*
X138859364Y-110431660D01*
X138858238Y-110431875D01*
X138660295Y-110490132D01*
X138659247Y-110490555D01*
X138511923Y-110567574D01*
X138510782Y-110568940D01*
X129457132Y-110568940D01*
X129485951Y-110546424D01*
X129534541Y-110490132D01*
X129620193Y-110390902D01*
X129620194Y-110390901D01*
X129620564Y-110390472D01*
X129681020Y-110284051D01*
X129722040Y-110211843D01*
X129722042Y-110211839D01*
X129722323Y-110211344D01*
X129729444Y-110189940D01*
X129780151Y-110037507D01*
X152823450Y-110037507D01*
X152857595Y-110189017D01*
X152857884Y-110189940D01*
X152941532Y-110395942D01*
X152941966Y-110396801D01*
X153058141Y-110586382D01*
X153058709Y-110587156D01*
X153204286Y-110755215D01*
X153204967Y-110755883D01*
X153376047Y-110897916D01*
X153376826Y-110898462D01*
X153568810Y-111010648D01*
X153569660Y-111011055D01*
X153777384Y-111090377D01*
X153778301Y-111090643D01*
X153901719Y-111115753D01*
X153903468Y-111115413D01*
X153904000Y-111114624D01*
X153904000Y-110038327D01*
X153903318Y-110036682D01*
X153901673Y-110036000D01*
X152825437Y-110036000D01*
X152823792Y-110036682D01*
X152823450Y-110037507D01*
X129780151Y-110037507D01*
X129787172Y-110016402D01*
X129787173Y-110016399D01*
X129787351Y-110015863D01*
X129813171Y-109811474D01*
X129813583Y-109782000D01*
X129793480Y-109576970D01*
X129789293Y-109563100D01*
X129778085Y-109525979D01*
X152819672Y-109525979D01*
X152820088Y-109527394D01*
X152821199Y-109528000D01*
X153901673Y-109528000D01*
X153903318Y-109527318D01*
X153904000Y-109525673D01*
X154412000Y-109525673D01*
X154412682Y-109527318D01*
X154414327Y-109528000D01*
X155492132Y-109528000D01*
X155493777Y-109527318D01*
X155494095Y-109526551D01*
X155448072Y-109343329D01*
X155447765Y-109342427D01*
X155359104Y-109138518D01*
X155358651Y-109137674D01*
X155237877Y-108950986D01*
X155237294Y-108950228D01*
X155087651Y-108785773D01*
X155086951Y-108785120D01*
X154912454Y-108647312D01*
X154911665Y-108646787D01*
X154717004Y-108539328D01*
X154716132Y-108538936D01*
X154506539Y-108464715D01*
X154505609Y-108464469D01*
X154414290Y-108448203D01*
X154412551Y-108448585D01*
X154412000Y-108449447D01*
X154412000Y-109525673D01*
X153904000Y-109525673D01*
X153904000Y-108449314D01*
X153903318Y-108447669D01*
X153902301Y-108447247D01*
X153842688Y-108456370D01*
X153841749Y-108456593D01*
X153630403Y-108525671D01*
X153629526Y-108526040D01*
X153432304Y-108628707D01*
X153431487Y-108629222D01*
X153253683Y-108762721D01*
X153252966Y-108763357D01*
X153099350Y-108924108D01*
X153098748Y-108924852D01*
X152973452Y-109108528D01*
X152972975Y-109109367D01*
X152879363Y-109311038D01*
X152879029Y-109311945D01*
X152819672Y-109525979D01*
X129778085Y-109525979D01*
X129734098Y-109380288D01*
X129734097Y-109380286D01*
X129733935Y-109379749D01*
X129637218Y-109197849D01*
X129507011Y-109038200D01*
X129348275Y-108906882D01*
X129332705Y-108898463D01*
X129167562Y-108809171D01*
X129167561Y-108809171D01*
X129167055Y-108808897D01*
X128970254Y-108747977D01*
X128765369Y-108726443D01*
X128560203Y-108745114D01*
X128549905Y-108748145D01*
X128363118Y-108803119D01*
X128363115Y-108803120D01*
X128362572Y-108803280D01*
X128362074Y-108803541D01*
X128362070Y-108803542D01*
X128276790Y-108848126D01*
X128180002Y-108898726D01*
X128179560Y-108899081D01*
X128179556Y-108899084D01*
X128019892Y-109027457D01*
X128019447Y-109027815D01*
X128019087Y-109028244D01*
X128019082Y-109028249D01*
X127983351Y-109070832D01*
X127887024Y-109185630D01*
X127886751Y-109186126D01*
X127886750Y-109186128D01*
X127880032Y-109198348D01*
X127787776Y-109366162D01*
X127787605Y-109366702D01*
X127787603Y-109366706D01*
X127783466Y-109379749D01*
X127725484Y-109562532D01*
X127725421Y-109563097D01*
X127725420Y-109563100D01*
X127723800Y-109577542D01*
X127702520Y-109767262D01*
X92760500Y-109767262D01*
X92760500Y-108546000D01*
X137550318Y-108546000D01*
X137570956Y-108702762D01*
X137631464Y-108848841D01*
X137727718Y-108974282D01*
X137853159Y-109070536D01*
X137999238Y-109131044D01*
X138156000Y-109151682D01*
X138312762Y-109131044D01*
X138458841Y-109070536D01*
X138584282Y-108974282D01*
X138680536Y-108848841D01*
X138741044Y-108702762D01*
X138761682Y-108546000D01*
X138741044Y-108389238D01*
X138680536Y-108243159D01*
X138584282Y-108117718D01*
X138458841Y-108021464D01*
X138312762Y-107960956D01*
X138156000Y-107940318D01*
X137999238Y-107960956D01*
X137853159Y-108021464D01*
X137727718Y-108117718D01*
X137631464Y-108243159D01*
X137570956Y-108389238D01*
X137550318Y-108546000D01*
X92760500Y-108546000D01*
X92760500Y-107227262D01*
X127702520Y-107227262D01*
X127719759Y-107432553D01*
X127776544Y-107630586D01*
X127870712Y-107813818D01*
X127998677Y-107975270D01*
X128155564Y-108108791D01*
X128335398Y-108209297D01*
X128335937Y-108209472D01*
X128335939Y-108209473D01*
X128418945Y-108236443D01*
X128531329Y-108272959D01*
X128735894Y-108297351D01*
X128736454Y-108297308D01*
X128736456Y-108297308D01*
X128940730Y-108281590D01*
X128940731Y-108281590D01*
X128941300Y-108281546D01*
X129139725Y-108226145D01*
X129173079Y-108209297D01*
X129323097Y-108133517D01*
X129323610Y-108133258D01*
X129343501Y-108117718D01*
X129374163Y-108093762D01*
X129485951Y-108006424D01*
X129620564Y-107850472D01*
X129722323Y-107671344D01*
X129735882Y-107630586D01*
X129787172Y-107476402D01*
X129787173Y-107476399D01*
X129787351Y-107475863D01*
X129813171Y-107271474D01*
X129813583Y-107242000D01*
X129812138Y-107227262D01*
X153102520Y-107227262D01*
X153119759Y-107432553D01*
X153176544Y-107630586D01*
X153270712Y-107813818D01*
X153398677Y-107975270D01*
X153555564Y-108108791D01*
X153735398Y-108209297D01*
X153735937Y-108209472D01*
X153735939Y-108209473D01*
X153818945Y-108236443D01*
X153931329Y-108272959D01*
X154135894Y-108297351D01*
X154136454Y-108297308D01*
X154136456Y-108297308D01*
X154340730Y-108281590D01*
X154340731Y-108281590D01*
X154341300Y-108281546D01*
X154539725Y-108226145D01*
X154573079Y-108209297D01*
X154723097Y-108133517D01*
X154723610Y-108133258D01*
X154743501Y-108117718D01*
X154774163Y-108093762D01*
X154885951Y-108006424D01*
X155020564Y-107850472D01*
X155122323Y-107671344D01*
X155135882Y-107630586D01*
X155187172Y-107476402D01*
X155187173Y-107476399D01*
X155187351Y-107475863D01*
X155213171Y-107271474D01*
X155213583Y-107242000D01*
X155193480Y-107036970D01*
X155189293Y-107023100D01*
X155134098Y-106840288D01*
X155134097Y-106840286D01*
X155133935Y-106839749D01*
X155037218Y-106657849D01*
X154907011Y-106498200D01*
X154748275Y-106366882D01*
X154732705Y-106358463D01*
X154567562Y-106269171D01*
X154567561Y-106269171D01*
X154567055Y-106268897D01*
X154370254Y-106207977D01*
X154165369Y-106186443D01*
X153960203Y-106205114D01*
X153949905Y-106208145D01*
X153763118Y-106263119D01*
X153763115Y-106263120D01*
X153762572Y-106263280D01*
X153762074Y-106263541D01*
X153762070Y-106263542D01*
X153580505Y-106358463D01*
X153580002Y-106358726D01*
X153579560Y-106359081D01*
X153579556Y-106359084D01*
X153419892Y-106487457D01*
X153419447Y-106487815D01*
X153419087Y-106488244D01*
X153419082Y-106488249D01*
X153287389Y-106645195D01*
X153287024Y-106645630D01*
X153286751Y-106646126D01*
X153286750Y-106646128D01*
X153280032Y-106658348D01*
X153187776Y-106826162D01*
X153187605Y-106826702D01*
X153187603Y-106826706D01*
X153183466Y-106839749D01*
X153125484Y-107022532D01*
X153125421Y-107023097D01*
X153125420Y-107023100D01*
X153123800Y-107037542D01*
X153102520Y-107227262D01*
X129812138Y-107227262D01*
X129793480Y-107036970D01*
X129789293Y-107023100D01*
X129734098Y-106840288D01*
X129734097Y-106840286D01*
X129733935Y-106839749D01*
X129637218Y-106657849D01*
X129507011Y-106498200D01*
X129348275Y-106366882D01*
X129332705Y-106358463D01*
X129167562Y-106269171D01*
X129167561Y-106269171D01*
X129167055Y-106268897D01*
X128970254Y-106207977D01*
X128765369Y-106186443D01*
X128560203Y-106205114D01*
X128549905Y-106208145D01*
X128363118Y-106263119D01*
X128363115Y-106263120D01*
X128362572Y-106263280D01*
X128362074Y-106263541D01*
X128362070Y-106263542D01*
X128180505Y-106358463D01*
X128180002Y-106358726D01*
X128179560Y-106359081D01*
X128179556Y-106359084D01*
X128019892Y-106487457D01*
X128019447Y-106487815D01*
X128019087Y-106488244D01*
X128019082Y-106488249D01*
X127887389Y-106645195D01*
X127887024Y-106645630D01*
X127886751Y-106646126D01*
X127886750Y-106646128D01*
X127880032Y-106658348D01*
X127787776Y-106826162D01*
X127787605Y-106826702D01*
X127787603Y-106826706D01*
X127783466Y-106839749D01*
X127725484Y-107022532D01*
X127725421Y-107023097D01*
X127725420Y-107023100D01*
X127723800Y-107037542D01*
X127702520Y-107227262D01*
X92760500Y-107227262D01*
X92760500Y-104687262D01*
X127702520Y-104687262D01*
X127719759Y-104892553D01*
X127776544Y-105090586D01*
X127870712Y-105273818D01*
X127998677Y-105435270D01*
X128155564Y-105568791D01*
X128335398Y-105669297D01*
X128335937Y-105669472D01*
X128335939Y-105669473D01*
X128418945Y-105696443D01*
X128531329Y-105732959D01*
X128735894Y-105757351D01*
X128736454Y-105757308D01*
X128736456Y-105757308D01*
X128940730Y-105741590D01*
X128940731Y-105741590D01*
X128941300Y-105741546D01*
X129139725Y-105686145D01*
X129173079Y-105669297D01*
X129323097Y-105593517D01*
X129323610Y-105593258D01*
X129485951Y-105466424D01*
X129620564Y-105310472D01*
X129722323Y-105131344D01*
X129735882Y-105090586D01*
X129787172Y-104936402D01*
X129787173Y-104936399D01*
X129787351Y-104935863D01*
X129813171Y-104731474D01*
X129813583Y-104702000D01*
X129812138Y-104687262D01*
X153102520Y-104687262D01*
X153119759Y-104892553D01*
X153176544Y-105090586D01*
X153270712Y-105273818D01*
X153398677Y-105435270D01*
X153555564Y-105568791D01*
X153735398Y-105669297D01*
X153735937Y-105669472D01*
X153735939Y-105669473D01*
X153818945Y-105696443D01*
X153931329Y-105732959D01*
X154135894Y-105757351D01*
X154136454Y-105757308D01*
X154136456Y-105757308D01*
X154340730Y-105741590D01*
X154340731Y-105741590D01*
X154341300Y-105741546D01*
X154539725Y-105686145D01*
X154573079Y-105669297D01*
X154723097Y-105593517D01*
X154723610Y-105593258D01*
X154885951Y-105466424D01*
X155020564Y-105310472D01*
X155122323Y-105131344D01*
X155135882Y-105090586D01*
X155187172Y-104936402D01*
X155187173Y-104936399D01*
X155187351Y-104935863D01*
X155213171Y-104731474D01*
X155213583Y-104702000D01*
X155193480Y-104496970D01*
X155189293Y-104483100D01*
X155134098Y-104300288D01*
X155134097Y-104300286D01*
X155133935Y-104299749D01*
X155037218Y-104117849D01*
X154907011Y-103958200D01*
X154748275Y-103826882D01*
X154732705Y-103818463D01*
X154567562Y-103729171D01*
X154567561Y-103729171D01*
X154567055Y-103728897D01*
X154370254Y-103667977D01*
X154165369Y-103646443D01*
X153960203Y-103665114D01*
X153949905Y-103668145D01*
X153763118Y-103723119D01*
X153763115Y-103723120D01*
X153762572Y-103723280D01*
X153762074Y-103723541D01*
X153762070Y-103723542D01*
X153580505Y-103818463D01*
X153580002Y-103818726D01*
X153579560Y-103819081D01*
X153579556Y-103819084D01*
X153419892Y-103947457D01*
X153419447Y-103947815D01*
X153419087Y-103948244D01*
X153419082Y-103948249D01*
X153287389Y-104105195D01*
X153287024Y-104105630D01*
X153286751Y-104106126D01*
X153286750Y-104106128D01*
X153280032Y-104118348D01*
X153187776Y-104286162D01*
X153187605Y-104286702D01*
X153187603Y-104286706D01*
X153183466Y-104299749D01*
X153125484Y-104482532D01*
X153125421Y-104483097D01*
X153125420Y-104483100D01*
X153123800Y-104497542D01*
X153102520Y-104687262D01*
X129812138Y-104687262D01*
X129793480Y-104496970D01*
X129789293Y-104483100D01*
X129734098Y-104300288D01*
X129734097Y-104300286D01*
X129733935Y-104299749D01*
X129637218Y-104117849D01*
X129507011Y-103958200D01*
X129348275Y-103826882D01*
X129332705Y-103818463D01*
X129167562Y-103729171D01*
X129167561Y-103729171D01*
X129167055Y-103728897D01*
X128970254Y-103667977D01*
X128765369Y-103646443D01*
X128560203Y-103665114D01*
X128549905Y-103668145D01*
X128363118Y-103723119D01*
X128363115Y-103723120D01*
X128362572Y-103723280D01*
X128362074Y-103723541D01*
X128362070Y-103723542D01*
X128180505Y-103818463D01*
X128180002Y-103818726D01*
X128179560Y-103819081D01*
X128179556Y-103819084D01*
X128019892Y-103947457D01*
X128019447Y-103947815D01*
X128019087Y-103948244D01*
X128019082Y-103948249D01*
X127887389Y-104105195D01*
X127887024Y-104105630D01*
X127886751Y-104106126D01*
X127886750Y-104106128D01*
X127880032Y-104118348D01*
X127787776Y-104286162D01*
X127787605Y-104286702D01*
X127787603Y-104286706D01*
X127783466Y-104299749D01*
X127725484Y-104482532D01*
X127725421Y-104483097D01*
X127725420Y-104483100D01*
X127723800Y-104497542D01*
X127702520Y-104687262D01*
X92760500Y-104687262D01*
X92760500Y-103496305D01*
X129012000Y-103496305D01*
X129012682Y-103497950D01*
X129013777Y-103498404D01*
X129040837Y-103494938D01*
X129041767Y-103494740D01*
X129254747Y-103430843D01*
X129255629Y-103430497D01*
X129455306Y-103332676D01*
X129456128Y-103332186D01*
X129637150Y-103203066D01*
X129637869Y-103202458D01*
X129795377Y-103045498D01*
X129795994Y-103044772D01*
X129858346Y-102958000D01*
X134756318Y-102958000D01*
X134756418Y-102958760D01*
X134757523Y-102967156D01*
X134776956Y-103114762D01*
X134837464Y-103260841D01*
X134933718Y-103386282D01*
X135059159Y-103482536D01*
X135205238Y-103543044D01*
X135362000Y-103563682D01*
X135518762Y-103543044D01*
X135664841Y-103482536D01*
X135790282Y-103386282D01*
X135886536Y-103260841D01*
X135947044Y-103114762D01*
X135966477Y-102967156D01*
X135967582Y-102958760D01*
X135967682Y-102958000D01*
X135947044Y-102801238D01*
X135886536Y-102655159D01*
X135790282Y-102529718D01*
X135664841Y-102433464D01*
X135518762Y-102372956D01*
X135362000Y-102352318D01*
X135205238Y-102372956D01*
X135059159Y-102433464D01*
X134933718Y-102529718D01*
X134837464Y-102655159D01*
X134776956Y-102801238D01*
X134756318Y-102958000D01*
X129858346Y-102958000D01*
X129925739Y-102864212D01*
X129926235Y-102863388D01*
X130024754Y-102664051D01*
X130025102Y-102663173D01*
X130089741Y-102450419D01*
X130089942Y-102449489D01*
X130094047Y-102418306D01*
X130093587Y-102416588D01*
X130092569Y-102416000D01*
X129014327Y-102416000D01*
X129012682Y-102416682D01*
X129012000Y-102418327D01*
X129012000Y-103496305D01*
X92760500Y-103496305D01*
X92760500Y-102417507D01*
X127423450Y-102417507D01*
X127457595Y-102569017D01*
X127457884Y-102569940D01*
X127541532Y-102775942D01*
X127541966Y-102776801D01*
X127658141Y-102966382D01*
X127658709Y-102967156D01*
X127804286Y-103135215D01*
X127804967Y-103135883D01*
X127976047Y-103277916D01*
X127976826Y-103278462D01*
X128168810Y-103390648D01*
X128169660Y-103391055D01*
X128377384Y-103470377D01*
X128378301Y-103470643D01*
X128501719Y-103495753D01*
X128503468Y-103495413D01*
X128504000Y-103494624D01*
X128504000Y-102418327D01*
X128503318Y-102416682D01*
X128501673Y-102416000D01*
X127425437Y-102416000D01*
X127423792Y-102416682D01*
X127423450Y-102417507D01*
X92760500Y-102417507D01*
X92760500Y-101942000D01*
X145678318Y-101942000D01*
X145698956Y-102098762D01*
X145759464Y-102244841D01*
X145855718Y-102370282D01*
X145981159Y-102466536D01*
X146127238Y-102527044D01*
X146284000Y-102547682D01*
X146440762Y-102527044D01*
X146586841Y-102466536D01*
X146712282Y-102370282D01*
X146808536Y-102244841D01*
X146848955Y-102147262D01*
X153102520Y-102147262D01*
X153119759Y-102352553D01*
X153176544Y-102550586D01*
X153176808Y-102551099D01*
X153234406Y-102663173D01*
X153270712Y-102733818D01*
X153398677Y-102895270D01*
X153555564Y-103028791D01*
X153735398Y-103129297D01*
X153735937Y-103129472D01*
X153735939Y-103129473D01*
X153818945Y-103156443D01*
X153931329Y-103192959D01*
X154135894Y-103217351D01*
X154136454Y-103217308D01*
X154136456Y-103217308D01*
X154340730Y-103201590D01*
X154340731Y-103201590D01*
X154341300Y-103201546D01*
X154539725Y-103146145D01*
X154560041Y-103135883D01*
X154723097Y-103053517D01*
X154723610Y-103053258D01*
X154733543Y-103045498D01*
X154833816Y-102967156D01*
X154885951Y-102926424D01*
X154913233Y-102894817D01*
X155020193Y-102770902D01*
X155020194Y-102770901D01*
X155020564Y-102770472D01*
X155081020Y-102664051D01*
X155122040Y-102591843D01*
X155122042Y-102591839D01*
X155122323Y-102591344D01*
X155129444Y-102569940D01*
X155187172Y-102396402D01*
X155187173Y-102396399D01*
X155187351Y-102395863D01*
X155213171Y-102191474D01*
X155213583Y-102162000D01*
X155193480Y-101956970D01*
X155189293Y-101943100D01*
X155134098Y-101760288D01*
X155134097Y-101760286D01*
X155133935Y-101759749D01*
X155037218Y-101577849D01*
X154907011Y-101418200D01*
X154748275Y-101286882D01*
X154732705Y-101278463D01*
X154567562Y-101189171D01*
X154567561Y-101189171D01*
X154567055Y-101188897D01*
X154370254Y-101127977D01*
X154165369Y-101106443D01*
X153960203Y-101125114D01*
X153949905Y-101128145D01*
X153763118Y-101183119D01*
X153763115Y-101183120D01*
X153762572Y-101183280D01*
X153762074Y-101183541D01*
X153762070Y-101183542D01*
X153647723Y-101243322D01*
X153580002Y-101278726D01*
X153579560Y-101279081D01*
X153579556Y-101279084D01*
X153443053Y-101388835D01*
X153419447Y-101407815D01*
X153419087Y-101408244D01*
X153419082Y-101408249D01*
X153327264Y-101517674D01*
X153287024Y-101565630D01*
X153286751Y-101566126D01*
X153286750Y-101566128D01*
X153280032Y-101578348D01*
X153187776Y-101746162D01*
X153187605Y-101746702D01*
X153187603Y-101746706D01*
X153138771Y-101900647D01*
X153125484Y-101942532D01*
X153125421Y-101943097D01*
X153125420Y-101943100D01*
X153107960Y-102098762D01*
X153102520Y-102147262D01*
X146848955Y-102147262D01*
X146869044Y-102098762D01*
X146889682Y-101942000D01*
X146869044Y-101785238D01*
X146808536Y-101639159D01*
X146785203Y-101608750D01*
X146715965Y-101518518D01*
X146712282Y-101513718D01*
X146586841Y-101417464D01*
X146440762Y-101356956D01*
X146284000Y-101336318D01*
X146127238Y-101356956D01*
X145981159Y-101417464D01*
X145855718Y-101513718D01*
X145852035Y-101518518D01*
X145782798Y-101608750D01*
X145759464Y-101639159D01*
X145698956Y-101785238D01*
X145678318Y-101942000D01*
X92760500Y-101942000D01*
X92760500Y-101905979D01*
X127419672Y-101905979D01*
X127420088Y-101907394D01*
X127421199Y-101908000D01*
X128501673Y-101908000D01*
X128503318Y-101907318D01*
X128504000Y-101905673D01*
X129012000Y-101905673D01*
X129012682Y-101907318D01*
X129014327Y-101908000D01*
X130092132Y-101908000D01*
X130093777Y-101907318D01*
X130094095Y-101906551D01*
X130048072Y-101723329D01*
X130047765Y-101722427D01*
X129959104Y-101518518D01*
X129958651Y-101517674D01*
X129837877Y-101330986D01*
X129837294Y-101330228D01*
X129700597Y-101180000D01*
X141106318Y-101180000D01*
X141126956Y-101336762D01*
X141187464Y-101482841D01*
X141187935Y-101483454D01*
X141187935Y-101483455D01*
X141211157Y-101513718D01*
X141283718Y-101608282D01*
X141409159Y-101704536D01*
X141555238Y-101765044D01*
X141712000Y-101785682D01*
X141868762Y-101765044D01*
X142014841Y-101704536D01*
X142140282Y-101608282D01*
X142212843Y-101513718D01*
X142236065Y-101483455D01*
X142236065Y-101483454D01*
X142236536Y-101482841D01*
X142297044Y-101336762D01*
X142317682Y-101180000D01*
X143138318Y-101180000D01*
X143158956Y-101336762D01*
X143219464Y-101482841D01*
X143219935Y-101483454D01*
X143219935Y-101483455D01*
X143243157Y-101513718D01*
X143315718Y-101608282D01*
X143441159Y-101704536D01*
X143587238Y-101765044D01*
X143744000Y-101785682D01*
X143900762Y-101765044D01*
X144046841Y-101704536D01*
X144172282Y-101608282D01*
X144244843Y-101513718D01*
X144268065Y-101483455D01*
X144268065Y-101483454D01*
X144268536Y-101482841D01*
X144329044Y-101336762D01*
X144341521Y-101241987D01*
X147081075Y-101241987D01*
X147081469Y-101242938D01*
X147151079Y-101291680D01*
X147151968Y-101292193D01*
X147358465Y-101388485D01*
X147359428Y-101388835D01*
X147579507Y-101447805D01*
X147580510Y-101447982D01*
X147807486Y-101467839D01*
X147808514Y-101467839D01*
X148035490Y-101447982D01*
X148036493Y-101447805D01*
X148256572Y-101388835D01*
X148257535Y-101388485D01*
X148464032Y-101292193D01*
X148464921Y-101291680D01*
X148533983Y-101243322D01*
X148534939Y-101241820D01*
X148534716Y-101240814D01*
X147809646Y-100515744D01*
X147808000Y-100515062D01*
X147806354Y-100515744D01*
X147081757Y-101240341D01*
X147081075Y-101241987D01*
X144341521Y-101241987D01*
X144349682Y-101180000D01*
X144329044Y-101023238D01*
X144268536Y-100877159D01*
X144172282Y-100751718D01*
X144075309Y-100677308D01*
X144047455Y-100655935D01*
X144047454Y-100655935D01*
X144046841Y-100655464D01*
X143900762Y-100594956D01*
X143744000Y-100574318D01*
X143587238Y-100594956D01*
X143441159Y-100655464D01*
X143440546Y-100655935D01*
X143440545Y-100655935D01*
X143412691Y-100677308D01*
X143315718Y-100751718D01*
X143219464Y-100877159D01*
X143158956Y-101023238D01*
X143138318Y-101180000D01*
X142317682Y-101180000D01*
X142297044Y-101023238D01*
X142236536Y-100877159D01*
X142140282Y-100751718D01*
X142043309Y-100677308D01*
X142015455Y-100655935D01*
X142015454Y-100655935D01*
X142014841Y-100655464D01*
X141868762Y-100594956D01*
X141712000Y-100574318D01*
X141555238Y-100594956D01*
X141409159Y-100655464D01*
X141408546Y-100655935D01*
X141408545Y-100655935D01*
X141380691Y-100677308D01*
X141283718Y-100751718D01*
X141187464Y-100877159D01*
X141126956Y-101023238D01*
X141106318Y-101180000D01*
X129700597Y-101180000D01*
X129687651Y-101165773D01*
X129686951Y-101165120D01*
X129512454Y-101027312D01*
X129511665Y-101026787D01*
X129317004Y-100919328D01*
X129316132Y-100918936D01*
X129106539Y-100844715D01*
X129105609Y-100844469D01*
X129014290Y-100828203D01*
X129012551Y-100828585D01*
X129012000Y-100829447D01*
X129012000Y-101905673D01*
X128504000Y-101905673D01*
X128504000Y-100829314D01*
X128503318Y-100827669D01*
X128502301Y-100827247D01*
X128442688Y-100836370D01*
X128441749Y-100836593D01*
X128230403Y-100905671D01*
X128229526Y-100906040D01*
X128032304Y-101008707D01*
X128031487Y-101009222D01*
X127853683Y-101142721D01*
X127852966Y-101143357D01*
X127699350Y-101304108D01*
X127698748Y-101304852D01*
X127573452Y-101488528D01*
X127572975Y-101489367D01*
X127479363Y-101691038D01*
X127479029Y-101691945D01*
X127419672Y-101905979D01*
X92760500Y-101905979D01*
X92760500Y-99607262D01*
X127702520Y-99607262D01*
X127719759Y-99812553D01*
X127776544Y-100010586D01*
X127776808Y-100011099D01*
X127851551Y-100156534D01*
X127870712Y-100193818D01*
X127998677Y-100355270D01*
X128155564Y-100488791D01*
X128335398Y-100589297D01*
X128335937Y-100589472D01*
X128335939Y-100589473D01*
X128416332Y-100615594D01*
X128531329Y-100652959D01*
X128735894Y-100677351D01*
X128736454Y-100677308D01*
X128736456Y-100677308D01*
X128940730Y-100661590D01*
X128940731Y-100661590D01*
X128941300Y-100661546D01*
X129139725Y-100606145D01*
X129145041Y-100603460D01*
X129252653Y-100549101D01*
X129323610Y-100513258D01*
X129350414Y-100492317D01*
X129374163Y-100473762D01*
X129485951Y-100386424D01*
X129620564Y-100230472D01*
X129663210Y-100155402D01*
X146495049Y-100155402D01*
X146514906Y-100382378D01*
X146515083Y-100383381D01*
X146574053Y-100603460D01*
X146574403Y-100604423D01*
X146670695Y-100810920D01*
X146671208Y-100811809D01*
X146719566Y-100880871D01*
X146721068Y-100881827D01*
X146722074Y-100881604D01*
X147447144Y-100156534D01*
X147447826Y-100154888D01*
X148168174Y-100154888D01*
X148168856Y-100156534D01*
X148893453Y-100881131D01*
X148895099Y-100881813D01*
X148896050Y-100881419D01*
X148944792Y-100811809D01*
X148945305Y-100810920D01*
X149041597Y-100604423D01*
X149041947Y-100603460D01*
X149071880Y-100491748D01*
X153107500Y-100491748D01*
X153107613Y-100492315D01*
X153107613Y-100492317D01*
X153111779Y-100513258D01*
X153119133Y-100550231D01*
X153119773Y-100551189D01*
X153141291Y-100583392D01*
X153163448Y-100616552D01*
X153229769Y-100660867D01*
X153230898Y-100661092D01*
X153230899Y-100661092D01*
X153287683Y-100672387D01*
X153287685Y-100672387D01*
X153288252Y-100672500D01*
X155027748Y-100672500D01*
X155028315Y-100672387D01*
X155028317Y-100672387D01*
X155085101Y-100661092D01*
X155085102Y-100661092D01*
X155086231Y-100660867D01*
X155152552Y-100616552D01*
X155174709Y-100583392D01*
X155196227Y-100551189D01*
X155196867Y-100550231D01*
X155204222Y-100513258D01*
X155208387Y-100492317D01*
X155208387Y-100492315D01*
X155208500Y-100491748D01*
X155208500Y-98752252D01*
X155196867Y-98693769D01*
X155152552Y-98627448D01*
X155093732Y-98588145D01*
X155087189Y-98583773D01*
X155086231Y-98583133D01*
X155085102Y-98582908D01*
X155085101Y-98582908D01*
X155028317Y-98571613D01*
X155028315Y-98571613D01*
X155027748Y-98571500D01*
X153288252Y-98571500D01*
X153287685Y-98571613D01*
X153287683Y-98571613D01*
X153230899Y-98582908D01*
X153230898Y-98582908D01*
X153229769Y-98583133D01*
X153228811Y-98583773D01*
X153222268Y-98588145D01*
X153163448Y-98627448D01*
X153119133Y-98693769D01*
X153107500Y-98752252D01*
X153107500Y-100491748D01*
X149071880Y-100491748D01*
X149100917Y-100383381D01*
X149101094Y-100382378D01*
X149120951Y-100155402D01*
X149120951Y-100154374D01*
X149101094Y-99927398D01*
X149100917Y-99926395D01*
X149041947Y-99706316D01*
X149041597Y-99705353D01*
X148945305Y-99498856D01*
X148944792Y-99497967D01*
X148896434Y-99428905D01*
X148894932Y-99427949D01*
X148893926Y-99428172D01*
X148168856Y-100153242D01*
X148168174Y-100154888D01*
X147447826Y-100154888D01*
X147447144Y-100153242D01*
X146722547Y-99428645D01*
X146720901Y-99427963D01*
X146719950Y-99428357D01*
X146671208Y-99497967D01*
X146670695Y-99498856D01*
X146574403Y-99705353D01*
X146574053Y-99706316D01*
X146515083Y-99926395D01*
X146514906Y-99927398D01*
X146495049Y-100154374D01*
X146495049Y-100155402D01*
X129663210Y-100155402D01*
X129722323Y-100051344D01*
X129735882Y-100010586D01*
X129787172Y-99856402D01*
X129787173Y-99856399D01*
X129787351Y-99855863D01*
X129813171Y-99651474D01*
X129813583Y-99622000D01*
X129793480Y-99416970D01*
X129789293Y-99403100D01*
X129734098Y-99220288D01*
X129734097Y-99220286D01*
X129733935Y-99219749D01*
X129653226Y-99067956D01*
X147081061Y-99067956D01*
X147081284Y-99068962D01*
X147806354Y-99794032D01*
X147808000Y-99794714D01*
X147809646Y-99794032D01*
X148534243Y-99069435D01*
X148534925Y-99067789D01*
X148534531Y-99066838D01*
X148464921Y-99018096D01*
X148464032Y-99017583D01*
X148257535Y-98921291D01*
X148256572Y-98920941D01*
X148036493Y-98861971D01*
X148035490Y-98861794D01*
X147808514Y-98841937D01*
X147807486Y-98841937D01*
X147580510Y-98861794D01*
X147579507Y-98861971D01*
X147359428Y-98920941D01*
X147358465Y-98921291D01*
X147151968Y-99017583D01*
X147151079Y-99018096D01*
X147082017Y-99066454D01*
X147081061Y-99067956D01*
X129653226Y-99067956D01*
X129637218Y-99037849D01*
X129507011Y-98878200D01*
X129348275Y-98746882D01*
X129332705Y-98738463D01*
X129167562Y-98649171D01*
X129167561Y-98649171D01*
X129167055Y-98648897D01*
X128970254Y-98587977D01*
X128765369Y-98566443D01*
X128560203Y-98585114D01*
X128509353Y-98600080D01*
X128363118Y-98643119D01*
X128363115Y-98643120D01*
X128362572Y-98643280D01*
X128362074Y-98643541D01*
X128362070Y-98643542D01*
X128180505Y-98738463D01*
X128180002Y-98738726D01*
X128179560Y-98739081D01*
X128179556Y-98739084D01*
X128019892Y-98867457D01*
X128019447Y-98867815D01*
X128019087Y-98868244D01*
X128019082Y-98868249D01*
X127974575Y-98921291D01*
X127887024Y-99025630D01*
X127886751Y-99026126D01*
X127886750Y-99026128D01*
X127880032Y-99038348D01*
X127787776Y-99206162D01*
X127787605Y-99206702D01*
X127787603Y-99206706D01*
X127783466Y-99219749D01*
X127725484Y-99402532D01*
X127725421Y-99403097D01*
X127725420Y-99403100D01*
X127702584Y-99606691D01*
X127702520Y-99607262D01*
X92760500Y-99607262D01*
X92760500Y-98474636D01*
X146807500Y-98474636D01*
X146819133Y-98533119D01*
X146863448Y-98599440D01*
X146929769Y-98643755D01*
X146930898Y-98643980D01*
X146930899Y-98643980D01*
X146987683Y-98655275D01*
X146987685Y-98655275D01*
X146988252Y-98655388D01*
X148627748Y-98655388D01*
X148628315Y-98655275D01*
X148628317Y-98655275D01*
X148685101Y-98643980D01*
X148685102Y-98643980D01*
X148686231Y-98643755D01*
X148752552Y-98599440D01*
X148796867Y-98533119D01*
X148808500Y-98474636D01*
X148808500Y-96972000D01*
X184633450Y-96972000D01*
X184633495Y-96972514D01*
X184646887Y-97125582D01*
X184652813Y-97193323D01*
X184652944Y-97193813D01*
X184652945Y-97193817D01*
X184687258Y-97321874D01*
X184710315Y-97407922D01*
X184804207Y-97609275D01*
X184804502Y-97609696D01*
X184804503Y-97609698D01*
X184815050Y-97624760D01*
X184931638Y-97791265D01*
X185088735Y-97948362D01*
X185270725Y-98075793D01*
X185287253Y-98083500D01*
X185471614Y-98169469D01*
X185471618Y-98169470D01*
X185472078Y-98169685D01*
X185472574Y-98169818D01*
X185472577Y-98169819D01*
X185686183Y-98227055D01*
X185686187Y-98227056D01*
X185686677Y-98227187D01*
X185687181Y-98227231D01*
X185687186Y-98227232D01*
X185907486Y-98246505D01*
X185908000Y-98246550D01*
X185908514Y-98246505D01*
X186128814Y-98227232D01*
X186128819Y-98227231D01*
X186129323Y-98227187D01*
X186129813Y-98227056D01*
X186129817Y-98227055D01*
X186343423Y-98169819D01*
X186343426Y-98169818D01*
X186343922Y-98169685D01*
X186344382Y-98169470D01*
X186344386Y-98169469D01*
X186528747Y-98083500D01*
X186545275Y-98075793D01*
X186727265Y-97948362D01*
X186884362Y-97791265D01*
X187000950Y-97624760D01*
X187011497Y-97609698D01*
X187011498Y-97609696D01*
X187011793Y-97609275D01*
X187105685Y-97407922D01*
X187128742Y-97321874D01*
X187163055Y-97193817D01*
X187163056Y-97193813D01*
X187163187Y-97193323D01*
X187169114Y-97125582D01*
X187182505Y-96972514D01*
X187182550Y-96972000D01*
X187180422Y-96947672D01*
X187163232Y-96751186D01*
X187163231Y-96751181D01*
X187163187Y-96750677D01*
X187157383Y-96729014D01*
X187105819Y-96536577D01*
X187105818Y-96536574D01*
X187105685Y-96536078D01*
X187100407Y-96524758D01*
X187012010Y-96335191D01*
X187011793Y-96334725D01*
X186884362Y-96152735D01*
X186727265Y-95995638D01*
X186545275Y-95868207D01*
X186390735Y-95796144D01*
X186344386Y-95774531D01*
X186344382Y-95774530D01*
X186343922Y-95774315D01*
X186343426Y-95774182D01*
X186343423Y-95774181D01*
X186129817Y-95716945D01*
X186129813Y-95716944D01*
X186129323Y-95716813D01*
X186128819Y-95716769D01*
X186128814Y-95716768D01*
X185908514Y-95697495D01*
X185908000Y-95697450D01*
X185907486Y-95697495D01*
X185687186Y-95716768D01*
X185687181Y-95716769D01*
X185686677Y-95716813D01*
X185686187Y-95716944D01*
X185686183Y-95716945D01*
X185472577Y-95774181D01*
X185472574Y-95774182D01*
X185472078Y-95774315D01*
X185471618Y-95774530D01*
X185471614Y-95774531D01*
X185425265Y-95796144D01*
X185270725Y-95868207D01*
X185088735Y-95995638D01*
X184931638Y-96152735D01*
X184804207Y-96334725D01*
X184803990Y-96335191D01*
X184715594Y-96524758D01*
X184710315Y-96536078D01*
X184710182Y-96536574D01*
X184710181Y-96536577D01*
X184658618Y-96729014D01*
X184652813Y-96750677D01*
X184652769Y-96751181D01*
X184652768Y-96751186D01*
X184645373Y-96835720D01*
X184636127Y-96941407D01*
X184633450Y-96972000D01*
X148808500Y-96972000D01*
X148808500Y-96835140D01*
X148806054Y-96822841D01*
X148797092Y-96777787D01*
X148797092Y-96777786D01*
X148796867Y-96776657D01*
X148752552Y-96710336D01*
X148686231Y-96666021D01*
X148685102Y-96665796D01*
X148685101Y-96665796D01*
X148628317Y-96654501D01*
X148628315Y-96654501D01*
X148627748Y-96654388D01*
X146988252Y-96654388D01*
X146987685Y-96654501D01*
X146987683Y-96654501D01*
X146930899Y-96665796D01*
X146930898Y-96665796D01*
X146929769Y-96666021D01*
X146863448Y-96710336D01*
X146819133Y-96776657D01*
X146818908Y-96777786D01*
X146818908Y-96777787D01*
X146809946Y-96822841D01*
X146807500Y-96835140D01*
X146807500Y-98474636D01*
X92760500Y-98474636D01*
X92760500Y-96972000D01*
X95733450Y-96972000D01*
X95733495Y-96972514D01*
X95746887Y-97125582D01*
X95752813Y-97193323D01*
X95752944Y-97193813D01*
X95752945Y-97193817D01*
X95787258Y-97321874D01*
X95810315Y-97407922D01*
X95904207Y-97609275D01*
X95904502Y-97609696D01*
X95904503Y-97609698D01*
X95915050Y-97624760D01*
X96031638Y-97791265D01*
X96188735Y-97948362D01*
X96370725Y-98075793D01*
X96387253Y-98083500D01*
X96571614Y-98169469D01*
X96571618Y-98169470D01*
X96572078Y-98169685D01*
X96572574Y-98169818D01*
X96572577Y-98169819D01*
X96786183Y-98227055D01*
X96786187Y-98227056D01*
X96786677Y-98227187D01*
X96787181Y-98227231D01*
X96787186Y-98227232D01*
X97007486Y-98246505D01*
X97008000Y-98246550D01*
X97008514Y-98246505D01*
X97228814Y-98227232D01*
X97228819Y-98227231D01*
X97229323Y-98227187D01*
X97229813Y-98227056D01*
X97229817Y-98227055D01*
X97443423Y-98169819D01*
X97443426Y-98169818D01*
X97443922Y-98169685D01*
X97444382Y-98169470D01*
X97444386Y-98169469D01*
X97628747Y-98083500D01*
X97645275Y-98075793D01*
X97827265Y-97948362D01*
X97984362Y-97791265D01*
X98100950Y-97624760D01*
X98101482Y-97624000D01*
X134502318Y-97624000D01*
X134522956Y-97780762D01*
X134583464Y-97926841D01*
X134583935Y-97927454D01*
X134583935Y-97927455D01*
X134600204Y-97948657D01*
X134679718Y-98052282D01*
X134805159Y-98148536D01*
X134951238Y-98209044D01*
X135108000Y-98229682D01*
X135264762Y-98209044D01*
X135410841Y-98148536D01*
X135536282Y-98052282D01*
X135615796Y-97948657D01*
X135632065Y-97927455D01*
X135632065Y-97927454D01*
X135632536Y-97926841D01*
X135693044Y-97780762D01*
X135713682Y-97624000D01*
X135693044Y-97467238D01*
X135632536Y-97321159D01*
X135536282Y-97195718D01*
X135444879Y-97125582D01*
X135411455Y-97099935D01*
X135411454Y-97099935D01*
X135410841Y-97099464D01*
X135264762Y-97038956D01*
X135108000Y-97018318D01*
X134951238Y-97038956D01*
X134805159Y-97099464D01*
X134804546Y-97099935D01*
X134804545Y-97099935D01*
X134771121Y-97125582D01*
X134679718Y-97195718D01*
X134583464Y-97321159D01*
X134522956Y-97467238D01*
X134502318Y-97624000D01*
X98101482Y-97624000D01*
X98111497Y-97609698D01*
X98111498Y-97609696D01*
X98111793Y-97609275D01*
X98205685Y-97407922D01*
X98228742Y-97321874D01*
X98263055Y-97193817D01*
X98263056Y-97193813D01*
X98263187Y-97193323D01*
X98269114Y-97125582D01*
X98282505Y-96972514D01*
X98282550Y-96972000D01*
X98280422Y-96947672D01*
X98263232Y-96751186D01*
X98263231Y-96751181D01*
X98263187Y-96750677D01*
X98257383Y-96729014D01*
X98205819Y-96536577D01*
X98205818Y-96536574D01*
X98205685Y-96536078D01*
X98200407Y-96524758D01*
X98198188Y-96520000D01*
X144174318Y-96520000D01*
X144194956Y-96676762D01*
X144255464Y-96822841D01*
X144351718Y-96948282D01*
X144352328Y-96948750D01*
X144469757Y-97038856D01*
X144477159Y-97044536D01*
X144623238Y-97105044D01*
X144780000Y-97125682D01*
X144936762Y-97105044D01*
X145082841Y-97044536D01*
X145090244Y-97038856D01*
X145207672Y-96948750D01*
X145208282Y-96948282D01*
X145304536Y-96822841D01*
X145365044Y-96676762D01*
X145385682Y-96520000D01*
X145365044Y-96363238D01*
X145304536Y-96217159D01*
X145208282Y-96091718D01*
X145096423Y-96005886D01*
X145083455Y-95995935D01*
X145083454Y-95995935D01*
X145082841Y-95995464D01*
X144936762Y-95934956D01*
X144780000Y-95914318D01*
X144623238Y-95934956D01*
X144477159Y-95995464D01*
X144476546Y-95995935D01*
X144476545Y-95995935D01*
X144463577Y-96005886D01*
X144351718Y-96091718D01*
X144255464Y-96217159D01*
X144194956Y-96363238D01*
X144174318Y-96520000D01*
X98198188Y-96520000D01*
X98112010Y-96335191D01*
X98111793Y-96334725D01*
X97984362Y-96152735D01*
X97827265Y-95995638D01*
X97645275Y-95868207D01*
X97490735Y-95796144D01*
X97444386Y-95774531D01*
X97444382Y-95774530D01*
X97443922Y-95774315D01*
X97443426Y-95774182D01*
X97443423Y-95774181D01*
X97229817Y-95716945D01*
X97229813Y-95716944D01*
X97229323Y-95716813D01*
X97228819Y-95716769D01*
X97228814Y-95716768D01*
X97008514Y-95697495D01*
X97008000Y-95697450D01*
X97007486Y-95697495D01*
X96787186Y-95716768D01*
X96787181Y-95716769D01*
X96786677Y-95716813D01*
X96786187Y-95716944D01*
X96786183Y-95716945D01*
X96572577Y-95774181D01*
X96572574Y-95774182D01*
X96572078Y-95774315D01*
X96571618Y-95774530D01*
X96571614Y-95774531D01*
X96525265Y-95796144D01*
X96370725Y-95868207D01*
X96188735Y-95995638D01*
X96031638Y-96152735D01*
X95904207Y-96334725D01*
X95903990Y-96335191D01*
X95815594Y-96524758D01*
X95810315Y-96536078D01*
X95810182Y-96536574D01*
X95810181Y-96536577D01*
X95758618Y-96729014D01*
X95752813Y-96750677D01*
X95752769Y-96751181D01*
X95752768Y-96751186D01*
X95745373Y-96835720D01*
X95736127Y-96941407D01*
X95733450Y-96972000D01*
X92760500Y-96972000D01*
X92760500Y-96062722D01*
X92762077Y-96056855D01*
X93181584Y-95333000D01*
X103109318Y-95333000D01*
X103129956Y-95489762D01*
X103190464Y-95635841D01*
X103190935Y-95636454D01*
X103190935Y-95636455D01*
X103237738Y-95697450D01*
X103286718Y-95761282D01*
X103328507Y-95793348D01*
X103404198Y-95851427D01*
X103412159Y-95857536D01*
X103558238Y-95918044D01*
X103715000Y-95938682D01*
X103871762Y-95918044D01*
X104017841Y-95857536D01*
X104025803Y-95851427D01*
X104101493Y-95793348D01*
X104143282Y-95761282D01*
X104192262Y-95697450D01*
X104239065Y-95636455D01*
X104239065Y-95636454D01*
X104239536Y-95635841D01*
X104300044Y-95489762D01*
X104320682Y-95333000D01*
X104304620Y-95211000D01*
X109884318Y-95211000D01*
X109904956Y-95367762D01*
X109965464Y-95513841D01*
X110061718Y-95639282D01*
X110187159Y-95735536D01*
X110333238Y-95796044D01*
X110490000Y-95816682D01*
X110646762Y-95796044D01*
X110792841Y-95735536D01*
X110918282Y-95639282D01*
X111014536Y-95513841D01*
X111075044Y-95367762D01*
X111078079Y-95344710D01*
X141204197Y-95344710D01*
X141224835Y-95501472D01*
X141285343Y-95647551D01*
X141381597Y-95772992D01*
X141507038Y-95869246D01*
X141653117Y-95929754D01*
X141809879Y-95950392D01*
X141966641Y-95929754D01*
X142112720Y-95869246D01*
X142238161Y-95772992D01*
X142334415Y-95647551D01*
X142394923Y-95501472D01*
X142415561Y-95344710D01*
X142394923Y-95187948D01*
X142334415Y-95041869D01*
X142324959Y-95029545D01*
X142238629Y-94917038D01*
X142238161Y-94916428D01*
X142112720Y-94820174D01*
X141966641Y-94759666D01*
X141809879Y-94739028D01*
X141653117Y-94759666D01*
X141507038Y-94820174D01*
X141381597Y-94916428D01*
X141381129Y-94917038D01*
X141294800Y-95029545D01*
X141285343Y-95041869D01*
X141224835Y-95187948D01*
X141204197Y-95344710D01*
X111078079Y-95344710D01*
X111095682Y-95211000D01*
X111075044Y-95054238D01*
X111014536Y-94908159D01*
X110918282Y-94782718D01*
X110861344Y-94739028D01*
X110793455Y-94686935D01*
X110793454Y-94686935D01*
X110792841Y-94686464D01*
X110646762Y-94625956D01*
X110490000Y-94605318D01*
X110333238Y-94625956D01*
X110187159Y-94686464D01*
X110186546Y-94686935D01*
X110186545Y-94686935D01*
X110118656Y-94739028D01*
X110061718Y-94782718D01*
X109965464Y-94908159D01*
X109904956Y-95054238D01*
X109884318Y-95211000D01*
X104304620Y-95211000D01*
X104300044Y-95176238D01*
X104239536Y-95030159D01*
X104143282Y-94904718D01*
X104017841Y-94808464D01*
X103871762Y-94747956D01*
X103715000Y-94727318D01*
X103558238Y-94747956D01*
X103412159Y-94808464D01*
X103286718Y-94904718D01*
X103190464Y-95030159D01*
X103129956Y-95176238D01*
X103109318Y-95333000D01*
X93181584Y-95333000D01*
X94089834Y-93765823D01*
X134602391Y-93765823D01*
X134620980Y-93907979D01*
X134678720Y-94039203D01*
X134770970Y-94148948D01*
X134771663Y-94149410D01*
X134771665Y-94149411D01*
X134789793Y-94161478D01*
X134890313Y-94228390D01*
X135027157Y-94271142D01*
X135108378Y-94272631D01*
X135169668Y-94273755D01*
X135169670Y-94273755D01*
X135170499Y-94273770D01*
X135308817Y-94236060D01*
X135430991Y-94161045D01*
X135441522Y-94149411D01*
X135455444Y-94134029D01*
X135527200Y-94054754D01*
X135589710Y-93925733D01*
X135592569Y-93908743D01*
X135613422Y-93784794D01*
X135613496Y-93784354D01*
X135613647Y-93772000D01*
X135612763Y-93765823D01*
X147302391Y-93765823D01*
X147320980Y-93907979D01*
X147378720Y-94039203D01*
X147470970Y-94148948D01*
X147471663Y-94149410D01*
X147471665Y-94149411D01*
X147489793Y-94161478D01*
X147590313Y-94228390D01*
X147727157Y-94271142D01*
X147808378Y-94272631D01*
X147869668Y-94273755D01*
X147869670Y-94273755D01*
X147870499Y-94273770D01*
X148008817Y-94236060D01*
X148130991Y-94161045D01*
X148141522Y-94149411D01*
X148155444Y-94134029D01*
X148227200Y-94054754D01*
X148289710Y-93925733D01*
X148292569Y-93908743D01*
X148313422Y-93784794D01*
X148313496Y-93784354D01*
X148313647Y-93772000D01*
X148312763Y-93765823D01*
X148302846Y-93696582D01*
X148293323Y-93630082D01*
X148292978Y-93629323D01*
X148234330Y-93500332D01*
X148234328Y-93500330D01*
X148233984Y-93499572D01*
X148140400Y-93390963D01*
X148020095Y-93312985D01*
X147987672Y-93303289D01*
X147919382Y-93282865D01*
X147912437Y-93277212D01*
X147911525Y-93268304D01*
X147917178Y-93261359D01*
X147919656Y-93260368D01*
X148008817Y-93236060D01*
X148038231Y-93218000D01*
X158144318Y-93218000D01*
X158164956Y-93374762D01*
X158225464Y-93520841D01*
X158321718Y-93646282D01*
X158447159Y-93742536D01*
X158593238Y-93803044D01*
X158750000Y-93823682D01*
X158906762Y-93803044D01*
X159052841Y-93742536D01*
X159178282Y-93646282D01*
X159274536Y-93520841D01*
X159335044Y-93374762D01*
X159355682Y-93218000D01*
X159335044Y-93061238D01*
X159274536Y-92915159D01*
X159251203Y-92884750D01*
X159178750Y-92790328D01*
X159178282Y-92789718D01*
X159052841Y-92693464D01*
X158906762Y-92632956D01*
X158750000Y-92612318D01*
X158593238Y-92632956D01*
X158447159Y-92693464D01*
X158321718Y-92789718D01*
X158321250Y-92790328D01*
X158248798Y-92884750D01*
X158225464Y-92915159D01*
X158164956Y-93061238D01*
X158144318Y-93218000D01*
X148038231Y-93218000D01*
X148130991Y-93161045D01*
X148141522Y-93149411D01*
X148220641Y-93062000D01*
X148227200Y-93054754D01*
X148233843Y-93041044D01*
X148263386Y-92980065D01*
X148289710Y-92925733D01*
X148292569Y-92908743D01*
X148313422Y-92784794D01*
X148313496Y-92784354D01*
X148313647Y-92772000D01*
X148312763Y-92765823D01*
X148302400Y-92693464D01*
X148293323Y-92630082D01*
X148292978Y-92629323D01*
X148234330Y-92500332D01*
X148234328Y-92500330D01*
X148233984Y-92499572D01*
X148140400Y-92390963D01*
X148020095Y-92312985D01*
X147951417Y-92292446D01*
X147883539Y-92272146D01*
X147883537Y-92272146D01*
X147882739Y-92271907D01*
X147808565Y-92271454D01*
X147740208Y-92271036D01*
X147740207Y-92271036D01*
X147739376Y-92271031D01*
X147653516Y-92295570D01*
X147602326Y-92310200D01*
X147602325Y-92310201D01*
X147601529Y-92310428D01*
X147480280Y-92386930D01*
X147385377Y-92494388D01*
X147324447Y-92624163D01*
X147302391Y-92765823D01*
X147320980Y-92907979D01*
X147321316Y-92908742D01*
X147321316Y-92908743D01*
X147365641Y-93009478D01*
X147378720Y-93039203D01*
X147470970Y-93148948D01*
X147471663Y-93149410D01*
X147471665Y-93149411D01*
X147489793Y-93161478D01*
X147590313Y-93228390D01*
X147688944Y-93259204D01*
X147695465Y-93261241D01*
X147702340Y-93266979D01*
X147703144Y-93275898D01*
X147697406Y-93282773D01*
X147695191Y-93283659D01*
X147602326Y-93310200D01*
X147602325Y-93310201D01*
X147601529Y-93310428D01*
X147480280Y-93386930D01*
X147385377Y-93494388D01*
X147324447Y-93624163D01*
X147302391Y-93765823D01*
X135612763Y-93765823D01*
X135602846Y-93696582D01*
X135593323Y-93630082D01*
X135592978Y-93629323D01*
X135534330Y-93500332D01*
X135534328Y-93500330D01*
X135533984Y-93499572D01*
X135440400Y-93390963D01*
X135320095Y-93312985D01*
X135287672Y-93303289D01*
X135219382Y-93282865D01*
X135212437Y-93277212D01*
X135211525Y-93268304D01*
X135217178Y-93261359D01*
X135219656Y-93260368D01*
X135308817Y-93236060D01*
X135430991Y-93161045D01*
X135441522Y-93149411D01*
X135494392Y-93091000D01*
X143539318Y-93091000D01*
X143559956Y-93247762D01*
X143620464Y-93393841D01*
X143716718Y-93519282D01*
X143842159Y-93615536D01*
X143988238Y-93676044D01*
X144145000Y-93696682D01*
X144301762Y-93676044D01*
X144447841Y-93615536D01*
X144573282Y-93519282D01*
X144669536Y-93393841D01*
X144730044Y-93247762D01*
X144750682Y-93091000D01*
X144730044Y-92934238D01*
X144669536Y-92788159D01*
X144656799Y-92771559D01*
X144573750Y-92663328D01*
X144573282Y-92662718D01*
X144447841Y-92566464D01*
X144301762Y-92505956D01*
X144145000Y-92485318D01*
X143988238Y-92505956D01*
X143842159Y-92566464D01*
X143716718Y-92662718D01*
X143716250Y-92663328D01*
X143633202Y-92771559D01*
X143620464Y-92788159D01*
X143559956Y-92934238D01*
X143539318Y-93091000D01*
X135494392Y-93091000D01*
X135520641Y-93062000D01*
X135527200Y-93054754D01*
X135533843Y-93041044D01*
X135563386Y-92980065D01*
X135589710Y-92925733D01*
X135592569Y-92908743D01*
X135613422Y-92784794D01*
X135613496Y-92784354D01*
X135613647Y-92772000D01*
X135612763Y-92765823D01*
X135602400Y-92693464D01*
X135593323Y-92630082D01*
X135592978Y-92629323D01*
X135534330Y-92500332D01*
X135534328Y-92500330D01*
X135533984Y-92499572D01*
X135496440Y-92456000D01*
X136808318Y-92456000D01*
X136828956Y-92612762D01*
X136889464Y-92758841D01*
X136889935Y-92759454D01*
X136889935Y-92759455D01*
X136913157Y-92789718D01*
X136985718Y-92884282D01*
X137111159Y-92980536D01*
X137257238Y-93041044D01*
X137414000Y-93061682D01*
X137570762Y-93041044D01*
X137716841Y-92980536D01*
X137842282Y-92884282D01*
X137914843Y-92789718D01*
X137938065Y-92759455D01*
X137938065Y-92759454D01*
X137938536Y-92758841D01*
X137999044Y-92612762D01*
X138019682Y-92456000D01*
X137999044Y-92299238D01*
X137938536Y-92153159D01*
X137842282Y-92027718D01*
X137738391Y-91948000D01*
X151032318Y-91948000D01*
X151052956Y-92104762D01*
X151113464Y-92250841D01*
X151113935Y-92251454D01*
X151113935Y-92251455D01*
X151160965Y-92312746D01*
X151209718Y-92376282D01*
X151335159Y-92472536D01*
X151481238Y-92533044D01*
X151638000Y-92553682D01*
X151794762Y-92533044D01*
X151940841Y-92472536D01*
X152066282Y-92376282D01*
X152115035Y-92312746D01*
X152162065Y-92251455D01*
X152162065Y-92251454D01*
X152162536Y-92250841D01*
X152223044Y-92104762D01*
X152243682Y-91948000D01*
X152223044Y-91791238D01*
X152162536Y-91645159D01*
X152066282Y-91519718D01*
X151940841Y-91423464D01*
X151794762Y-91362956D01*
X151638000Y-91342318D01*
X151481238Y-91362956D01*
X151335159Y-91423464D01*
X151209718Y-91519718D01*
X151113464Y-91645159D01*
X151052956Y-91791238D01*
X151032318Y-91948000D01*
X137738391Y-91948000D01*
X137716841Y-91931464D01*
X137570762Y-91870956D01*
X137414000Y-91850318D01*
X137257238Y-91870956D01*
X137111159Y-91931464D01*
X136985718Y-92027718D01*
X136889464Y-92153159D01*
X136828956Y-92299238D01*
X136808318Y-92456000D01*
X135496440Y-92456000D01*
X135440400Y-92390963D01*
X135320095Y-92312985D01*
X135251417Y-92292446D01*
X135183539Y-92272146D01*
X135183537Y-92272146D01*
X135182739Y-92271907D01*
X135108565Y-92271454D01*
X135040208Y-92271036D01*
X135040207Y-92271036D01*
X135039376Y-92271031D01*
X134953516Y-92295570D01*
X134902326Y-92310200D01*
X134902325Y-92310201D01*
X134901529Y-92310428D01*
X134780280Y-92386930D01*
X134685377Y-92494388D01*
X134624447Y-92624163D01*
X134602391Y-92765823D01*
X134620980Y-92907979D01*
X134621316Y-92908742D01*
X134621316Y-92908743D01*
X134665641Y-93009478D01*
X134678720Y-93039203D01*
X134770970Y-93148948D01*
X134771663Y-93149410D01*
X134771665Y-93149411D01*
X134789793Y-93161478D01*
X134890313Y-93228390D01*
X134988944Y-93259204D01*
X134995465Y-93261241D01*
X135002340Y-93266979D01*
X135003144Y-93275898D01*
X134997406Y-93282773D01*
X134995191Y-93283659D01*
X134902326Y-93310200D01*
X134902325Y-93310201D01*
X134901529Y-93310428D01*
X134780280Y-93386930D01*
X134685377Y-93494388D01*
X134624447Y-93624163D01*
X134602391Y-93765823D01*
X94089834Y-93765823D01*
X94617264Y-92855748D01*
X125471500Y-92855748D01*
X125483133Y-92914231D01*
X125483773Y-92915189D01*
X125491322Y-92926487D01*
X125527448Y-92980552D01*
X125593769Y-93024867D01*
X125594898Y-93025092D01*
X125594899Y-93025092D01*
X125651683Y-93036387D01*
X125651685Y-93036387D01*
X125652252Y-93036500D01*
X127291748Y-93036500D01*
X127292315Y-93036387D01*
X127292317Y-93036387D01*
X127349101Y-93025092D01*
X127349102Y-93025092D01*
X127350231Y-93024867D01*
X127416552Y-92980552D01*
X127452678Y-92926487D01*
X127460227Y-92915189D01*
X127460867Y-92914231D01*
X127472500Y-92855748D01*
X127472500Y-91216252D01*
X127460867Y-91157769D01*
X127416552Y-91091448D01*
X127350231Y-91047133D01*
X127349102Y-91046908D01*
X127349101Y-91046908D01*
X127292317Y-91035613D01*
X127292315Y-91035613D01*
X127291748Y-91035500D01*
X125652252Y-91035500D01*
X125651685Y-91035613D01*
X125651683Y-91035613D01*
X125594899Y-91046908D01*
X125594898Y-91046908D01*
X125593769Y-91047133D01*
X125527448Y-91091448D01*
X125483133Y-91157769D01*
X125471500Y-91216252D01*
X125471500Y-92855748D01*
X94617264Y-92855748D01*
X96123357Y-90257000D01*
X100422818Y-90257000D01*
X100422918Y-90257760D01*
X100423598Y-90262925D01*
X100443456Y-90413762D01*
X100503964Y-90559841D01*
X100504435Y-90560454D01*
X100504435Y-90560455D01*
X100532993Y-90597672D01*
X100600218Y-90685282D01*
X100600828Y-90685750D01*
X100717900Y-90775582D01*
X100725659Y-90781536D01*
X100871738Y-90842044D01*
X101028500Y-90862682D01*
X101185262Y-90842044D01*
X101331341Y-90781536D01*
X101339101Y-90775582D01*
X101456172Y-90685750D01*
X101456782Y-90685282D01*
X101524007Y-90597672D01*
X101552565Y-90560455D01*
X101552565Y-90560454D01*
X101553036Y-90559841D01*
X101613544Y-90413762D01*
X101633402Y-90262925D01*
X101634082Y-90257760D01*
X101634182Y-90257000D01*
X101692818Y-90257000D01*
X101692918Y-90257760D01*
X101693598Y-90262925D01*
X101713456Y-90413762D01*
X101773964Y-90559841D01*
X101774435Y-90560454D01*
X101774435Y-90560455D01*
X101802993Y-90597672D01*
X101870218Y-90685282D01*
X101870828Y-90685750D01*
X101987900Y-90775582D01*
X101995659Y-90781536D01*
X102141738Y-90842044D01*
X102298500Y-90862682D01*
X102455262Y-90842044D01*
X102601341Y-90781536D01*
X102609101Y-90775582D01*
X102726172Y-90685750D01*
X102726782Y-90685282D01*
X102774496Y-90623099D01*
X125745075Y-90623099D01*
X125745469Y-90624050D01*
X125815079Y-90672792D01*
X125815968Y-90673305D01*
X126022465Y-90769597D01*
X126023428Y-90769947D01*
X126243507Y-90828917D01*
X126244510Y-90829094D01*
X126471486Y-90848951D01*
X126472514Y-90848951D01*
X126699490Y-90829094D01*
X126700493Y-90828917D01*
X126920572Y-90769947D01*
X126921535Y-90769597D01*
X127128032Y-90673305D01*
X127128921Y-90672792D01*
X127197983Y-90624434D01*
X127198939Y-90622932D01*
X127198716Y-90621926D01*
X126473646Y-89896856D01*
X126472000Y-89896174D01*
X126470354Y-89896856D01*
X125745757Y-90621453D01*
X125745075Y-90623099D01*
X102774496Y-90623099D01*
X102794007Y-90597672D01*
X102822565Y-90560455D01*
X102822565Y-90560454D01*
X102823036Y-90559841D01*
X102883544Y-90413762D01*
X102903402Y-90262925D01*
X102904082Y-90257760D01*
X102904182Y-90257000D01*
X102883544Y-90100238D01*
X102823036Y-89954159D01*
X102726782Y-89828718D01*
X102601341Y-89732464D01*
X102455262Y-89671956D01*
X102298500Y-89651318D01*
X102141738Y-89671956D01*
X101995659Y-89732464D01*
X101870218Y-89828718D01*
X101773964Y-89954159D01*
X101713456Y-90100238D01*
X101692818Y-90257000D01*
X101634182Y-90257000D01*
X101613544Y-90100238D01*
X101553036Y-89954159D01*
X101456782Y-89828718D01*
X101331341Y-89732464D01*
X101185262Y-89671956D01*
X101028500Y-89651318D01*
X100871738Y-89671956D01*
X100725659Y-89732464D01*
X100600218Y-89828718D01*
X100503964Y-89954159D01*
X100443456Y-90100238D01*
X100422818Y-90257000D01*
X96123357Y-90257000D01*
X96540912Y-89536514D01*
X125159049Y-89536514D01*
X125178906Y-89763490D01*
X125179083Y-89764493D01*
X125238053Y-89984572D01*
X125238403Y-89985535D01*
X125334695Y-90192032D01*
X125335208Y-90192921D01*
X125383566Y-90261983D01*
X125385068Y-90262939D01*
X125386074Y-90262716D01*
X126111144Y-89537646D01*
X126111826Y-89536000D01*
X126832174Y-89536000D01*
X126832856Y-89537646D01*
X127557453Y-90262243D01*
X127559099Y-90262925D01*
X127560050Y-90262531D01*
X127608792Y-90192921D01*
X127609305Y-90192032D01*
X127619579Y-90170000D01*
X129696318Y-90170000D01*
X129716956Y-90326762D01*
X129777464Y-90472841D01*
X129873718Y-90598282D01*
X129874328Y-90598750D01*
X129970822Y-90672792D01*
X129999159Y-90694536D01*
X130145238Y-90755044D01*
X130302000Y-90775682D01*
X130458762Y-90755044D01*
X130604841Y-90694536D01*
X130633179Y-90672792D01*
X130729672Y-90598750D01*
X130730282Y-90598282D01*
X130826536Y-90472841D01*
X130846767Y-90424000D01*
X135030318Y-90424000D01*
X135050956Y-90580762D01*
X135111464Y-90726841D01*
X135111935Y-90727454D01*
X135111935Y-90727455D01*
X135133105Y-90755044D01*
X135207718Y-90852282D01*
X135333159Y-90948536D01*
X135479238Y-91009044D01*
X135636000Y-91029682D01*
X135792762Y-91009044D01*
X135938841Y-90948536D01*
X136064282Y-90852282D01*
X136138895Y-90755044D01*
X136160065Y-90727455D01*
X136160065Y-90727454D01*
X136160536Y-90726841D01*
X136180767Y-90678000D01*
X147476318Y-90678000D01*
X147496956Y-90834762D01*
X147557464Y-90980841D01*
X147557935Y-90981454D01*
X147557935Y-90981455D01*
X147608823Y-91047773D01*
X147653718Y-91106282D01*
X147779159Y-91202536D01*
X147925238Y-91263044D01*
X148082000Y-91283682D01*
X148238762Y-91263044D01*
X148384841Y-91202536D01*
X148510282Y-91106282D01*
X148555177Y-91047773D01*
X148606065Y-90981455D01*
X148606065Y-90981454D01*
X148606536Y-90980841D01*
X148667044Y-90834762D01*
X148687682Y-90678000D01*
X148667044Y-90521238D01*
X148606536Y-90375159D01*
X148510282Y-90249718D01*
X148384841Y-90153464D01*
X148238762Y-90092956D01*
X148082000Y-90072318D01*
X147925238Y-90092956D01*
X147779159Y-90153464D01*
X147653718Y-90249718D01*
X147557464Y-90375159D01*
X147496956Y-90521238D01*
X147476318Y-90678000D01*
X136180767Y-90678000D01*
X136221044Y-90580762D01*
X136241682Y-90424000D01*
X136221044Y-90267238D01*
X136160536Y-90121159D01*
X136145068Y-90101000D01*
X136078310Y-90014000D01*
X136064282Y-89995718D01*
X135938841Y-89899464D01*
X135792762Y-89838956D01*
X135636000Y-89818318D01*
X135479238Y-89838956D01*
X135333159Y-89899464D01*
X135207718Y-89995718D01*
X135193690Y-90014000D01*
X135126933Y-90101000D01*
X135111464Y-90121159D01*
X135050956Y-90267238D01*
X135030318Y-90424000D01*
X130846767Y-90424000D01*
X130887044Y-90326762D01*
X130907682Y-90170000D01*
X130887044Y-90013238D01*
X130826536Y-89867159D01*
X130805122Y-89839251D01*
X130730750Y-89742328D01*
X130730282Y-89741718D01*
X130639236Y-89671856D01*
X130605455Y-89645935D01*
X130605454Y-89645935D01*
X130604841Y-89645464D01*
X130458762Y-89584956D01*
X130302000Y-89564318D01*
X130145238Y-89584956D01*
X129999159Y-89645464D01*
X129998546Y-89645935D01*
X129998545Y-89645935D01*
X129964764Y-89671856D01*
X129873718Y-89741718D01*
X129873250Y-89742328D01*
X129798879Y-89839251D01*
X129777464Y-89867159D01*
X129716956Y-90013238D01*
X129696318Y-90170000D01*
X127619579Y-90170000D01*
X127705597Y-89985535D01*
X127705947Y-89984572D01*
X127764917Y-89764493D01*
X127765094Y-89763490D01*
X127784951Y-89536514D01*
X127784951Y-89535486D01*
X127765094Y-89308510D01*
X127764917Y-89307507D01*
X127705947Y-89087428D01*
X127705597Y-89086465D01*
X127618646Y-88900000D01*
X147984318Y-88900000D01*
X148004956Y-89056762D01*
X148065464Y-89202841D01*
X148065935Y-89203454D01*
X148065935Y-89203455D01*
X148087105Y-89231044D01*
X148161718Y-89328282D01*
X148287159Y-89424536D01*
X148433238Y-89485044D01*
X148590000Y-89505682D01*
X148746762Y-89485044D01*
X148892841Y-89424536D01*
X149018282Y-89328282D01*
X149092895Y-89231044D01*
X149114065Y-89203455D01*
X149114065Y-89203454D01*
X149114536Y-89202841D01*
X149175044Y-89056762D01*
X149195682Y-88900000D01*
X149175044Y-88743238D01*
X149114536Y-88597159D01*
X149018282Y-88471718D01*
X148892841Y-88375464D01*
X148746762Y-88314956D01*
X148590000Y-88294318D01*
X148433238Y-88314956D01*
X148287159Y-88375464D01*
X148161718Y-88471718D01*
X148065464Y-88597159D01*
X148004956Y-88743238D01*
X147984318Y-88900000D01*
X127618646Y-88900000D01*
X127609305Y-88879968D01*
X127608792Y-88879079D01*
X127560434Y-88810017D01*
X127558932Y-88809061D01*
X127557926Y-88809284D01*
X126832856Y-89534354D01*
X126832174Y-89536000D01*
X126111826Y-89536000D01*
X126111144Y-89534354D01*
X125386547Y-88809757D01*
X125384901Y-88809075D01*
X125383950Y-88809469D01*
X125335208Y-88879079D01*
X125334695Y-88879968D01*
X125238403Y-89086465D01*
X125238053Y-89087428D01*
X125179083Y-89307507D01*
X125178906Y-89308510D01*
X125159049Y-89535486D01*
X125159049Y-89536514D01*
X96540912Y-89536514D01*
X97057005Y-88646000D01*
X118012318Y-88646000D01*
X118032956Y-88802762D01*
X118093464Y-88948841D01*
X118189718Y-89074282D01*
X118315159Y-89170536D01*
X118461238Y-89231044D01*
X118618000Y-89251682D01*
X118774762Y-89231044D01*
X118920841Y-89170536D01*
X119046282Y-89074282D01*
X119142536Y-88948841D01*
X119203044Y-88802762D01*
X119223682Y-88646000D01*
X119203044Y-88489238D01*
X119186405Y-88449068D01*
X125745061Y-88449068D01*
X125745284Y-88450074D01*
X126470354Y-89175144D01*
X126472000Y-89175826D01*
X126473646Y-89175144D01*
X127198243Y-88450547D01*
X127198925Y-88448901D01*
X127198531Y-88447950D01*
X127128921Y-88399208D01*
X127128032Y-88398695D01*
X126921535Y-88302403D01*
X126920572Y-88302053D01*
X126700493Y-88243083D01*
X126699490Y-88242906D01*
X126472514Y-88223049D01*
X126471486Y-88223049D01*
X126244510Y-88242906D01*
X126243507Y-88243083D01*
X126023428Y-88302053D01*
X126022465Y-88302403D01*
X125815968Y-88398695D01*
X125815079Y-88399208D01*
X125746017Y-88447566D01*
X125745061Y-88449068D01*
X119186405Y-88449068D01*
X119142536Y-88343159D01*
X119121122Y-88315251D01*
X119046750Y-88218328D01*
X119046282Y-88217718D01*
X118920841Y-88121464D01*
X118774762Y-88060956D01*
X118618000Y-88040318D01*
X118461238Y-88060956D01*
X118315159Y-88121464D01*
X118189718Y-88217718D01*
X118189250Y-88218328D01*
X118114879Y-88315251D01*
X118093464Y-88343159D01*
X118032956Y-88489238D01*
X118012318Y-88646000D01*
X97057005Y-88646000D01*
X97920528Y-87156000D01*
X134522318Y-87156000D01*
X134542956Y-87312762D01*
X134603464Y-87458841D01*
X134699718Y-87584282D01*
X134825159Y-87680536D01*
X134971238Y-87741044D01*
X135128000Y-87761682D01*
X135284762Y-87741044D01*
X135430841Y-87680536D01*
X135556282Y-87584282D01*
X135652536Y-87458841D01*
X135677330Y-87398983D01*
X140133301Y-87398983D01*
X140153939Y-87555745D01*
X140214447Y-87701824D01*
X140214918Y-87702437D01*
X140214918Y-87702438D01*
X140278635Y-87785476D01*
X140310701Y-87827265D01*
X140436142Y-87923519D01*
X140582221Y-87984027D01*
X140738983Y-88004665D01*
X140895745Y-87984027D01*
X141041824Y-87923519D01*
X141167265Y-87827265D01*
X141199331Y-87785476D01*
X141263048Y-87702438D01*
X141263048Y-87702437D01*
X141263519Y-87701824D01*
X141324027Y-87555745D01*
X141344665Y-87398983D01*
X141324027Y-87242221D01*
X141263519Y-87096142D01*
X141167265Y-86970701D01*
X141054972Y-86884536D01*
X141042438Y-86874918D01*
X141042437Y-86874918D01*
X141041824Y-86874447D01*
X140895745Y-86813939D01*
X140738983Y-86793301D01*
X140582221Y-86813939D01*
X140436142Y-86874447D01*
X140435529Y-86874918D01*
X140435528Y-86874918D01*
X140422994Y-86884536D01*
X140310701Y-86970701D01*
X140214447Y-87096142D01*
X140153939Y-87242221D01*
X140133301Y-87398983D01*
X135677330Y-87398983D01*
X135713044Y-87312762D01*
X135733682Y-87156000D01*
X135713044Y-86999238D01*
X135652536Y-86853159D01*
X135647387Y-86846448D01*
X135556750Y-86728328D01*
X135556282Y-86727718D01*
X135472533Y-86663455D01*
X135431455Y-86631935D01*
X135431454Y-86631935D01*
X135430841Y-86631464D01*
X135284762Y-86570956D01*
X135128000Y-86550318D01*
X134971238Y-86570956D01*
X134825159Y-86631464D01*
X134824546Y-86631935D01*
X134824545Y-86631935D01*
X134783467Y-86663455D01*
X134699718Y-86727718D01*
X134699250Y-86728328D01*
X134608614Y-86846448D01*
X134603464Y-86853159D01*
X134542956Y-86999238D01*
X134522318Y-87156000D01*
X97920528Y-87156000D01*
X98348136Y-86418166D01*
X142962484Y-86418166D01*
X142983122Y-86574928D01*
X143043630Y-86721007D01*
X143044101Y-86721620D01*
X143044101Y-86721621D01*
X143094784Y-86787672D01*
X143139884Y-86846448D01*
X143265325Y-86942702D01*
X143411404Y-87003210D01*
X143568166Y-87023848D01*
X143724928Y-87003210D01*
X143871007Y-86942702D01*
X143996448Y-86846448D01*
X144041548Y-86787672D01*
X144092231Y-86721621D01*
X144092231Y-86721620D01*
X144092702Y-86721007D01*
X144153210Y-86574928D01*
X144173848Y-86418166D01*
X144166190Y-86360000D01*
X147984318Y-86360000D01*
X148004956Y-86516762D01*
X148065464Y-86662841D01*
X148161718Y-86788282D01*
X148162328Y-86788750D01*
X148274625Y-86874918D01*
X148287159Y-86884536D01*
X148433238Y-86945044D01*
X148590000Y-86965682D01*
X148746762Y-86945044D01*
X148892841Y-86884536D01*
X148905376Y-86874918D01*
X149017672Y-86788750D01*
X149018282Y-86788282D01*
X149114536Y-86662841D01*
X149175044Y-86516762D01*
X149195682Y-86360000D01*
X149175044Y-86203238D01*
X149114536Y-86057159D01*
X149018282Y-85931718D01*
X148892841Y-85835464D01*
X148746762Y-85774956D01*
X148590000Y-85754318D01*
X148433238Y-85774956D01*
X148287159Y-85835464D01*
X148161718Y-85931718D01*
X148065464Y-86057159D01*
X148004956Y-86203238D01*
X147984318Y-86360000D01*
X144166190Y-86360000D01*
X144153210Y-86261404D01*
X144092702Y-86115325D01*
X143996448Y-85989884D01*
X143920644Y-85931718D01*
X143871621Y-85894101D01*
X143871620Y-85894101D01*
X143871007Y-85893630D01*
X143724928Y-85833122D01*
X143568166Y-85812484D01*
X143411404Y-85833122D01*
X143265325Y-85893630D01*
X143264712Y-85894101D01*
X143264711Y-85894101D01*
X143215688Y-85931718D01*
X143139884Y-85989884D01*
X143043630Y-86115325D01*
X142983122Y-86261404D01*
X142962484Y-86418166D01*
X98348136Y-86418166D01*
X98970664Y-85344000D01*
X118012318Y-85344000D01*
X118032956Y-85500762D01*
X118093464Y-85646841D01*
X118189718Y-85772282D01*
X118315159Y-85868536D01*
X118461238Y-85929044D01*
X118618000Y-85949682D01*
X118774762Y-85929044D01*
X118920841Y-85868536D01*
X119046282Y-85772282D01*
X119142536Y-85646841D01*
X119203044Y-85500762D01*
X119223682Y-85344000D01*
X119203044Y-85187238D01*
X119142536Y-85041159D01*
X119119203Y-85010750D01*
X119046750Y-84916328D01*
X119046282Y-84915718D01*
X118920841Y-84819464D01*
X118774762Y-84758956D01*
X118618000Y-84738318D01*
X118461238Y-84758956D01*
X118315159Y-84819464D01*
X118189718Y-84915718D01*
X118189250Y-84916328D01*
X118116798Y-85010750D01*
X118093464Y-85041159D01*
X118032956Y-85187238D01*
X118012318Y-85344000D01*
X98970664Y-85344000D01*
X99412278Y-84582000D01*
X152810318Y-84582000D01*
X152830956Y-84738762D01*
X152891464Y-84884841D01*
X152891935Y-84885454D01*
X152891935Y-84885455D01*
X152915157Y-84915718D01*
X152987718Y-85010282D01*
X153113159Y-85106536D01*
X153259238Y-85167044D01*
X153416000Y-85187682D01*
X153572762Y-85167044D01*
X153718841Y-85106536D01*
X153844282Y-85010282D01*
X153916843Y-84915718D01*
X153940065Y-84885455D01*
X153940065Y-84885454D01*
X153940536Y-84884841D01*
X154001044Y-84738762D01*
X154021682Y-84582000D01*
X154001044Y-84425238D01*
X153940536Y-84279159D01*
X153917203Y-84248750D01*
X153844750Y-84154328D01*
X153844282Y-84153718D01*
X153718841Y-84057464D01*
X153572762Y-83996956D01*
X153416000Y-83976318D01*
X153259238Y-83996956D01*
X153113159Y-84057464D01*
X152987718Y-84153718D01*
X152987250Y-84154328D01*
X152914798Y-84248750D01*
X152891464Y-84279159D01*
X152830956Y-84425238D01*
X152810318Y-84582000D01*
X99412278Y-84582000D01*
X99853891Y-83820000D01*
X127918318Y-83820000D01*
X127938956Y-83976762D01*
X127999464Y-84122841D01*
X127999935Y-84123454D01*
X127999935Y-84123455D01*
X128023157Y-84153718D01*
X128095718Y-84248282D01*
X128221159Y-84344536D01*
X128367238Y-84405044D01*
X128524000Y-84425682D01*
X128680762Y-84405044D01*
X128826841Y-84344536D01*
X128952282Y-84248282D01*
X129024843Y-84153718D01*
X129048065Y-84123455D01*
X129048065Y-84123454D01*
X129048536Y-84122841D01*
X129109044Y-83976762D01*
X129129682Y-83820000D01*
X145444318Y-83820000D01*
X145464956Y-83976762D01*
X145525464Y-84122841D01*
X145525935Y-84123454D01*
X145525935Y-84123455D01*
X145549157Y-84153718D01*
X145621718Y-84248282D01*
X145747159Y-84344536D01*
X145893238Y-84405044D01*
X146050000Y-84425682D01*
X146206762Y-84405044D01*
X146352841Y-84344536D01*
X146478282Y-84248282D01*
X146550843Y-84153718D01*
X146574065Y-84123455D01*
X146574065Y-84123454D01*
X146574536Y-84122841D01*
X146635044Y-83976762D01*
X146651206Y-83854000D01*
X147730318Y-83854000D01*
X147750956Y-84010762D01*
X147811464Y-84156841D01*
X147907718Y-84282282D01*
X148033159Y-84378536D01*
X148179238Y-84439044D01*
X148336000Y-84459682D01*
X148492762Y-84439044D01*
X148638841Y-84378536D01*
X148764282Y-84282282D01*
X148860536Y-84156841D01*
X148921044Y-84010762D01*
X148941682Y-83854000D01*
X148921044Y-83697238D01*
X148860536Y-83551159D01*
X148764282Y-83425718D01*
X148638841Y-83329464D01*
X148492762Y-83268956D01*
X148336000Y-83248318D01*
X148179238Y-83268956D01*
X148033159Y-83329464D01*
X147907718Y-83425718D01*
X147811464Y-83551159D01*
X147750956Y-83697238D01*
X147730318Y-83854000D01*
X146651206Y-83854000D01*
X146655682Y-83820000D01*
X146635044Y-83663238D01*
X146574536Y-83517159D01*
X146478282Y-83391718D01*
X146352841Y-83295464D01*
X146206762Y-83234956D01*
X146050000Y-83214318D01*
X145893238Y-83234956D01*
X145747159Y-83295464D01*
X145621718Y-83391718D01*
X145525464Y-83517159D01*
X145464956Y-83663238D01*
X145444318Y-83820000D01*
X129129682Y-83820000D01*
X129109044Y-83663238D01*
X129048536Y-83517159D01*
X128952282Y-83391718D01*
X128826841Y-83295464D01*
X128680762Y-83234956D01*
X128524000Y-83214318D01*
X128367238Y-83234956D01*
X128221159Y-83295464D01*
X128095718Y-83391718D01*
X127999464Y-83517159D01*
X127938956Y-83663238D01*
X127918318Y-83820000D01*
X99853891Y-83820000D01*
X101031528Y-81788000D01*
X120298318Y-81788000D01*
X120318956Y-81944762D01*
X120379464Y-82090841D01*
X120475718Y-82216282D01*
X120601159Y-82312536D01*
X120747238Y-82373044D01*
X120904000Y-82393682D01*
X121060762Y-82373044D01*
X121206841Y-82312536D01*
X121332282Y-82216282D01*
X121428536Y-82090841D01*
X121489044Y-81944762D01*
X121509682Y-81788000D01*
X134776318Y-81788000D01*
X134796956Y-81944762D01*
X134857464Y-82090841D01*
X134953718Y-82216282D01*
X135079159Y-82312536D01*
X135225238Y-82373044D01*
X135382000Y-82393682D01*
X135538762Y-82373044D01*
X135684841Y-82312536D01*
X135810282Y-82216282D01*
X135906536Y-82090841D01*
X135926767Y-82042000D01*
X152810318Y-82042000D01*
X152830956Y-82198762D01*
X152891464Y-82344841D01*
X152891935Y-82345454D01*
X152891935Y-82345455D01*
X152913105Y-82373044D01*
X152987718Y-82470282D01*
X153113159Y-82566536D01*
X153259238Y-82627044D01*
X153416000Y-82647682D01*
X153572762Y-82627044D01*
X153718841Y-82566536D01*
X153844282Y-82470282D01*
X153918895Y-82373044D01*
X153940065Y-82345455D01*
X153940065Y-82345454D01*
X153940536Y-82344841D01*
X154001044Y-82198762D01*
X154021682Y-82042000D01*
X154001044Y-81885238D01*
X153940536Y-81739159D01*
X153844282Y-81613718D01*
X153718841Y-81517464D01*
X153572762Y-81456956D01*
X153416000Y-81436318D01*
X153259238Y-81456956D01*
X153113159Y-81517464D01*
X152987718Y-81613718D01*
X152891464Y-81739159D01*
X152830956Y-81885238D01*
X152810318Y-82042000D01*
X135926767Y-82042000D01*
X135967044Y-81944762D01*
X135987682Y-81788000D01*
X135967044Y-81631238D01*
X135906536Y-81485159D01*
X135885122Y-81457251D01*
X135810750Y-81360328D01*
X135810282Y-81359718D01*
X135684841Y-81263464D01*
X135538762Y-81202956D01*
X135382000Y-81182318D01*
X135225238Y-81202956D01*
X135079159Y-81263464D01*
X134953718Y-81359718D01*
X134953250Y-81360328D01*
X134878879Y-81457251D01*
X134857464Y-81485159D01*
X134796956Y-81631238D01*
X134776318Y-81788000D01*
X121509682Y-81788000D01*
X121489044Y-81631238D01*
X121428536Y-81485159D01*
X121407122Y-81457251D01*
X121332750Y-81360328D01*
X121332282Y-81359718D01*
X121206841Y-81263464D01*
X121060762Y-81202956D01*
X120904000Y-81182318D01*
X120747238Y-81202956D01*
X120601159Y-81263464D01*
X120475718Y-81359718D01*
X120475250Y-81360328D01*
X120400879Y-81457251D01*
X120379464Y-81485159D01*
X120318956Y-81631238D01*
X120298318Y-81788000D01*
X101031528Y-81788000D01*
X102797982Y-78740000D01*
X127156318Y-78740000D01*
X127176956Y-78896762D01*
X127237464Y-79042841D01*
X127333718Y-79168282D01*
X127459159Y-79264536D01*
X127605238Y-79325044D01*
X127762000Y-79345682D01*
X127918762Y-79325044D01*
X128064841Y-79264536D01*
X128190282Y-79168282D01*
X128286536Y-79042841D01*
X128306767Y-78994000D01*
X134776318Y-78994000D01*
X134796956Y-79150762D01*
X134857464Y-79296841D01*
X134857935Y-79297454D01*
X134857935Y-79297455D01*
X134879105Y-79325044D01*
X134953718Y-79422282D01*
X135079159Y-79518536D01*
X135225238Y-79579044D01*
X135382000Y-79599682D01*
X135538762Y-79579044D01*
X135684841Y-79518536D01*
X135810282Y-79422282D01*
X135884895Y-79325044D01*
X135906065Y-79297455D01*
X135906065Y-79297454D01*
X135906536Y-79296841D01*
X135967044Y-79150762D01*
X135987682Y-78994000D01*
X135967044Y-78837238D01*
X135906536Y-78691159D01*
X135810282Y-78565718D01*
X135684841Y-78469464D01*
X135538762Y-78408956D01*
X135382000Y-78388318D01*
X135225238Y-78408956D01*
X135079159Y-78469464D01*
X134953718Y-78565718D01*
X134857464Y-78691159D01*
X134796956Y-78837238D01*
X134776318Y-78994000D01*
X128306767Y-78994000D01*
X128347044Y-78896762D01*
X128367682Y-78740000D01*
X128347044Y-78583238D01*
X128286536Y-78437159D01*
X128265122Y-78409251D01*
X128196637Y-78320000D01*
X148218318Y-78320000D01*
X148238956Y-78476762D01*
X148299464Y-78622841D01*
X148395718Y-78748282D01*
X148521159Y-78844536D01*
X148667238Y-78905044D01*
X148824000Y-78925682D01*
X148980762Y-78905044D01*
X149126841Y-78844536D01*
X149252282Y-78748282D01*
X149348536Y-78622841D01*
X149409044Y-78476762D01*
X149429682Y-78320000D01*
X149409044Y-78163238D01*
X149348536Y-78017159D01*
X149252282Y-77891718D01*
X149126841Y-77795464D01*
X148980762Y-77734956D01*
X148824000Y-77714318D01*
X148667238Y-77734956D01*
X148521159Y-77795464D01*
X148395718Y-77891718D01*
X148299464Y-78017159D01*
X148238956Y-78163238D01*
X148218318Y-78320000D01*
X128196637Y-78320000D01*
X128190750Y-78312328D01*
X128190282Y-78311718D01*
X128064841Y-78215464D01*
X127918762Y-78154956D01*
X127762000Y-78134318D01*
X127605238Y-78154956D01*
X127459159Y-78215464D01*
X127333718Y-78311718D01*
X127333250Y-78312328D01*
X127258879Y-78409251D01*
X127237464Y-78437159D01*
X127176956Y-78583238D01*
X127156318Y-78740000D01*
X102797982Y-78740000D01*
X104016187Y-76638000D01*
X133690318Y-76638000D01*
X133710956Y-76794762D01*
X133771464Y-76940841D01*
X133867718Y-77066282D01*
X133868328Y-77066750D01*
X133973671Y-77147582D01*
X133993159Y-77162536D01*
X134139238Y-77223044D01*
X134296000Y-77243682D01*
X134452762Y-77223044D01*
X134598841Y-77162536D01*
X134618330Y-77147582D01*
X134723672Y-77066750D01*
X134724282Y-77066282D01*
X134820536Y-76940841D01*
X134881044Y-76794762D01*
X134901682Y-76638000D01*
X134881044Y-76481238D01*
X134869762Y-76454000D01*
X135030318Y-76454000D01*
X135050956Y-76610762D01*
X135111464Y-76756841D01*
X135207718Y-76882282D01*
X135333159Y-76978536D01*
X135479238Y-77039044D01*
X135636000Y-77059682D01*
X135792762Y-77039044D01*
X135938841Y-76978536D01*
X136064282Y-76882282D01*
X136160536Y-76756841D01*
X136221044Y-76610762D01*
X136241682Y-76454000D01*
X136300318Y-76454000D01*
X136320956Y-76610762D01*
X136381464Y-76756841D01*
X136477718Y-76882282D01*
X136603159Y-76978536D01*
X136749238Y-77039044D01*
X136906000Y-77059682D01*
X137062762Y-77039044D01*
X137208841Y-76978536D01*
X137334282Y-76882282D01*
X137430536Y-76756841D01*
X137491044Y-76610762D01*
X137500097Y-76542000D01*
X148218318Y-76542000D01*
X148238956Y-76698762D01*
X148299464Y-76844841D01*
X148299935Y-76845454D01*
X148299935Y-76845455D01*
X148363652Y-76928493D01*
X148395718Y-76970282D01*
X148521159Y-77066536D01*
X148667238Y-77127044D01*
X148824000Y-77147682D01*
X148980762Y-77127044D01*
X149126841Y-77066536D01*
X149252282Y-76970282D01*
X149284348Y-76928493D01*
X149348065Y-76845455D01*
X149348065Y-76845454D01*
X149348536Y-76844841D01*
X149409044Y-76698762D01*
X149429682Y-76542000D01*
X149409044Y-76385238D01*
X149348536Y-76239159D01*
X149252282Y-76113718D01*
X149172965Y-76052856D01*
X149127455Y-76017935D01*
X149127454Y-76017935D01*
X149126841Y-76017464D01*
X148980762Y-75956956D01*
X148824000Y-75936318D01*
X148667238Y-75956956D01*
X148521159Y-76017464D01*
X148520546Y-76017935D01*
X148520545Y-76017935D01*
X148475035Y-76052856D01*
X148395718Y-76113718D01*
X148299464Y-76239159D01*
X148238956Y-76385238D01*
X148218318Y-76542000D01*
X137500097Y-76542000D01*
X137511682Y-76454000D01*
X137491044Y-76297238D01*
X137430536Y-76151159D01*
X137401448Y-76113250D01*
X137334750Y-76026328D01*
X137334282Y-76025718D01*
X137292493Y-75993652D01*
X137209455Y-75929935D01*
X137209454Y-75929935D01*
X137208841Y-75929464D01*
X137062762Y-75868956D01*
X136906000Y-75848318D01*
X136749238Y-75868956D01*
X136603159Y-75929464D01*
X136602546Y-75929935D01*
X136602545Y-75929935D01*
X136519507Y-75993652D01*
X136477718Y-76025718D01*
X136477250Y-76026328D01*
X136410553Y-76113250D01*
X136381464Y-76151159D01*
X136320956Y-76297238D01*
X136300318Y-76454000D01*
X136241682Y-76454000D01*
X136221044Y-76297238D01*
X136160536Y-76151159D01*
X136131448Y-76113250D01*
X136064750Y-76026328D01*
X136064282Y-76025718D01*
X136022493Y-75993652D01*
X135939455Y-75929935D01*
X135939454Y-75929935D01*
X135938841Y-75929464D01*
X135792762Y-75868956D01*
X135636000Y-75848318D01*
X135479238Y-75868956D01*
X135333159Y-75929464D01*
X135332546Y-75929935D01*
X135332545Y-75929935D01*
X135249507Y-75993652D01*
X135207718Y-76025718D01*
X135207250Y-76026328D01*
X135140553Y-76113250D01*
X135111464Y-76151159D01*
X135050956Y-76297238D01*
X135030318Y-76454000D01*
X134869762Y-76454000D01*
X134820536Y-76335159D01*
X134724282Y-76209718D01*
X134598841Y-76113464D01*
X134452762Y-76052956D01*
X134296000Y-76032318D01*
X134139238Y-76052956D01*
X133993159Y-76113464D01*
X133867718Y-76209718D01*
X133771464Y-76335159D01*
X133710956Y-76481238D01*
X133690318Y-76638000D01*
X104016187Y-76638000D01*
X105689721Y-73750333D01*
X105696834Y-73744894D01*
X105699844Y-73744500D01*
X127700300Y-73744500D01*
X127708573Y-73747927D01*
G37*
%TD.AperFunction*%
%TD*%
M02*
